<svg xmlns="http://www.w3.org/2000/svg" xmlns:xlink="http://www.w3.org/1999/xlink" contentStyleType="text/css" height="948px" preserveAspectRatio="none" style="width:830px;height:948px;background:#FFFFFF;" version="1.1" viewBox="0 0 830 948" width="830px" zoomAndPan="magnify"><defs/><g><!--cluster ???????--><g id="cluster_&#1057;&#1080;&#1089;&#1090;&#1077;&#1084;&#1072;"><rect fill="#FFFFFF" height="708" rx="2.5" ry="2.5" style="stroke:#000000;stroke-width:1.0;" width="637" x="187" y="12"/><text fill="#000000" font-family="Hack" font-size="14" font-weight="bold" lengthAdjust="spacing" textLength="62.4818" x="474.2591" y="28.9659">&#1057;&#1080;&#1089;&#1090;&#1077;&#1084;&#1072;</text></g><g id="elem_do_search"><ellipse cx="318.9579" cy="383.7916" fill="#FFFFFF" rx="79.4579" ry="18.2916" style="stroke:#000000;stroke-width:1.0;"/><text fill="#000000" font-family="Hack" font-size="14" lengthAdjust="spacing" textLength="101.9056" x="265.0051" y="388.5245">&#1048;&#1089;&#1082;&#1072;&#1090;&#1100; &#1090;&#1086;&#1074;&#1072;&#1088;&#1099;</text></g><g id="elem_do_order"><ellipse cx="689.4918" cy="171.0984" fill="#FFFFFF" rx="83.4918" ry="19.0984" style="stroke:#000000;stroke-width:1.0;"/><text fill="#000000" font-family="Hack" font-size="14" lengthAdjust="spacing" textLength="113.0636" x="629.9601" y="175.8313">&#1054;&#1092;&#1086;&#1088;&#1084;&#1080;&#1090;&#1100; &#1079;&#1072;&#1082;&#1072;&#1079;</text></g><g id="elem_do_select_cuirer"><ellipse cx="318.9737" cy="538.1947" fill="#FFFFFF" rx="91.4737" ry="20.6947" style="stroke:#000000;stroke-width:1.0;"/><text fill="#000000" font-family="Hack" font-size="14" lengthAdjust="spacing" textLength="133.8955" x="249.0259" y="542.9277">&#1053;&#1072;&#1079;&#1085;&#1072;&#1095;&#1080;&#1090;&#1100; &#1082;&#1091;&#1088;&#1100;&#1077;&#1088;&#1072;</text></g><g id="elem_do_update_counts"><ellipse cx="318.8614" cy="617.9723" fill="#FFFFFF" rx="110.3614" ry="24.4723" style="stroke:#000000;stroke-width:1.0;"/><text fill="#000000" font-family="Hack" font-size="14" lengthAdjust="spacing" textLength="179.3813" x="226.1707" y="622.7052">&#1054;&#1073;&#1085;&#1086;&#1074;&#1080;&#1090;&#1100; &#1086;&#1073;&#1098;&#1105;&#1084;&#1099; &#1090;&#1086;&#1074;&#1072;&#1088;&#1072;</text></g><g id="elem_do_state"><ellipse cx="319.0417" cy="459.8083" fill="#FFFFFF" rx="99.5417" ry="22.3083" style="stroke:#000000;stroke-width:1.0;"/><text fill="#000000" font-family="Hack" font-size="14" lengthAdjust="spacing" textLength="153.8174" x="239.133" y="464.5413">&#1057;&#1084;&#1077;&#1085;&#1080;&#1090;&#1100; &#1089;&#1090;&#1072;&#1090;&#1091;&#1089; &#1079;&#1072;&#1082;&#1072;&#1079;&#1072;</text></g><g id="elem_do_basket"><ellipse cx="319.0172" cy="219.1034" fill="#FFFFFF" rx="116.0172" ry="25.6034" style="stroke:#000000;stroke-width:1.0;"/><text fill="#000000" font-family="Hack" font-size="14" lengthAdjust="spacing" textLength="192.3733" x="219.8306" y="223.8364">&#1044;&#1086;&#1073;&#1072;&#1074;&#1080;&#1090;&#1100; &#1090;&#1086;&#1074;&#1072;&#1088;&#1099; &#1074; &#1082;&#1086;&#1088;&#1079;&#1080;&#1085;&#1091;</text></g><g id="elem_do_components"><ellipse cx="318.9926" cy="305.0985" fill="#FFFFFF" rx="115.9926" ry="25.5985" style="stroke:#000000;stroke-width:1.0;"/><text fill="#000000" font-family="Hack" font-size="14" lengthAdjust="spacing" textLength="192.3172" x="219.834" y="309.8315">&#1055;&#1086;&#1076;&#1086;&#1073;&#1088;&#1072;&#1090;&#1100; &#1082;&#1086;&#1084;&#1087;&#1083;&#1077;&#1082;&#1090;&#1091;&#1102;&#1097;&#1080;&#1077;</text></g><g id="elem_do_pay"><ellipse cx="689.3286" cy="73.7657" fill="#FFFFFF" rx="106.8286" ry="23.7657" style="stroke:#000000;stroke-width:1.0;"/><text fill="#000000" font-family="Hack" font-size="14" lengthAdjust="spacing" textLength="171.1493" x="600.7539" y="78.4987">&#1055;&#1088;&#1086;&#1074;&#1077;&#1089;&#1090;&#1080; &#1086;&#1085;&#1083;&#1072;&#1081;&#1085; &#1086;&#1087;&#1083;&#1072;&#1090;&#1091;</text></g><g id="elem_do_state_registered"><ellipse cx="689.6779" cy="335.1356" fill="#FFFFFF" rx="113.6779" ry="25.1356" style="stroke:#000000;stroke-width:1.0;"/><text fill="#000000" font-family="Hack" font-size="14" lengthAdjust="spacing" textLength="187.0253" x="593.1652" y="339.8685">&#1054;&#1090;&#1084;&#1077;&#1090;&#1080;&#1090;&#1100; &#1079;&#1072;&#1082;&#1072;&#1079; "&#1054;&#1092;&#1086;&#1084;&#1083;&#1077;&#1085;"</text></g><g id="elem_do_state_prushcased"><ellipse cx="689.4851" cy="249.797" fill="#FFFFFF" rx="111.9851" ry="24.797" style="stroke:#000000;stroke-width:1.0;"/><text fill="#000000" font-family="Hack" font-size="14" lengthAdjust="spacing" textLength="183.1333" x="594.9185" y="254.53">&#1054;&#1090;&#1084;&#1077;&#1090;&#1080;&#1090;&#1100; &#1079;&#1072;&#1082;&#1072;&#1079; "&#1054;&#1087;&#1083;&#1072;&#1095;&#1077;&#1085;"</text></g><g id="elem_do_state_chained"><ellipse cx="689.4905" cy="421.1981" fill="#FFFFFF" rx="116.4905" ry="25.6981" style="stroke:#000000;stroke-width:1.0;"/><text fill="#000000" font-family="Hack" font-size="14" lengthAdjust="spacing" textLength="193.4512" x="589.7649" y="425.9311">&#1054;&#1090;&#1084;&#1077;&#1090;&#1080;&#1090;&#1100; &#1079;&#1072;&#1082;&#1072;&#1079; "&#1042; &#1086;&#1095;&#1077;&#1088;&#1077;&#1076;&#1080;"</text></g><g id="elem_do_state_built"><ellipse cx="689.7078" cy="505.9416" fill="#FFFFFF" rx="107.7078" ry="23.9416" style="stroke:#000000;stroke-width:1.0;"/><text fill="#000000" font-family="Hack" font-size="14" lengthAdjust="spacing" textLength="173.2073" x="600.1041" y="510.6745">&#1054;&#1090;&#1084;&#1077;&#1090;&#1080;&#1090;&#1100; &#1079;&#1072;&#1082;&#1072;&#1079; "&#1057;&#1086;&#1073;&#1088;&#1072;&#1085;"</text></g><g id="elem_do_state_sent"><ellipse cx="689.4472" cy="591.0894" fill="#FFFFFF" rx="118.4472" ry="26.0894" style="stroke:#000000;stroke-width:1.0;"/><text fill="#000000" font-family="Hack" font-size="14" lengthAdjust="spacing" textLength="197.8892" x="587.8138" y="595.7053">&#1054;&#1090;&#1084;&#1077;&#1090;&#1080;&#1090;&#1100; &#1079;&#1072;&#1082;&#1072;&#1079; "&#1054;&#1090;&#1087;&#1088;&#1072;&#1074;&#1083;&#1077;&#1085;"</text></g><g id="elem_do_state_completed"><ellipse cx="689.3552" cy="678.171" fill="#FFFFFF" rx="116.3552" ry="25.671" style="stroke:#000000;stroke-width:1.0;"/><text fill="#000000" font-family="Hack" font-size="14" lengthAdjust="spacing" textLength="193.1432" x="589.7836" y="682.904">&#1054;&#1090;&#1084;&#1077;&#1090;&#1080;&#1090;&#1100; &#1079;&#1072;&#1082;&#1072;&#1079; "&#1042;&#1099;&#1087;&#1086;&#1083;&#1085;&#1077;&#1085;"</text></g><!--entity client--><g id="elem_client"><ellipse cx="75.6119" cy="231" fill="#FFFFFF" rx="8" ry="8" style="stroke:#000000;stroke-width:1.0;"/><path d="M75.6119,239 L75.6119,266 M62.6119,247 L88.6119,247 M75.6119,266 L62.6119,281 M75.6119,266 L88.6119,281 " fill="none" style="stroke:#000000;stroke-width:1.0;"/><text fill="#000000" font-family="Hack" font-size="14" lengthAdjust="spacing" textLength="49.2238" x="51" y="297.9659">&#1050;&#1083;&#1080;&#1077;&#1085;&#1090;</text></g><!--entity storage--><g id="elem_storage"><ellipse cx="75.5397" cy="587" fill="#FFFFFF" rx="8" ry="8" style="stroke:#000000;stroke-width:1.0;"/><path d="M75.5397,595 L75.5397,622 M62.5397,603 L88.5397,603 M75.5397,622 L62.5397,637 M75.5397,622 L88.5397,637 " fill="none" style="stroke:#000000;stroke-width:1.0;"/><text fill="#000000" font-family="Hack" font-size="14" lengthAdjust="spacing" textLength="129.0795" x="11" y="653.9659">&#1057;&#1082;&#1083;&#1072;&#1076;&#1089;&#1082;&#1072;&#1103; &#1089;&#1080;&#1089;&#1090;&#1077;&#1084;&#1072;</text></g><!--entity cuirer--><g id="elem_cuirer"><ellipse cx="319.1119" cy="758" fill="#FFFFFF" rx="8" ry="8" style="stroke:#000000;stroke-width:1.0;"/><path d="M319.1119,766 L319.1119,793 M306.1119,774 L332.1119,774 M319.1119,793 L306.1119,808 M319.1119,793 L332.1119,808 " fill="none" style="stroke:#000000;stroke-width:1.0;"/><text fill="#000000" font-family="Hack" font-size="14" lengthAdjust="spacing" textLength="49.2238" x="294.5" y="824.9659">&#1050;&#1091;&#1088;&#1100;&#1077;&#1088;</text></g><!--entity salesman--><g id="elem_salesman"><ellipse cx="318.8288" cy="873" fill="#FFFFFF" rx="8" ry="8" style="stroke:#000000;stroke-width:1.0;"/><path d="M318.8288,881 L318.8288,908 M305.8288,889 L331.8288,889 M318.8288,908 L305.8288,923 M318.8288,908 L331.8288,923 " fill="none" style="stroke:#000000;stroke-width:1.0;"/><text fill="#000000" font-family="Hack" font-size="14" lengthAdjust="spacing" textLength="133.6575" x="252" y="939.9659">&#1056;&#1072;&#1073;&#1086;&#1090;&#1085;&#1080;&#1082; &#1084;&#1072;&#1075;&#1072;&#1079;&#1080;&#1085;&#1072;</text></g><!--link client to do_search--><g id="link_client_do_search"><path d="M100.31,287.39 C119.75,306.68 148.85,332.47 179,348 C201.94,359.82 229.05,367.96 253.21,373.48 " fill="none" id="client-do_search" style="stroke:#000000;stroke-width:1.0;"/></g><!--link client to do_order--><g id="link_client_do_order"><path d="M100.17,233.68 C119.11,213.36 147.62,187.59 179,176 C331.47,119.66 527.55,141.62 626.09,158.51 " fill="none" id="client-do_order" style="stroke:#000000;stroke-width:1.0;"/></g><!--link client to do_basket--><g id="link_client_do_basket"><path d="M100.1,257.8 C129.71,252.53 182.2,243.18 228.25,234.98 " fill="none" id="client-do_basket" style="stroke:#000000;stroke-width:1.0;"/></g><!--link client to do_components--><g id="link_client_do_components"><path d="M100.1,266.2 C129.71,271.47 182.2,280.82 228.25,289.02 " fill="none" id="client-do_components" style="stroke:#000000;stroke-width:1.0;"/></g><!--link storage to do_select_cuirer--><g id="link_storage_do_select_cuirer"><path d="M140.02,590.57 C152.82,585.44 166.26,580.34 179,576 C204.11,567.46 232.25,559.48 256.62,553.05 " fill="none" id="storage-do_select_cuirer" style="stroke:#000000;stroke-width:1.0;"/></g><!--link storage to do_update_counts--><g id="link_storage_do_update_counts"><path d="M140.27,618 C161.09,618 184.84,618 208.06,618 " fill="none" id="storage-do_update_counts" style="stroke:#000000;stroke-width:1.0;"/></g><!--link storage to do_state_built--><g id="link_storage_do_state_built"><path d="M140.11,648.49 C152.73,653.26 166.07,657.45 179,660 C290.63,681.98 327.99,698.66 435,660 C508.91,633.3 502.59,585.67 571,547 C586.7,538.12 604.67,530.67 621.74,524.67 " fill="none" id="storage-do_state_built" style="stroke:#000000;stroke-width:1.0;"/></g><!--link cuirer to do_state_sent--><g id="link_cuirer_do_state_sent"><path d="M343.79,788.56 C388.46,786.44 485.41,775.53 541,722 C570.46,693.63 542.46,664.3 571,635 C581.41,624.31 594.66,616.19 608.49,610.03 " fill="none" id="cuirer-do_state_sent" style="stroke:#000000;stroke-width:1.0;"/></g><!--link salesman to do_state_completed--><g id="link_salesman_do_state_completed"><path d="M386.14,873.02 C402.34,864.94 419.47,855.98 435,847 C516.51,799.88 607.23,736.58 654.94,702.38 " fill="none" id="salesman-do_state_completed" style="stroke:#000000;stroke-width:1.0;"/></g><!--link do_order to do_state_registered--><g id="link_do_order_do_state_registered"><path d="M631.27,184.74 C557.44,204.82 445.06,245.93 492,301.5 C513.71,327.21 541.2589,337.5878 574.5489,341.3978 " fill="none" id="do_order-to-do_state_registered" style="stroke:#000000;stroke-width:1.0;stroke-dasharray:7.0,7.0;"/><polygon fill="#000000" points="580.51,342.08,572.0232,337.0826,575.5424,341.5115,571.1135,345.0307,580.51,342.08" style="stroke:#000000;stroke-width:1.0;"/><text fill="#000000" font-family="Hack" font-size="13" lengthAdjust="spacing" textLength="74.763" x="466" y="297.397">&#171;&#1074;&#1082;&#1083;&#1102;&#1095;&#1072;&#1077;&#1090;&#187;</text></g><!--reverse link do_order to do_pay--><g id="link_do_order_do_pay"><path d="M689.5,145.84 C689.5,130.49 689.5,114.86 689.5,98.3 " fill="none" id="do_order-backto-do_pay" style="stroke:#000000;stroke-width:1.0;stroke-dasharray:7.0,7.0;"/><polygon fill="#000000" points="689.5,151.84,693.5,142.84,689.5,146.84,685.5,142.84,689.5,151.84" style="stroke:#000000;stroke-width:1.0;"/><text fill="#000000" font-family="Hack" font-size="13" lengthAdjust="spacing" textLength="83.5771" x="635.5" y="130.397">&#171;&#1088;&#1072;&#1089;&#1096;&#1080;&#1088;&#1103;&#1077;&#1090;&#187;</text></g><!--link do_pay to do_state_prushcased--><g id="link_do_pay_do_state_prushcased"><path d="M600.77,60.53 C561.64,59.92 518.6,67.55 492,97.5 C442.45,153.29 543.3345,201.0462 618.3545,227.6262 " fill="none" id="do_pay-to-do_state_prushcased" style="stroke:#000000;stroke-width:1.0;stroke-dasharray:7.0,7.0;"/><polygon fill="#000000" points="624.01,229.63,616.8626,222.854,619.2971,227.9602,614.1909,230.3947,624.01,229.63" style="stroke:#000000;stroke-width:1.0;"/><text fill="#000000" font-family="Hack" font-size="13" lengthAdjust="spacing" textLength="74.763" x="466" y="112.397">&#171;&#1074;&#1082;&#1083;&#1102;&#1095;&#1072;&#1077;&#1090;&#187;</text></g><!--link do_state_completed to do_state_prushcased--><g id="link_do_state_completed_do_state_prushcased"><path d="M612.02,658.9 C597.23,652.7 582.73,644.59 571,634 C511.99,580.72 510.02,550.94 492,473.5 C474.21,397.09 510.89,345.73 571,292 C582.55,281.67 591.2508,276.0972 605.8308,270.1772 " fill="none" id="do_state_completed-to-do_state_prushcased" style="stroke:#000000;stroke-width:1.0;stroke-dasharray:7.0,7.0;"/><polygon fill="#000000" points="611.39,267.92,601.5464,267.5997,606.7573,269.801,604.556,275.012,611.39,267.92" style="stroke:#000000;stroke-width:1.0;"/><text fill="#000000" font-family="Hack" font-size="13" lengthAdjust="spacing" textLength="74.763" x="466" y="469.397">&#171;&#1074;&#1082;&#1083;&#1102;&#1095;&#1072;&#1077;&#1090;&#187;</text></g><!--reverse link do_state to do_state_registered--><g id="link_do_state_do_state_registered"><path d="M392.2155,435.5063 C459.6755,412.6163 556.49,379.78 626.8,355.93 " fill="none" id="do_state-backto-do_state_registered" style="stroke:#000000;stroke-width:1.0;"/><polygon fill="none" points="375.17,441.29,394.1434,441.1881,390.2876,429.8244,375.17,441.29" style="stroke:#000000;stroke-width:1.0;"/></g><!--reverse link do_state to do_state_prushcased--><g id="link_do_state_do_state_prushcased"><path d="M413.0919,439.0835 C427.6119,433.2235 424.76,431.69 435,420 C478.65,370.17 415.97,318.55 465,274 C499.59,242.57 550.72,235.3 595.35,236.45 " fill="none" id="do_state-backto-do_state_prushcased" style="stroke:#000000;stroke-width:1.0;"/><polygon fill="none" points="396.4,445.82,415.3374,444.6474,410.8464,433.5195,396.4,445.82" style="stroke:#000000;stroke-width:1.0;"/></g><!--reverse link do_state to do_state_chained--><g id="link_do_state_do_state_chained"><path d="M427.5701,448.6158 C480.3001,443.0358 529.31,437.85 584.36,432.02 " fill="none" id="do_state-backto-do_state_chained" style="stroke:#000000;stroke-width:1.0;"/><polygon fill="none" points="409.67,450.51,428.2015,454.5825,426.9386,442.6491,409.67,450.51" style="stroke:#000000;stroke-width:1.0;"/></g><!--reverse link do_state to do_state_built--><g id="link_do_state_do_state_built"><path d="M420.1856,474.97 C440.6356,477.92 444.69,478.39 465,481 C506.53,486.33 552.5,491.58 591.88,495.88 " fill="none" id="do_state-backto-do_state_built" style="stroke:#000000;stroke-width:1.0;"/><polygon fill="none" points="402.37,472.4,419.3289,480.9085,421.0422,469.0314,402.37,472.4" style="stroke:#000000;stroke-width:1.0;"/></g><!--reverse link do_state to do_state_sent--><g id="link_do_state_do_state_sent"><path d="M391.4421,484.7199 C410.6021,491.3799 415.27,493.03 435,500 C500.8,523.25 576.04,550.32 627.35,568.86 " fill="none" id="do_state-backto-do_state_sent" style="stroke:#000000;stroke-width:1.0;"/><polygon fill="none" points="374.44,478.81,389.4722,490.3873,393.4121,479.0525,374.44,478.81" style="stroke:#000000;stroke-width:1.0;"/></g><!--reverse link do_state to do_state_completed--><g id="link_do_state_do_state_completed"><path d="M406.3569,482.0997 C422.3669,487.9197 421.68,489.58 435,500 C454.22,515.04 448.76,527.78 465,546 C505.74,591.71 518.03,603.28 571,634 C586.55,643.02 604.27,650.79 621.16,657.19 " fill="none" id="do_state-backto-do_state_completed" style="stroke:#000000;stroke-width:1.0;"/><polygon fill="none" points="389.44,475.95,404.307,487.7386,408.4068,476.4607,389.44,475.95" style="stroke:#000000;stroke-width:1.0;"/></g><!--SRC=[dLHTRjf047xVKsnvQX-I0rI8go37RC2giP6zF4Hj90ELQ4lKg5KVgahzuGQ4nWgbCRd2peqwizwDrmHBg4X8jcVcc-_xTcQVoO4O2ZwCevWn5efpoMNCaw0_aBmN9CANGHmnrbBVr5-rKRagODhYNihzC12HfCXIRJ6sKhSmmQSLN7DysC04ffX-hrOwFPLnulK50S4CChXIEMGbq1ZR91ZuXHWtQeTb1NRQSgfLl_5_Xw-5nV52aGuzf4JSlAWV2euCd7RyDUFuUww-6ZvJkE8OtAarlcImU44ulRYR2Y_n1oRv1xp5rXa2R7G1DbrHjRgpwN7IGvfbzdVD2Zd1tEPlArbgLRK8aMNNI3ITK6IXsPZAdRg13_19tSF2uLc1Z4SzJugk7uyZcHgG9HBDoQTI7OadeJEOECmT7X8HJEaNQeXXsz-rXgirAj56QDDXPX7ElFILa0RY9rRSQjwPyPUAaD833aAELX2JZ_2U1iO2-F5m54U295WKhAREkQQ_8ICAFKX_L44l1AP5MOYHTy7PutbDoG8gt3iltYeF4yD4fcZLJEWceX-aKYIYTnIIOJ4_W3HAnkd0zzBZa3wZ9891qJcQjza3ymTU41s7jBJEFs5qDWv2UPn1K_MW8TO7JKffjOyH1GiqQ8SOnG4KEl9GI5HroLXvN_2J4sVrQj_A_QfzCaDN- -REaRbK7a7TPQl7wZkqL-TunyhgMaIRmUp5KmjL2fbLm4yxXuRj9M-tqMoyAN4nvcWVEjhfL5NjKpFXbAZNQWBlqF8ChgjKMW0Nlfh01dZsbEb_0l3s6rUuiqKD6SvsD6JOaMy8bmVI4DHdqeHR7Se_]--></g></svg>