<svg xmlns="http://www.w3.org/2000/svg" xmlns:xlink="http://www.w3.org/1999/xlink" contentStyleType="text/css" height="948px" preserveAspectRatio="none" style="width:868px;height:948px;background:#FFFFFF;" version="1.1" viewBox="0 0 868 948" width="868px" zoomAndPan="magnify"><defs/><g><!--cluster ???????--><g id="cluster_&#1057;&#1080;&#1089;&#1090;&#1077;&#1084;&#1072;"><rect fill="#FFFFFF" height="708" rx="2.5" ry="2.5" style="stroke:#000000;stroke-width:1.0;" width="637" x="225" y="12"/><text fill="#000000" font-family="Hack" font-size="14" font-weight="bold" lengthAdjust="spacing" textLength="62.4818" x="512.2591" y="28.9659">&#1057;&#1080;&#1089;&#1090;&#1077;&#1084;&#1072;</text></g><g id="elem_do_search"><ellipse cx="356.9579" cy="383.7916" fill="#FFFFFF" rx="79.4579" ry="18.2916" style="stroke:#000000;stroke-width:1.0;"/><text fill="#000000" font-family="Hack" font-size="14" lengthAdjust="spacing" textLength="101.9056" x="303.0051" y="388.5245">&#1048;&#1089;&#1082;&#1072;&#1090;&#1100; &#1090;&#1086;&#1074;&#1072;&#1088;&#1099;</text></g><g id="elem_do_order"><ellipse cx="727.4918" cy="171.0984" fill="#FFFFFF" rx="83.4918" ry="19.0984" style="stroke:#000000;stroke-width:1.0;"/><text fill="#000000" font-family="Hack" font-size="14" lengthAdjust="spacing" textLength="113.0636" x="667.9601" y="175.8313">&#1054;&#1092;&#1086;&#1088;&#1084;&#1080;&#1090;&#1100; &#1079;&#1072;&#1082;&#1072;&#1079;</text></g><g id="elem_do_select_cuirer"><ellipse cx="356.9737" cy="538.1947" fill="#FFFFFF" rx="91.4737" ry="20.6947" style="stroke:#000000;stroke-width:1.0;"/><text fill="#000000" font-family="Hack" font-size="14" lengthAdjust="spacing" textLength="133.8955" x="287.0259" y="542.9277">&#1053;&#1072;&#1079;&#1085;&#1072;&#1095;&#1080;&#1090;&#1100; &#1082;&#1091;&#1088;&#1100;&#1077;&#1088;&#1072;</text></g><g id="elem_do_update_counts"><ellipse cx="356.8614" cy="617.9723" fill="#FFFFFF" rx="110.3614" ry="24.4723" style="stroke:#000000;stroke-width:1.0;"/><text fill="#000000" font-family="Hack" font-size="14" lengthAdjust="spacing" textLength="179.3813" x="264.1707" y="622.7052">&#1054;&#1073;&#1085;&#1086;&#1074;&#1080;&#1090;&#1100; &#1086;&#1073;&#1098;&#1105;&#1084;&#1099; &#1090;&#1086;&#1074;&#1072;&#1088;&#1072;</text></g><g id="elem_do_state"><ellipse cx="357.0417" cy="459.8083" fill="#FFFFFF" rx="99.5417" ry="22.3083" style="stroke:#000000;stroke-width:1.0;"/><text fill="#000000" font-family="Hack" font-size="14" lengthAdjust="spacing" textLength="153.8174" x="277.133" y="464.5413">&#1057;&#1084;&#1077;&#1085;&#1080;&#1090;&#1100; &#1089;&#1090;&#1072;&#1090;&#1091;&#1089; &#1079;&#1072;&#1082;&#1072;&#1079;&#1072;</text></g><g id="elem_do_basket"><ellipse cx="357.0172" cy="219.1034" fill="#FFFFFF" rx="116.0172" ry="25.6034" style="stroke:#000000;stroke-width:1.0;"/><text fill="#000000" font-family="Hack" font-size="14" lengthAdjust="spacing" textLength="192.3733" x="257.8306" y="223.8364">&#1044;&#1086;&#1073;&#1072;&#1074;&#1080;&#1090;&#1100; &#1090;&#1086;&#1074;&#1072;&#1088;&#1099; &#1074; &#1082;&#1086;&#1088;&#1079;&#1080;&#1085;&#1091;</text></g><g id="elem_do_components"><ellipse cx="356.9926" cy="305.0985" fill="#FFFFFF" rx="115.9926" ry="25.5985" style="stroke:#000000;stroke-width:1.0;"/><text fill="#000000" font-family="Hack" font-size="14" lengthAdjust="spacing" textLength="192.3172" x="257.834" y="309.8315">&#1055;&#1086;&#1076;&#1086;&#1073;&#1088;&#1072;&#1090;&#1100; &#1082;&#1086;&#1084;&#1087;&#1083;&#1077;&#1082;&#1090;&#1091;&#1102;&#1097;&#1080;&#1077;</text></g><g id="elem_do_pay"><ellipse cx="727.3286" cy="73.7657" fill="#FFFFFF" rx="106.8286" ry="23.7657" style="stroke:#000000;stroke-width:1.0;"/><text fill="#000000" font-family="Hack" font-size="14" lengthAdjust="spacing" textLength="171.1493" x="638.7539" y="78.4987">&#1055;&#1088;&#1086;&#1074;&#1077;&#1089;&#1090;&#1080; &#1086;&#1085;&#1083;&#1072;&#1081;&#1085; &#1086;&#1087;&#1083;&#1072;&#1090;&#1091;</text></g><g id="elem_do_state_registered"><ellipse cx="727.6779" cy="335.1356" fill="#FFFFFF" rx="113.6779" ry="25.1356" style="stroke:#000000;stroke-width:1.0;"/><text fill="#000000" font-family="Hack" font-size="14" lengthAdjust="spacing" textLength="187.0253" x="631.1652" y="339.8685">&#1054;&#1090;&#1084;&#1077;&#1090;&#1080;&#1090;&#1100; &#1079;&#1072;&#1082;&#1072;&#1079; "&#1054;&#1092;&#1086;&#1084;&#1083;&#1077;&#1085;"</text></g><g id="elem_do_state_prushcased"><ellipse cx="727.4851" cy="249.797" fill="#FFFFFF" rx="111.9851" ry="24.797" style="stroke:#000000;stroke-width:1.0;"/><text fill="#000000" font-family="Hack" font-size="14" lengthAdjust="spacing" textLength="183.1333" x="632.9185" y="254.53">&#1054;&#1090;&#1084;&#1077;&#1090;&#1080;&#1090;&#1100; &#1079;&#1072;&#1082;&#1072;&#1079; "&#1054;&#1087;&#1083;&#1072;&#1095;&#1077;&#1085;"</text></g><g id="elem_do_state_chained"><ellipse cx="727.4905" cy="421.1981" fill="#FFFFFF" rx="116.4905" ry="25.6981" style="stroke:#000000;stroke-width:1.0;"/><text fill="#000000" font-family="Hack" font-size="14" lengthAdjust="spacing" textLength="193.4512" x="627.7649" y="425.9311">&#1054;&#1090;&#1084;&#1077;&#1090;&#1080;&#1090;&#1100; &#1079;&#1072;&#1082;&#1072;&#1079; "&#1042; &#1086;&#1095;&#1077;&#1088;&#1077;&#1076;&#1080;"</text></g><g id="elem_do_state_built"><ellipse cx="727.7078" cy="505.9416" fill="#FFFFFF" rx="107.7078" ry="23.9416" style="stroke:#000000;stroke-width:1.0;"/><text fill="#000000" font-family="Hack" font-size="14" lengthAdjust="spacing" textLength="173.2073" x="638.1041" y="510.6745">&#1054;&#1090;&#1084;&#1077;&#1090;&#1080;&#1090;&#1100; &#1079;&#1072;&#1082;&#1072;&#1079; "&#1057;&#1086;&#1073;&#1088;&#1072;&#1085;"</text></g><g id="elem_do_state_sent"><ellipse cx="727.4472" cy="591.0894" fill="#FFFFFF" rx="118.4472" ry="26.0894" style="stroke:#000000;stroke-width:1.0;"/><text fill="#000000" font-family="Hack" font-size="14" lengthAdjust="spacing" textLength="197.8892" x="625.8138" y="595.7053">&#1054;&#1090;&#1084;&#1077;&#1090;&#1080;&#1090;&#1100; &#1079;&#1072;&#1082;&#1072;&#1079; "&#1054;&#1090;&#1087;&#1088;&#1072;&#1074;&#1083;&#1077;&#1085;"</text></g><g id="elem_do_state_completed"><ellipse cx="727.3552" cy="678.171" fill="#FFFFFF" rx="116.3552" ry="25.671" style="stroke:#000000;stroke-width:1.0;"/><text fill="#000000" font-family="Hack" font-size="14" lengthAdjust="spacing" textLength="193.1432" x="627.7836" y="682.904">&#1054;&#1090;&#1084;&#1077;&#1090;&#1080;&#1090;&#1100; &#1079;&#1072;&#1082;&#1072;&#1079; "&#1042;&#1099;&#1087;&#1086;&#1083;&#1085;&#1077;&#1085;"</text></g><!--entity client--><g id="elem_client"><ellipse cx="94.6119" cy="231" fill="#FFFFFF" rx="8" ry="8" style="stroke:#000000;stroke-width:1.0;"/><path d="M94.6119,239 L94.6119,266 M81.6119,247 L107.6119,247 M94.6119,266 L81.6119,281 M94.6119,266 L107.6119,281 " fill="none" style="stroke:#000000;stroke-width:1.0;"/><text fill="#000000" font-family="Hack" font-size="14" lengthAdjust="spacing" textLength="49.2238" x="70" y="297.9659">&#1050;&#1083;&#1080;&#1077;&#1085;&#1090;</text></g><!--entity storage--><g id="elem_storage"><ellipse cx="94.6287" cy="587" fill="#FFFFFF" rx="8" ry="8" style="stroke:#000000;stroke-width:1.0;"/><path d="M94.6287,595 L94.6287,622 M81.6287,603 L107.6287,603 M94.6287,622 L81.6287,637 M94.6287,622 L107.6287,637 " fill="none" style="stroke:#000000;stroke-width:1.0;"/><text fill="#000000" font-family="Hack" font-size="14" lengthAdjust="spacing" textLength="167.2573" x="11" y="653.9659">&#1057;&#1080;&#1089;&#1090;&#1077;&#1084;&#1072; &#1088;&#1072;&#1089;&#1087;&#1088;&#1077;&#1076;&#1077;&#1083;&#1077;&#1085;&#1080;&#1103;</text></g><!--entity cuirer--><g id="elem_cuirer"><ellipse cx="357.1119" cy="758" fill="#FFFFFF" rx="8" ry="8" style="stroke:#000000;stroke-width:1.0;"/><path d="M357.1119,766 L357.1119,793 M344.1119,774 L370.1119,774 M357.1119,793 L344.1119,808 M357.1119,793 L370.1119,808 " fill="none" style="stroke:#000000;stroke-width:1.0;"/><text fill="#000000" font-family="Hack" font-size="14" lengthAdjust="spacing" textLength="49.2238" x="332.5" y="824.9659">&#1050;&#1091;&#1088;&#1100;&#1077;&#1088;</text></g><!--entity salesman--><g id="elem_salesman"><ellipse cx="356.8288" cy="873" fill="#FFFFFF" rx="8" ry="8" style="stroke:#000000;stroke-width:1.0;"/><path d="M356.8288,881 L356.8288,908 M343.8288,889 L369.8288,889 M356.8288,908 L343.8288,923 M356.8288,908 L369.8288,923 " fill="none" style="stroke:#000000;stroke-width:1.0;"/><text fill="#000000" font-family="Hack" font-size="14" lengthAdjust="spacing" textLength="133.6575" x="290" y="939.9659">&#1056;&#1072;&#1073;&#1086;&#1090;&#1085;&#1080;&#1082; &#1084;&#1072;&#1075;&#1072;&#1079;&#1080;&#1085;&#1072;</text></g><!--link client to do_search--><g id="link_client_do_search"><path d="M119,282.6 C142.36,302.08 179.97,330.8 217,348 C240.97,359.13 268.92,367.21 293.44,372.87 " fill="none" id="client-do_search" style="stroke:#000000;stroke-width:1.0;"/></g><!--link client to do_order--><g id="link_client_do_order"><path d="M119.08,238.56 C141.92,217.63 178.64,188.41 217,176 C369.76,126.58 562.01,144.72 660.98,159.47 " fill="none" id="client-do_order" style="stroke:#000000;stroke-width:1.0;"/></g><!--link client to do_basket--><g id="link_client_do_basket"><path d="M119.08,258.11 C151.58,252.74 211.99,242.77 263.68,234.24 " fill="none" id="client-do_basket" style="stroke:#000000;stroke-width:1.0;"/></g><!--link client to do_components--><g id="link_client_do_components"><path d="M119.08,265.89 C151.58,271.26 211.99,281.23 263.68,289.76 " fill="none" id="client-do_components" style="stroke:#000000;stroke-width:1.0;"/></g><!--link storage to do_select_cuirer--><g id="link_storage_do_select_cuirer"><path d="M178.26,588.57 C191.18,584.22 204.42,579.89 217,576 C242.81,568.02 271.59,560.01 296.23,553.41 " fill="none" id="storage-do_select_cuirer" style="stroke:#000000;stroke-width:1.0;"/></g><!--link storage to do_update_counts--><g id="link_storage_do_update_counts"><path d="M178.28,618 C199.88,618 223.5,618 246.27,618 " fill="none" id="storage-do_update_counts" style="stroke:#000000;stroke-width:1.0;"/></g><!--link storage to do_state_built--><g id="link_storage_do_state_built"><path d="M178.21,650.66 C191.02,654.53 204.23,657.86 217,660 C329.21,678.85 365.99,698.66 473,660 C546.91,633.3 540.59,585.67 609,547 C624.7,538.12 642.67,530.67 659.74,524.67 " fill="none" id="storage-do_state_built" style="stroke:#000000;stroke-width:1.0;"/></g><!--link cuirer to do_state_sent--><g id="link_cuirer_do_state_sent"><path d="M381.79,788.56 C426.46,786.44 523.41,775.53 579,722 C608.46,693.63 580.46,664.3 609,635 C619.41,624.31 632.66,616.19 646.49,610.03 " fill="none" id="cuirer-do_state_sent" style="stroke:#000000;stroke-width:1.0;"/></g><!--link salesman to do_state_completed--><g id="link_salesman_do_state_completed"><path d="M424.14,873.02 C440.34,864.94 457.47,855.98 473,847 C554.51,799.88 645.23,736.58 692.94,702.38 " fill="none" id="salesman-do_state_completed" style="stroke:#000000;stroke-width:1.0;"/></g><!--link do_order to do_state_registered--><g id="link_do_order_do_state_registered"><path d="M669.27,184.74 C595.44,204.82 483.06,245.93 530,301.5 C551.71,327.21 579.2589,337.5878 612.5489,341.3978 " fill="none" id="do_order-to-do_state_registered" style="stroke:#000000;stroke-width:1.0;stroke-dasharray:7.0,7.0;"/><polygon fill="#000000" points="618.51,342.08,610.0232,337.0826,613.5424,341.5115,609.1135,345.0307,618.51,342.08" style="stroke:#000000;stroke-width:1.0;"/><text fill="#000000" font-family="Hack" font-size="13" lengthAdjust="spacing" textLength="74.763" x="504" y="297.397">&#171;&#1074;&#1082;&#1083;&#1102;&#1095;&#1072;&#1077;&#1090;&#187;</text></g><!--reverse link do_order to do_pay--><g id="link_do_order_do_pay"><path d="M727.5,145.84 C727.5,130.49 727.5,114.86 727.5,98.3 " fill="none" id="do_order-backto-do_pay" style="stroke:#000000;stroke-width:1.0;stroke-dasharray:7.0,7.0;"/><polygon fill="#000000" points="727.5,151.84,731.5,142.84,727.5,146.84,723.5,142.84,727.5,151.84" style="stroke:#000000;stroke-width:1.0;"/><text fill="#000000" font-family="Hack" font-size="13" lengthAdjust="spacing" textLength="83.5771" x="673.5" y="130.397">&#171;&#1088;&#1072;&#1089;&#1096;&#1080;&#1088;&#1103;&#1077;&#1090;&#187;</text></g><!--link do_pay to do_state_prushcased--><g id="link_do_pay_do_state_prushcased"><path d="M638.77,60.53 C599.64,59.92 556.6,67.55 530,97.5 C480.45,153.29 581.3345,201.0462 656.3545,227.6262 " fill="none" id="do_pay-to-do_state_prushcased" style="stroke:#000000;stroke-width:1.0;stroke-dasharray:7.0,7.0;"/><polygon fill="#000000" points="662.01,229.63,654.8626,222.854,657.2971,227.9602,652.1909,230.3947,662.01,229.63" style="stroke:#000000;stroke-width:1.0;"/><text fill="#000000" font-family="Hack" font-size="13" lengthAdjust="spacing" textLength="74.763" x="504" y="112.397">&#171;&#1074;&#1082;&#1083;&#1102;&#1095;&#1072;&#1077;&#1090;&#187;</text></g><!--link do_state_completed to do_state_prushcased--><g id="link_do_state_completed_do_state_prushcased"><path d="M650.02,658.9 C635.23,652.7 620.73,644.59 609,634 C549.99,580.72 548.02,550.94 530,473.5 C512.21,397.09 548.89,345.73 609,292 C620.55,281.67 629.2508,276.0972 643.8308,270.1772 " fill="none" id="do_state_completed-to-do_state_prushcased" style="stroke:#000000;stroke-width:1.0;stroke-dasharray:7.0,7.0;"/><polygon fill="#000000" points="649.39,267.92,639.5464,267.5997,644.7573,269.801,642.556,275.012,649.39,267.92" style="stroke:#000000;stroke-width:1.0;"/><text fill="#000000" font-family="Hack" font-size="13" lengthAdjust="spacing" textLength="74.763" x="504" y="469.397">&#171;&#1074;&#1082;&#1083;&#1102;&#1095;&#1072;&#1077;&#1090;&#187;</text></g><!--reverse link do_state to do_state_registered--><g id="link_do_state_do_state_registered"><path d="M430.2155,435.5063 C497.6755,412.6163 594.49,379.78 664.8,355.93 " fill="none" id="do_state-backto-do_state_registered" style="stroke:#000000;stroke-width:1.0;"/><polygon fill="none" points="413.17,441.29,432.1434,441.1881,428.2876,429.8244,413.17,441.29" style="stroke:#000000;stroke-width:1.0;"/></g><!--reverse link do_state to do_state_prushcased--><g id="link_do_state_do_state_prushcased"><path d="M451.0919,439.0835 C465.6119,433.2235 462.76,431.69 473,420 C516.65,370.17 453.97,318.55 503,274 C537.59,242.57 588.72,235.3 633.35,236.45 " fill="none" id="do_state-backto-do_state_prushcased" style="stroke:#000000;stroke-width:1.0;"/><polygon fill="none" points="434.4,445.82,453.3374,444.6474,448.8464,433.5195,434.4,445.82" style="stroke:#000000;stroke-width:1.0;"/></g><!--reverse link do_state to do_state_chained--><g id="link_do_state_do_state_chained"><path d="M465.5701,448.6158 C518.3001,443.0358 567.31,437.85 622.36,432.02 " fill="none" id="do_state-backto-do_state_chained" style="stroke:#000000;stroke-width:1.0;"/><polygon fill="none" points="447.67,450.51,466.2015,454.5825,464.9386,442.6491,447.67,450.51" style="stroke:#000000;stroke-width:1.0;"/></g><!--reverse link do_state to do_state_built--><g id="link_do_state_do_state_built"><path d="M458.1856,474.97 C478.6356,477.92 482.69,478.39 503,481 C544.53,486.33 590.5,491.58 629.88,495.88 " fill="none" id="do_state-backto-do_state_built" style="stroke:#000000;stroke-width:1.0;"/><polygon fill="none" points="440.37,472.4,457.3289,480.9085,459.0422,469.0314,440.37,472.4" style="stroke:#000000;stroke-width:1.0;"/></g><!--reverse link do_state to do_state_sent--><g id="link_do_state_do_state_sent"><path d="M429.4421,484.7199 C448.6021,491.3799 453.27,493.03 473,500 C538.8,523.25 614.04,550.32 665.35,568.86 " fill="none" id="do_state-backto-do_state_sent" style="stroke:#000000;stroke-width:1.0;"/><polygon fill="none" points="412.44,478.81,427.4722,490.3873,431.4121,479.0525,412.44,478.81" style="stroke:#000000;stroke-width:1.0;"/></g><!--reverse link do_state to do_state_completed--><g id="link_do_state_do_state_completed"><path d="M444.3569,482.0997 C460.3669,487.9197 459.68,489.58 473,500 C492.22,515.04 486.76,527.78 503,546 C543.74,591.71 556.03,603.28 609,634 C624.55,643.02 642.27,650.79 659.16,657.19 " fill="none" id="do_state-backto-do_state_completed" style="stroke:#000000;stroke-width:1.0;"/><polygon fill="none" points="427.44,475.95,442.307,487.7386,446.4068,476.4607,427.44,475.95" style="stroke:#000000;stroke-width:1.0;"/></g><!--SRC=[dLHTRjf047xVKsnvQX-I0rI8go37RC2giP6zF5Hj90ELQ4lKg5KVgahzuGPE6XGACRd2x8qwizwDrmHBg4WMicU-RxxvTcQVoO4O2ZwCevWn5efpoMNCaw0_aBmN9CANGHmnreBli8KrhA1GqnRtKkw7WOWaHPQmLXCrnTWzv5nbaAi9FE3_2cxnsH88KwuqB9LnulK54QgPojGbh5HM4ewnN8A1tv33DUoG4M6muKGBV_2vmzS2yfB72qKwz50QQVIYVYZudf8tZEFlENn3EHiKDLMN78CxkC6NJ2rU44ylxgR2I_o1IVwftc7f30dM6e15SqB3dKsFanxABBD_Q5MeISrj_gPg2_AgH8WgkwP5KmcRBBGQWzp1jVgeFiEzMZWwAvBngET9qVNZSIHJGx94eQMzkZjgdXgTgOcZtD4XaS50lr913DlwhZKSRh0JROGsNSqimvcNlXBIKFn2nAtMdHb_2OII7lIfRxIIJ-e33OubyEFXA8u4jM1P44sLLrh-ceme49_3NoZeXSXqKvPYvBtcxF6yfcG10VVEYxVAmyIm7i5MpOHk8lf1AaKYUaSn6HNp0qoZP9mEV2yzZkaBjaGqPZ_MUsJ-m0kYuvYMrladYix6GIYFCsYgDvMcu919AQtuCKsf1HgqGuxY00iTUIWaTdN1M7bly9CJP_LgtyhzgdqoGrVxviwHkLGUITrbgyVgExI7SxnZ9ReMqMOmU_7KGbM7p7R0Jpk7XkqbRxVHx0riSJ7cQ1ywskbKgFQfcN1ABEzIzHujpzHLbKeBuD9N4zX0pvug_Ky2tdxhDkviKKE6inqD6NRa6yBbWJG4zPaqyLQ7yWy0]--></g></svg>