<svg xmlns="http://www.w3.org/2000/svg" xmlns:xlink="http://www.w3.org/1999/xlink" contentStyleType="text/css" height="979px" preserveAspectRatio="none" style="width:1426px;height:979px;background:#FFFFFF;" version="1.1" viewBox="0 0 1426 979" width="1426px" zoomAndPan="magnify"><defs/><g><rect fill="#FFFFFF" height="24.5158" style="stroke:#FFFFFF;stroke-width:1.0;" width="1403.2237" x="10" y="8.774"/><ellipse cx="117.0806" cy="48.2898" fill="#FFFFFF" rx="10" ry="10" style="stroke:#000000;stroke-width:1.0;"/><rect fill="#FFFFFF" height="36.3441" rx="12.5" ry="12.5" style="stroke:#000000;stroke-width:1.0;" width="202.1612" x="16" y="78.2898"/><text fill="#000000" font-family="Hack" font-size="12" lengthAdjust="spacing" textLength="182.1612" x="26" y="101.1179">&#1047;&#1072;&#1087;&#1088;&#1086;&#1089;&#1080;&#1090;&#1100; &#1086;&#1092;&#1086;&#1088;&#1084;&#1083;&#1077;&#1085;&#1080;&#1077; &#1079;&#1072;&#1082;&#1072;&#1079;&#1072;</text><rect fill="#FFFFFF" height="36.3441" rx="12.5" ry="12.5" style="stroke:#000000;stroke-width:1.0;" width="157.4369" x="38.3622" y="894.6089"/><text fill="#000000" font-family="Hack" font-size="12" lengthAdjust="spacing" textLength="137.4369" x="48.3622" y="917.437">&#1055;&#1077;&#1088;&#1077;&#1093;&#1074;&#1072;&#1090;&#1080;&#1090;&#1100; &#1088;&#1077;&#1079;&#1091;&#1083;&#1100;&#1090;&#1072;&#1090;</text><ellipse cx="117.0806" cy="961.953" fill="none" rx="11" ry="11" style="stroke:#000000;stroke-width:1.0;"/><ellipse cx="117.0806" cy="961.953" fill="#FFFFFF" rx="6" ry="6" style="stroke:#000000;stroke-width:1.0;"/><line style="stroke:#000000;stroke-width:1.0;" x1="10" x2="10" y1="8.774" y2="972.953"/><rect fill="#FFFFFF" height="36.3441" rx="12.5" ry="12.5" style="stroke:#000000;stroke-width:1.0;" width="330.6462" x="438.3461" y="134.6339"/><text fill="#000000" font-family="Hack" font-size="12" lengthAdjust="spacing" textLength="310.6462" x="448.3461" y="157.462">&#1054;&#1073;&#1098;&#1103;&#1074;&#1080;&#1090;&#1100; &#1089;&#1090;&#1072;&#1090;&#1091;&#1089; &#1086;&#1087;&#1083;&#1072;&#1090;&#1099; &#1082;&#1072;&#1082; &#171;&#1086;&#1087;&#1083;&#1072;&#1090;&#1072; &#1085;&#1077; &#1079;&#1072;&#1087;&#1088;&#1086;&#1096;&#1077;&#1085;&#1072;&#187;</text><rect fill="#000000" height="6" rx="2.5" ry="2.5" style="stroke:#000000;stroke-width:1.0;" width="714.5019" x="228.1612" y="190.978"/><path d="M453.6103,346.2793 L453.6103,373.8383 L433.6103,377.8383 L453.6103,381.8383 L453.6103,409.3974 A0,0 0 0 0 453.6103,409.3974 L647.4715,409.3974 A0,0 0 0 0 647.4715,409.3974 L647.4715,356.2793 L637.4715,346.2793 L453.6103,346.2793 A0,0 0 0 0 453.6103,346.2793 " fill="#FFFFFF" style="stroke:#000000;stroke-width:1.0;"/><path d="M637.4715,346.2793 L637.4715,356.2793 L647.4715,356.2793 L637.4715,346.2793 " fill="#FFFFFF" style="stroke:#000000;stroke-width:1.0;"/><text fill="#000000" font-family="Hack" font-size="13" lengthAdjust="spacing" textLength="172.8612" x="459.6103" y="365.1763">&#1042;&#1086;&#1079;&#1084;&#1086;&#1078;&#1085;&#1099;&#1081; &#1089;&#1090;&#1072;&#1090;&#1091;&#1089; &#1086;&#1087;&#1083;&#1072;&#1090;&#1099;:</text><text fill="#000000" font-family="Hack" font-size="13" lengthAdjust="spacing" textLength="64.2201" x="473.1304" y="382.8823">- &#1054;&#1087;&#1083;&#1072;&#1095;&#1077;&#1085;</text><text fill="#000000" font-family="Hack" font-size="13" lengthAdjust="spacing" textLength="70.0571" x="473.1304" y="400.5883">- &#1054;&#1090;&#1082;&#1083;&#1086;&#1085;&#1105;&#1085;</text><rect fill="#FFFFFF" height="36.3441" rx="12.5" ry="12.5" style="stroke:#000000;stroke-width:1.0;" width="181.4491" x="252.1612" y="359.6663"/><text fill="#000000" font-family="Hack" font-size="12" lengthAdjust="spacing" textLength="161.4491" x="262.1612" y="382.4944">&#1055;&#1077;&#1088;&#1077;&#1093;&#1074;&#1090;&#1072;&#1080;&#1090;&#1100; &#1089;&#1090;&#1072;&#1090;&#1091;&#1089; &#1086;&#1087;&#1083;&#1072;&#1090;&#1099;</text><polygon fill="#FFFFFF" points="302.9011,225.4442,382.8705,225.4442,394.8705,237.4442,382.8705,249.4442,302.9011,249.4442,290.9011,237.4442,302.9011,225.4442" style="stroke:#000000;stroke-width:1.0;"/><text fill="#000000" font-family="Hack" font-size="11" lengthAdjust="spacing" textLength="12.5619" x="346.8858" y="261.2032">&#1076;&#1072;</text><text fill="#000000" font-family="Hack" font-size="11" lengthAdjust="spacing" textLength="79.9695" x="302.9011" y="241.7122">&#1054;&#1087;&#1083;&#1072;&#1090;&#1072; &#1082;&#1072;&#1088;&#1090;&#1086;&#1081;</text><text fill="#000000" font-family="Hack" font-size="11" lengthAdjust="spacing" textLength="18.4469" x="272.4542" y="234.2213">&#1085;&#1077;&#1090;</text><polygon fill="#FFFFFF" points="342.8858,433.2753,354.8858,445.2753,342.8858,457.2753,330.8858,445.2753,342.8858,433.2753" style="stroke:#000000;stroke-width:1.0;"/><rect fill="#FFFFFF" height="36.3441" rx="12.5" ry="12.5" style="stroke:#000000;stroke-width:1.0;" width="158.0009" x="752.3239" y="429.3974"/><text fill="#000000" font-family="Hack" font-size="12" lengthAdjust="spacing" textLength="138.0009" x="762.3239" y="452.2254">&#1055;&#1077;&#1088;&#1077;&#1093;&#1074;&#1072;&#1090;&#1080;&#1090;&#1100; &#1048;&#1044; &#1079;&#1072;&#1082;&#1072;&#1079;&#1072;</text><rect fill="#000000" height="6" rx="2.5" ry="2.5" style="stroke:#000000;stroke-width:1.0;" width="714.5019" x="228.1612" y="485.7415"/><polygon fill="#FFFFFF" points="531.3062,511.7415,676.0322,511.7415,688.0322,523.7415,676.0322,535.7415,531.3062,535.7415,519.3062,523.7415,531.3062,511.7415" style="stroke:#000000;stroke-width:1.0;"/><text fill="#000000" font-family="Hack" font-size="11" lengthAdjust="spacing" textLength="144.726" x="531.3062" y="528.0094">&#1089;&#1090;&#1072;&#1090;&#1091;&#1089; &#1086;&#1087;&#1083;&#1072;&#1090;&#1099; = &#171;&#1086;&#1087;&#1083;&#1072;&#1095;&#1077;&#1085;&#187;</text><text fill="#000000" font-family="Hack" font-size="11" lengthAdjust="spacing" textLength="12.5619" x="506.7443" y="520.5185">&#1076;&#1072;</text><text fill="#000000" font-family="Hack" font-size="11" lengthAdjust="spacing" textLength="18.4469" x="688.0322" y="520.5185">&#1085;&#1077;&#1090;</text><rect fill="#FFFFFF" height="36.3441" rx="12.5" ry="12.5" style="stroke:#000000;stroke-width:1.0;" width="245.9136" x="310.1694" y="545.7415"/><text fill="#000000" font-family="Hack" font-size="12" lengthAdjust="spacing" textLength="225.9136" x="320.1694" y="568.5696">&#1059;&#1089;&#1090;&#1072;&#1085;&#1086;&#1074;&#1080;&#1090;&#1100; &#1089;&#1087;&#1086;&#1089;&#1086;&#1073; &#1086;&#1087;&#1083;&#1072;&#1090;&#1099; &#171;&#1055;&#1086; &#1082;&#1072;&#1088;&#1090;&#1077;&#187;</text><rect fill="#FFFFFF" height="36.3441" rx="12.5" ry="12.5" style="stroke:#000000;stroke-width:1.0;" width="337.2701" x="264.4911" y="602.0856"/><text fill="#000000" font-family="Hack" font-size="12" lengthAdjust="spacing" textLength="317.2701" x="274.4911" y="624.9137">&#1044;&#1086;&#1073;&#1072;&#1074;&#1080;&#1090;&#1100; &#1076;&#1077;&#1090;&#1072;&#1083;&#1080; &#1073;&#1072;&#1085;&#1082;&#1086;&#1074;&#1089;&#1082;&#1086;&#1081; &#1090;&#1088;&#1072;&#1085;&#1079;&#1072;&#1082;&#1094;&#1080;&#1080; &#1074; &#1088;&#1077;&#1079;&#1091;&#1083;&#1100;&#1090;&#1072;&#1090;</text><rect fill="#FFFFFF" height="36.3441" rx="12.5" ry="12.5" style="stroke:#000000;stroke-width:1.0;" width="265.1017" x="641.6614" y="545.7415"/><text fill="#000000" font-family="Hack" font-size="12" lengthAdjust="spacing" textLength="245.1017" x="651.6614" y="568.5696">&#1059;&#1089;&#1090;&#1072;&#1085;&#1086;&#1074;&#1080;&#1090;&#1100; &#1089;&#1087;&#1086;&#1089;&#1086;&#1073; &#1086;&#1087;&#1083;&#1072;&#1090;&#1099; &#171;&#1053;&#1072;&#1083;&#1080;&#1095;&#1085;&#1099;&#1084;&#1080;&#187;</text><rect fill="#FFFFFF" height="36.3441" rx="12.5" ry="12.5" style="stroke:#000000;stroke-width:1.0;" width="284.9019" x="631.7613" y="651.5765"/><text fill="#000000" font-family="Hack" font-size="12" lengthAdjust="spacing" textLength="264.9019" x="641.7613" y="674.4046">&#1044;&#1086;&#1073;&#1072;&#1074;&#1080;&#1090;&#1100; &#1087;&#1086;&#1076;&#1088;&#1086;&#1073;&#1085;&#1086;&#1089;&#1090;&#1080; &#1086;&#1096;&#1080;&#1073;&#1082;&#1080; &#1082; &#1088;&#1077;&#1079;&#1091;&#1083;&#1100;&#1090;&#1072;&#1090;&#1091;</text><polygon fill="#FFFFFF" points="699.3798,602.0856,849.0447,602.0856,861.0447,614.0856,849.0447,626.0856,699.3798,626.0856,687.3798,614.0856,699.3798,602.0856" style="stroke:#000000;stroke-width:1.0;"/><text fill="#000000" font-family="Hack" font-size="11" lengthAdjust="spacing" textLength="12.5619" x="778.2122" y="637.8445">&#1076;&#1072;</text><text fill="#000000" font-family="Hack" font-size="11" lengthAdjust="spacing" textLength="149.6649" x="699.3798" y="618.3535">&#1089;&#1090;&#1072;&#1090;&#1091;&#1089; &#1086;&#1087;&#1083;&#1072;&#1090;&#1099; = &#171;&#1086;&#1090;&#1082;&#1083;&#1086;&#1085;&#1105;&#1085;&#187;</text><polygon fill="#FFFFFF" points="774.2122,707.9206,786.2122,719.9206,774.2122,731.9206,762.2122,719.9206,774.2122,707.9206" style="stroke:#000000;stroke-width:1.0;"/><polygon fill="#FFFFFF" points="603.6692,737.9206,615.6692,749.9206,603.6692,761.9206,591.6692,749.9206,603.6692,737.9206" style="stroke:#000000;stroke-width:1.0;"/><rect fill="#FFFFFF" height="36.3441" rx="12.5" ry="12.5" style="stroke:#000000;stroke-width:1.0;" width="248.3496" x="479.4944" y="781.9206"/><text fill="#000000" font-family="Hack" font-size="12" lengthAdjust="spacing" textLength="228.3496" x="489.4944" y="804.7487">&#1059;&#1089;&#1090;&#1072;&#1085;&#1086;&#1074;&#1080;&#1090;&#1100; &#1079;&#1072;&#1082;&#1072;&#1079; &#1082;&#1072;&#1082; &#171;&#1054;&#1092;&#1086;&#1088;&#1084;&#1083;&#1077;&#1085;&#1085;&#1099;&#1081;&#187;</text><rect fill="#FFFFFF" height="36.3441" rx="12.5" ry="12.5" style="stroke:#000000;stroke-width:1.0;" width="218.2054" x="494.5665" y="838.2648"/><text fill="#000000" font-family="Hack" font-size="12" lengthAdjust="spacing" textLength="198.2054" x="504.5665" y="861.0928">&#1042;&#1077;&#1088;&#1085;&#1091;&#1090;&#1100; &#1088;&#1077;&#1079;&#1091;&#1083;&#1100;&#1090;&#1072;&#1090; &#1087;&#1086;&#1083;&#1100;&#1079;&#1086;&#1074;&#1072;&#1090;&#1077;&#1083;&#1102;</text><line style="stroke:#000000;stroke-width:1.0;" x1="222.1612" x2="222.1612" y1="8.774" y2="972.953"/><rect fill="#FFFFFF" height="36.3441" rx="12.5" ry="12.5" style="stroke:#000000;stroke-width:1.0;" width="123.2367" x="979.8022" y="274.9352"/><text fill="#000000" font-family="Hack" font-size="12" lengthAdjust="spacing" textLength="103.2367" x="989.8022" y="297.7633">&#1057;&#1087;&#1080;&#1089;&#1072;&#1090;&#1100; &#1089;&#1088;&#1077;&#1076;&#1089;&#1090;&#1074;&#1072;</text><line style="stroke:#000000;stroke-width:1.0;" x1="946.6631" x2="946.6631" y1="8.774" y2="972.953"/><rect fill="#FFFFFF" height="36.3441" rx="12.5" ry="12.5" style="stroke:#000000;stroke-width:1.0;" width="113.7806" x="1217.1406" y="216.978"/><text fill="#000000" font-family="Hack" font-size="12" lengthAdjust="spacing" textLength="93.7806" x="1227.1406" y="239.8061">&#1054;&#1073;&#1098;&#1103;&#1074;&#1080;&#1090;&#1100; &#1079;&#1072;&#1082;&#1072;&#1079;</text><rect fill="#FFFFFF" height="36.3441" rx="12.5" ry="12.5" style="stroke:#000000;stroke-width:1.0;" width="267.7057" x="1140.1781" y="288.3222"/><text fill="#000000" font-family="Hack" font-size="12" lengthAdjust="spacing" textLength="247.7057" x="1150.1781" y="311.1502">&#1050;&#1086;&#1087;&#1080;&#1088;&#1086;&#1074;&#1072;&#1085;&#1080;&#1077; &#1090;&#1086;&#1074;&#1072;&#1088;&#1086;&#1074; &#1080;&#1079; &#1082;&#1086;&#1088;&#1079;&#1080;&#1085;&#1099; &#1074; &#1079;&#1072;&#1082;&#1072;&#1079;</text><rect fill="#FFFFFF" height="36.3441" rx="12.5" ry="12.5" style="stroke:#000000;stroke-width:1.0;" width="212.7813" x="1167.6402" y="359.6663"/><text fill="#000000" font-family="Hack" font-size="12" lengthAdjust="spacing" textLength="192.7813" x="1177.6402" y="382.4944">&#1054;&#1095;&#1080;&#1089;&#1090;&#1080;&#1090;&#1100; &#1082;&#1086;&#1088;&#1079;&#1080;&#1085;&#1091; &#1087;&#1086;&#1083;&#1100;&#1079;&#1086;&#1074;&#1072;&#1090;&#1077;&#1083;&#1103;</text><line style="stroke:#000000;stroke-width:1.0;" x1="1134.1781" x2="1134.1781" y1="8.774" y2="972.953"/><line style="stroke:#000000;stroke-width:1.0;" x1="1411.8837" x2="1411.8837" y1="8.774" y2="972.953"/><line style="stroke:#000000;stroke-width:1.0;" x1="117.0806" x2="117.0806" y1="58.2898" y2="78.2898"/><polygon fill="#000000" points="113.0806,68.2898,117.0806,78.2898,121.0806,68.2898,117.0806,72.2898" style="stroke:#000000;stroke-width:1.0;"/><line style="stroke:#000000;stroke-width:1.0;" x1="117.0806" x2="117.0806" y1="930.953" y2="950.953"/><polygon fill="#000000" points="113.0806,940.953,117.0806,950.953,121.0806,940.953,117.0806,944.953" style="stroke:#000000;stroke-width:1.0;"/><line style="stroke:#000000;stroke-width:1.0;" x1="290.9011" x2="242.1612" y1="237.4442" y2="237.4442"/><polygon fill="#000000" points="238.1612,332.1663,242.1612,342.1663,246.1612,332.1663,242.1612,336.1663" style="stroke:#000000;stroke-width:1.0;"/><line style="stroke:#000000;stroke-width:1.0;" x1="242.1612" x2="242.1612" y1="237.4442" y2="445.2753"/><line style="stroke:#000000;stroke-width:1.0;" x1="242.1612" x2="330.8858" y1="445.2753" y2="445.2753"/><polygon fill="#000000" points="320.8858,441.2753,330.8858,445.2753,320.8858,449.2753,324.8858,445.2753" style="stroke:#000000;stroke-width:1.0;"/><line style="stroke:#000000;stroke-width:1.0;" x1="342.8858" x2="342.8858" y1="396.0104" y2="433.2753"/><polygon fill="#000000" points="338.8858,423.2753,342.8858,433.2753,346.8858,423.2753,342.8858,427.2753" style="stroke:#000000;stroke-width:1.0;"/><line style="stroke:#000000;stroke-width:1.0;" x1="342.8858" x2="342.8858" y1="196.978" y2="225.4442"/><polygon fill="#000000" points="338.8858,215.4442,342.8858,225.4442,346.8858,215.4442,342.8858,219.4442" style="stroke:#000000;stroke-width:1.0;"/><line style="stroke:#000000;stroke-width:1.0;" x1="342.8858" x2="342.8858" y1="457.2753" y2="485.7415"/><polygon fill="#000000" points="338.8858,475.7415,342.8858,485.7415,346.8858,475.7415,342.8858,479.7415" style="stroke:#000000;stroke-width:1.0;"/><line style="stroke:#000000;stroke-width:1.0;" x1="831.3244" x2="831.3244" y1="465.7415" y2="485.7415"/><polygon fill="#000000" points="827.3244,475.7415,831.3244,485.7415,835.3244,475.7415,831.3244,479.7415" style="stroke:#000000;stroke-width:1.0;"/><line style="stroke:#000000;stroke-width:1.0;" x1="603.6692" x2="603.6692" y1="170.978" y2="190.978"/><polygon fill="#000000" points="599.6692,180.978,603.6692,190.978,607.6692,180.978,603.6692,184.978" style="stroke:#000000;stroke-width:1.0;"/><line style="stroke:#000000;stroke-width:1.0;" x1="433.1262" x2="433.1262" y1="582.0856" y2="602.0856"/><polygon fill="#000000" points="429.1262,592.0856,433.1262,602.0856,437.1262,592.0856,433.1262,596.0856" style="stroke:#000000;stroke-width:1.0;"/><line style="stroke:#000000;stroke-width:1.0;" x1="774.2122" x2="774.2122" y1="626.0856" y2="651.5765"/><polygon fill="#000000" points="770.2122,641.5765,774.2122,651.5765,778.2122,641.5765,774.2122,645.5765" style="stroke:#000000;stroke-width:1.0;"/><line style="stroke:#000000;stroke-width:1.0;" x1="861.0447" x2="926.6631" y1="614.0856" y2="614.0856"/><polygon fill="#000000" points="922.6631,659.7486,926.6631,669.7486,930.6631,659.7486,926.6631,663.7486" style="stroke:#000000;stroke-width:1.0;"/><line style="stroke:#000000;stroke-width:1.0;" x1="926.6631" x2="926.6631" y1="614.0856" y2="719.9206"/><line style="stroke:#000000;stroke-width:1.0;" x1="926.6631" x2="786.2122" y1="719.9206" y2="719.9206"/><polygon fill="#000000" points="796.2122,715.9206,786.2122,719.9206,796.2122,723.9206,792.2122,719.9206" style="stroke:#000000;stroke-width:1.0;"/><line style="stroke:#000000;stroke-width:1.0;" x1="774.2122" x2="774.2122" y1="687.9206" y2="707.9206"/><polygon fill="#000000" points="770.2122,697.9206,774.2122,707.9206,778.2122,697.9206,774.2122,701.9206" style="stroke:#000000;stroke-width:1.0;"/><line style="stroke:#000000;stroke-width:1.0;" x1="774.2122" x2="774.2122" y1="582.0856" y2="602.0856"/><polygon fill="#000000" points="770.2122,592.0856,774.2122,602.0856,778.2122,592.0856,774.2122,596.0856" style="stroke:#000000;stroke-width:1.0;"/><line style="stroke:#000000;stroke-width:1.0;" x1="519.3062" x2="433.1262" y1="523.7415" y2="523.7415"/><line style="stroke:#000000;stroke-width:1.0;" x1="433.1262" x2="433.1262" y1="523.7415" y2="545.7415"/><polygon fill="#000000" points="429.1262,535.7415,433.1262,545.7415,437.1262,535.7415,433.1262,539.7415" style="stroke:#000000;stroke-width:1.0;"/><line style="stroke:#000000;stroke-width:1.0;" x1="688.0322" x2="774.2122" y1="523.7415" y2="523.7415"/><line style="stroke:#000000;stroke-width:1.0;" x1="774.2122" x2="774.2122" y1="523.7415" y2="545.7415"/><polygon fill="#000000" points="770.2122,535.7415,774.2122,545.7415,778.2122,535.7415,774.2122,539.7415" style="stroke:#000000;stroke-width:1.0;"/><line style="stroke:#000000;stroke-width:1.0;" x1="433.1262" x2="433.1262" y1="638.4297" y2="749.9206"/><line style="stroke:#000000;stroke-width:1.0;" x1="433.1262" x2="591.6692" y1="749.9206" y2="749.9206"/><polygon fill="#000000" points="581.6692,745.9206,591.6692,749.9206,581.6692,753.9206,585.6692,749.9206" style="stroke:#000000;stroke-width:1.0;"/><line style="stroke:#000000;stroke-width:1.0;" x1="774.2122" x2="774.2122" y1="731.9206" y2="749.9206"/><line style="stroke:#000000;stroke-width:1.0;" x1="774.2122" x2="615.6692" y1="749.9206" y2="749.9206"/><polygon fill="#000000" points="625.6692,745.9206,615.6692,749.9206,625.6692,753.9206,621.6692,749.9206" style="stroke:#000000;stroke-width:1.0;"/><line style="stroke:#000000;stroke-width:1.0;" x1="603.6692" x2="603.6692" y1="491.7415" y2="511.7415"/><polygon fill="#000000" points="599.6692,501.7415,603.6692,511.7415,607.6692,501.7415,603.6692,505.7415" style="stroke:#000000;stroke-width:1.0;"/><line style="stroke:#000000;stroke-width:1.0;" x1="603.6692" x2="603.6692" y1="761.9206" y2="781.9206"/><polygon fill="#000000" points="599.6692,771.9206,603.6692,781.9206,607.6692,771.9206,603.6692,775.9206" style="stroke:#000000;stroke-width:1.0;"/><line style="stroke:#000000;stroke-width:1.0;" x1="603.6692" x2="603.6692" y1="818.2648" y2="838.2648"/><polygon fill="#000000" points="599.6692,828.2648,603.6692,838.2648,607.6692,828.2648,603.6692,832.2648" style="stroke:#000000;stroke-width:1.0;"/><line style="stroke:#000000;stroke-width:1.0;" x1="1274.0309" x2="1274.0309" y1="253.3222" y2="288.3222"/><polygon fill="#000000" points="1270.0309,278.3222,1274.0309,288.3222,1278.0309,278.3222,1274.0309,282.3222" style="stroke:#000000;stroke-width:1.0;"/><line style="stroke:#000000;stroke-width:1.0;" x1="1274.0309" x2="1274.0309" y1="324.6663" y2="359.6663"/><polygon fill="#000000" points="1270.0309,349.6663,1274.0309,359.6663,1278.0309,349.6663,1274.0309,353.6663" style="stroke:#000000;stroke-width:1.0;"/><line style="stroke:#000000;stroke-width:1.0;" x1="117.0806" x2="117.0806" y1="114.6339" y2="119.6339"/><line style="stroke:#000000;stroke-width:1.0;" x1="117.0806" x2="603.6692" y1="119.6339" y2="119.6339"/><line style="stroke:#000000;stroke-width:1.0;" x1="603.6692" x2="603.6692" y1="119.6339" y2="134.6339"/><polygon fill="#000000" points="599.6692,124.6339,603.6692,134.6339,607.6692,124.6339,603.6692,128.6339" style="stroke:#000000;stroke-width:1.0;"/><line style="stroke:#000000;stroke-width:1.0;" x1="1041.4206" x2="1041.4206" y1="311.2793" y2="335.4728"/><line style="stroke:#000000;stroke-width:1.0;" x1="1041.4206" x2="342.8858" y1="335.4728" y2="335.4728"/><line style="stroke:#000000;stroke-width:1.0;" x1="342.8858" x2="342.8858" y1="335.4728" y2="359.6663"/><polygon fill="#000000" points="338.8858,349.6663,342.8858,359.6663,346.8858,349.6663,342.8858,353.6663" style="stroke:#000000;stroke-width:1.0;"/><line style="stroke:#000000;stroke-width:1.0;" x1="342.8858" x2="342.8858" y1="249.4442" y2="262.1897"/><line style="stroke:#000000;stroke-width:1.0;" x1="342.8858" x2="1041.4206" y1="262.1897" y2="262.1897"/><line style="stroke:#000000;stroke-width:1.0;" x1="1041.4206" x2="1041.4206" y1="262.1897" y2="274.9352"/><polygon fill="#000000" points="1037.4206,264.9352,1041.4206,274.9352,1045.4206,264.9352,1041.4206,268.9352" style="stroke:#000000;stroke-width:1.0;"/><line style="stroke:#000000;stroke-width:1.0;" x1="1274.0309" x2="1274.0309" y1="396.0104" y2="413.5104"/><line style="stroke:#000000;stroke-width:1.0;" x1="1274.0309" x2="831.3244" y1="413.5104" y2="413.5104"/><line style="stroke:#000000;stroke-width:1.0;" x1="831.3244" x2="831.3244" y1="413.5104" y2="429.3974"/><polygon fill="#000000" points="827.3244,419.3974,831.3244,429.3974,835.3244,419.3974,831.3244,423.3974" style="stroke:#000000;stroke-width:1.0;"/><line style="stroke:#000000;stroke-width:1.0;" x1="831.3244" x2="831.3244" y1="196.978" y2="200.978"/><line style="stroke:#000000;stroke-width:1.0;" x1="831.3244" x2="1274.0309" y1="200.978" y2="200.978"/><line style="stroke:#000000;stroke-width:1.0;" x1="1274.0309" x2="1274.0309" y1="200.978" y2="216.978"/><polygon fill="#000000" points="1270.0309,206.978,1274.0309,216.978,1278.0309,206.978,1274.0309,210.978" style="stroke:#000000;stroke-width:1.0;"/><line style="stroke:#000000;stroke-width:1.0;" x1="603.6692" x2="603.6692" y1="874.6089" y2="879.6089"/><line style="stroke:#000000;stroke-width:1.0;" x1="603.6692" x2="117.0806" y1="879.6089" y2="879.6089"/><line style="stroke:#000000;stroke-width:1.0;" x1="117.0806" x2="117.0806" y1="879.6089" y2="894.6089"/><polygon fill="#000000" points="113.0806,884.6089,117.0806,894.6089,121.0806,884.6089,117.0806,888.6089" style="stroke:#000000;stroke-width:1.0;"/><text fill="#000000" font-family="Hack" font-size="18" lengthAdjust="spacing" textLength="125.1352" x="53.513" y="28.0158">&#1055;&#1086;&#1083;&#1100;&#1079;&#1086;&#1074;&#1072;&#1090;&#1077;&#1083;&#1100;</text><text fill="#000000" font-family="Hack" font-size="18" lengthAdjust="spacing" textLength="73.8355" x="547.4944" y="28.0158">&#1057;&#1080;&#1089;&#1090;&#1077;&#1084;&#1072;</text><text fill="#000000" font-family="Hack" font-size="18" lengthAdjust="spacing" textLength="177.5149" x="951.6631" y="28.0158">&#1041;&#1072;&#1085;&#1082;&#1086;&#1074;&#1089;&#1082;&#1072;&#1103; &#1089;&#1080;&#1089;&#1090;&#1077;&#1084;&#1072;</text><text fill="#000000" font-family="Hack" font-size="18" lengthAdjust="spacing" textLength="111.7793" x="1217.1413" y="28.0158">&#1041;&#1072;&#1079;&#1072; &#1076;&#1072;&#1085;&#1085;&#1099;&#1093;</text><!--SRC=[dLNDRjD04BxlKomtUk05Ol4maN3Q26gZnCSSyaC1qOgeg188YLI88nSdSh1h9uwK9vXz8xwPDRQJs0MnacFlUFQRcM- -SPu45-wbgozzprTAZUYUSihC3SMuhoWqKrhpVgI6GNSGg0vzff1sPaovcL1YfkP6u_4DhZ5jA8FtbX9QQm24bEB2tM7Wx_2U2Do6mX605hGq7ymSKIoCl4L0CpCJOD8EQBozreAJwltFoagXHg0YZ4tdlSGEzvcZUlxWfT9O_Pv-Ya2rGu0oOppcz72cKRi71m2PwPaSu7MIAnlTLqCNhX65TSTRHDy24ro13iQUQ-7bw3Il3c1t_4ggadh7y8d4TyKiFPg0XRX7gZXbhX0GzVoDkWhJymDN3_hd5q5fuaMVu1uZIaw_Q6kkwQ4Th7DmajSpNPBxZjblT01Q2fSSyBSr5zTx8KcfOjFlITjqzxpRzrH5RynTYuHdv6UkB1kdyga4vnGUNoNvXCN1_1R2bDwpiiMiOOjP5QpV69ijwstLWBP0YROfHRpwcPb6fAR1cJkgjQC7tPGJ1V8NkZkQ7oPBHArOqUsJyhm-9DAIVLRAlDHkXtvO252Ir-QFQy1lJij3L63Yir3Dpffdp0BTiJU0oYv4F4imP9HeULCVZvpbDKN9R9O2pLlmbp3ZCWoncJ69jZoKROUkDf__aVetcmteO7rlAFcJ_RzGUIZU9Z9RU60vHAAn9QTgXQFbCvN0bF8cRIZQp9pQHDXVrLnr9P7Q5t9nz2sMcUQAEnXrLXl4QZax2TscuO_EO_yBRIfkwkSmy5-htm00]--></g></svg>