<svg xmlns="http://www.w3.org/2000/svg" xmlns:xlink="http://www.w3.org/1999/xlink" contentStyleType="text/css" height="799px" preserveAspectRatio="none" style="width:2081px;height:799px;background:#FFFFFF;" version="1.1" viewBox="0 0 2081 799" width="2081px" zoomAndPan="magnify"><defs/><g><!--class web_site--><g id="elem_web_site"><rect codeLine="4" fill="#FFFFFF" height="45.0679" id="web_site" rx="2.5" ry="2.5" style="stroke:#000000;stroke-width:1.0;" width="88.2578" x="996.5" y="12"/><ellipse cx="1008.5" cy="26.534" fill="#FFFFFF" rx="8" ry="8" style="stroke:#000000;stroke-width:1.0;"/><path d="M1009.5781,23.8621 Q1009.6563,23.7371 1009.7656,23.6746 Q1009.8906,23.6121 1010.0156,23.6121 Q1010.2344,23.6121 1010.375,23.7683 Q1010.5156,23.9246 1010.5156,24.284 L1010.5156,25.1277 Q1010.5156,25.4871 1010.375,25.6433 Q1010.2344,25.7996 1010.0156,25.7996 Q1009.8125,25.7996 1009.6875,25.6902 Q1009.5625,25.5808 1009.5,25.2683 Q1009.4688,25.0652 1009.375,24.9558 Q1009.1719,24.7215 1008.8125,24.5965 Q1008.4531,24.4715 1008.0938,24.4715 Q1007.6406,24.4715 1007.2656,24.6746 Q1006.8906,24.8621 1006.5938,25.2996 Q1006.3125,25.7371 1006.3125,26.3465 L1006.3125,26.9871 Q1006.3125,27.7058 1006.8281,28.1902 Q1007.3594,28.6746 1008.2969,28.6746 Q1008.8594,28.6746 1009.2344,28.534 Q1009.4688,28.4402 1009.7188,28.1746 Q1009.875,28.0183 1009.9531,27.9715 Q1010.0469,27.9246 1010.1563,27.9246 Q1010.3594,27.9246 1010.5156,28.0808 Q1010.6719,28.2371 1010.6719,28.4402 Q1010.6719,28.6433 1010.4531,28.8777 Q1010.1563,29.2215 1009.6875,29.409 Q1009.0625,29.6746 1008.2969,29.6746 Q1007.4063,29.6746 1006.7031,29.3152 Q1006.125,29.0183 1005.7188,28.3933 Q1005.3125,27.7527 1005.3125,27.0027 L1005.3125,26.3308 Q1005.3125,25.5496 1005.6719,24.8777 Q1006.0469,24.1902 1006.6875,23.8308 Q1007.3281,23.4715 1008.0469,23.4715 Q1008.4844,23.4715 1008.8594,23.5652 Q1009.25,23.659 1009.5781,23.8621 Z " fill="#000000"/><text fill="#000000" font-family="Hack" font-size="14" lengthAdjust="spacing" textLength="62.2578" x="1019.5" y="31.9659">&#1042;&#1077;&#1073;-&#1057;&#1072;&#1081;&#1090;</text><line style="stroke:#000000;stroke-width:1.0;" x1="997.5" x2="1083.7578" y1="41.0679" y2="41.0679"/><line style="stroke:#000000;stroke-width:1.0;" x1="997.5" x2="1083.7578" y1="49.0679" y2="49.0679"/></g><!--class product--><g id="elem_product"><rect codeLine="6" fill="#FFFFFF" height="45.0679" id="product" rx="2.5" ry="2.5" style="stroke:#000000;stroke-width:1.0;" width="66.7818" x="988" y="327"/><ellipse cx="1000" cy="341.534" fill="#FFFFFF" rx="8" ry="8" style="stroke:#000000;stroke-width:1.0;"/><path d="M1001.0781,338.8621 Q1001.1563,338.7371 1001.2656,338.6746 Q1001.3906,338.6121 1001.5156,338.6121 Q1001.7344,338.6121 1001.875,338.7683 Q1002.0156,338.9246 1002.0156,339.284 L1002.0156,340.1277 Q1002.0156,340.4871 1001.875,340.6433 Q1001.7344,340.7996 1001.5156,340.7996 Q1001.3125,340.7996 1001.1875,340.6902 Q1001.0625,340.5808 1001,340.2683 Q1000.9688,340.0652 1000.875,339.9558 Q1000.6719,339.7215 1000.3125,339.5965 Q999.9531,339.4715 999.5938,339.4715 Q999.1406,339.4715 998.7656,339.6746 Q998.3906,339.8621 998.0938,340.2996 Q997.8125,340.7371 997.8125,341.3465 L997.8125,341.9871 Q997.8125,342.7058 998.3281,343.1902 Q998.8594,343.6746 999.7969,343.6746 Q1000.3594,343.6746 1000.7344,343.534 Q1000.9688,343.4402 1001.2188,343.1746 Q1001.375,343.0183 1001.4531,342.9715 Q1001.5469,342.9246 1001.6563,342.9246 Q1001.8594,342.9246 1002.0156,343.0808 Q1002.1719,343.2371 1002.1719,343.4402 Q1002.1719,343.6433 1001.9531,343.8777 Q1001.6563,344.2215 1001.1875,344.409 Q1000.5625,344.6746 999.7969,344.6746 Q998.9063,344.6746 998.2031,344.3152 Q997.625,344.0183 997.2188,343.3933 Q996.8125,342.7527 996.8125,342.0027 L996.8125,341.3308 Q996.8125,340.5496 997.1719,339.8777 Q997.5469,339.1902 998.1875,338.8308 Q998.8281,338.4715 999.5469,338.4715 Q999.9844,338.4715 1000.3594,338.5652 Q1000.75,338.659 1001.0781,338.8621 Z " fill="#000000"/><text fill="#000000" font-family="Hack" font-size="14" lengthAdjust="spacing" textLength="40.7818" x="1011" y="346.9659">&#1058;&#1086;&#1074;&#1072;&#1088;</text><line style="stroke:#000000;stroke-width:1.0;" x1="989" x2="1053.7818" y1="356.0679" y2="356.0679"/><line style="stroke:#000000;stroke-width:1.0;" x1="989" x2="1053.7818" y1="364.0679" y2="364.0679"/></g><!--class parts--><g id="elem_parts"><rect codeLine="8" fill="#FFFFFF" height="45.0679" id="parts" rx="2.5" ry="2.5" style="stroke:#000000;stroke-width:1.0;" width="220.9212" x="607" y="432"/><ellipse cx="619" cy="446.534" fill="#FFFFFF" rx="8" ry="8" style="stroke:#000000;stroke-width:1.0;"/><path d="M620.0781,443.8621 Q620.1563,443.7371 620.2656,443.6746 Q620.3906,443.6121 620.5156,443.6121 Q620.7344,443.6121 620.875,443.7683 Q621.0156,443.9246 621.0156,444.284 L621.0156,445.1277 Q621.0156,445.4871 620.875,445.6433 Q620.7344,445.7996 620.5156,445.7996 Q620.3125,445.7996 620.1875,445.6902 Q620.0625,445.5808 620,445.2683 Q619.9688,445.0652 619.875,444.9558 Q619.6719,444.7215 619.3125,444.5965 Q618.9531,444.4715 618.5938,444.4715 Q618.1406,444.4715 617.7656,444.6746 Q617.3906,444.8621 617.0938,445.2996 Q616.8125,445.7371 616.8125,446.3465 L616.8125,446.9871 Q616.8125,447.7058 617.3281,448.1902 Q617.8594,448.6746 618.7969,448.6746 Q619.3594,448.6746 619.7344,448.534 Q619.9688,448.4402 620.2188,448.1746 Q620.375,448.0183 620.4531,447.9715 Q620.5469,447.9246 620.6563,447.9246 Q620.8594,447.9246 621.0156,448.0808 Q621.1719,448.2371 621.1719,448.4402 Q621.1719,448.6433 620.9531,448.8777 Q620.6563,449.2215 620.1875,449.409 Q619.5625,449.6746 618.7969,449.6746 Q617.9063,449.6746 617.2031,449.3152 Q616.625,449.0183 616.2188,448.3933 Q615.8125,447.7527 615.8125,447.0027 L615.8125,446.3308 Q615.8125,445.5496 616.1719,444.8777 Q616.5469,444.1902 617.1875,443.8308 Q617.8281,443.4715 618.5469,443.4715 Q618.9844,443.4715 619.3594,443.5652 Q619.75,443.659 620.0781,443.8621 Z " fill="#000000"/><text fill="#000000" font-family="Hack" font-size="14" lengthAdjust="spacing" textLength="194.9212" x="630" y="451.9659">&#1054;&#1090;&#1076;&#1077;&#1083;&#1100;&#1085;&#1099;&#1077; &#1082;&#1086;&#1084;&#1087;&#1083;&#1077;&#1082;&#1090;&#1091;&#1102;&#1097;&#1080;&#1077;</text><line style="stroke:#000000;stroke-width:1.0;" x1="608" x2="826.9212" y1="461.0679" y2="461.0679"/><line style="stroke:#000000;stroke-width:1.0;" x1="608" x2="826.9212" y1="469.0679" y2="469.0679"/></g><!--class peripherals--><g id="elem_peripherals"><rect codeLine="9" fill="#FFFFFF" height="45.0679" id="peripherals" rx="2.5" ry="2.5" style="stroke:#000000;stroke-width:1.0;" width="105.2257" x="863" y="432"/><ellipse cx="875" cy="446.534" fill="#FFFFFF" rx="8" ry="8" style="stroke:#000000;stroke-width:1.0;"/><path d="M876.0781,443.8621 Q876.1563,443.7371 876.2656,443.6746 Q876.3906,443.6121 876.5156,443.6121 Q876.7344,443.6121 876.875,443.7683 Q877.0156,443.9246 877.0156,444.284 L877.0156,445.1277 Q877.0156,445.4871 876.875,445.6433 Q876.7344,445.7996 876.5156,445.7996 Q876.3125,445.7996 876.1875,445.6902 Q876.0625,445.5808 876,445.2683 Q875.9688,445.0652 875.875,444.9558 Q875.6719,444.7215 875.3125,444.5965 Q874.9531,444.4715 874.5938,444.4715 Q874.1406,444.4715 873.7656,444.6746 Q873.3906,444.8621 873.0938,445.2996 Q872.8125,445.7371 872.8125,446.3465 L872.8125,446.9871 Q872.8125,447.7058 873.3281,448.1902 Q873.8594,448.6746 874.7969,448.6746 Q875.3594,448.6746 875.7344,448.534 Q875.9688,448.4402 876.2188,448.1746 Q876.375,448.0183 876.4531,447.9715 Q876.5469,447.9246 876.6563,447.9246 Q876.8594,447.9246 877.0156,448.0808 Q877.1719,448.2371 877.1719,448.4402 Q877.1719,448.6433 876.9531,448.8777 Q876.6563,449.2215 876.1875,449.409 Q875.5625,449.6746 874.7969,449.6746 Q873.9063,449.6746 873.2031,449.3152 Q872.625,449.0183 872.2188,448.3933 Q871.8125,447.7527 871.8125,447.0027 L871.8125,446.3308 Q871.8125,445.5496 872.1719,444.8777 Q872.5469,444.1902 873.1875,443.8308 Q873.8281,443.4715 874.5469,443.4715 Q874.9844,443.4715 875.3594,443.5652 Q875.75,443.659 876.0781,443.8621 Z " fill="#000000"/><text fill="#000000" font-family="Hack" font-size="14" lengthAdjust="spacing" textLength="79.2257" x="886" y="451.9659">&#1055;&#1077;&#1088;&#1077;&#1092;&#1080;&#1088;&#1080;&#1103;</text><line style="stroke:#000000;stroke-width:1.0;" x1="864" x2="967.2257" y1="461.0679" y2="461.0679"/><line style="stroke:#000000;stroke-width:1.0;" x1="864" x2="967.2257" y1="469.0679" y2="469.0679"/></g><!--class computer--><g id="elem_computer"><rect codeLine="12" fill="#FFFFFF" height="45.0679" id="computer" rx="2.5" ry="2.5" style="stroke:#000000;stroke-width:1.0;" width="105.4917" x="467" y="432"/><ellipse cx="479" cy="446.534" fill="#FFFFFF" rx="8" ry="8" style="stroke:#000000;stroke-width:1.0;"/><path d="M480.0781,443.8621 Q480.1563,443.7371 480.2656,443.6746 Q480.3906,443.6121 480.5156,443.6121 Q480.7344,443.6121 480.875,443.7683 Q481.0156,443.9246 481.0156,444.284 L481.0156,445.1277 Q481.0156,445.4871 480.875,445.6433 Q480.7344,445.7996 480.5156,445.7996 Q480.3125,445.7996 480.1875,445.6902 Q480.0625,445.5808 480,445.2683 Q479.9688,445.0652 479.875,444.9558 Q479.6719,444.7215 479.3125,444.5965 Q478.9531,444.4715 478.5938,444.4715 Q478.1406,444.4715 477.7656,444.6746 Q477.3906,444.8621 477.0938,445.2996 Q476.8125,445.7371 476.8125,446.3465 L476.8125,446.9871 Q476.8125,447.7058 477.3281,448.1902 Q477.8594,448.6746 478.7969,448.6746 Q479.3594,448.6746 479.7344,448.534 Q479.9688,448.4402 480.2188,448.1746 Q480.375,448.0183 480.4531,447.9715 Q480.5469,447.9246 480.6563,447.9246 Q480.8594,447.9246 481.0156,448.0808 Q481.1719,448.2371 481.1719,448.4402 Q481.1719,448.6433 480.9531,448.8777 Q480.6563,449.2215 480.1875,449.409 Q479.5625,449.6746 478.7969,449.6746 Q477.9063,449.6746 477.2031,449.3152 Q476.625,449.0183 476.2188,448.3933 Q475.8125,447.7527 475.8125,447.0027 L475.8125,446.3308 Q475.8125,445.5496 476.1719,444.8777 Q476.5469,444.1902 477.1875,443.8308 Q477.8281,443.4715 478.5469,443.4715 Q478.9844,443.4715 479.3594,443.5652 Q479.75,443.659 480.0781,443.8621 Z " fill="#000000"/><text fill="#000000" font-family="Hack" font-size="14" lengthAdjust="spacing" textLength="79.4917" x="490" y="451.9659">&#1050;&#1086;&#1084;&#1087;&#1100;&#1102;&#1090;&#1077;&#1088;</text><line style="stroke:#000000;stroke-width:1.0;" x1="468" x2="571.4917" y1="461.0679" y2="461.0679"/><line style="stroke:#000000;stroke-width:1.0;" x1="468" x2="571.4917" y1="469.0679" y2="469.0679"/></g><!--class slot--><g id="elem_slot"><rect codeLine="14" fill="#FFFFFF" height="45.0679" id="slot" rx="2.5" ry="2.5" style="stroke:#000000;stroke-width:1.0;" width="145.4895" x="366" y="537"/><ellipse cx="378" cy="551.534" fill="#FFFFFF" rx="8" ry="8" style="stroke:#000000;stroke-width:1.0;"/><path d="M379.0781,548.8621 Q379.1563,548.7371 379.2656,548.6746 Q379.3906,548.6121 379.5156,548.6121 Q379.7344,548.6121 379.875,548.7683 Q380.0156,548.9246 380.0156,549.284 L380.0156,550.1277 Q380.0156,550.4871 379.875,550.6433 Q379.7344,550.7996 379.5156,550.7996 Q379.3125,550.7996 379.1875,550.6902 Q379.0625,550.5808 379,550.2683 Q378.9688,550.0652 378.875,549.9558 Q378.6719,549.7215 378.3125,549.5965 Q377.9531,549.4715 377.5938,549.4715 Q377.1406,549.4715 376.7656,549.6746 Q376.3906,549.8621 376.0938,550.2996 Q375.8125,550.7371 375.8125,551.3465 L375.8125,551.9871 Q375.8125,552.7058 376.3281,553.1902 Q376.8594,553.6746 377.7969,553.6746 Q378.3594,553.6746 378.7344,553.534 Q378.9688,553.4402 379.2188,553.1746 Q379.375,553.0183 379.4531,552.9715 Q379.5469,552.9246 379.6563,552.9246 Q379.8594,552.9246 380.0156,553.0808 Q380.1719,553.2371 380.1719,553.4402 Q380.1719,553.6433 379.9531,553.8777 Q379.6563,554.2215 379.1875,554.409 Q378.5625,554.6746 377.7969,554.6746 Q376.9063,554.6746 376.2031,554.3152 Q375.625,554.0183 375.2188,553.3933 Q374.8125,552.7527 374.8125,552.0027 L374.8125,551.3308 Q374.8125,550.5496 375.1719,549.8777 Q375.5469,549.1902 376.1875,548.8308 Q376.8281,548.4715 377.5469,548.4715 Q377.9844,548.4715 378.3594,548.5652 Q378.75,548.659 379.0781,548.8621 Z " fill="#000000"/><text fill="#000000" font-family="Hack" font-size="14" lengthAdjust="spacing" textLength="119.4895" x="389" y="556.9659">&#1057;&#1083;&#1086;&#1090; &#1082;&#1086;&#1084;&#1087;&#1086;&#1085;&#1077;&#1085;&#1090;&#1072;</text><line style="stroke:#000000;stroke-width:1.0;" x1="367" x2="510.4895" y1="566.0679" y2="566.0679"/><line style="stroke:#000000;stroke-width:1.0;" x1="367" x2="510.4895" y1="574.0679" y2="574.0679"/></g><!--class component--><g id="elem_component"><rect codeLine="15" fill="#FFFFFF" height="45.0679" id="component" rx="2.5" ry="2.5" style="stroke:#000000;stroke-width:1.0;" width="103.1677" x="678" y="642"/><ellipse cx="690" cy="656.534" fill="#FFFFFF" rx="8" ry="8" style="stroke:#000000;stroke-width:1.0;"/><path d="M691.0781,653.8621 Q691.1563,653.7371 691.2656,653.6746 Q691.3906,653.6121 691.5156,653.6121 Q691.7344,653.6121 691.875,653.7683 Q692.0156,653.9246 692.0156,654.284 L692.0156,655.1277 Q692.0156,655.4871 691.875,655.6433 Q691.7344,655.7996 691.5156,655.7996 Q691.3125,655.7996 691.1875,655.6902 Q691.0625,655.5808 691,655.2683 Q690.9688,655.0652 690.875,654.9558 Q690.6719,654.7215 690.3125,654.5965 Q689.9531,654.4715 689.5938,654.4715 Q689.1406,654.4715 688.7656,654.6746 Q688.3906,654.8621 688.0938,655.2996 Q687.8125,655.7371 687.8125,656.3465 L687.8125,656.9871 Q687.8125,657.7058 688.3281,658.1902 Q688.8594,658.6746 689.7969,658.6746 Q690.3594,658.6746 690.7344,658.534 Q690.9688,658.4402 691.2188,658.1746 Q691.375,658.0183 691.4531,657.9715 Q691.5469,657.9246 691.6563,657.9246 Q691.8594,657.9246 692.0156,658.0808 Q692.1719,658.2371 692.1719,658.4402 Q692.1719,658.6433 691.9531,658.8777 Q691.6563,659.2215 691.1875,659.409 Q690.5625,659.6746 689.7969,659.6746 Q688.9063,659.6746 688.2031,659.3152 Q687.625,659.0183 687.2188,658.3933 Q686.8125,657.7527 686.8125,657.0027 L686.8125,656.3308 Q686.8125,655.5496 687.1719,654.8777 Q687.5469,654.1902 688.1875,653.8308 Q688.8281,653.4715 689.5469,653.4715 Q689.9844,653.4715 690.3594,653.5652 Q690.75,653.659 691.0781,653.8621 Z " fill="#000000"/><text fill="#000000" font-family="Hack" font-size="14" lengthAdjust="spacing" textLength="77.1677" x="701" y="661.9659">&#1050;&#1086;&#1084;&#1087;&#1086;&#1085;&#1077;&#1085;&#1090;</text><line style="stroke:#000000;stroke-width:1.0;" x1="679" x2="780.1677" y1="671.0679" y2="671.0679"/><line style="stroke:#000000;stroke-width:1.0;" x1="679" x2="780.1677" y1="679.0679" y2="679.0679"/></g><!--class component_memory--><g id="elem_component_memory"><rect codeLine="18" fill="#FFFFFF" height="45.0679" id="component_memory" rx="2.5" ry="2.5" style="stroke:#000000;stroke-width:1.0;" width="53.9019" x="589.5" y="747"/><ellipse cx="601.5" cy="761.534" fill="#FFFFFF" rx="8" ry="8" style="stroke:#000000;stroke-width:1.0;"/><path d="M602.5781,758.8621 Q602.6563,758.7371 602.7656,758.6746 Q602.8906,758.6121 603.0156,758.6121 Q603.2344,758.6121 603.375,758.7683 Q603.5156,758.9246 603.5156,759.284 L603.5156,760.1277 Q603.5156,760.4871 603.375,760.6433 Q603.2344,760.7996 603.0156,760.7996 Q602.8125,760.7996 602.6875,760.6902 Q602.5625,760.5808 602.5,760.2683 Q602.4688,760.0652 602.375,759.9558 Q602.1719,759.7215 601.8125,759.5965 Q601.4531,759.4715 601.0938,759.4715 Q600.6406,759.4715 600.2656,759.6746 Q599.8906,759.8621 599.5938,760.2996 Q599.3125,760.7371 599.3125,761.3465 L599.3125,761.9871 Q599.3125,762.7058 599.8281,763.1902 Q600.3594,763.6746 601.2969,763.6746 Q601.8594,763.6746 602.2344,763.534 Q602.4688,763.4402 602.7188,763.1746 Q602.875,763.0183 602.9531,762.9715 Q603.0469,762.9246 603.1563,762.9246 Q603.3594,762.9246 603.5156,763.0808 Q603.6719,763.2371 603.6719,763.4402 Q603.6719,763.6433 603.4531,763.8777 Q603.1563,764.2215 602.6875,764.409 Q602.0625,764.6746 601.2969,764.6746 Q600.4063,764.6746 599.7031,764.3152 Q599.125,764.0183 598.7188,763.3933 Q598.3125,762.7527 598.3125,762.0027 L598.3125,761.3308 Q598.3125,760.5496 598.6719,759.8777 Q599.0469,759.1902 599.6875,758.8308 Q600.3281,758.4715 601.0469,758.4715 Q601.4844,758.4715 601.8594,758.5652 Q602.25,758.659 602.5781,758.8621 Z " fill="#000000"/><text fill="#000000" font-family="Hack" font-size="14" lengthAdjust="spacing" textLength="27.9019" x="612.5" y="766.9659">&#1054;&#1047;&#1059;</text><line style="stroke:#000000;stroke-width:1.0;" x1="590.5" x2="642.4019" y1="776.0679" y2="776.0679"/><line style="stroke:#000000;stroke-width:1.0;" x1="590.5" x2="642.4019" y1="784.0679" y2="784.0679"/></g><!--class component_cpu--><g id="elem_component_cpu"><rect codeLine="19" fill="#FFFFFF" height="45.0679" id="component_cpu" rx="2.5" ry="2.5" style="stroke:#000000;stroke-width:1.0;" width="100.5777" x="679" y="747"/><ellipse cx="691" cy="761.534" fill="#FFFFFF" rx="8" ry="8" style="stroke:#000000;stroke-width:1.0;"/><path d="M692.0781,758.8621 Q692.1563,758.7371 692.2656,758.6746 Q692.3906,758.6121 692.5156,758.6121 Q692.7344,758.6121 692.875,758.7683 Q693.0156,758.9246 693.0156,759.284 L693.0156,760.1277 Q693.0156,760.4871 692.875,760.6433 Q692.7344,760.7996 692.5156,760.7996 Q692.3125,760.7996 692.1875,760.6902 Q692.0625,760.5808 692,760.2683 Q691.9688,760.0652 691.875,759.9558 Q691.6719,759.7215 691.3125,759.5965 Q690.9531,759.4715 690.5938,759.4715 Q690.1406,759.4715 689.7656,759.6746 Q689.3906,759.8621 689.0938,760.2996 Q688.8125,760.7371 688.8125,761.3465 L688.8125,761.9871 Q688.8125,762.7058 689.3281,763.1902 Q689.8594,763.6746 690.7969,763.6746 Q691.3594,763.6746 691.7344,763.534 Q691.9688,763.4402 692.2188,763.1746 Q692.375,763.0183 692.4531,762.9715 Q692.5469,762.9246 692.6563,762.9246 Q692.8594,762.9246 693.0156,763.0808 Q693.1719,763.2371 693.1719,763.4402 Q693.1719,763.6433 692.9531,763.8777 Q692.6563,764.2215 692.1875,764.409 Q691.5625,764.6746 690.7969,764.6746 Q689.9063,764.6746 689.2031,764.3152 Q688.625,764.0183 688.2188,763.3933 Q687.8125,762.7527 687.8125,762.0027 L687.8125,761.3308 Q687.8125,760.5496 688.1719,759.8777 Q688.5469,759.1902 689.1875,758.8308 Q689.8281,758.4715 690.5469,758.4715 Q690.9844,758.4715 691.3594,758.5652 Q691.75,758.659 692.0781,758.8621 Z " fill="#000000"/><text fill="#000000" font-family="Hack" font-size="14" lengthAdjust="spacing" textLength="74.5777" x="702" y="766.9659">&#1055;&#1088;&#1086;&#1094;&#1077;&#1089;&#1089;&#1086;&#1088;</text><line style="stroke:#000000;stroke-width:1.0;" x1="680" x2="778.5777" y1="776.0679" y2="776.0679"/><line style="stroke:#000000;stroke-width:1.0;" x1="680" x2="778.5777" y1="784.0679" y2="784.0679"/></g><!--class component_hard--><g id="elem_component_hard"><rect codeLine="20" fill="#FFFFFF" height="45.0679" id="component_hard" rx="2.5" ry="2.5" style="stroke:#000000;stroke-width:1.0;" width="119.5476" x="815.5" y="747"/><ellipse cx="827.5" cy="761.534" fill="#FFFFFF" rx="8" ry="8" style="stroke:#000000;stroke-width:1.0;"/><path d="M828.5781,758.8621 Q828.6563,758.7371 828.7656,758.6746 Q828.8906,758.6121 829.0156,758.6121 Q829.2344,758.6121 829.375,758.7683 Q829.5156,758.9246 829.5156,759.284 L829.5156,760.1277 Q829.5156,760.4871 829.375,760.6433 Q829.2344,760.7996 829.0156,760.7996 Q828.8125,760.7996 828.6875,760.6902 Q828.5625,760.5808 828.5,760.2683 Q828.4688,760.0652 828.375,759.9558 Q828.1719,759.7215 827.8125,759.5965 Q827.4531,759.4715 827.0938,759.4715 Q826.6406,759.4715 826.2656,759.6746 Q825.8906,759.8621 825.5938,760.2996 Q825.3125,760.7371 825.3125,761.3465 L825.3125,761.9871 Q825.3125,762.7058 825.8281,763.1902 Q826.3594,763.6746 827.2969,763.6746 Q827.8594,763.6746 828.2344,763.534 Q828.4688,763.4402 828.7188,763.1746 Q828.875,763.0183 828.9531,762.9715 Q829.0469,762.9246 829.1563,762.9246 Q829.3594,762.9246 829.5156,763.0808 Q829.6719,763.2371 829.6719,763.4402 Q829.6719,763.6433 829.4531,763.8777 Q829.1563,764.2215 828.6875,764.409 Q828.0625,764.6746 827.2969,764.6746 Q826.4063,764.6746 825.7031,764.3152 Q825.125,764.0183 824.7188,763.3933 Q824.3125,762.7527 824.3125,762.0027 L824.3125,761.3308 Q824.3125,760.5496 824.6719,759.8777 Q825.0469,759.1902 825.6875,758.8308 Q826.3281,758.4715 827.0469,758.4715 Q827.4844,758.4715 827.8594,758.5652 Q828.25,758.659 828.5781,758.8621 Z " fill="#000000"/><text fill="#000000" font-family="Hack" font-size="14" lengthAdjust="spacing" textLength="93.5476" x="838.5" y="766.9659">&#1046;&#1077;&#1089;&#1090;&#1082;&#1080;&#1081; &#1076;&#1080;&#1089;&#1082;</text><line style="stroke:#000000;stroke-width:1.0;" x1="816.5" x2="934.0476" y1="776.0679" y2="776.0679"/><line style="stroke:#000000;stroke-width:1.0;" x1="816.5" x2="934.0476" y1="784.0679" y2="784.0679"/></g><!--class server--><g id="elem_server"><rect codeLine="23" fill="#FFFFFF" height="45.0679" id="server" rx="2.5" ry="2.5" style="stroke:#000000;stroke-width:1.0;" width="75.9238" x="546.5" y="537"/><ellipse cx="558.5" cy="551.534" fill="#FFFFFF" rx="8" ry="8" style="stroke:#000000;stroke-width:1.0;"/><path d="M559.5781,548.8621 Q559.6563,548.7371 559.7656,548.6746 Q559.8906,548.6121 560.0156,548.6121 Q560.2344,548.6121 560.375,548.7683 Q560.5156,548.9246 560.5156,549.284 L560.5156,550.1277 Q560.5156,550.4871 560.375,550.6433 Q560.2344,550.7996 560.0156,550.7996 Q559.8125,550.7996 559.6875,550.6902 Q559.5625,550.5808 559.5,550.2683 Q559.4688,550.0652 559.375,549.9558 Q559.1719,549.7215 558.8125,549.5965 Q558.4531,549.4715 558.0938,549.4715 Q557.6406,549.4715 557.2656,549.6746 Q556.8906,549.8621 556.5938,550.2996 Q556.3125,550.7371 556.3125,551.3465 L556.3125,551.9871 Q556.3125,552.7058 556.8281,553.1902 Q557.3594,553.6746 558.2969,553.6746 Q558.8594,553.6746 559.2344,553.534 Q559.4688,553.4402 559.7188,553.1746 Q559.875,553.0183 559.9531,552.9715 Q560.0469,552.9246 560.1563,552.9246 Q560.3594,552.9246 560.5156,553.0808 Q560.6719,553.2371 560.6719,553.4402 Q560.6719,553.6433 560.4531,553.8777 Q560.1563,554.2215 559.6875,554.409 Q559.0625,554.6746 558.2969,554.6746 Q557.4063,554.6746 556.7031,554.3152 Q556.125,554.0183 555.7188,553.3933 Q555.3125,552.7527 555.3125,552.0027 L555.3125,551.3308 Q555.3125,550.5496 555.6719,549.8777 Q556.0469,549.1902 556.6875,548.8308 Q557.3281,548.4715 558.0469,548.4715 Q558.4844,548.4715 558.8594,548.5652 Q559.25,548.659 559.5781,548.8621 Z " fill="#000000"/><text fill="#000000" font-family="Hack" font-size="14" lengthAdjust="spacing" textLength="49.9238" x="569.5" y="556.9659">C&#1077;&#1088;&#1074;&#1077;&#1088;</text><line style="stroke:#000000;stroke-width:1.0;" x1="547.5" x2="621.4238" y1="566.0679" y2="566.0679"/><line style="stroke:#000000;stroke-width:1.0;" x1="547.5" x2="621.4238" y1="574.0679" y2="574.0679"/></g><!--class stand_pc--><g id="elem_stand_pc"><rect codeLine="24" fill="#FFFFFF" height="45.0679" id="stand_pc" rx="2.5" ry="2.5" style="stroke:#000000;stroke-width:1.0;" width="133.8276" x="657.5" y="537"/><ellipse cx="669.5" cy="551.534" fill="#FFFFFF" rx="8" ry="8" style="stroke:#000000;stroke-width:1.0;"/><path d="M670.5781,548.8621 Q670.6563,548.7371 670.7656,548.6746 Q670.8906,548.6121 671.0156,548.6121 Q671.2344,548.6121 671.375,548.7683 Q671.5156,548.9246 671.5156,549.284 L671.5156,550.1277 Q671.5156,550.4871 671.375,550.6433 Q671.2344,550.7996 671.0156,550.7996 Q670.8125,550.7996 670.6875,550.6902 Q670.5625,550.5808 670.5,550.2683 Q670.4688,550.0652 670.375,549.9558 Q670.1719,549.7215 669.8125,549.5965 Q669.4531,549.4715 669.0938,549.4715 Q668.6406,549.4715 668.2656,549.6746 Q667.8906,549.8621 667.5938,550.2996 Q667.3125,550.7371 667.3125,551.3465 L667.3125,551.9871 Q667.3125,552.7058 667.8281,553.1902 Q668.3594,553.6746 669.2969,553.6746 Q669.8594,553.6746 670.2344,553.534 Q670.4688,553.4402 670.7188,553.1746 Q670.875,553.0183 670.9531,552.9715 Q671.0469,552.9246 671.1563,552.9246 Q671.3594,552.9246 671.5156,553.0808 Q671.6719,553.2371 671.6719,553.4402 Q671.6719,553.6433 671.4531,553.8777 Q671.1563,554.2215 670.6875,554.409 Q670.0625,554.6746 669.2969,554.6746 Q668.4063,554.6746 667.7031,554.3152 Q667.125,554.0183 666.7188,553.3933 Q666.3125,552.7527 666.3125,552.0027 L666.3125,551.3308 Q666.3125,550.5496 666.6719,549.8777 Q667.0469,549.1902 667.6875,548.8308 Q668.3281,548.4715 669.0469,548.4715 Q669.4844,548.4715 669.8594,548.5652 Q670.25,548.659 670.5781,548.8621 Z " fill="#000000"/><text fill="#000000" font-family="Hack" font-size="14" lengthAdjust="spacing" textLength="107.8276" x="680.5" y="556.9659">&#1053;&#1072;&#1089;&#1090;&#1086;&#1083;&#1100;&#1085;&#1099;&#1081; &#1055;&#1050;</text><line style="stroke:#000000;stroke-width:1.0;" x1="658.5" x2="790.3276" y1="566.0679" y2="566.0679"/><line style="stroke:#000000;stroke-width:1.0;" x1="658.5" x2="790.3276" y1="574.0679" y2="574.0679"/></g><!--class prot_pc--><g id="elem_prot_pc"><rect codeLine="25" fill="#FFFFFF" height="45.0679" id="prot_pc" rx="2.5" ry="2.5" style="stroke:#000000;stroke-width:1.0;" width="142.8996" x="12" y="537"/><ellipse cx="24" cy="551.534" fill="#FFFFFF" rx="8" ry="8" style="stroke:#000000;stroke-width:1.0;"/><path d="M25.0781,548.8621 Q25.1563,548.7371 25.2656,548.6746 Q25.3906,548.6121 25.5156,548.6121 Q25.7344,548.6121 25.875,548.7683 Q26.0156,548.9246 26.0156,549.284 L26.0156,550.1277 Q26.0156,550.4871 25.875,550.6433 Q25.7344,550.7996 25.5156,550.7996 Q25.3125,550.7996 25.1875,550.6902 Q25.0625,550.5808 25,550.2683 Q24.9688,550.0652 24.875,549.9558 Q24.6719,549.7215 24.3125,549.5965 Q23.9531,549.4715 23.5938,549.4715 Q23.1406,549.4715 22.7656,549.6746 Q22.3906,549.8621 22.0938,550.2996 Q21.8125,550.7371 21.8125,551.3465 L21.8125,551.9871 Q21.8125,552.7058 22.3281,553.1902 Q22.8594,553.6746 23.7969,553.6746 Q24.3594,553.6746 24.7344,553.534 Q24.9688,553.4402 25.2188,553.1746 Q25.375,553.0183 25.4531,552.9715 Q25.5469,552.9246 25.6563,552.9246 Q25.8594,552.9246 26.0156,553.0808 Q26.1719,553.2371 26.1719,553.4402 Q26.1719,553.6433 25.9531,553.8777 Q25.6563,554.2215 25.1875,554.409 Q24.5625,554.6746 23.7969,554.6746 Q22.9063,554.6746 22.2031,554.3152 Q21.625,554.0183 21.2188,553.3933 Q20.8125,552.7527 20.8125,552.0027 L20.8125,551.3308 Q20.8125,550.5496 21.1719,549.8777 Q21.5469,549.1902 22.1875,548.8308 Q22.8281,548.4715 23.5469,548.4715 Q23.9844,548.4715 24.3594,548.5652 Q24.75,548.659 25.0781,548.8621 Z " fill="#000000"/><text fill="#000000" font-family="Hack" font-size="14" lengthAdjust="spacing" textLength="116.8996" x="35" y="556.9659">&#1055;&#1086;&#1088;&#1090;&#1072;&#1090;&#1080;&#1074;&#1085;&#1099;&#1081; &#1055;&#1050;</text><line style="stroke:#000000;stroke-width:1.0;" x1="13" x2="153.8996" y1="566.0679" y2="566.0679"/><line style="stroke:#000000;stroke-width:1.0;" x1="13" x2="153.8996" y1="574.0679" y2="574.0679"/></g><!--class tab_pc--><g id="elem_tab_pc"><rect codeLine="26" fill="#FFFFFF" height="45.0679" id="tab_pc" rx="2.5" ry="2.5" style="stroke:#000000;stroke-width:1.0;" width="139.5676" x="190.5" y="537"/><ellipse cx="202.5" cy="551.534" fill="#FFFFFF" rx="8" ry="8" style="stroke:#000000;stroke-width:1.0;"/><path d="M203.5781,548.8621 Q203.6563,548.7371 203.7656,548.6746 Q203.8906,548.6121 204.0156,548.6121 Q204.2344,548.6121 204.375,548.7683 Q204.5156,548.9246 204.5156,549.284 L204.5156,550.1277 Q204.5156,550.4871 204.375,550.6433 Q204.2344,550.7996 204.0156,550.7996 Q203.8125,550.7996 203.6875,550.6902 Q203.5625,550.5808 203.5,550.2683 Q203.4688,550.0652 203.375,549.9558 Q203.1719,549.7215 202.8125,549.5965 Q202.4531,549.4715 202.0938,549.4715 Q201.6406,549.4715 201.2656,549.6746 Q200.8906,549.8621 200.5938,550.2996 Q200.3125,550.7371 200.3125,551.3465 L200.3125,551.9871 Q200.3125,552.7058 200.8281,553.1902 Q201.3594,553.6746 202.2969,553.6746 Q202.8594,553.6746 203.2344,553.534 Q203.4688,553.4402 203.7188,553.1746 Q203.875,553.0183 203.9531,552.9715 Q204.0469,552.9246 204.1563,552.9246 Q204.3594,552.9246 204.5156,553.0808 Q204.6719,553.2371 204.6719,553.4402 Q204.6719,553.6433 204.4531,553.8777 Q204.1563,554.2215 203.6875,554.409 Q203.0625,554.6746 202.2969,554.6746 Q201.4063,554.6746 200.7031,554.3152 Q200.125,554.0183 199.7188,553.3933 Q199.3125,552.7527 199.3125,552.0027 L199.3125,551.3308 Q199.3125,550.5496 199.6719,549.8777 Q200.0469,549.1902 200.6875,548.8308 Q201.3281,548.4715 202.0469,548.4715 Q202.4844,548.4715 202.8594,548.5652 Q203.25,548.659 203.5781,548.8621 Z " fill="#000000"/><text fill="#000000" font-family="Hack" font-size="14" lengthAdjust="spacing" textLength="113.5676" x="213.5" y="556.9659">&#1055;&#1083;&#1072;&#1085;&#1096;&#1077;&#1090;&#1085;&#1099;&#1081; &#1055;&#1050;</text><line style="stroke:#000000;stroke-width:1.0;" x1="191.5" x2="329.0676" y1="566.0679" y2="566.0679"/><line style="stroke:#000000;stroke-width:1.0;" x1="191.5" x2="329.0676" y1="574.0679" y2="574.0679"/></g><!--class client--><g id="elem_client"><rect codeLine="28" fill="#FFFFFF" height="45.0679" id="client" rx="2.5" ry="2.5" style="stroke:#000000;stroke-width:1.0;" width="75.2238" x="1003" y="117"/><ellipse cx="1015" cy="131.534" fill="#FFFFFF" rx="8" ry="8" style="stroke:#000000;stroke-width:1.0;"/><path d="M1016.0781,128.8621 Q1016.1563,128.7371 1016.2656,128.6746 Q1016.3906,128.6121 1016.5156,128.6121 Q1016.7344,128.6121 1016.875,128.7683 Q1017.0156,128.9246 1017.0156,129.284 L1017.0156,130.1277 Q1017.0156,130.4871 1016.875,130.6433 Q1016.7344,130.7996 1016.5156,130.7996 Q1016.3125,130.7996 1016.1875,130.6902 Q1016.0625,130.5808 1016,130.2683 Q1015.9688,130.0652 1015.875,129.9558 Q1015.6719,129.7215 1015.3125,129.5965 Q1014.9531,129.4715 1014.5938,129.4715 Q1014.1406,129.4715 1013.7656,129.6746 Q1013.3906,129.8621 1013.0938,130.2996 Q1012.8125,130.7371 1012.8125,131.3465 L1012.8125,131.9871 Q1012.8125,132.7058 1013.3281,133.1902 Q1013.8594,133.6746 1014.7969,133.6746 Q1015.3594,133.6746 1015.7344,133.534 Q1015.9688,133.4402 1016.2188,133.1746 Q1016.375,133.0183 1016.4531,132.9715 Q1016.5469,132.9246 1016.6563,132.9246 Q1016.8594,132.9246 1017.0156,133.0808 Q1017.1719,133.2371 1017.1719,133.4402 Q1017.1719,133.6433 1016.9531,133.8777 Q1016.6563,134.2215 1016.1875,134.409 Q1015.5625,134.6746 1014.7969,134.6746 Q1013.9063,134.6746 1013.2031,134.3152 Q1012.625,134.0183 1012.2188,133.3933 Q1011.8125,132.7527 1011.8125,132.0027 L1011.8125,131.3308 Q1011.8125,130.5496 1012.1719,129.8777 Q1012.5469,129.1902 1013.1875,128.8308 Q1013.8281,128.4715 1014.5469,128.4715 Q1014.9844,128.4715 1015.3594,128.5652 Q1015.75,128.659 1016.0781,128.8621 Z " fill="#000000"/><text fill="#000000" font-family="Hack" font-size="14" lengthAdjust="spacing" textLength="49.2238" x="1026" y="136.9659">&#1050;&#1083;&#1080;&#1077;&#1085;&#1090;</text><line style="stroke:#000000;stroke-width:1.0;" x1="1004" x2="1077.2238" y1="146.0679" y2="146.0679"/><line style="stroke:#000000;stroke-width:1.0;" x1="1004" x2="1077.2238" y1="154.0679" y2="154.0679"/></g><!--class basket--><g id="elem_basket"><rect codeLine="29" fill="#FFFFFF" height="45.0679" id="basket" rx="2.5" ry="2.5" style="stroke:#000000;stroke-width:1.0;" width="84.3658" x="979.5" y="222"/><ellipse cx="991.5" cy="236.534" fill="#FFFFFF" rx="8" ry="8" style="stroke:#000000;stroke-width:1.0;"/><path d="M992.5781,233.8621 Q992.6563,233.7371 992.7656,233.6746 Q992.8906,233.6121 993.0156,233.6121 Q993.2344,233.6121 993.375,233.7683 Q993.5156,233.9246 993.5156,234.284 L993.5156,235.1277 Q993.5156,235.4871 993.375,235.6433 Q993.2344,235.7996 993.0156,235.7996 Q992.8125,235.7996 992.6875,235.6902 Q992.5625,235.5808 992.5,235.2683 Q992.4688,235.0652 992.375,234.9558 Q992.1719,234.7215 991.8125,234.5965 Q991.4531,234.4715 991.0938,234.4715 Q990.6406,234.4715 990.2656,234.6746 Q989.8906,234.8621 989.5938,235.2996 Q989.3125,235.7371 989.3125,236.3465 L989.3125,236.9871 Q989.3125,237.7058 989.8281,238.1902 Q990.3594,238.6746 991.2969,238.6746 Q991.8594,238.6746 992.2344,238.534 Q992.4688,238.4402 992.7188,238.1746 Q992.875,238.0183 992.9531,237.9715 Q993.0469,237.9246 993.1563,237.9246 Q993.3594,237.9246 993.5156,238.0808 Q993.6719,238.2371 993.6719,238.4402 Q993.6719,238.6433 993.4531,238.8777 Q993.1563,239.2215 992.6875,239.409 Q992.0625,239.6746 991.2969,239.6746 Q990.4063,239.6746 989.7031,239.3152 Q989.125,239.0183 988.7188,238.3933 Q988.3125,237.7527 988.3125,237.0027 L988.3125,236.3308 Q988.3125,235.5496 988.6719,234.8777 Q989.0469,234.1902 989.6875,233.8308 Q990.3281,233.4715 991.0469,233.4715 Q991.4844,233.4715 991.8594,233.5652 Q992.25,233.659 992.5781,233.8621 Z " fill="#000000"/><text fill="#000000" font-family="Hack" font-size="14" lengthAdjust="spacing" textLength="58.3658" x="1002.5" y="241.9659">&#1050;&#1086;&#1088;&#1079;&#1080;&#1085;&#1072;</text><line style="stroke:#000000;stroke-width:1.0;" x1="980.5" x2="1062.8658" y1="251.0679" y2="251.0679"/><line style="stroke:#000000;stroke-width:1.0;" x1="980.5" x2="1062.8658" y1="259.0679" y2="259.0679"/></g><!--class order--><g id="elem_order"><rect codeLine="31" fill="#FFFFFF" height="45.0679" id="order" rx="2.5" ry="2.5" style="stroke:#000000;stroke-width:1.0;" width="64.2059" x="1098.5" y="222"/><ellipse cx="1110.5" cy="236.534" fill="#FFFFFF" rx="8" ry="8" style="stroke:#000000;stroke-width:1.0;"/><path d="M1111.5781,233.8621 Q1111.6563,233.7371 1111.7656,233.6746 Q1111.8906,233.6121 1112.0156,233.6121 Q1112.2344,233.6121 1112.375,233.7683 Q1112.5156,233.9246 1112.5156,234.284 L1112.5156,235.1277 Q1112.5156,235.4871 1112.375,235.6433 Q1112.2344,235.7996 1112.0156,235.7996 Q1111.8125,235.7996 1111.6875,235.6902 Q1111.5625,235.5808 1111.5,235.2683 Q1111.4688,235.0652 1111.375,234.9558 Q1111.1719,234.7215 1110.8125,234.5965 Q1110.4531,234.4715 1110.0938,234.4715 Q1109.6406,234.4715 1109.2656,234.6746 Q1108.8906,234.8621 1108.5938,235.2996 Q1108.3125,235.7371 1108.3125,236.3465 L1108.3125,236.9871 Q1108.3125,237.7058 1108.8281,238.1902 Q1109.3594,238.6746 1110.2969,238.6746 Q1110.8594,238.6746 1111.2344,238.534 Q1111.4688,238.4402 1111.7188,238.1746 Q1111.875,238.0183 1111.9531,237.9715 Q1112.0469,237.9246 1112.1563,237.9246 Q1112.3594,237.9246 1112.5156,238.0808 Q1112.6719,238.2371 1112.6719,238.4402 Q1112.6719,238.6433 1112.4531,238.8777 Q1112.1563,239.2215 1111.6875,239.409 Q1111.0625,239.6746 1110.2969,239.6746 Q1109.4063,239.6746 1108.7031,239.3152 Q1108.125,239.0183 1107.7188,238.3933 Q1107.3125,237.7527 1107.3125,237.0027 L1107.3125,236.3308 Q1107.3125,235.5496 1107.6719,234.8777 Q1108.0469,234.1902 1108.6875,233.8308 Q1109.3281,233.4715 1110.0469,233.4715 Q1110.4844,233.4715 1110.8594,233.5652 Q1111.25,233.659 1111.5781,233.8621 Z " fill="#000000"/><text fill="#000000" font-family="Hack" font-size="14" lengthAdjust="spacing" textLength="38.2059" x="1121.5" y="241.9659">&#1047;&#1072;&#1082;&#1072;&#1079;</text><line style="stroke:#000000;stroke-width:1.0;" x1="1099.5" x2="1161.7059" y1="251.0679" y2="251.0679"/><line style="stroke:#000000;stroke-width:1.0;" x1="1099.5" x2="1161.7059" y1="259.0679" y2="259.0679"/></g><!--class price--><g id="elem_price"><rect codeLine="33" fill="#FFFFFF" height="45.0679" id="price" rx="2.5" ry="2.5" style="stroke:#000000;stroke-width:1.0;" width="76.1338" x="1188.5" y="327"/><ellipse cx="1200.5" cy="341.534" fill="#FFFFFF" rx="8" ry="8" style="stroke:#000000;stroke-width:1.0;"/><path d="M1201.5781,338.8621 Q1201.6563,338.7371 1201.7656,338.6746 Q1201.8906,338.6121 1202.0156,338.6121 Q1202.2344,338.6121 1202.375,338.7683 Q1202.5156,338.9246 1202.5156,339.284 L1202.5156,340.1277 Q1202.5156,340.4871 1202.375,340.6433 Q1202.2344,340.7996 1202.0156,340.7996 Q1201.8125,340.7996 1201.6875,340.6902 Q1201.5625,340.5808 1201.5,340.2683 Q1201.4688,340.0652 1201.375,339.9558 Q1201.1719,339.7215 1200.8125,339.5965 Q1200.4531,339.4715 1200.0938,339.4715 Q1199.6406,339.4715 1199.2656,339.6746 Q1198.8906,339.8621 1198.5938,340.2996 Q1198.3125,340.7371 1198.3125,341.3465 L1198.3125,341.9871 Q1198.3125,342.7058 1198.8281,343.1902 Q1199.3594,343.6746 1200.2969,343.6746 Q1200.8594,343.6746 1201.2344,343.534 Q1201.4688,343.4402 1201.7188,343.1746 Q1201.875,343.0183 1201.9531,342.9715 Q1202.0469,342.9246 1202.1563,342.9246 Q1202.3594,342.9246 1202.5156,343.0808 Q1202.6719,343.2371 1202.6719,343.4402 Q1202.6719,343.6433 1202.4531,343.8777 Q1202.1563,344.2215 1201.6875,344.409 Q1201.0625,344.6746 1200.2969,344.6746 Q1199.4063,344.6746 1198.7031,344.3152 Q1198.125,344.0183 1197.7188,343.3933 Q1197.3125,342.7527 1197.3125,342.0027 L1197.3125,341.3308 Q1197.3125,340.5496 1197.6719,339.8777 Q1198.0469,339.1902 1198.6875,338.8308 Q1199.3281,338.4715 1200.0469,338.4715 Q1200.4844,338.4715 1200.8594,338.5652 Q1201.25,338.659 1201.5781,338.8621 Z " fill="#000000"/><text fill="#000000" font-family="Hack" font-size="14" lengthAdjust="spacing" textLength="50.1338" x="1211.5" y="346.9659">&#1054;&#1087;&#1083;&#1072;&#1090;&#1072;</text><line style="stroke:#000000;stroke-width:1.0;" x1="1189.5" x2="1263.6338" y1="356.0679" y2="356.0679"/><line style="stroke:#000000;stroke-width:1.0;" x1="1189.5" x2="1263.6338" y1="364.0679" y2="364.0679"/></g><!--class money_price--><g id="elem_money_price"><rect codeLine="34" fill="#FFFFFF" height="45.0679" id="money_price" rx="2.5" ry="2.5" style="stroke:#000000;stroke-width:1.0;" width="161.4775" x="1146" y="432"/><ellipse cx="1158" cy="446.534" fill="#FFFFFF" rx="8" ry="8" style="stroke:#000000;stroke-width:1.0;"/><path d="M1159.0781,443.8621 Q1159.1563,443.7371 1159.2656,443.6746 Q1159.3906,443.6121 1159.5156,443.6121 Q1159.7344,443.6121 1159.875,443.7683 Q1160.0156,443.9246 1160.0156,444.284 L1160.0156,445.1277 Q1160.0156,445.4871 1159.875,445.6433 Q1159.7344,445.7996 1159.5156,445.7996 Q1159.3125,445.7996 1159.1875,445.6902 Q1159.0625,445.5808 1159,445.2683 Q1158.9688,445.0652 1158.875,444.9558 Q1158.6719,444.7215 1158.3125,444.5965 Q1157.9531,444.4715 1157.5938,444.4715 Q1157.1406,444.4715 1156.7656,444.6746 Q1156.3906,444.8621 1156.0938,445.2996 Q1155.8125,445.7371 1155.8125,446.3465 L1155.8125,446.9871 Q1155.8125,447.7058 1156.3281,448.1902 Q1156.8594,448.6746 1157.7969,448.6746 Q1158.3594,448.6746 1158.7344,448.534 Q1158.9688,448.4402 1159.2188,448.1746 Q1159.375,448.0183 1159.4531,447.9715 Q1159.5469,447.9246 1159.6563,447.9246 Q1159.8594,447.9246 1160.0156,448.0808 Q1160.1719,448.2371 1160.1719,448.4402 Q1160.1719,448.6433 1159.9531,448.8777 Q1159.6563,449.2215 1159.1875,449.409 Q1158.5625,449.6746 1157.7969,449.6746 Q1156.9063,449.6746 1156.2031,449.3152 Q1155.625,449.0183 1155.2188,448.3933 Q1154.8125,447.7527 1154.8125,447.0027 L1154.8125,446.3308 Q1154.8125,445.5496 1155.1719,444.8777 Q1155.5469,444.1902 1156.1875,443.8308 Q1156.8281,443.4715 1157.5469,443.4715 Q1157.9844,443.4715 1158.3594,443.5652 Q1158.75,443.659 1159.0781,443.8621 Z " fill="#000000"/><text fill="#000000" font-family="Hack" font-size="14" lengthAdjust="spacing" textLength="135.4775" x="1169" y="451.9659">&#1054;&#1087;&#1083;&#1072;&#1090;&#1072; &#1085;&#1072;&#1083;&#1080;&#1095;&#1085;&#1099;&#1084;&#1080;</text><line style="stroke:#000000;stroke-width:1.0;" x1="1147" x2="1306.4775" y1="461.0679" y2="461.0679"/><line style="stroke:#000000;stroke-width:1.0;" x1="1147" x2="1306.4775" y1="469.0679" y2="469.0679"/></g><!--class card_price--><g id="elem_card_price"><rect codeLine="35" fill="#FFFFFF" height="45.0679" id="card_price" rx="2.5" ry="2.5" style="stroke:#000000;stroke-width:1.0;" width="139.0496" x="1342" y="432"/><ellipse cx="1354" cy="446.534" fill="#FFFFFF" rx="8" ry="8" style="stroke:#000000;stroke-width:1.0;"/><path d="M1355.0781,443.8621 Q1355.1563,443.7371 1355.2656,443.6746 Q1355.3906,443.6121 1355.5156,443.6121 Q1355.7344,443.6121 1355.875,443.7683 Q1356.0156,443.9246 1356.0156,444.284 L1356.0156,445.1277 Q1356.0156,445.4871 1355.875,445.6433 Q1355.7344,445.7996 1355.5156,445.7996 Q1355.3125,445.7996 1355.1875,445.6902 Q1355.0625,445.5808 1355,445.2683 Q1354.9688,445.0652 1354.875,444.9558 Q1354.6719,444.7215 1354.3125,444.5965 Q1353.9531,444.4715 1353.5938,444.4715 Q1353.1406,444.4715 1352.7656,444.6746 Q1352.3906,444.8621 1352.0938,445.2996 Q1351.8125,445.7371 1351.8125,446.3465 L1351.8125,446.9871 Q1351.8125,447.7058 1352.3281,448.1902 Q1352.8594,448.6746 1353.7969,448.6746 Q1354.3594,448.6746 1354.7344,448.534 Q1354.9688,448.4402 1355.2188,448.1746 Q1355.375,448.0183 1355.4531,447.9715 Q1355.5469,447.9246 1355.6563,447.9246 Q1355.8594,447.9246 1356.0156,448.0808 Q1356.1719,448.2371 1356.1719,448.4402 Q1356.1719,448.6433 1355.9531,448.8777 Q1355.6563,449.2215 1355.1875,449.409 Q1354.5625,449.6746 1353.7969,449.6746 Q1352.9063,449.6746 1352.2031,449.3152 Q1351.625,449.0183 1351.2188,448.3933 Q1350.8125,447.7527 1350.8125,447.0027 L1350.8125,446.3308 Q1350.8125,445.5496 1351.1719,444.8777 Q1351.5469,444.1902 1352.1875,443.8308 Q1352.8281,443.4715 1353.5469,443.4715 Q1353.9844,443.4715 1354.3594,443.5652 Q1354.75,443.659 1355.0781,443.8621 Z " fill="#000000"/><text fill="#000000" font-family="Hack" font-size="14" lengthAdjust="spacing" textLength="113.0496" x="1365" y="451.9659">&#1054;&#1087;&#1083;&#1072;&#1090;&#1072; &#1087;&#1086; &#1082;&#1072;&#1088;&#1090;&#1077;</text><line style="stroke:#000000;stroke-width:1.0;" x1="1343" x2="1480.0496" y1="461.0679" y2="461.0679"/><line style="stroke:#000000;stroke-width:1.0;" x1="1343" x2="1480.0496" y1="469.0679" y2="469.0679"/></g><!--class config--><g id="elem_config"><rect codeLine="37" fill="#FFFFFF" height="45.0679" id="config" rx="2.5" ry="2.5" style="stroke:#000000;stroke-width:1.0;" width="126.5336" x="727" y="222"/><ellipse cx="739" cy="236.534" fill="#FFFFFF" rx="8" ry="8" style="stroke:#000000;stroke-width:1.0;"/><path d="M740.0781,233.8621 Q740.1563,233.7371 740.2656,233.6746 Q740.3906,233.6121 740.5156,233.6121 Q740.7344,233.6121 740.875,233.7683 Q741.0156,233.9246 741.0156,234.284 L741.0156,235.1277 Q741.0156,235.4871 740.875,235.6433 Q740.7344,235.7996 740.5156,235.7996 Q740.3125,235.7996 740.1875,235.6902 Q740.0625,235.5808 740,235.2683 Q739.9688,235.0652 739.875,234.9558 Q739.6719,234.7215 739.3125,234.5965 Q738.9531,234.4715 738.5938,234.4715 Q738.1406,234.4715 737.7656,234.6746 Q737.3906,234.8621 737.0938,235.2996 Q736.8125,235.7371 736.8125,236.3465 L736.8125,236.9871 Q736.8125,237.7058 737.3281,238.1902 Q737.8594,238.6746 738.7969,238.6746 Q739.3594,238.6746 739.7344,238.534 Q739.9688,238.4402 740.2188,238.1746 Q740.375,238.0183 740.4531,237.9715 Q740.5469,237.9246 740.6563,237.9246 Q740.8594,237.9246 741.0156,238.0808 Q741.1719,238.2371 741.1719,238.4402 Q741.1719,238.6433 740.9531,238.8777 Q740.6563,239.2215 740.1875,239.409 Q739.5625,239.6746 738.7969,239.6746 Q737.9063,239.6746 737.2031,239.3152 Q736.625,239.0183 736.2188,238.3933 Q735.8125,237.7527 735.8125,237.0027 L735.8125,236.3308 Q735.8125,235.5496 736.1719,234.8777 Q736.5469,234.1902 737.1875,233.8308 Q737.8281,233.4715 738.5469,233.4715 Q738.9844,233.4715 739.3594,233.5652 Q739.75,233.659 740.0781,233.8621 Z " fill="#000000"/><text fill="#000000" font-family="Hack" font-size="14" lengthAdjust="spacing" textLength="100.5336" x="750" y="241.9659">&#1050;&#1086;&#1085;&#1092;&#1080;&#1075;&#1091;&#1088;&#1072;&#1094;&#1080;&#1103;</text><line style="stroke:#000000;stroke-width:1.0;" x1="728" x2="852.5336" y1="251.0679" y2="251.0679"/><line style="stroke:#000000;stroke-width:1.0;" x1="728" x2="852.5336" y1="259.0679" y2="259.0679"/></g><!--class search--><g id="elem_search"><rect codeLine="39" fill="#FFFFFF" height="45.0679" id="search" rx="2.5" ry="2.5" style="stroke:#000000;stroke-width:1.0;" width="67.8318" x="1242.5" y="117"/><ellipse cx="1254.5" cy="131.534" fill="#FFFFFF" rx="8" ry="8" style="stroke:#000000;stroke-width:1.0;"/><path d="M1255.5781,128.8621 Q1255.6563,128.7371 1255.7656,128.6746 Q1255.8906,128.6121 1256.0156,128.6121 Q1256.2344,128.6121 1256.375,128.7683 Q1256.5156,128.9246 1256.5156,129.284 L1256.5156,130.1277 Q1256.5156,130.4871 1256.375,130.6433 Q1256.2344,130.7996 1256.0156,130.7996 Q1255.8125,130.7996 1255.6875,130.6902 Q1255.5625,130.5808 1255.5,130.2683 Q1255.4688,130.0652 1255.375,129.9558 Q1255.1719,129.7215 1254.8125,129.5965 Q1254.4531,129.4715 1254.0938,129.4715 Q1253.6406,129.4715 1253.2656,129.6746 Q1252.8906,129.8621 1252.5938,130.2996 Q1252.3125,130.7371 1252.3125,131.3465 L1252.3125,131.9871 Q1252.3125,132.7058 1252.8281,133.1902 Q1253.3594,133.6746 1254.2969,133.6746 Q1254.8594,133.6746 1255.2344,133.534 Q1255.4688,133.4402 1255.7188,133.1746 Q1255.875,133.0183 1255.9531,132.9715 Q1256.0469,132.9246 1256.1563,132.9246 Q1256.3594,132.9246 1256.5156,133.0808 Q1256.6719,133.2371 1256.6719,133.4402 Q1256.6719,133.6433 1256.4531,133.8777 Q1256.1563,134.2215 1255.6875,134.409 Q1255.0625,134.6746 1254.2969,134.6746 Q1253.4063,134.6746 1252.7031,134.3152 Q1252.125,134.0183 1251.7188,133.3933 Q1251.3125,132.7527 1251.3125,132.0027 L1251.3125,131.3308 Q1251.3125,130.5496 1251.6719,129.8777 Q1252.0469,129.1902 1252.6875,128.8308 Q1253.3281,128.4715 1254.0469,128.4715 Q1254.4844,128.4715 1254.8594,128.5652 Q1255.25,128.659 1255.5781,128.8621 Z " fill="#000000"/><text fill="#000000" font-family="Hack" font-size="14" lengthAdjust="spacing" textLength="41.8318" x="1265.5" y="136.9659">&#1055;&#1086;&#1080;&#1089;&#1082;</text><line style="stroke:#000000;stroke-width:1.0;" x1="1243.5" x2="1309.3318" y1="146.0679" y2="146.0679"/><line style="stroke:#000000;stroke-width:1.0;" x1="1243.5" x2="1309.3318" y1="154.0679" y2="154.0679"/></g><!--class search_category--><g id="elem_search_category"><rect codeLine="40" fill="#FFFFFF" height="45.0679" id="search_category" rx="2.5" ry="2.5" style="stroke:#000000;stroke-width:1.0;" width="148.8635" x="1504" y="327"/><ellipse cx="1516" cy="341.534" fill="#FFFFFF" rx="8" ry="8" style="stroke:#000000;stroke-width:1.0;"/><path d="M1517.0781,338.8621 Q1517.1563,338.7371 1517.2656,338.6746 Q1517.3906,338.6121 1517.5156,338.6121 Q1517.7344,338.6121 1517.875,338.7683 Q1518.0156,338.9246 1518.0156,339.284 L1518.0156,340.1277 Q1518.0156,340.4871 1517.875,340.6433 Q1517.7344,340.7996 1517.5156,340.7996 Q1517.3125,340.7996 1517.1875,340.6902 Q1517.0625,340.5808 1517,340.2683 Q1516.9688,340.0652 1516.875,339.9558 Q1516.6719,339.7215 1516.3125,339.5965 Q1515.9531,339.4715 1515.5938,339.4715 Q1515.1406,339.4715 1514.7656,339.6746 Q1514.3906,339.8621 1514.0938,340.2996 Q1513.8125,340.7371 1513.8125,341.3465 L1513.8125,341.9871 Q1513.8125,342.7058 1514.3281,343.1902 Q1514.8594,343.6746 1515.7969,343.6746 Q1516.3594,343.6746 1516.7344,343.534 Q1516.9688,343.4402 1517.2188,343.1746 Q1517.375,343.0183 1517.4531,342.9715 Q1517.5469,342.9246 1517.6563,342.9246 Q1517.8594,342.9246 1518.0156,343.0808 Q1518.1719,343.2371 1518.1719,343.4402 Q1518.1719,343.6433 1517.9531,343.8777 Q1517.6563,344.2215 1517.1875,344.409 Q1516.5625,344.6746 1515.7969,344.6746 Q1514.9063,344.6746 1514.2031,344.3152 Q1513.625,344.0183 1513.2188,343.3933 Q1512.8125,342.7527 1512.8125,342.0027 L1512.8125,341.3308 Q1512.8125,340.5496 1513.1719,339.8777 Q1513.5469,339.1902 1514.1875,338.8308 Q1514.8281,338.4715 1515.5469,338.4715 Q1515.9844,338.4715 1516.3594,338.5652 Q1516.75,338.659 1517.0781,338.8621 Z " fill="#000000"/><text fill="#000000" font-family="Hack" font-size="14" lengthAdjust="spacing" textLength="122.8635" x="1527" y="346.9659">&#1050;&#1072;&#1090;&#1077;&#1075;&#1086;&#1088;&#1080;&#1103; &#1087;&#1086;&#1080;&#1089;&#1082;&#1072;</text><line style="stroke:#000000;stroke-width:1.0;" x1="1505" x2="1651.8635" y1="356.0679" y2="356.0679"/><line style="stroke:#000000;stroke-width:1.0;" x1="1505" x2="1651.8635" y1="364.0679" y2="364.0679"/></g><!--class type_search--><g id="elem_type_search"><rect codeLine="42" fill="#FFFFFF" height="45.0679" id="type_search" rx="2.5" ry="2.5" style="stroke:#000000;stroke-width:1.0;" width="123.8596" x="1516.5" y="432"/><ellipse cx="1528.5" cy="446.534" fill="#FFFFFF" rx="8" ry="8" style="stroke:#000000;stroke-width:1.0;"/><path d="M1529.5781,443.8621 Q1529.6563,443.7371 1529.7656,443.6746 Q1529.8906,443.6121 1530.0156,443.6121 Q1530.2344,443.6121 1530.375,443.7683 Q1530.5156,443.9246 1530.5156,444.284 L1530.5156,445.1277 Q1530.5156,445.4871 1530.375,445.6433 Q1530.2344,445.7996 1530.0156,445.7996 Q1529.8125,445.7996 1529.6875,445.6902 Q1529.5625,445.5808 1529.5,445.2683 Q1529.4688,445.0652 1529.375,444.9558 Q1529.1719,444.7215 1528.8125,444.5965 Q1528.4531,444.4715 1528.0938,444.4715 Q1527.6406,444.4715 1527.2656,444.6746 Q1526.8906,444.8621 1526.5938,445.2996 Q1526.3125,445.7371 1526.3125,446.3465 L1526.3125,446.9871 Q1526.3125,447.7058 1526.8281,448.1902 Q1527.3594,448.6746 1528.2969,448.6746 Q1528.8594,448.6746 1529.2344,448.534 Q1529.4688,448.4402 1529.7188,448.1746 Q1529.875,448.0183 1529.9531,447.9715 Q1530.0469,447.9246 1530.1563,447.9246 Q1530.3594,447.9246 1530.5156,448.0808 Q1530.6719,448.2371 1530.6719,448.4402 Q1530.6719,448.6433 1530.4531,448.8777 Q1530.1563,449.2215 1529.6875,449.409 Q1529.0625,449.6746 1528.2969,449.6746 Q1527.4063,449.6746 1526.7031,449.3152 Q1526.125,449.0183 1525.7188,448.3933 Q1525.3125,447.7527 1525.3125,447.0027 L1525.3125,446.3308 Q1525.3125,445.5496 1525.6719,444.8777 Q1526.0469,444.1902 1526.6875,443.8308 Q1527.3281,443.4715 1528.0469,443.4715 Q1528.4844,443.4715 1528.8594,443.5652 Q1529.25,443.659 1529.5781,443.8621 Z " fill="#000000"/><text fill="#000000" font-family="Hack" font-size="14" lengthAdjust="spacing" textLength="97.8596" x="1539.5" y="451.9659">&#1055;&#1086;&#1080;&#1089;&#1082; &#1087;&#1086; &#1090;&#1080;&#1087;&#1091;</text><line style="stroke:#000000;stroke-width:1.0;" x1="1517.5" x2="1639.3596" y1="461.0679" y2="461.0679"/><line style="stroke:#000000;stroke-width:1.0;" x1="1517.5" x2="1639.3596" y1="469.0679" y2="469.0679"/></g><!--class maker_search--><g id="elem_maker_search"><rect codeLine="43" fill="#FFFFFF" height="45.0679" id="maker_search" rx="2.5" ry="2.5" style="stroke:#000000;stroke-width:1.0;" width="202.0213" x="1675.5" y="432"/><ellipse cx="1687.5" cy="446.534" fill="#FFFFFF" rx="8" ry="8" style="stroke:#000000;stroke-width:1.0;"/><path d="M1688.5781,443.8621 Q1688.6563,443.7371 1688.7656,443.6746 Q1688.8906,443.6121 1689.0156,443.6121 Q1689.2344,443.6121 1689.375,443.7683 Q1689.5156,443.9246 1689.5156,444.284 L1689.5156,445.1277 Q1689.5156,445.4871 1689.375,445.6433 Q1689.2344,445.7996 1689.0156,445.7996 Q1688.8125,445.7996 1688.6875,445.6902 Q1688.5625,445.5808 1688.5,445.2683 Q1688.4688,445.0652 1688.375,444.9558 Q1688.1719,444.7215 1687.8125,444.5965 Q1687.4531,444.4715 1687.0938,444.4715 Q1686.6406,444.4715 1686.2656,444.6746 Q1685.8906,444.8621 1685.5938,445.2996 Q1685.3125,445.7371 1685.3125,446.3465 L1685.3125,446.9871 Q1685.3125,447.7058 1685.8281,448.1902 Q1686.3594,448.6746 1687.2969,448.6746 Q1687.8594,448.6746 1688.2344,448.534 Q1688.4688,448.4402 1688.7188,448.1746 Q1688.875,448.0183 1688.9531,447.9715 Q1689.0469,447.9246 1689.1563,447.9246 Q1689.3594,447.9246 1689.5156,448.0808 Q1689.6719,448.2371 1689.6719,448.4402 Q1689.6719,448.6433 1689.4531,448.8777 Q1689.1563,449.2215 1688.6875,449.409 Q1688.0625,449.6746 1687.2969,449.6746 Q1686.4063,449.6746 1685.7031,449.3152 Q1685.125,449.0183 1684.7188,448.3933 Q1684.3125,447.7527 1684.3125,447.0027 L1684.3125,446.3308 Q1684.3125,445.5496 1684.6719,444.8777 Q1685.0469,444.1902 1685.6875,443.8308 Q1686.3281,443.4715 1687.0469,443.4715 Q1687.4844,443.4715 1687.8594,443.5652 Q1688.25,443.659 1688.5781,443.8621 Z " fill="#000000"/><text fill="#000000" font-family="Hack" font-size="14" lengthAdjust="spacing" textLength="176.0213" x="1698.5" y="451.9659">&#1055;&#1086;&#1080;&#1089;&#1082; &#1087;&#1086; &#1087;&#1088;&#1086;&#1080;&#1079;&#1074;&#1086;&#1076;&#1080;&#1090;&#1077;&#1083;&#1102;</text><line style="stroke:#000000;stroke-width:1.0;" x1="1676.5" x2="1876.5213" y1="461.0679" y2="461.0679"/><line style="stroke:#000000;stroke-width:1.0;" x1="1676.5" x2="1876.5213" y1="469.0679" y2="469.0679"/></g><!--class name_search--><g id="elem_name_search"><rect codeLine="44" fill="#FFFFFF" height="45.0679" id="name_search" rx="2.5" ry="2.5" style="stroke:#000000;stroke-width:1.0;" width="161.4915" x="1913" y="432"/><ellipse cx="1925" cy="446.534" fill="#FFFFFF" rx="8" ry="8" style="stroke:#000000;stroke-width:1.0;"/><path d="M1926.0781,443.8621 Q1926.1563,443.7371 1926.2656,443.6746 Q1926.3906,443.6121 1926.5156,443.6121 Q1926.7344,443.6121 1926.875,443.7683 Q1927.0156,443.9246 1927.0156,444.284 L1927.0156,445.1277 Q1927.0156,445.4871 1926.875,445.6433 Q1926.7344,445.7996 1926.5156,445.7996 Q1926.3125,445.7996 1926.1875,445.6902 Q1926.0625,445.5808 1926,445.2683 Q1925.9688,445.0652 1925.875,444.9558 Q1925.6719,444.7215 1925.3125,444.5965 Q1924.9531,444.4715 1924.5938,444.4715 Q1924.1406,444.4715 1923.7656,444.6746 Q1923.3906,444.8621 1923.0938,445.2996 Q1922.8125,445.7371 1922.8125,446.3465 L1922.8125,446.9871 Q1922.8125,447.7058 1923.3281,448.1902 Q1923.8594,448.6746 1924.7969,448.6746 Q1925.3594,448.6746 1925.7344,448.534 Q1925.9688,448.4402 1926.2188,448.1746 Q1926.375,448.0183 1926.4531,447.9715 Q1926.5469,447.9246 1926.6563,447.9246 Q1926.8594,447.9246 1927.0156,448.0808 Q1927.1719,448.2371 1927.1719,448.4402 Q1927.1719,448.6433 1926.9531,448.8777 Q1926.6563,449.2215 1926.1875,449.409 Q1925.5625,449.6746 1924.7969,449.6746 Q1923.9063,449.6746 1923.2031,449.3152 Q1922.625,449.0183 1922.2188,448.3933 Q1921.8125,447.7527 1921.8125,447.0027 L1921.8125,446.3308 Q1921.8125,445.5496 1922.1719,444.8777 Q1922.5469,444.1902 1923.1875,443.8308 Q1923.8281,443.4715 1924.5469,443.4715 Q1924.9844,443.4715 1925.3594,443.5652 Q1925.75,443.659 1926.0781,443.8621 Z " fill="#000000"/><text fill="#000000" font-family="Hack" font-size="14" lengthAdjust="spacing" textLength="135.4915" x="1936" y="451.9659">&#1055;&#1086;&#1080;&#1089;&#1082; &#1087;&#1086; &#1085;&#1072;&#1079;&#1074;&#1072;&#1085;&#1080;&#1102;</text><line style="stroke:#000000;stroke-width:1.0;" x1="1914" x2="2073.4915" y1="461.0679" y2="461.0679"/><line style="stroke:#000000;stroke-width:1.0;" x1="1914" x2="2073.4915" y1="469.0679" y2="469.0679"/></g><!--class search_results--><g id="elem_search_results"><rect codeLine="46" fill="#FFFFFF" height="45.0679" id="search_results" rx="2.5" ry="2.5" style="stroke:#000000;stroke-width:1.0;" width="156.6755" x="1198" y="222"/><ellipse cx="1210" cy="236.534" fill="#FFFFFF" rx="8" ry="8" style="stroke:#000000;stroke-width:1.0;"/><path d="M1211.0781,233.8621 Q1211.1563,233.7371 1211.2656,233.6746 Q1211.3906,233.6121 1211.5156,233.6121 Q1211.7344,233.6121 1211.875,233.7683 Q1212.0156,233.9246 1212.0156,234.284 L1212.0156,235.1277 Q1212.0156,235.4871 1211.875,235.6433 Q1211.7344,235.7996 1211.5156,235.7996 Q1211.3125,235.7996 1211.1875,235.6902 Q1211.0625,235.5808 1211,235.2683 Q1210.9688,235.0652 1210.875,234.9558 Q1210.6719,234.7215 1210.3125,234.5965 Q1209.9531,234.4715 1209.5938,234.4715 Q1209.1406,234.4715 1208.7656,234.6746 Q1208.3906,234.8621 1208.0938,235.2996 Q1207.8125,235.7371 1207.8125,236.3465 L1207.8125,236.9871 Q1207.8125,237.7058 1208.3281,238.1902 Q1208.8594,238.6746 1209.7969,238.6746 Q1210.3594,238.6746 1210.7344,238.534 Q1210.9688,238.4402 1211.2188,238.1746 Q1211.375,238.0183 1211.4531,237.9715 Q1211.5469,237.9246 1211.6563,237.9246 Q1211.8594,237.9246 1212.0156,238.0808 Q1212.1719,238.2371 1212.1719,238.4402 Q1212.1719,238.6433 1211.9531,238.8777 Q1211.6563,239.2215 1211.1875,239.409 Q1210.5625,239.6746 1209.7969,239.6746 Q1208.9063,239.6746 1208.2031,239.3152 Q1207.625,239.0183 1207.2188,238.3933 Q1206.8125,237.7527 1206.8125,237.0027 L1206.8125,236.3308 Q1206.8125,235.5496 1207.1719,234.8777 Q1207.5469,234.1902 1208.1875,233.8308 Q1208.8281,233.4715 1209.5469,233.4715 Q1209.9844,233.4715 1210.3594,233.5652 Q1210.75,233.659 1211.0781,233.8621 Z " fill="#000000"/><text fill="#000000" font-family="Hack" font-size="14" lengthAdjust="spacing" textLength="130.6755" x="1221" y="241.9659">&#1056;&#1077;&#1079;&#1091;&#1083;&#1100;&#1090;&#1072;&#1090;&#1099; &#1087;&#1086;&#1080;&#1089;&#1082;&#1072;</text><line style="stroke:#000000;stroke-width:1.0;" x1="1199" x2="1353.6755" y1="251.0679" y2="251.0679"/><line style="stroke:#000000;stroke-width:1.0;" x1="1199" x2="1353.6755" y1="259.0679" y2="259.0679"/></g><!--class maker--><g id="elem_maker"><rect codeLine="48" fill="#FFFFFF" height="45.0679" id="maker" rx="2.5" ry="2.5" style="stroke:#000000;stroke-width:1.0;" width="133.8136" x="1391.5" y="537"/><ellipse cx="1403.5" cy="551.534" fill="#FFFFFF" rx="8" ry="8" style="stroke:#000000;stroke-width:1.0;"/><path d="M1404.5781,548.8621 Q1404.6563,548.7371 1404.7656,548.6746 Q1404.8906,548.6121 1405.0156,548.6121 Q1405.2344,548.6121 1405.375,548.7683 Q1405.5156,548.9246 1405.5156,549.284 L1405.5156,550.1277 Q1405.5156,550.4871 1405.375,550.6433 Q1405.2344,550.7996 1405.0156,550.7996 Q1404.8125,550.7996 1404.6875,550.6902 Q1404.5625,550.5808 1404.5,550.2683 Q1404.4688,550.0652 1404.375,549.9558 Q1404.1719,549.7215 1403.8125,549.5965 Q1403.4531,549.4715 1403.0938,549.4715 Q1402.6406,549.4715 1402.2656,549.6746 Q1401.8906,549.8621 1401.5938,550.2996 Q1401.3125,550.7371 1401.3125,551.3465 L1401.3125,551.9871 Q1401.3125,552.7058 1401.8281,553.1902 Q1402.3594,553.6746 1403.2969,553.6746 Q1403.8594,553.6746 1404.2344,553.534 Q1404.4688,553.4402 1404.7188,553.1746 Q1404.875,553.0183 1404.9531,552.9715 Q1405.0469,552.9246 1405.1563,552.9246 Q1405.3594,552.9246 1405.5156,553.0808 Q1405.6719,553.2371 1405.6719,553.4402 Q1405.6719,553.6433 1405.4531,553.8777 Q1405.1563,554.2215 1404.6875,554.409 Q1404.0625,554.6746 1403.2969,554.6746 Q1402.4063,554.6746 1401.7031,554.3152 Q1401.125,554.0183 1400.7188,553.3933 Q1400.3125,552.7527 1400.3125,552.0027 L1400.3125,551.3308 Q1400.3125,550.5496 1400.6719,549.8777 Q1401.0469,549.1902 1401.6875,548.8308 Q1402.3281,548.4715 1403.0469,548.4715 Q1403.4844,548.4715 1403.8594,548.5652 Q1404.25,548.659 1404.5781,548.8621 Z " fill="#000000"/><text fill="#000000" font-family="Hack" font-size="14" lengthAdjust="spacing" textLength="107.8136" x="1414.5" y="556.9659">&#1055;&#1088;&#1086;&#1080;&#1079;&#1074;&#1086;&#1076;&#1080;&#1090;&#1077;&#1083;&#1100;</text><line style="stroke:#000000;stroke-width:1.0;" x1="1392.5" x2="1524.3136" y1="566.0679" y2="566.0679"/><line style="stroke:#000000;stroke-width:1.0;" x1="1392.5" x2="1524.3136" y1="574.0679" y2="574.0679"/></g><!--class courier--><g id="elem_courier"><rect codeLine="50" fill="#FFFFFF" height="45.0679" id="courier" rx="2.5" ry="2.5" style="stroke:#000000;stroke-width:1.0;" width="75.2238" x="1113" y="117"/><ellipse cx="1125" cy="131.534" fill="#FFFFFF" rx="8" ry="8" style="stroke:#000000;stroke-width:1.0;"/><path d="M1126.0781,128.8621 Q1126.1563,128.7371 1126.2656,128.6746 Q1126.3906,128.6121 1126.5156,128.6121 Q1126.7344,128.6121 1126.875,128.7683 Q1127.0156,128.9246 1127.0156,129.284 L1127.0156,130.1277 Q1127.0156,130.4871 1126.875,130.6433 Q1126.7344,130.7996 1126.5156,130.7996 Q1126.3125,130.7996 1126.1875,130.6902 Q1126.0625,130.5808 1126,130.2683 Q1125.9688,130.0652 1125.875,129.9558 Q1125.6719,129.7215 1125.3125,129.5965 Q1124.9531,129.4715 1124.5938,129.4715 Q1124.1406,129.4715 1123.7656,129.6746 Q1123.3906,129.8621 1123.0938,130.2996 Q1122.8125,130.7371 1122.8125,131.3465 L1122.8125,131.9871 Q1122.8125,132.7058 1123.3281,133.1902 Q1123.8594,133.6746 1124.7969,133.6746 Q1125.3594,133.6746 1125.7344,133.534 Q1125.9688,133.4402 1126.2188,133.1746 Q1126.375,133.0183 1126.4531,132.9715 Q1126.5469,132.9246 1126.6563,132.9246 Q1126.8594,132.9246 1127.0156,133.0808 Q1127.1719,133.2371 1127.1719,133.4402 Q1127.1719,133.6433 1126.9531,133.8777 Q1126.6563,134.2215 1126.1875,134.409 Q1125.5625,134.6746 1124.7969,134.6746 Q1123.9063,134.6746 1123.2031,134.3152 Q1122.625,134.0183 1122.2188,133.3933 Q1121.8125,132.7527 1121.8125,132.0027 L1121.8125,131.3308 Q1121.8125,130.5496 1122.1719,129.8777 Q1122.5469,129.1902 1123.1875,128.8308 Q1123.8281,128.4715 1124.5469,128.4715 Q1124.9844,128.4715 1125.3594,128.5652 Q1125.75,128.659 1126.0781,128.8621 Z " fill="#000000"/><text fill="#000000" font-family="Hack" font-size="14" lengthAdjust="spacing" textLength="49.2238" x="1136" y="136.9659">&#1050;&#1091;&#1088;&#1100;&#1077;&#1088;</text><line style="stroke:#000000;stroke-width:1.0;" x1="1114" x2="1187.2238" y1="146.0679" y2="146.0679"/><line style="stroke:#000000;stroke-width:1.0;" x1="1114" x2="1187.2238" y1="154.0679" y2="154.0679"/></g><!--class computer_kind--><g id="elem_computer_kind"><rect codeLine="52" fill="#FFFFFF" height="45.0679" id="computer_kind" rx="2.5" ry="2.5" style="stroke:#000000;stroke-width:1.0;" width="141.2615" x="827" y="537"/><ellipse cx="839" cy="551.534" fill="#FFFFFF" rx="8" ry="8" style="stroke:#000000;stroke-width:1.0;"/><path d="M838.4688,552.0652 L838.4688,553.534 L841.0313,553.534 L841.0313,552.9871 Q841.0313,552.6277 841.1719,552.4715 Q841.3125,552.3152 841.5313,552.3152 Q841.75,552.3152 841.8906,552.4715 Q842.0313,552.6277 842.0313,552.9871 L842.0313,554.534 L837.3125,554.534 Q836.9531,554.534 836.7969,554.3933 Q836.6406,554.2527 836.6406,554.034 Q836.6406,553.8152 836.7969,553.6746 Q836.9531,553.534 837.3125,553.534 L837.4688,553.534 L837.4688,549.6121 L837.3125,549.6121 Q836.9531,549.6121 836.7969,549.4715 Q836.6406,549.3308 836.6406,549.1121 Q836.6406,548.8933 836.7969,548.7527 Q836.9531,548.6121 837.3125,548.6121 L841.8125,548.6121 L841.8125,550.1433 Q841.8125,550.5027 841.6719,550.659 Q841.5313,550.7996 841.3125,550.7996 Q841.0781,550.7996 840.9375,550.659 Q840.8125,550.5027 840.8125,550.1433 L840.8125,549.6121 L838.4688,549.6121 L838.4688,551.0652 L839.3594,551.0652 Q839.3594,550.6746 839.4219,550.5652 Q839.5781,550.3152 839.8594,550.3152 Q840.0781,550.3152 840.2188,550.4715 Q840.3594,550.6277 840.3594,550.9871 L840.3594,552.1433 Q840.3594,552.4715 840.2813,552.5808 Q840.125,552.8152 839.8594,552.8152 Q839.5781,552.8152 839.4219,552.5652 Q839.3594,552.4558 839.3594,552.0652 L838.4688,552.0652 Z " fill="#000000"/><text fill="#000000" font-family="Hack" font-size="14" lengthAdjust="spacing" textLength="115.2615" x="850" y="556.9659">&#1058;&#1080;&#1087; &#1082;&#1086;&#1084;&#1087;&#1100;&#1102;&#1090;&#1077;&#1088;&#1072;</text><line style="stroke:#000000;stroke-width:1.0;" x1="828" x2="967.2615" y1="566.0679" y2="566.0679"/><line style="stroke:#000000;stroke-width:1.0;" x1="828" x2="967.2615" y1="574.0679" y2="574.0679"/></g><!--link courier to order--><g id="link_courier_order"><path codeLine="54" d="M1137.75,162.03 C1137.75,179.62 1137.75,203.97 1137.75,221.65 " fill="none" id="courier-order" style="stroke:#000000;stroke-width:1.0;"/><text fill="#000000" font-family="Hack" font-size="13" lengthAdjust="spacing" textLength="21.84" x="1110.8711" y="183.9602">0..1</text><text fill="#000000" font-family="Hack" font-size="13" lengthAdjust="spacing" textLength="7.163" x="1131.7521" y="210.2074">*</text></g><!--link product to maker--><g id="link_product_maker"><path codeLine="56" d="M1038.25,372.03 C1038.25,426.33 1038.25,560 1038.25,560 C1038.25,560 1272.8,560 1391.45,560 " fill="none" id="product-maker" style="stroke:#000000;stroke-width:1.0;"/><text fill="#000000" font-family="Hack" font-size="13" lengthAdjust="spacing" textLength="7.163" x="1034.6941" y="393.9602">*</text><text fill="#000000" font-family="Hack" font-size="13" lengthAdjust="spacing" textLength="7.163" x="1376.3129" y="556.0089">*</text></g><!--link maker_search to maker--><g id="link_maker_search_maker"><path codeLine="57" d="M1776.5,477.13 C1776.5,508.13 1776.5,560 1776.5,560 C1776.5,560 1618.85,560 1525.55,560 " fill="none" id="maker_search-maker" style="stroke:#000000;stroke-width:1.0;"/><text fill="#000000" font-family="Hack" font-size="13" lengthAdjust="spacing" textLength="7.436" x="1768.6563" y="499.0858">0</text><text fill="#000000" font-family="Hack" font-size="13" lengthAdjust="spacing" textLength="7.163" x="1533.2855" y="556.0569">*</text></g><!--link type_search to computer_kind--><g id="link_type_search_computer_kind"><path codeLine="59" d="M1521,477.18 C1521,485.08 1521,492 1521,492 C1521,492 915.5,492 915.5,492 C915.5,492 915.5,517.07 915.5,536.65 " fill="none" id="type_search-computer_kind" style="stroke:#000000;stroke-width:1.0;"/><text fill="#000000" font-family="Hack" font-size="13" lengthAdjust="spacing" textLength="7.436" x="1500.7193" y="497.9674">0</text><text fill="#000000" font-family="Hack" font-size="13" lengthAdjust="spacing" textLength="7.436" x="912.4203" y="525.2074">1</text></g><!--reverse link search_category to type_search--><g id="link_search_category_type_search"><path codeLine="61" d="M1578.5,390.03 C1578.5,407.62 1578.5,413.97 1578.5,431.65 " fill="none" id="search_category-backto-type_search" style="stroke:#000000;stroke-width:1.0;"/><polygon fill="none" points="1578.5,372.03,1572.5,390.03,1584.5,390.03,1578.5,372.03" style="stroke:#000000;stroke-width:1.0;"/></g><!--reverse link search_category to maker_search--><g id="link_search_category_maker_search"><path codeLine="62" d="M1646.75,390.13 C1646.75,421.13 1646.75,455 1646.75,455 C1646.75,455 1658.64,455 1675.22,455 " fill="none" id="search_category-backto-maker_search" style="stroke:#000000;stroke-width:1.0;"/><polygon fill="none" points="1646.75,372.13,1640.75,390.13,1652.75,390.13,1646.75,372.13" style="stroke:#000000;stroke-width:1.0;"/></g><!--reverse link search_category to name_search--><g id="link_search_category_name_search"><path codeLine="63" d="M1671.17,350 C1790.65,350 1993.5,350 1993.5,350 C1993.5,350 1993.5,401.09 1993.5,431.83 " fill="none" id="search_category-backto-name_search" style="stroke:#000000;stroke-width:1.0;"/><polygon fill="none" points="1653.17,350,1671.17,356,1671.17,344,1653.17,350" style="stroke:#000000;stroke-width:1.0;"/></g><!--reverse link product to component--><g id="link_product_component"><path codeLine="65" d="M1021.5,390.11 C1021.5,461.12 1021.5,657 1021.5,657 C1021.5,657 864.86,657 781.03,657 " fill="none" id="product-backto-component" style="stroke:#000000;stroke-width:1.0;"/><polygon fill="none" points="1021.5,372.11,1015.5,390.11,1027.5,390.11,1021.5,372.11" style="stroke:#000000;stroke-width:1.0;"/></g><!--link web_site to search--><g id="link_web_site_search"><path codeLine="67" d="M1084.61,35 C1152.92,35 1276.5,35 1276.5,35 C1276.5,35 1276.5,86.09 1276.5,116.83 " fill="none" id="web_site-search" style="stroke:#000000;stroke-width:1.0;"/><text fill="#000000" font-family="Hack" font-size="13" lengthAdjust="spacing" textLength="7.436" x="1092.8083" y="30.5768">0</text><text fill="#000000" font-family="Hack" font-size="13" lengthAdjust="spacing" textLength="7.436" x="1268.6006" y="105.0502">1</text></g><!--link search to search_category--><g id="link_search_search_category"><path codeLine="69" d="M1310.56,140 C1389.54,140 1578.5,140 1578.5,140 C1578.5,140 1578.5,272.38 1578.5,326.68 " fill="none" id="search-search_category" style="stroke:#000000;stroke-width:1.0;"/><text fill="#000000" font-family="Hack" font-size="13" lengthAdjust="spacing" textLength="7.436" x="1318.3691" y="135.3128">0</text><text fill="#000000" font-family="Hack" font-size="13" lengthAdjust="spacing" textLength="7.163" x="1570.5996" y="315.2455">*</text></g><!--link search to search_results--><g id="link_search_search_results"><path codeLine="70" d="M1276.5,162.03 C1276.5,179.62 1276.5,203.97 1276.5,221.65 " fill="none" id="search-search_results" style="stroke:#000000;stroke-width:1.0;"/><text fill="#000000" font-family="Hack" font-size="13" lengthAdjust="spacing" textLength="7.436" x="1268.6805" y="183.9602">0</text><text fill="#000000" font-family="Hack" font-size="13" lengthAdjust="spacing" textLength="7.163" x="1268.6249" y="210.2074">*</text></g><!--link search_results to search_category--><g id="link_search_results_search_category"><path codeLine="71" d="M1350.67,267.11 C1350.67,295.92 1350.67,342 1350.67,342 C1350.67,342 1437.45,342 1503.9,342 " fill="none" id="search_results-search_category" style="stroke:#000000;stroke-width:1.0;"/><text fill="#000000" font-family="Hack" font-size="13" lengthAdjust="spacing" textLength="7.436" x="1361.8766" y="289.0607">0</text><text fill="#000000" font-family="Hack" font-size="13" lengthAdjust="spacing" textLength="7.163" x="1488.8614" y="337.2799">*</text></g><!--link search_results to product--><g id="link_search_results_product"><path codeLine="73" d="M1197.97,237 C1184.77,237 1175.25,237 1175.25,237 C1175.25,237 1175.25,357 1175.25,357 C1175.25,357 1100.5,357 1055.24,357 " fill="none" id="search_results-product" style="stroke:#000000;stroke-width:1.0;"/><text fill="#000000" font-family="Hack" font-size="13" lengthAdjust="spacing" textLength="7.436" x="1182.5499" y="232.2799">0</text><text fill="#000000" font-family="Hack" font-size="13" lengthAdjust="spacing" textLength="7.163" x="1062.9601" y="374.2628">*</text></g><!--link web_site to client--><g id="link_web_site_client"><path codeLine="75" d="M1040.5,57.03 C1040.5,74.62 1040.5,98.97 1040.5,116.65 " fill="none" id="web_site-client" style="stroke:#000000;stroke-width:1.0;"/><text fill="#000000" font-family="Hack" font-size="13" lengthAdjust="spacing" textLength="7.436" x="1032.626" y="78.9602">1</text><text fill="#000000" font-family="Hack" font-size="13" lengthAdjust="spacing" textLength="7.163" x="1032.5512" y="105.2074">*</text></g><!--link web_site to config--><g id="link_web_site_config"><path codeLine="76" d="M996.38,35 C924.61,35 790.5,35 790.5,35 C790.5,35 790.5,167.38 790.5,221.68 " fill="none" id="web_site-config" style="stroke:#000000;stroke-width:1.0;"/><text fill="#000000" font-family="Hack" font-size="13" lengthAdjust="spacing" textLength="7.436" x="981.2106" y="30.5768">0</text><text fill="#000000" font-family="Hack" font-size="13" lengthAdjust="spacing" textLength="7.163" x="782.6439" y="210.2455">*</text></g><!--link config to computer--><g id="link_config_computer"><path codeLine="78" d="M726.83,245 C641.87,245 502,245 502,245 C502,245 502,377.38 502,431.68 " fill="none" id="config-computer" style="stroke:#000000;stroke-width:1.0;"/><text fill="#000000" font-family="Hack" font-size="13" lengthAdjust="spacing" textLength="7.436" x="711.6986" y="240.9609">0</text><text fill="#000000" font-family="Hack" font-size="13" lengthAdjust="spacing" textLength="7.436" x="489.3488" y="420.2455">1</text></g><!--reverse link price to money_price--><g id="link_price_money_price"><path codeLine="80" d="M1226.5,390.03 C1226.5,407.62 1226.5,413.97 1226.5,431.65 " fill="none" id="price-backto-money_price" style="stroke:#000000;stroke-width:1.0;"/><polygon fill="none" points="1226.5,372.03,1220.5,390.03,1232.5,390.03,1226.5,372.03" style="stroke:#000000;stroke-width:1.0;"/></g><!--reverse link price to card_price--><g id="link_price_card_price"><path codeLine="81" d="M1282.75,357 C1317.82,357 1346.33,357 1346.33,357 C1346.33,357 1346.33,403.08 1346.33,431.89 " fill="none" id="price-backto-card_price" style="stroke:#000000;stroke-width:1.0;"/><polygon fill="none" points="1264.75,357,1282.75,363,1282.75,351,1264.75,357" style="stroke:#000000;stroke-width:1.0;"/></g><!--link order to price--><g id="link_order_price"><path codeLine="83" d="M1162.61,252 C1178.05,252 1193.25,252 1193.25,252 C1193.25,252 1193.25,298.08 1193.25,326.89 " fill="none" id="order-price" style="stroke:#000000;stroke-width:1.0;"/><text fill="#000000" font-family="Hack" font-size="13" lengthAdjust="spacing" textLength="7.436" x="1170.8714" y="248.7395">0</text><text fill="#000000" font-family="Hack" font-size="13" lengthAdjust="spacing" textLength="7.436" x="1175.9566" y="315.1271">1</text></g><!--reverse link product to computer--><g id="link_product_computer"><path codeLine="86" d="M969.82,342 C859.94,342 537,342 537,342 C537,342 537,398.86 537,431.73 " fill="none" id="product-backto-computer" style="stroke:#000000;stroke-width:1.0;"/><polygon fill="none" points="987.82,342,969.82,336,969.82,348,987.82,342" style="stroke:#000000;stroke-width:1.0;"/></g><!--reverse link product to parts--><g id="link_product_parts"><path codeLine="87" d="M969.83,357 C902.89,357 777.5,357 777.5,357 C777.5,357 777.5,403.08 777.5,431.89 " fill="none" id="product-backto-parts" style="stroke:#000000;stroke-width:1.0;"/><polygon fill="none" points="987.83,357,969.83,351,969.83,363,987.83,357" style="stroke:#000000;stroke-width:1.0;"/></g><!--reverse link product to peripherals--><g id="link_product_peripherals"><path codeLine="88" d="M1004.75,390.13 C1004.75,421.13 1004.75,455 1004.75,455 C1004.75,455 987.51,455 968.19,455 " fill="none" id="product-backto-peripherals" style="stroke:#000000;stroke-width:1.0;"/><polygon fill="none" points="1004.75,372.13,998.75,390.13,1010.75,390.13,1004.75,372.13" style="stroke:#000000;stroke-width:1.0;"/></g><!--link computer to slot--><g id="link_computer_slot"><path codeLine="90" d="M489,477.03 C489,494.62 489,518.97 489,536.65 " fill="none" id="computer-slot" style="stroke:#000000;stroke-width:1.0;"/><text fill="#000000" font-family="Hack" font-size="13" lengthAdjust="spacing" textLength="7.436" x="473.2804" y="498.9602">1</text><text fill="#000000" font-family="Hack" font-size="13" lengthAdjust="spacing" textLength="21.567" x="478.7604" y="525.2074">0..*</text></g><!--link slot to component--><g id="link_slot_component"><path codeLine="92" d="M438.5,582.11 C438.5,610.92 438.5,657 438.5,657 C438.5,657 594.19,657 677.81,657 " fill="none" id="slot-component" style="stroke:#000000;stroke-width:1.0;"/><text fill="#000000" font-family="Hack" font-size="13" lengthAdjust="spacing" textLength="7.436" x="430.5963" y="604.0607">1</text><text fill="#000000" font-family="Hack" font-size="13" lengthAdjust="spacing" textLength="21.84" x="648.1118" y="651.6919">0..1</text></g><!--reverse link component to component_memory--><g id="link_component_component_memory"><path codeLine="94" d="M659.86,672 C636.92,672 633,672 633,672 C633,672 633,718.08 633,746.89 " fill="none" id="component-backto-component_memory" style="stroke:#000000;stroke-width:1.0;"/><polygon fill="none" points="677.86,672,659.86,666,659.86,678,677.86,672" style="stroke:#000000;stroke-width:1.0;"/></g><!--reverse link component to component_hard--><g id="link_component_component_hard"><path codeLine="95" d="M799.01,672 C819.92,672 821.25,672 821.25,672 C821.25,672 821.25,718.08 821.25,746.89 " fill="none" id="component-backto-component_hard" style="stroke:#000000;stroke-width:1.0;"/><polygon fill="none" points="781.01,672,799.01,678,799.01,666,781.01,672" style="stroke:#000000;stroke-width:1.0;"/></g><!--reverse link component to component_cpu--><g id="link_component_component_cpu"><path codeLine="96" d="M729.5,705.03 C729.5,722.62 729.5,728.97 729.5,746.65 " fill="none" id="component-backto-component_cpu" style="stroke:#000000;stroke-width:1.0;"/><polygon fill="none" points="729.5,687.03,723.5,705.03,735.5,705.03,729.5,687.03" style="stroke:#000000;stroke-width:1.0;"/></g><!--link computer to computer_kind--><g id="link_computer_computer_kind"><path codeLine="98" d="M565.62,477.07 C565.62,491.3 565.62,507 565.62,507 C565.62,507 841,507 841,507 C841,507 841,522.7 841,536.93 " fill="none" id="computer-computer_kind" style="stroke:#000000;stroke-width:1.0;"/><text fill="#000000" font-family="Hack" font-size="13" lengthAdjust="spacing" textLength="7.436" x="569.5342" y="499.0105">0</text><text fill="#000000" font-family="Hack" font-size="13" lengthAdjust="spacing" textLength="7.436" x="817.1495" y="525.1783">1</text></g><!--reverse link computer to server--><g id="link_computer_server"><path codeLine="100" d="M552.88,495.03 C552.88,512.62 552.88,518.97 552.88,536.65 " fill="none" id="computer-backto-server" style="stroke:#000000;stroke-width:1.0;"/><polygon fill="none" points="552.88,477.03,546.88,495.03,558.88,495.03,552.88,477.03" style="stroke:#000000;stroke-width:1.0;"/></g><!--reverse link computer to stand_pc--><g id="link_computer_stand_pc"><path codeLine="101" d="M559.25,495.35 C559.25,514.93 559.25,522 559.25,522 C559.25,522 724.5,522 724.5,522 C724.5,522 724.5,528.92 724.5,536.82 " fill="none" id="computer-backto-stand_pc" style="stroke:#000000;stroke-width:1.0;"/><polygon fill="none" points="559.25,477.35,553.25,495.35,565.25,495.35,559.25,477.35" style="stroke:#000000;stroke-width:1.0;"/></g><!--reverse link computer to prot_pc--><g id="link_computer_prot_pc"><path codeLine="102" d="M448.91,447 C332.95,447 83.5,447 83.5,447 C83.5,447 83.5,503.86 83.5,536.73 " fill="none" id="computer-backto-prot_pc" style="stroke:#000000;stroke-width:1.0;"/><polygon fill="none" points="466.91,447,448.91,441,448.91,453,466.91,447" style="stroke:#000000;stroke-width:1.0;"/></g><!--reverse link computer to tab_pc--><g id="link_computer_tab_pc"><path codeLine="103" d="M448.78,462 C373.05,462 260.5,462 260.5,462 C260.5,462 260.5,508.08 260.5,536.89 " fill="none" id="computer-backto-tab_pc" style="stroke:#000000;stroke-width:1.0;"/><polygon fill="none" points="466.78,462,448.78,456,448.78,468,466.78,462" style="stroke:#000000;stroke-width:1.0;"/></g><!--link client to basket--><g id="link_client_basket"><path codeLine="106" d="M1033.25,162.03 C1033.25,179.62 1033.25,203.97 1033.25,221.65 " fill="none" id="client-basket" style="stroke:#000000;stroke-width:1.0;"/><text fill="#000000" font-family="Hack" font-size="13" lengthAdjust="spacing" textLength="7.436" x="1023.5225" y="183.9602">1</text><text fill="#000000" font-family="Hack" font-size="13" lengthAdjust="spacing" textLength="7.436" x="1028.4766" y="210.2074">1</text></g><!--link basket to product--><g id="link_basket_product"><path codeLine="107" d="M1021.5,267.03 C1021.5,284.62 1021.5,308.97 1021.5,326.65 " fill="none" id="basket-product" style="stroke:#000000;stroke-width:1.0;"/><text fill="#000000" font-family="Hack" font-size="13" lengthAdjust="spacing" textLength="7.436" x="1013.6121" y="288.9602">0</text><text fill="#000000" font-family="Hack" font-size="13" lengthAdjust="spacing" textLength="7.163" x="1013.6106" y="315.2074">*</text></g><!--link client to order--><g id="link_client_order"><path codeLine="109" d="M1073.17,162.13 C1073.17,193.13 1073.17,245 1073.17,245 C1073.17,245 1085.35,245 1098.48,245 " fill="none" id="client-order" style="stroke:#000000;stroke-width:1.0;"/><text fill="#000000" font-family="Hack" font-size="13" lengthAdjust="spacing" textLength="7.436" x="1073.672" y="184.0858">1</text><text fill="#000000" font-family="Hack" font-size="13" lengthAdjust="spacing" textLength="7.163" x="1083.261" y="240.1208">*</text></g><!--link order to product--><g id="link_order_product"><path codeLine="110" d="M1122.25,267.11 C1122.25,295.92 1122.25,342 1122.25,342 C1122.25,342 1084.36,342 1055.05,342 " fill="none" id="order-product" style="stroke:#000000;stroke-width:1.0;"/><text fill="#000000" font-family="Hack" font-size="13" lengthAdjust="spacing" textLength="7.436" x="1112.2686" y="289.0607">0</text><text fill="#000000" font-family="Hack" font-size="13" lengthAdjust="spacing" textLength="7.163" x="1062.7309" y="335.6628">*</text></g><!--link client to search_results--><g id="link_client_search_results"><path codeLine="112" d="M1068.33,162.07 C1068.33,176.3 1068.33,192 1068.33,192 C1068.33,192 1220.25,192 1220.25,192 C1220.25,192 1220.25,207.7 1220.25,221.93 " fill="none" id="client-search_results" style="stroke:#000000;stroke-width:1.0;"/><text fill="#000000" font-family="Hack" font-size="13" lengthAdjust="spacing" textLength="7.436" x="1067.5918" y="184.0105">0</text><text fill="#000000" font-family="Hack" font-size="13" lengthAdjust="spacing" textLength="7.436" x="1196.5523" y="210.1783">1</text></g><!--SRC=[XLLBRjim4Dth5Amt1GeuQFVTzI028xEn4Ei3IcuHe0j7AT8M2L8WYmO8qFHt0JU94SUEdIiCRzGXANuao-d2LSfvRpYSDvzdvP0bZ2HPcWL1KEp7QKuvJSWeJbbva3EIyNA8fcX4YuBqu1ncyBSFls0AzwBg4LgGzsmtBEAIET1lMCCrJCL4sNEU3SPHwSnNee9RzBCKfx0I9p0Zi4360pp24eyNeX97uanyWJdCj0VAoyBIVy1CJF3t4URudOkl6iDud0yPfwCY29uJkDGUnIbwgYI3z8aun0lMedBthM65Dwv4PRrly9JtA4loSScuUyIlhQvWgYZ5A2lRNXt8UirIbfP-n0uZJeZB6Lp0doOfJ5YIyGEN5yp6MXnZp8VuqBKNkOP7-TXYlobKXS7FuPwW6dEaB5g48UK35Tavecun6apzfN7nHgbmRJDKCFuEysCk-8xoomlMLkLxHTVOagQ3C8yyIJ5ScJdypT5f2uyLL3RXIwo_bVYCjrTjS4bt9TPB_L8MaalwA9OPzvJ1TzmXP5KBjqkBVUQLwmNUjS3VdR9cVE2NmPKgsgbLFUTnnBgiHFgNeOXFAk87c2i2TXux29-WOK788fkg1Eb-Y52OcjAei9Ni2RZ1xfaW_jZsHfIbR-Ezm4-t9tZ1A8-6dYDvyGnkL6BGXGf1uqrfAqOOqPBjoGhSTAp3Lce-YYEj2qwJi7LN2u_OYJn1EQxnAwkoKdFYJAUAxZF-FnSoovAEzO7dcfZIn5vjYJ_HyvqualMfAqyM-9QNSbQCHpY2chtM4UYf2zIJHWg2NU26oPZ7Z9CWOEauKVCIqsGdYHizTH1c-8GudR4X3RttScVdLO_q-wJtecVgiXwswgYsw6Zyv26rPGqyTQmLdRUkRWbFNdz0d2zi9w2XMoUY8P1vWh9u8zBi6Jy-mzbyLxj6joACjit_FkNg2QZTTIvO9r4zUJRU8KscGzMtIm6P5spuEgFUqF2E_RcWwi5tL9zlfbTvRvpgVTiyyjUhOTd7OINAFCcD5yX_VKFzXbf4-sTBNhlCjjdLCjfgbRlD2sjh0Lk8ufkTrJoqowbnR7TGuzGicq1hQz-DdtgDw4zdZRGujecRqdKnsWrWY_WV]--></g></svg>