<?xml version="1.0" encoding="UTF-8" standalone="no"?><svg xmlns="http://www.w3.org/2000/svg" xmlns:xlink="http://www.w3.org/1999/xlink" contentScriptType="application/ecmascript" contentStyleType="text/css" height="823px" preserveAspectRatio="none" style="width:1963px;height:823px;" version="1.1" viewBox="0 0 1963 823" width="1963px" zoomAndPan="magnify"><defs><filter height="300%" id="fwdg9jyo0s64h" width="300%" x="-1" y="-1"><feGaussianBlur result="blurOut" stdDeviation="2.0"/><feColorMatrix in="blurOut" result="blurOut2" type="matrix" values="0 0 0 0 0 0 0 0 0 0 0 0 0 0 0 0 0 0 .4 0"/><feOffset dx="4.0" dy="4.0" in="blurOut2" result="blurOut3"/><feBlend in="SourceGraphic" in2="blurOut3" mode="normal"/></filter></defs><g><!--MD5=[d751920db1fbc691de1b61463f2c0cb8]
class web_site--><rect fill="#FEFECE" filter="url(#fwdg9jyo0s64h)" height="48" id="web_site" style="stroke: #A80036; stroke-width: 1.5;" width="87" x="937" y="8"/><ellipse cx="952" cy="24" fill="#ADD1B2" rx="11" ry="11" style="stroke: #A80036; stroke-width: 1.0;"/><path d="M954.9688,29.6406 Q954.3906,29.9375 953.75,30.0781 Q953.1094,30.2344 952.4063,30.2344 Q949.9063,30.2344 948.5781,28.5938 Q947.2656,26.9375 947.2656,23.8125 Q947.2656,20.6875 948.5781,19.0313 Q949.9063,17.375 952.4063,17.375 Q953.1094,17.375 953.75,17.5313 Q954.4063,17.6875 954.9688,17.9844 L954.9688,20.7031 Q954.3438,20.125 953.75,19.8594 Q953.1563,19.5781 952.5313,19.5781 Q951.1875,19.5781 950.5,20.6563 Q949.8125,21.7188 949.8125,23.8125 Q949.8125,25.9063 950.5,26.9844 Q951.1875,28.0469 952.5313,28.0469 Q953.1563,28.0469 953.75,27.7813 Q954.3438,27.5 954.9688,26.9219 L954.9688,29.6406 Z "/><text fill="#000000" font-family="sans-serif" font-size="12" lengthAdjust="spacingAndGlyphs" textLength="55" x="966" y="28.656">Веб-Сайт</text><line style="stroke: #A80036; stroke-width: 1.5;" x1="938" x2="1023" y1="40" y2="40"/><line style="stroke: #A80036; stroke-width: 1.5;" x1="938" x2="1023" y1="48" y2="48"/><!--MD5=[e7a7e1f076ef42143f937b81d7de9aa7]
class product--><rect fill="#FEFECE" filter="url(#fwdg9jyo0s64h)" height="48" id="product" style="stroke: #A80036; stroke-width: 1.5;" width="67" x="930" y="332"/><ellipse cx="945" cy="348" fill="#ADD1B2" rx="11" ry="11" style="stroke: #A80036; stroke-width: 1.0;"/><path d="M947.9688,353.6406 Q947.3906,353.9375 946.75,354.0781 Q946.1094,354.2344 945.4063,354.2344 Q942.9063,354.2344 941.5781,352.5938 Q940.2656,350.9375 940.2656,347.8125 Q940.2656,344.6875 941.5781,343.0313 Q942.9063,341.375 945.4063,341.375 Q946.1094,341.375 946.75,341.5313 Q947.4063,341.6875 947.9688,341.9844 L947.9688,344.7031 Q947.3438,344.125 946.75,343.8594 Q946.1563,343.5781 945.5313,343.5781 Q944.1875,343.5781 943.5,344.6563 Q942.8125,345.7188 942.8125,347.8125 Q942.8125,349.9063 943.5,350.9844 Q944.1875,352.0469 945.5313,352.0469 Q946.1563,352.0469 946.75,351.7813 Q947.3438,351.5 947.9688,350.9219 L947.9688,353.6406 Z "/><text fill="#000000" font-family="sans-serif" font-size="12" lengthAdjust="spacingAndGlyphs" textLength="35" x="959" y="352.656">Товар</text><line style="stroke: #A80036; stroke-width: 1.5;" x1="931" x2="996" y1="364" y2="364"/><line style="stroke: #A80036; stroke-width: 1.5;" x1="931" x2="996" y1="372" y2="372"/><!--MD5=[9227e37ee73dfeae466ae1c1547ecbd3]
class parts--><rect fill="#FEFECE" filter="url(#fwdg9jyo0s64h)" height="48" id="parts" style="stroke: #A80036; stroke-width: 1.5;" width="199" x="575" y="440"/><ellipse cx="590" cy="456" fill="#ADD1B2" rx="11" ry="11" style="stroke: #A80036; stroke-width: 1.0;"/><path d="M592.9688,461.6406 Q592.3906,461.9375 591.75,462.0781 Q591.1094,462.2344 590.4063,462.2344 Q587.9063,462.2344 586.5781,460.5938 Q585.2656,458.9375 585.2656,455.8125 Q585.2656,452.6875 586.5781,451.0313 Q587.9063,449.375 590.4063,449.375 Q591.1094,449.375 591.75,449.5313 Q592.4063,449.6875 592.9688,449.9844 L592.9688,452.7031 Q592.3438,452.125 591.75,451.8594 Q591.1563,451.5781 590.5313,451.5781 Q589.1875,451.5781 588.5,452.6563 Q587.8125,453.7188 587.8125,455.8125 Q587.8125,457.9063 588.5,458.9844 Q589.1875,460.0469 590.5313,460.0469 Q591.1563,460.0469 591.75,459.7813 Q592.3438,459.5 592.9688,458.9219 L592.9688,461.6406 Z "/><text fill="#000000" font-family="sans-serif" font-size="12" lengthAdjust="spacingAndGlyphs" textLength="167" x="604" y="460.656">Отдельные комплектующие</text><line style="stroke: #A80036; stroke-width: 1.5;" x1="576" x2="773" y1="472" y2="472"/><line style="stroke: #A80036; stroke-width: 1.5;" x1="576" x2="773" y1="480" y2="480"/><!--MD5=[25e0d31213fd3772320717b65c49e6d0]
class peripherals--><rect fill="#FEFECE" filter="url(#fwdg9jyo0s64h)" height="48" id="peripherals" style="stroke: #A80036; stroke-width: 1.5;" width="101" x="809" y="440"/><ellipse cx="824" cy="456" fill="#ADD1B2" rx="11" ry="11" style="stroke: #A80036; stroke-width: 1.0;"/><path d="M826.9688,461.6406 Q826.3906,461.9375 825.75,462.0781 Q825.1094,462.2344 824.4063,462.2344 Q821.9063,462.2344 820.5781,460.5938 Q819.2656,458.9375 819.2656,455.8125 Q819.2656,452.6875 820.5781,451.0313 Q821.9063,449.375 824.4063,449.375 Q825.1094,449.375 825.75,449.5313 Q826.4063,449.6875 826.9688,449.9844 L826.9688,452.7031 Q826.3438,452.125 825.75,451.8594 Q825.1563,451.5781 824.5313,451.5781 Q823.1875,451.5781 822.5,452.6563 Q821.8125,453.7188 821.8125,455.8125 Q821.8125,457.9063 822.5,458.9844 Q823.1875,460.0469 824.5313,460.0469 Q825.1563,460.0469 825.75,459.7813 Q826.3438,459.5 826.9688,458.9219 L826.9688,461.6406 Z "/><text fill="#000000" font-family="sans-serif" font-size="12" lengthAdjust="spacingAndGlyphs" textLength="69" x="838" y="460.656">Перефирия</text><line style="stroke: #A80036; stroke-width: 1.5;" x1="810" x2="909" y1="472" y2="472"/><line style="stroke: #A80036; stroke-width: 1.5;" x1="810" x2="909" y1="480" y2="480"/><!--MD5=[287850b385e35ff11790de902d7787c8]
class computer--><rect fill="#FEFECE" filter="url(#fwdg9jyo0s64h)" height="48" id="computer" style="stroke: #A80036; stroke-width: 1.5;" width="99" x="441" y="440"/><ellipse cx="456" cy="456" fill="#ADD1B2" rx="11" ry="11" style="stroke: #A80036; stroke-width: 1.0;"/><path d="M458.9688,461.6406 Q458.3906,461.9375 457.75,462.0781 Q457.1094,462.2344 456.4063,462.2344 Q453.9063,462.2344 452.5781,460.5938 Q451.2656,458.9375 451.2656,455.8125 Q451.2656,452.6875 452.5781,451.0313 Q453.9063,449.375 456.4063,449.375 Q457.1094,449.375 457.75,449.5313 Q458.4063,449.6875 458.9688,449.9844 L458.9688,452.7031 Q458.3438,452.125 457.75,451.8594 Q457.1563,451.5781 456.5313,451.5781 Q455.1875,451.5781 454.5,452.6563 Q453.8125,453.7188 453.8125,455.8125 Q453.8125,457.9063 454.5,458.9844 Q455.1875,460.0469 456.5313,460.0469 Q457.1563,460.0469 457.75,459.7813 Q458.3438,459.5 458.9688,458.9219 L458.9688,461.6406 Z "/><text fill="#000000" font-family="sans-serif" font-size="12" lengthAdjust="spacingAndGlyphs" textLength="67" x="470" y="460.656">Компьютер</text><line style="stroke: #A80036; stroke-width: 1.5;" x1="442" x2="539" y1="472" y2="472"/><line style="stroke: #A80036; stroke-width: 1.5;" x1="442" x2="539" y1="480" y2="480"/><!--MD5=[1678d9b74d9aebf4991173ad597e112c]
class slot--><rect fill="#FEFECE" filter="url(#fwdg9jyo0s64h)" height="48" id="slot" style="stroke: #A80036; stroke-width: 1.5;" width="135" x="340" y="548"/><ellipse cx="355" cy="564" fill="#ADD1B2" rx="11" ry="11" style="stroke: #A80036; stroke-width: 1.0;"/><path d="M357.9688,569.6406 Q357.3906,569.9375 356.75,570.0781 Q356.1094,570.2344 355.4063,570.2344 Q352.9063,570.2344 351.5781,568.5938 Q350.2656,566.9375 350.2656,563.8125 Q350.2656,560.6875 351.5781,559.0313 Q352.9063,557.375 355.4063,557.375 Q356.1094,557.375 356.75,557.5313 Q357.4063,557.6875 357.9688,557.9844 L357.9688,560.7031 Q357.3438,560.125 356.75,559.8594 Q356.1563,559.5781 355.5313,559.5781 Q354.1875,559.5781 353.5,560.6563 Q352.8125,561.7188 352.8125,563.8125 Q352.8125,565.9063 353.5,566.9844 Q354.1875,568.0469 355.5313,568.0469 Q356.1563,568.0469 356.75,567.7813 Q357.3438,567.5 357.9688,566.9219 L357.9688,569.6406 Z "/><text fill="#000000" font-family="sans-serif" font-size="12" lengthAdjust="spacingAndGlyphs" textLength="103" x="369" y="568.656">Слот компонента</text><line style="stroke: #A80036; stroke-width: 1.5;" x1="341" x2="474" y1="580" y2="580"/><line style="stroke: #A80036; stroke-width: 1.5;" x1="341" x2="474" y1="588" y2="588"/><!--MD5=[f09eccff4f969cbf57a5c4045ebe9991]
class component--><rect fill="#FEFECE" filter="url(#fwdg9jyo0s64h)" height="48" id="component" style="stroke: #A80036; stroke-width: 1.5;" width="98" x="636.5" y="656"/><ellipse cx="651.5" cy="672" fill="#ADD1B2" rx="11" ry="11" style="stroke: #A80036; stroke-width: 1.0;"/><path d="M654.4688,677.6406 Q653.8906,677.9375 653.25,678.0781 Q652.6094,678.2344 651.9063,678.2344 Q649.4063,678.2344 648.0781,676.5938 Q646.7656,674.9375 646.7656,671.8125 Q646.7656,668.6875 648.0781,667.0313 Q649.4063,665.375 651.9063,665.375 Q652.6094,665.375 653.25,665.5313 Q653.9063,665.6875 654.4688,665.9844 L654.4688,668.7031 Q653.8438,668.125 653.25,667.8594 Q652.6563,667.5781 652.0313,667.5781 Q650.6875,667.5781 650,668.6563 Q649.3125,669.7188 649.3125,671.8125 Q649.3125,673.9063 650,674.9844 Q650.6875,676.0469 652.0313,676.0469 Q652.6563,676.0469 653.25,675.7813 Q653.8438,675.5 654.4688,674.9219 L654.4688,677.6406 Z "/><text fill="#000000" font-family="sans-serif" font-size="12" lengthAdjust="spacingAndGlyphs" textLength="66" x="665.5" y="676.656">Компонент</text><line style="stroke: #A80036; stroke-width: 1.5;" x1="637.5" x2="733.5" y1="688" y2="688"/><line style="stroke: #A80036; stroke-width: 1.5;" x1="637.5" x2="733.5" y1="696" y2="696"/><!--MD5=[c2bae3678e1379fadf1910e059517129]
class component_memory--><rect fill="#FEFECE" filter="url(#fwdg9jyo0s64h)" height="48" id="component_memory" style="stroke: #A80036; stroke-width: 1.5;" width="55" x="547" y="764"/><ellipse cx="562" cy="780" fill="#ADD1B2" rx="11" ry="11" style="stroke: #A80036; stroke-width: 1.0;"/><path d="M564.9688,785.6406 Q564.3906,785.9375 563.75,786.0781 Q563.1094,786.2344 562.4063,786.2344 Q559.9063,786.2344 558.5781,784.5938 Q557.2656,782.9375 557.2656,779.8125 Q557.2656,776.6875 558.5781,775.0313 Q559.9063,773.375 562.4063,773.375 Q563.1094,773.375 563.75,773.5313 Q564.4063,773.6875 564.9688,773.9844 L564.9688,776.7031 Q564.3438,776.125 563.75,775.8594 Q563.1563,775.5781 562.5313,775.5781 Q561.1875,775.5781 560.5,776.6563 Q559.8125,777.7188 559.8125,779.8125 Q559.8125,781.9063 560.5,782.9844 Q561.1875,784.0469 562.5313,784.0469 Q563.1563,784.0469 563.75,783.7813 Q564.3438,783.5 564.9688,782.9219 L564.9688,785.6406 Z "/><text fill="#000000" font-family="sans-serif" font-size="12" lengthAdjust="spacingAndGlyphs" textLength="23" x="576" y="784.656">ОЗУ</text><line style="stroke: #A80036; stroke-width: 1.5;" x1="548" x2="601" y1="796" y2="796"/><line style="stroke: #A80036; stroke-width: 1.5;" x1="548" x2="601" y1="804" y2="804"/><!--MD5=[a5eb638d287b6522c0f4cd4ffcdcb6d2]
class component_cpu--><rect fill="#FEFECE" filter="url(#fwdg9jyo0s64h)" height="48" id="component_cpu" style="stroke: #A80036; stroke-width: 1.5;" width="96" x="637.5" y="764"/><ellipse cx="652.5" cy="780" fill="#ADD1B2" rx="11" ry="11" style="stroke: #A80036; stroke-width: 1.0;"/><path d="M655.4688,785.6406 Q654.8906,785.9375 654.25,786.0781 Q653.6094,786.2344 652.9063,786.2344 Q650.4063,786.2344 649.0781,784.5938 Q647.7656,782.9375 647.7656,779.8125 Q647.7656,776.6875 649.0781,775.0313 Q650.4063,773.375 652.9063,773.375 Q653.6094,773.375 654.25,773.5313 Q654.9063,773.6875 655.4688,773.9844 L655.4688,776.7031 Q654.8438,776.125 654.25,775.8594 Q653.6563,775.5781 653.0313,775.5781 Q651.6875,775.5781 651,776.6563 Q650.3125,777.7188 650.3125,779.8125 Q650.3125,781.9063 651,782.9844 Q651.6875,784.0469 653.0313,784.0469 Q653.6563,784.0469 654.25,783.7813 Q654.8438,783.5 655.4688,782.9219 L655.4688,785.6406 Z "/><text fill="#000000" font-family="sans-serif" font-size="12" lengthAdjust="spacingAndGlyphs" textLength="64" x="666.5" y="784.656">Процессор</text><line style="stroke: #A80036; stroke-width: 1.5;" x1="638.5" x2="732.5" y1="796" y2="796"/><line style="stroke: #A80036; stroke-width: 1.5;" x1="638.5" x2="732.5" y1="804" y2="804"/><!--MD5=[8fcfd295fd63b261664526faf56bbc66]
class component_hard--><rect fill="#FEFECE" filter="url(#fwdg9jyo0s64h)" height="48" id="component_hard" style="stroke: #A80036; stroke-width: 1.5;" width="113" x="769" y="764"/><ellipse cx="784" cy="780" fill="#ADD1B2" rx="11" ry="11" style="stroke: #A80036; stroke-width: 1.0;"/><path d="M786.9688,785.6406 Q786.3906,785.9375 785.75,786.0781 Q785.1094,786.2344 784.4063,786.2344 Q781.9063,786.2344 780.5781,784.5938 Q779.2656,782.9375 779.2656,779.8125 Q779.2656,776.6875 780.5781,775.0313 Q781.9063,773.375 784.4063,773.375 Q785.1094,773.375 785.75,773.5313 Q786.4063,773.6875 786.9688,773.9844 L786.9688,776.7031 Q786.3438,776.125 785.75,775.8594 Q785.1563,775.5781 784.5313,775.5781 Q783.1875,775.5781 782.5,776.6563 Q781.8125,777.7188 781.8125,779.8125 Q781.8125,781.9063 782.5,782.9844 Q783.1875,784.0469 784.5313,784.0469 Q785.1563,784.0469 785.75,783.7813 Q786.3438,783.5 786.9688,782.9219 L786.9688,785.6406 Z "/><text fill="#000000" font-family="sans-serif" font-size="12" lengthAdjust="spacingAndGlyphs" textLength="81" x="798" y="784.656">Жесткий диск</text><line style="stroke: #A80036; stroke-width: 1.5;" x1="770" x2="881" y1="796" y2="796"/><line style="stroke: #A80036; stroke-width: 1.5;" x1="770" x2="881" y1="804" y2="804"/><!--MD5=[7288765a1906b576ad30e4ceee268498]
class server--><rect fill="#FEFECE" filter="url(#fwdg9jyo0s64h)" height="48" id="server" style="stroke: #A80036; stroke-width: 1.5;" width="75" x="510" y="548"/><ellipse cx="525" cy="564" fill="#ADD1B2" rx="11" ry="11" style="stroke: #A80036; stroke-width: 1.0;"/><path d="M527.9688,569.6406 Q527.3906,569.9375 526.75,570.0781 Q526.1094,570.2344 525.4063,570.2344 Q522.9063,570.2344 521.5781,568.5938 Q520.2656,566.9375 520.2656,563.8125 Q520.2656,560.6875 521.5781,559.0313 Q522.9063,557.375 525.4063,557.375 Q526.1094,557.375 526.75,557.5313 Q527.4063,557.6875 527.9688,557.9844 L527.9688,560.7031 Q527.3438,560.125 526.75,559.8594 Q526.1563,559.5781 525.5313,559.5781 Q524.1875,559.5781 523.5,560.6563 Q522.8125,561.7188 522.8125,563.8125 Q522.8125,565.9063 523.5,566.9844 Q524.1875,568.0469 525.5313,568.0469 Q526.1563,568.0469 526.75,567.7813 Q527.3438,567.5 527.9688,566.9219 L527.9688,569.6406 Z "/><text fill="#000000" font-family="sans-serif" font-size="12" lengthAdjust="spacingAndGlyphs" textLength="43" x="539" y="568.656">Cервер</text><line style="stroke: #A80036; stroke-width: 1.5;" x1="511" x2="584" y1="580" y2="580"/><line style="stroke: #A80036; stroke-width: 1.5;" x1="511" x2="584" y1="588" y2="588"/><!--MD5=[b1c8af8009d6dfbcd453215e02848468]
class stand_pc--><rect fill="#FEFECE" filter="url(#fwdg9jyo0s64h)" height="48" id="stand_pc" style="stroke: #A80036; stroke-width: 1.5;" width="125" x="620" y="548"/><ellipse cx="635" cy="564" fill="#ADD1B2" rx="11" ry="11" style="stroke: #A80036; stroke-width: 1.0;"/><path d="M637.9688,569.6406 Q637.3906,569.9375 636.75,570.0781 Q636.1094,570.2344 635.4063,570.2344 Q632.9063,570.2344 631.5781,568.5938 Q630.2656,566.9375 630.2656,563.8125 Q630.2656,560.6875 631.5781,559.0313 Q632.9063,557.375 635.4063,557.375 Q636.1094,557.375 636.75,557.5313 Q637.4063,557.6875 637.9688,557.9844 L637.9688,560.7031 Q637.3438,560.125 636.75,559.8594 Q636.1563,559.5781 635.5313,559.5781 Q634.1875,559.5781 633.5,560.6563 Q632.8125,561.7188 632.8125,563.8125 Q632.8125,565.9063 633.5,566.9844 Q634.1875,568.0469 635.5313,568.0469 Q636.1563,568.0469 636.75,567.7813 Q637.3438,567.5 637.9688,566.9219 L637.9688,569.6406 Z "/><text fill="#000000" font-family="sans-serif" font-size="12" lengthAdjust="spacingAndGlyphs" textLength="93" x="649" y="568.656">Настольный ПК</text><line style="stroke: #A80036; stroke-width: 1.5;" x1="621" x2="744" y1="580" y2="580"/><line style="stroke: #A80036; stroke-width: 1.5;" x1="621" x2="744" y1="588" y2="588"/><!--MD5=[bda44717514d039f9661f6f7a935d5a7]
class prot_pc--><rect fill="#FEFECE" filter="url(#fwdg9jyo0s64h)" height="48" id="prot_pc" style="stroke: #A80036; stroke-width: 1.5;" width="133" x="6" y="548"/><ellipse cx="21" cy="564" fill="#ADD1B2" rx="11" ry="11" style="stroke: #A80036; stroke-width: 1.0;"/><path d="M23.9688,569.6406 Q23.3906,569.9375 22.75,570.0781 Q22.1094,570.2344 21.4063,570.2344 Q18.9063,570.2344 17.5781,568.5938 Q16.2656,566.9375 16.2656,563.8125 Q16.2656,560.6875 17.5781,559.0313 Q18.9063,557.375 21.4063,557.375 Q22.1094,557.375 22.75,557.5313 Q23.4063,557.6875 23.9688,557.9844 L23.9688,560.7031 Q23.3438,560.125 22.75,559.8594 Q22.1563,559.5781 21.5313,559.5781 Q20.1875,559.5781 19.5,560.6563 Q18.8125,561.7188 18.8125,563.8125 Q18.8125,565.9063 19.5,566.9844 Q20.1875,568.0469 21.5313,568.0469 Q22.1563,568.0469 22.75,567.7813 Q23.3438,567.5 23.9688,566.9219 L23.9688,569.6406 Z "/><text fill="#000000" font-family="sans-serif" font-size="12" lengthAdjust="spacingAndGlyphs" textLength="101" x="35" y="568.656">Портативный ПК</text><line style="stroke: #A80036; stroke-width: 1.5;" x1="7" x2="138" y1="580" y2="580"/><line style="stroke: #A80036; stroke-width: 1.5;" x1="7" x2="138" y1="588" y2="588"/><!--MD5=[70a6199220f00a251f11a22d36889d41]
class tab_pc--><rect fill="#FEFECE" filter="url(#fwdg9jyo0s64h)" height="48" id="tab_pc" style="stroke: #A80036; stroke-width: 1.5;" width="131" x="174" y="548"/><ellipse cx="189" cy="564" fill="#ADD1B2" rx="11" ry="11" style="stroke: #A80036; stroke-width: 1.0;"/><path d="M191.9688,569.6406 Q191.3906,569.9375 190.75,570.0781 Q190.1094,570.2344 189.4063,570.2344 Q186.9063,570.2344 185.5781,568.5938 Q184.2656,566.9375 184.2656,563.8125 Q184.2656,560.6875 185.5781,559.0313 Q186.9063,557.375 189.4063,557.375 Q190.1094,557.375 190.75,557.5313 Q191.4063,557.6875 191.9688,557.9844 L191.9688,560.7031 Q191.3438,560.125 190.75,559.8594 Q190.1563,559.5781 189.5313,559.5781 Q188.1875,559.5781 187.5,560.6563 Q186.8125,561.7188 186.8125,563.8125 Q186.8125,565.9063 187.5,566.9844 Q188.1875,568.0469 189.5313,568.0469 Q190.1563,568.0469 190.75,567.7813 Q191.3438,567.5 191.9688,566.9219 L191.9688,569.6406 Z "/><text fill="#000000" font-family="sans-serif" font-size="12" lengthAdjust="spacingAndGlyphs" textLength="99" x="203" y="568.656">Планшетный ПК</text><line style="stroke: #A80036; stroke-width: 1.5;" x1="175" x2="304" y1="580" y2="580"/><line style="stroke: #A80036; stroke-width: 1.5;" x1="175" x2="304" y1="588" y2="588"/><!--MD5=[e3f72718913f1e037c5bc72e44de49f6]
class client--><rect fill="#FEFECE" filter="url(#fwdg9jyo0s64h)" height="48" id="client" style="stroke: #A80036; stroke-width: 1.5;" width="75" x="943" y="116"/><ellipse cx="958" cy="132" fill="#ADD1B2" rx="11" ry="11" style="stroke: #A80036; stroke-width: 1.0;"/><path d="M960.9688,137.6406 Q960.3906,137.9375 959.75,138.0781 Q959.1094,138.2344 958.4063,138.2344 Q955.9063,138.2344 954.5781,136.5938 Q953.2656,134.9375 953.2656,131.8125 Q953.2656,128.6875 954.5781,127.0313 Q955.9063,125.375 958.4063,125.375 Q959.1094,125.375 959.75,125.5313 Q960.4063,125.6875 960.9688,125.9844 L960.9688,128.7031 Q960.3438,128.125 959.75,127.8594 Q959.1563,127.5781 958.5313,127.5781 Q957.1875,127.5781 956.5,128.6563 Q955.8125,129.7188 955.8125,131.8125 Q955.8125,133.9063 956.5,134.9844 Q957.1875,136.0469 958.5313,136.0469 Q959.1563,136.0469 959.75,135.7813 Q960.3438,135.5 960.9688,134.9219 L960.9688,137.6406 Z "/><text fill="#000000" font-family="sans-serif" font-size="12" lengthAdjust="spacingAndGlyphs" textLength="43" x="972" y="136.656">Клиент</text><line style="stroke: #A80036; stroke-width: 1.5;" x1="944" x2="1017" y1="148" y2="148"/><line style="stroke: #A80036; stroke-width: 1.5;" x1="944" x2="1017" y1="156" y2="156"/><!--MD5=[e2c501cb7263949ac69b8daf5f9d6c3e]
class basket--><rect fill="#FEFECE" filter="url(#fwdg9jyo0s64h)" height="48" id="basket" style="stroke: #A80036; stroke-width: 1.5;" width="82" x="922.5" y="224"/><ellipse cx="937.5" cy="240" fill="#ADD1B2" rx="11" ry="11" style="stroke: #A80036; stroke-width: 1.0;"/><path d="M940.4688,245.6406 Q939.8906,245.9375 939.25,246.0781 Q938.6094,246.2344 937.9063,246.2344 Q935.4063,246.2344 934.0781,244.5938 Q932.7656,242.9375 932.7656,239.8125 Q932.7656,236.6875 934.0781,235.0313 Q935.4063,233.375 937.9063,233.375 Q938.6094,233.375 939.25,233.5313 Q939.9063,233.6875 940.4688,233.9844 L940.4688,236.7031 Q939.8438,236.125 939.25,235.8594 Q938.6563,235.5781 938.0313,235.5781 Q936.6875,235.5781 936,236.6563 Q935.3125,237.7188 935.3125,239.8125 Q935.3125,241.9063 936,242.9844 Q936.6875,244.0469 938.0313,244.0469 Q938.6563,244.0469 939.25,243.7813 Q939.8438,243.5 940.4688,242.9219 L940.4688,245.6406 Z "/><text fill="#000000" font-family="sans-serif" font-size="12" lengthAdjust="spacingAndGlyphs" textLength="50" x="951.5" y="244.656">Корзина</text><line style="stroke: #A80036; stroke-width: 1.5;" x1="923.5" x2="1003.5" y1="256" y2="256"/><line style="stroke: #A80036; stroke-width: 1.5;" x1="923.5" x2="1003.5" y1="264" y2="264"/><!--MD5=[a5d022e75c0065b9d5401ddae886f23d]
class order--><rect fill="#FEFECE" filter="url(#fwdg9jyo0s64h)" height="48" id="order" style="stroke: #A80036; stroke-width: 1.5;" width="65" x="1040" y="224"/><ellipse cx="1055" cy="240" fill="#ADD1B2" rx="11" ry="11" style="stroke: #A80036; stroke-width: 1.0;"/><path d="M1057.9688,245.6406 Q1057.3906,245.9375 1056.75,246.0781 Q1056.1094,246.2344 1055.4063,246.2344 Q1052.9063,246.2344 1051.5781,244.5938 Q1050.2656,242.9375 1050.2656,239.8125 Q1050.2656,236.6875 1051.5781,235.0313 Q1052.9063,233.375 1055.4063,233.375 Q1056.1094,233.375 1056.75,233.5313 Q1057.4063,233.6875 1057.9688,233.9844 L1057.9688,236.7031 Q1057.3438,236.125 1056.75,235.8594 Q1056.1563,235.5781 1055.5313,235.5781 Q1054.1875,235.5781 1053.5,236.6563 Q1052.8125,237.7188 1052.8125,239.8125 Q1052.8125,241.9063 1053.5,242.9844 Q1054.1875,244.0469 1055.5313,244.0469 Q1056.1563,244.0469 1056.75,243.7813 Q1057.3438,243.5 1057.9688,242.9219 L1057.9688,245.6406 Z "/><text fill="#000000" font-family="sans-serif" font-size="12" lengthAdjust="spacingAndGlyphs" textLength="33" x="1069" y="244.656">Заказ</text><line style="stroke: #A80036; stroke-width: 1.5;" x1="1041" x2="1104" y1="256" y2="256"/><line style="stroke: #A80036; stroke-width: 1.5;" x1="1041" x2="1104" y1="264" y2="264"/><!--MD5=[955a288f18dd63f61b568c29263f97e8]
class price--><rect fill="#FEFECE" filter="url(#fwdg9jyo0s64h)" height="48" id="price" style="stroke: #A80036; stroke-width: 1.5;" width="75" x="1124" y="332"/><ellipse cx="1139" cy="348" fill="#ADD1B2" rx="11" ry="11" style="stroke: #A80036; stroke-width: 1.0;"/><path d="M1141.9688,353.6406 Q1141.3906,353.9375 1140.75,354.0781 Q1140.1094,354.2344 1139.4063,354.2344 Q1136.9063,354.2344 1135.5781,352.5938 Q1134.2656,350.9375 1134.2656,347.8125 Q1134.2656,344.6875 1135.5781,343.0313 Q1136.9063,341.375 1139.4063,341.375 Q1140.1094,341.375 1140.75,341.5313 Q1141.4063,341.6875 1141.9688,341.9844 L1141.9688,344.7031 Q1141.3438,344.125 1140.75,343.8594 Q1140.1563,343.5781 1139.5313,343.5781 Q1138.1875,343.5781 1137.5,344.6563 Q1136.8125,345.7188 1136.8125,347.8125 Q1136.8125,349.9063 1137.5,350.9844 Q1138.1875,352.0469 1139.5313,352.0469 Q1140.1563,352.0469 1140.75,351.7813 Q1141.3438,351.5 1141.9688,350.9219 L1141.9688,353.6406 Z "/><text fill="#000000" font-family="sans-serif" font-size="12" lengthAdjust="spacingAndGlyphs" textLength="43" x="1153" y="352.656">Оплата</text><line style="stroke: #A80036; stroke-width: 1.5;" x1="1125" x2="1198" y1="364" y2="364"/><line style="stroke: #A80036; stroke-width: 1.5;" x1="1125" x2="1198" y1="372" y2="372"/><!--MD5=[4fde4e913bccbafbfe78f63b4537fae7]
class money_price--><rect fill="#FEFECE" filter="url(#fwdg9jyo0s64h)" height="48" id="money_price" style="stroke: #A80036; stroke-width: 1.5;" width="149" x="1087" y="440"/><ellipse cx="1102" cy="456" fill="#ADD1B2" rx="11" ry="11" style="stroke: #A80036; stroke-width: 1.0;"/><path d="M1104.9688,461.6406 Q1104.3906,461.9375 1103.75,462.0781 Q1103.1094,462.2344 1102.4063,462.2344 Q1099.9063,462.2344 1098.5781,460.5938 Q1097.2656,458.9375 1097.2656,455.8125 Q1097.2656,452.6875 1098.5781,451.0313 Q1099.9063,449.375 1102.4063,449.375 Q1103.1094,449.375 1103.75,449.5313 Q1104.4063,449.6875 1104.9688,449.9844 L1104.9688,452.7031 Q1104.3438,452.125 1103.75,451.8594 Q1103.1563,451.5781 1102.5313,451.5781 Q1101.1875,451.5781 1100.5,452.6563 Q1099.8125,453.7188 1099.8125,455.8125 Q1099.8125,457.9063 1100.5,458.9844 Q1101.1875,460.0469 1102.5313,460.0469 Q1103.1563,460.0469 1103.75,459.7813 Q1104.3438,459.5 1104.9688,458.9219 L1104.9688,461.6406 Z "/><text fill="#000000" font-family="sans-serif" font-size="12" lengthAdjust="spacingAndGlyphs" textLength="117" x="1116" y="460.656">Оплата наличными</text><line style="stroke: #A80036; stroke-width: 1.5;" x1="1088" x2="1235" y1="472" y2="472"/><line style="stroke: #A80036; stroke-width: 1.5;" x1="1088" x2="1235" y1="480" y2="480"/><!--MD5=[71aa56bf42654e9e1fbd36af2fbecb04]
class card_price--><rect fill="#FEFECE" filter="url(#fwdg9jyo0s64h)" height="48" id="card_price" style="stroke: #A80036; stroke-width: 1.5;" width="128" x="1271.5" y="440"/><ellipse cx="1286.5" cy="456" fill="#ADD1B2" rx="11" ry="11" style="stroke: #A80036; stroke-width: 1.0;"/><path d="M1289.4688,461.6406 Q1288.8906,461.9375 1288.25,462.0781 Q1287.6094,462.2344 1286.9063,462.2344 Q1284.4063,462.2344 1283.0781,460.5938 Q1281.7656,458.9375 1281.7656,455.8125 Q1281.7656,452.6875 1283.0781,451.0313 Q1284.4063,449.375 1286.9063,449.375 Q1287.6094,449.375 1288.25,449.5313 Q1288.9063,449.6875 1289.4688,449.9844 L1289.4688,452.7031 Q1288.8438,452.125 1288.25,451.8594 Q1287.6563,451.5781 1287.0313,451.5781 Q1285.6875,451.5781 1285,452.6563 Q1284.3125,453.7188 1284.3125,455.8125 Q1284.3125,457.9063 1285,458.9844 Q1285.6875,460.0469 1287.0313,460.0469 Q1287.6563,460.0469 1288.25,459.7813 Q1288.8438,459.5 1289.4688,458.9219 L1289.4688,461.6406 Z "/><text fill="#000000" font-family="sans-serif" font-size="12" lengthAdjust="spacingAndGlyphs" textLength="96" x="1300.5" y="460.656">Оплата по карте</text><line style="stroke: #A80036; stroke-width: 1.5;" x1="1272.5" x2="1398.5" y1="472" y2="472"/><line style="stroke: #A80036; stroke-width: 1.5;" x1="1272.5" x2="1398.5" y1="480" y2="480"/><!--MD5=[9a247f74696882179a492ab5ab0ccb2c]
class config--><rect fill="#FEFECE" filter="url(#fwdg9jyo0s64h)" height="48" id="config" style="stroke: #A80036; stroke-width: 1.5;" width="119" x="684" y="224"/><ellipse cx="699" cy="240" fill="#ADD1B2" rx="11" ry="11" style="stroke: #A80036; stroke-width: 1.0;"/><path d="M701.9688,245.6406 Q701.3906,245.9375 700.75,246.0781 Q700.1094,246.2344 699.4063,246.2344 Q696.9063,246.2344 695.5781,244.5938 Q694.2656,242.9375 694.2656,239.8125 Q694.2656,236.6875 695.5781,235.0313 Q696.9063,233.375 699.4063,233.375 Q700.1094,233.375 700.75,233.5313 Q701.4063,233.6875 701.9688,233.9844 L701.9688,236.7031 Q701.3438,236.125 700.75,235.8594 Q700.1563,235.5781 699.5313,235.5781 Q698.1875,235.5781 697.5,236.6563 Q696.8125,237.7188 696.8125,239.8125 Q696.8125,241.9063 697.5,242.9844 Q698.1875,244.0469 699.5313,244.0469 Q700.1563,244.0469 700.75,243.7813 Q701.3438,243.5 701.9688,242.9219 L701.9688,245.6406 Z "/><text fill="#000000" font-family="sans-serif" font-size="12" lengthAdjust="spacingAndGlyphs" textLength="87" x="713" y="244.656">Конфигурация</text><line style="stroke: #A80036; stroke-width: 1.5;" x1="685" x2="802" y1="256" y2="256"/><line style="stroke: #A80036; stroke-width: 1.5;" x1="685" x2="802" y1="264" y2="264"/><!--MD5=[6c51dee4ad41011e07d0f7b1af75230a]
class search--><rect fill="#FEFECE" filter="url(#fwdg9jyo0s64h)" height="48" id="search" style="stroke: #A80036; stroke-width: 1.5;" width="68" x="1178.5" y="116"/><ellipse cx="1193.5" cy="132" fill="#ADD1B2" rx="11" ry="11" style="stroke: #A80036; stroke-width: 1.0;"/><path d="M1196.4688,137.6406 Q1195.8906,137.9375 1195.25,138.0781 Q1194.6094,138.2344 1193.9063,138.2344 Q1191.4063,138.2344 1190.0781,136.5938 Q1188.7656,134.9375 1188.7656,131.8125 Q1188.7656,128.6875 1190.0781,127.0313 Q1191.4063,125.375 1193.9063,125.375 Q1194.6094,125.375 1195.25,125.5313 Q1195.9063,125.6875 1196.4688,125.9844 L1196.4688,128.7031 Q1195.8438,128.125 1195.25,127.8594 Q1194.6563,127.5781 1194.0313,127.5781 Q1192.6875,127.5781 1192,128.6563 Q1191.3125,129.7188 1191.3125,131.8125 Q1191.3125,133.9063 1192,134.9844 Q1192.6875,136.0469 1194.0313,136.0469 Q1194.6563,136.0469 1195.25,135.7813 Q1195.8438,135.5 1196.4688,134.9219 L1196.4688,137.6406 Z "/><text fill="#000000" font-family="sans-serif" font-size="12" lengthAdjust="spacingAndGlyphs" textLength="36" x="1207.5" y="136.656">Поиск</text><line style="stroke: #A80036; stroke-width: 1.5;" x1="1179.5" x2="1245.5" y1="148" y2="148"/><line style="stroke: #A80036; stroke-width: 1.5;" x1="1179.5" x2="1245.5" y1="156" y2="156"/><!--MD5=[24b63d4a82d7fafdc3b9b96152e92261]
class search_category--><rect fill="#FEFECE" filter="url(#fwdg9jyo0s64h)" height="48" id="search_category" style="stroke: #A80036; stroke-width: 1.5;" width="137" x="1424" y="332"/><ellipse cx="1439" cy="348" fill="#ADD1B2" rx="11" ry="11" style="stroke: #A80036; stroke-width: 1.0;"/><path d="M1441.9688,353.6406 Q1441.3906,353.9375 1440.75,354.0781 Q1440.1094,354.2344 1439.4063,354.2344 Q1436.9063,354.2344 1435.5781,352.5938 Q1434.2656,350.9375 1434.2656,347.8125 Q1434.2656,344.6875 1435.5781,343.0313 Q1436.9063,341.375 1439.4063,341.375 Q1440.1094,341.375 1440.75,341.5313 Q1441.4063,341.6875 1441.9688,341.9844 L1441.9688,344.7031 Q1441.3438,344.125 1440.75,343.8594 Q1440.1563,343.5781 1439.5313,343.5781 Q1438.1875,343.5781 1437.5,344.6563 Q1436.8125,345.7188 1436.8125,347.8125 Q1436.8125,349.9063 1437.5,350.9844 Q1438.1875,352.0469 1439.5313,352.0469 Q1440.1563,352.0469 1440.75,351.7813 Q1441.3438,351.5 1441.9688,350.9219 L1441.9688,353.6406 Z "/><text fill="#000000" font-family="sans-serif" font-size="12" lengthAdjust="spacingAndGlyphs" textLength="105" x="1453" y="352.656">Категория поиска</text><line style="stroke: #A80036; stroke-width: 1.5;" x1="1425" x2="1560" y1="364" y2="364"/><line style="stroke: #A80036; stroke-width: 1.5;" x1="1425" x2="1560" y1="372" y2="372"/><!--MD5=[f63b5c3be6cdb6bd64cca28ad439a83f]
class type_search--><rect fill="#FEFECE" filter="url(#fwdg9jyo0s64h)" height="48" id="type_search" style="stroke: #A80036; stroke-width: 1.5;" width="115" x="1435" y="440"/><ellipse cx="1450" cy="456" fill="#ADD1B2" rx="11" ry="11" style="stroke: #A80036; stroke-width: 1.0;"/><path d="M1452.9688,461.6406 Q1452.3906,461.9375 1451.75,462.0781 Q1451.1094,462.2344 1450.4063,462.2344 Q1447.9063,462.2344 1446.5781,460.5938 Q1445.2656,458.9375 1445.2656,455.8125 Q1445.2656,452.6875 1446.5781,451.0313 Q1447.9063,449.375 1450.4063,449.375 Q1451.1094,449.375 1451.75,449.5313 Q1452.4063,449.6875 1452.9688,449.9844 L1452.9688,452.7031 Q1452.3438,452.125 1451.75,451.8594 Q1451.1563,451.5781 1450.5313,451.5781 Q1449.1875,451.5781 1448.5,452.6563 Q1447.8125,453.7188 1447.8125,455.8125 Q1447.8125,457.9063 1448.5,458.9844 Q1449.1875,460.0469 1450.5313,460.0469 Q1451.1563,460.0469 1451.75,459.7813 Q1452.3438,459.5 1452.9688,458.9219 L1452.9688,461.6406 Z "/><text fill="#000000" font-family="sans-serif" font-size="12" lengthAdjust="spacingAndGlyphs" textLength="83" x="1464" y="460.656">Поиск по типу</text><line style="stroke: #A80036; stroke-width: 1.5;" x1="1436" x2="1549" y1="472" y2="472"/><line style="stroke: #A80036; stroke-width: 1.5;" x1="1436" x2="1549" y1="480" y2="480"/><!--MD5=[e55079468cb9cda2d0ad4b3318e6be3e]
class maker_search--><rect fill="#FEFECE" filter="url(#fwdg9jyo0s64h)" height="48" id="maker_search" style="stroke: #A80036; stroke-width: 1.5;" width="182" x="1585.5" y="440"/><ellipse cx="1600.5" cy="456" fill="#ADD1B2" rx="11" ry="11" style="stroke: #A80036; stroke-width: 1.0;"/><path d="M1603.4688,461.6406 Q1602.8906,461.9375 1602.25,462.0781 Q1601.6094,462.2344 1600.9063,462.2344 Q1598.4063,462.2344 1597.0781,460.5938 Q1595.7656,458.9375 1595.7656,455.8125 Q1595.7656,452.6875 1597.0781,451.0313 Q1598.4063,449.375 1600.9063,449.375 Q1601.6094,449.375 1602.25,449.5313 Q1602.9063,449.6875 1603.4688,449.9844 L1603.4688,452.7031 Q1602.8438,452.125 1602.25,451.8594 Q1601.6563,451.5781 1601.0313,451.5781 Q1599.6875,451.5781 1599,452.6563 Q1598.3125,453.7188 1598.3125,455.8125 Q1598.3125,457.9063 1599,458.9844 Q1599.6875,460.0469 1601.0313,460.0469 Q1601.6563,460.0469 1602.25,459.7813 Q1602.8438,459.5 1603.4688,458.9219 L1603.4688,461.6406 Z "/><text fill="#000000" font-family="sans-serif" font-size="12" lengthAdjust="spacingAndGlyphs" textLength="150" x="1614.5" y="460.656">Поиск по производителю</text><line style="stroke: #A80036; stroke-width: 1.5;" x1="1586.5" x2="1766.5" y1="472" y2="472"/><line style="stroke: #A80036; stroke-width: 1.5;" x1="1586.5" x2="1766.5" y1="480" y2="480"/><!--MD5=[981878cedcf901533c51a2e6b0d69435]
class name_search--><rect fill="#FEFECE" filter="url(#fwdg9jyo0s64h)" height="48" id="name_search" style="stroke: #A80036; stroke-width: 1.5;" width="149" x="1803" y="440"/><ellipse cx="1818" cy="456" fill="#ADD1B2" rx="11" ry="11" style="stroke: #A80036; stroke-width: 1.0;"/><path d="M1820.9688,461.6406 Q1820.3906,461.9375 1819.75,462.0781 Q1819.1094,462.2344 1818.4063,462.2344 Q1815.9063,462.2344 1814.5781,460.5938 Q1813.2656,458.9375 1813.2656,455.8125 Q1813.2656,452.6875 1814.5781,451.0313 Q1815.9063,449.375 1818.4063,449.375 Q1819.1094,449.375 1819.75,449.5313 Q1820.4063,449.6875 1820.9688,449.9844 L1820.9688,452.7031 Q1820.3438,452.125 1819.75,451.8594 Q1819.1563,451.5781 1818.5313,451.5781 Q1817.1875,451.5781 1816.5,452.6563 Q1815.8125,453.7188 1815.8125,455.8125 Q1815.8125,457.9063 1816.5,458.9844 Q1817.1875,460.0469 1818.5313,460.0469 Q1819.1563,460.0469 1819.75,459.7813 Q1820.3438,459.5 1820.9688,458.9219 L1820.9688,461.6406 Z "/><text fill="#000000" font-family="sans-serif" font-size="12" lengthAdjust="spacingAndGlyphs" textLength="117" x="1832" y="460.656">Поиск по названию</text><line style="stroke: #A80036; stroke-width: 1.5;" x1="1804" x2="1951" y1="472" y2="472"/><line style="stroke: #A80036; stroke-width: 1.5;" x1="1804" x2="1951" y1="480" y2="480"/><!--MD5=[090c31cd730d6f3a67695a7145c11070]
class search_results--><rect fill="#FEFECE" filter="url(#fwdg9jyo0s64h)" height="48" id="search_results" style="stroke: #A80036; stroke-width: 1.5;" width="144" x="1140.5" y="224"/><ellipse cx="1155.5" cy="240" fill="#ADD1B2" rx="11" ry="11" style="stroke: #A80036; stroke-width: 1.0;"/><path d="M1158.4688,245.6406 Q1157.8906,245.9375 1157.25,246.0781 Q1156.6094,246.2344 1155.9063,246.2344 Q1153.4063,246.2344 1152.0781,244.5938 Q1150.7656,242.9375 1150.7656,239.8125 Q1150.7656,236.6875 1152.0781,235.0313 Q1153.4063,233.375 1155.9063,233.375 Q1156.6094,233.375 1157.25,233.5313 Q1157.9063,233.6875 1158.4688,233.9844 L1158.4688,236.7031 Q1157.8438,236.125 1157.25,235.8594 Q1156.6563,235.5781 1156.0313,235.5781 Q1154.6875,235.5781 1154,236.6563 Q1153.3125,237.7188 1153.3125,239.8125 Q1153.3125,241.9063 1154,242.9844 Q1154.6875,244.0469 1156.0313,244.0469 Q1156.6563,244.0469 1157.25,243.7813 Q1157.8438,243.5 1158.4688,242.9219 L1158.4688,245.6406 Z "/><text fill="#000000" font-family="sans-serif" font-size="12" lengthAdjust="spacingAndGlyphs" textLength="112" x="1169.5" y="244.656">Результаты поиска</text><line style="stroke: #A80036; stroke-width: 1.5;" x1="1141.5" x2="1283.5" y1="256" y2="256"/><line style="stroke: #A80036; stroke-width: 1.5;" x1="1141.5" x2="1283.5" y1="264" y2="264"/><!--MD5=[c5bbcc09d0c440154224266d5fd1b919]
class maker--><rect fill="#FEFECE" filter="url(#fwdg9jyo0s64h)" height="48" id="maker" style="stroke: #A80036; stroke-width: 1.5;" width="125" x="1315" y="548"/><ellipse cx="1330" cy="564" fill="#ADD1B2" rx="11" ry="11" style="stroke: #A80036; stroke-width: 1.0;"/><path d="M1332.9688,569.6406 Q1332.3906,569.9375 1331.75,570.0781 Q1331.1094,570.2344 1330.4063,570.2344 Q1327.9063,570.2344 1326.5781,568.5938 Q1325.2656,566.9375 1325.2656,563.8125 Q1325.2656,560.6875 1326.5781,559.0313 Q1327.9063,557.375 1330.4063,557.375 Q1331.1094,557.375 1331.75,557.5313 Q1332.4063,557.6875 1332.9688,557.9844 L1332.9688,560.7031 Q1332.3438,560.125 1331.75,559.8594 Q1331.1563,559.5781 1330.5313,559.5781 Q1329.1875,559.5781 1328.5,560.6563 Q1327.8125,561.7188 1327.8125,563.8125 Q1327.8125,565.9063 1328.5,566.9844 Q1329.1875,568.0469 1330.5313,568.0469 Q1331.1563,568.0469 1331.75,567.7813 Q1332.3438,567.5 1332.9688,566.9219 L1332.9688,569.6406 Z "/><text fill="#000000" font-family="sans-serif" font-size="12" lengthAdjust="spacingAndGlyphs" textLength="93" x="1344" y="568.656">Производитель</text><line style="stroke: #A80036; stroke-width: 1.5;" x1="1316" x2="1439" y1="580" y2="580"/><line style="stroke: #A80036; stroke-width: 1.5;" x1="1316" x2="1439" y1="588" y2="588"/><!--MD5=[83fb94581a5b64f46f8092e6a3708902]
class courier--><rect fill="#FEFECE" filter="url(#fwdg9jyo0s64h)" height="48" id="courier" style="stroke: #A80036; stroke-width: 1.5;" width="73" x="1053" y="116"/><ellipse cx="1068" cy="132" fill="#ADD1B2" rx="11" ry="11" style="stroke: #A80036; stroke-width: 1.0;"/><path d="M1070.9688,137.6406 Q1070.3906,137.9375 1069.75,138.0781 Q1069.1094,138.2344 1068.4063,138.2344 Q1065.9063,138.2344 1064.5781,136.5938 Q1063.2656,134.9375 1063.2656,131.8125 Q1063.2656,128.6875 1064.5781,127.0313 Q1065.9063,125.375 1068.4063,125.375 Q1069.1094,125.375 1069.75,125.5313 Q1070.4063,125.6875 1070.9688,125.9844 L1070.9688,128.7031 Q1070.3438,128.125 1069.75,127.8594 Q1069.1563,127.5781 1068.5313,127.5781 Q1067.1875,127.5781 1066.5,128.6563 Q1065.8125,129.7188 1065.8125,131.8125 Q1065.8125,133.9063 1066.5,134.9844 Q1067.1875,136.0469 1068.5313,136.0469 Q1069.1563,136.0469 1069.75,135.7813 Q1070.3438,135.5 1070.9688,134.9219 L1070.9688,137.6406 Z "/><text fill="#000000" font-family="sans-serif" font-size="12" lengthAdjust="spacingAndGlyphs" textLength="41" x="1082" y="136.656">Курьер</text><line style="stroke: #A80036; stroke-width: 1.5;" x1="1054" x2="1125" y1="148" y2="148"/><line style="stroke: #A80036; stroke-width: 1.5;" x1="1054" x2="1125" y1="156" y2="156"/><!--MD5=[4a1f89545de0804d51d9fa57110f363c]
class computer_kind--><rect fill="#FEFECE" filter="url(#fwdg9jyo0s64h)" height="48" id="computer_kind" style="stroke: #A80036; stroke-width: 1.5;" width="130" x="780.5" y="548"/><ellipse cx="795.5" cy="564" fill="#EB937F" rx="11" ry="11" style="stroke: #A80036; stroke-width: 1.0;"/><path d="M799.6094,570 L791.8906,570 L791.8906,557.6094 L799.6094,557.6094 L799.6094,559.7656 L794.3438,559.7656 L794.3438,562.4375 L799.1094,562.4375 L799.1094,564.5938 L794.3438,564.5938 L794.3438,567.8438 L799.6094,567.8438 L799.6094,570 Z "/><text fill="#000000" font-family="sans-serif" font-size="12" lengthAdjust="spacingAndGlyphs" textLength="98" x="809.5" y="568.656">Тип компьютера</text><line style="stroke: #A80036; stroke-width: 1.5;" x1="781.5" x2="909.5" y1="580" y2="580"/><line style="stroke: #A80036; stroke-width: 1.5;" x1="781.5" x2="909.5" y1="588" y2="588"/><!--MD5=[73469cf7ce8ee027f1cc8333891a1038]
link courier to order--><path d="M1079,164.24 C1079,182.02 1079,206.08 1079,223.84 " fill="none" id="courier-order" style="stroke: #A80036; stroke-width: 1.0;"/><text fill="#000000" font-family="sans-serif" font-size="13" lengthAdjust="spacingAndGlyphs" textLength="20" x="1054.2594" y="185.7898">0..1</text><text fill="#000000" font-family="sans-serif" font-size="13" lengthAdjust="spacingAndGlyphs" textLength="7" x="1072.8063" y="212.0545">*</text><!--MD5=[42ffbff88a75990ad7f9450a280b2273]
link product to maker--><path d="M980.25,380.36 C980.25,436.85 980.25,572 980.25,572 C980.25,572 1203.12,572 1314.99,572 " fill="none" id="product-maker" style="stroke: #A80036; stroke-width: 1.0;"/><text fill="#000000" font-family="sans-serif" font-size="13" lengthAdjust="spacingAndGlyphs" textLength="7" x="976.3141" y="401.9375">*</text><text fill="#000000" font-family="sans-serif" font-size="13" lengthAdjust="spacingAndGlyphs" textLength="7" x="1299.945" y="567.9041">*</text><!--MD5=[f7b8b242e379b3af971ab52d31a813ac]
link maker_search to maker--><path d="M1676.5,488.24 C1676.5,520.08 1676.5,572 1676.5,572 C1676.5,572 1527.86,572 1440.18,572 " fill="none" id="maker_search-maker" style="stroke: #A80036; stroke-width: 1.0;"/><text fill="#000000" font-family="sans-serif" font-size="13" lengthAdjust="spacingAndGlyphs" textLength="7" x="1668.6906" y="509.7898">0</text><text fill="#000000" font-family="sans-serif" font-size="13" lengthAdjust="spacingAndGlyphs" textLength="7" x="1447.8321" y="567.955">*</text><!--MD5=[ce8900192490dd74c723ef4048a44f24]
link type_search to computer_kind--><path d="M1495,488.03 C1495,496.06 1495,503 1495,503 C1495,503 859.5,503 859.5,503 C859.5,503 859.5,527.97 859.5,547.87 " fill="none" id="type_search-computer_kind" style="stroke: #A80036; stroke-width: 1.0;"/><text fill="#000000" font-family="sans-serif" font-size="13" lengthAdjust="spacingAndGlyphs" textLength="7" x="1487.7563" y="509.9422">0</text><text fill="#000000" font-family="sans-serif" font-size="13" lengthAdjust="spacingAndGlyphs" textLength="7" x="855.3219" y="536.0926">1</text><!--MD5=[c1554e16bc1528fd1dd4c45688da3d1b]
reverse link search_category to type_search--><path d="M1492.5,400.24 C1492.5,400.24 1492.5,439.84 1492.5,439.84 " fill="none" id="search_category&lt;-type_search" style="stroke: #A80036; stroke-width: 1.0;"/><polygon fill="none" points="1485.5,400.24,1492.5,380.24,1499.5,400.24,1485.5,400.24" style="stroke: #A80036; stroke-width: 1.0;"/><!--MD5=[1da6a0502473f5051b3bfab079af1512]
reverse link search_category to maker_search--><path d="M1555.5,400.24 C1555.5,400.24 1555.5,464 1555.5,464 C1555.5,464 1568.22,464 1585.41,464 " fill="none" id="search_category&lt;-maker_search" style="stroke: #A80036; stroke-width: 1.0;"/><polygon fill="none" points="1548.5,400.24,1555.5,380.24,1562.5,400.24,1548.5,400.24" style="stroke: #A80036; stroke-width: 1.0;"/><!--MD5=[f2298bd8d4114bec2aa3e2a22f7bc41b]
reverse link search_category to name_search--><path d="M1581.33,356 C1581.33,356 1877.5,356 1877.5,356 C1877.5,356 1877.5,407.92 1877.5,439.76 " fill="none" id="search_category&lt;-name_search" style="stroke: #A80036; stroke-width: 1.0;"/><polygon fill="none" points="1581.33,363,1561.33,356,1581.33,349,1581.33,363" style="stroke: #A80036; stroke-width: 1.0;"/><!--MD5=[f9f9d953fa4e7ac71b30d19da843feb2]
reverse link product to component--><path d="M963.5,400.01 C963.5,400.01 963.5,672 963.5,672 C963.5,672 814.37,672 734.56,672 " fill="none" id="product&lt;-component" style="stroke: #A80036; stroke-width: 1.0;"/><polygon fill="none" points="956.5,400.01,963.5,380.01,970.5,400.01,956.5,400.01" style="stroke: #A80036; stroke-width: 1.0;"/><!--MD5=[498cc027f57bfd50b35c2bba5851c968]
link web_site to search--><path d="M1024.14,32 C1091.34,32 1212.5,32 1212.5,32 C1212.5,32 1212.5,83.92 1212.5,115.76 " fill="none" id="web_site-search" style="stroke: #A80036; stroke-width: 1.0;"/><text fill="#000000" font-family="sans-serif" font-size="13" lengthAdjust="spacingAndGlyphs" textLength="7" x="1031.9476" y="27.5477">0</text><text fill="#000000" font-family="sans-serif" font-size="13" lengthAdjust="spacingAndGlyphs" textLength="7" x="1204.6031" y="104.3578">1</text><!--MD5=[88aee8d44b220f912f74b5ad675f71f1]
link search to search_category--><path d="M1246.55,140 C1321.17,140 1492.5,140 1492.5,140 C1492.5,140 1492.5,275.15 1492.5,331.64 " fill="none" id="search-search_category" style="stroke: #A80036; stroke-width: 1.0;"/><text fill="#000000" font-family="sans-serif" font-size="13" lengthAdjust="spacingAndGlyphs" textLength="7" x="1254.2947" y="135.2167">0</text><text fill="#000000" font-family="sans-serif" font-size="13" lengthAdjust="spacingAndGlyphs" textLength="7" x="1484.6031" y="320.2071">*</text><!--MD5=[703783ada68da18aa29d6445ec77031f]
link search to search_results--><path d="M1212.5,164.24 C1212.5,182.02 1212.5,206.08 1212.5,223.84 " fill="none" id="search-search_results" style="stroke: #A80036; stroke-width: 1.0;"/><text fill="#000000" font-family="sans-serif" font-size="13" lengthAdjust="spacingAndGlyphs" textLength="7" x="1204.6906" y="185.7898">0</text><text fill="#000000" font-family="sans-serif" font-size="13" lengthAdjust="spacingAndGlyphs" textLength="7" x="1204.5594" y="212.0545">*</text><!--MD5=[cae5035f866ac8cf29d169cf796120a5]
link search_results to search_category--><path d="M1280.17,272.21 C1280.17,301.8 1280.17,348 1280.17,348 C1280.17,348 1361.82,348 1423.85,348 " fill="none" id="search_results-search_category" style="stroke: #A80036; stroke-width: 1.0;"/><text fill="#000000" font-family="sans-serif" font-size="13" lengthAdjust="spacingAndGlyphs" textLength="7" x="1288.0093" y="293.7528">0</text><text fill="#000000" font-family="sans-serif" font-size="13" lengthAdjust="spacingAndGlyphs" textLength="7" x="1408.9586" y="343.1309">*</text><!--MD5=[672a4404ef686fceec7b61b1ee57b763]
link search_results to product--><path d="M1140.25,240 C1125.56,240 1114.5,240 1114.5,240 C1114.5,240 1114.5,364 1114.5,364 C1114.5,364 1041.5,364 997.01,364 " fill="none" id="search_results-product" style="stroke: #A80036; stroke-width: 1.0;"/><text fill="#000000" font-family="sans-serif" font-size="13" lengthAdjust="spacingAndGlyphs" textLength="7" x="1125.4383" y="235.2319">0</text><text fill="#000000" font-family="sans-serif" font-size="13" lengthAdjust="spacingAndGlyphs" textLength="7" x="1005.1059" y="381.5836">*</text><!--MD5=[0d0cd530f2def4402894c359f5521848]
link web_site to client--><path d="M980.5,56.24 C980.5,74.02 980.5,98.08 980.5,115.84 " fill="none" id="web_site-client" style="stroke: #A80036; stroke-width: 1.0;"/><text fill="#000000" font-family="sans-serif" font-size="13" lengthAdjust="spacingAndGlyphs" textLength="7" x="972.6906" y="77.7898">1</text><text fill="#000000" font-family="sans-serif" font-size="13" lengthAdjust="spacingAndGlyphs" textLength="7" x="972.5594" y="104.0545">*</text><!--MD5=[76f4d1736a40f1b90f02f50878ea418f]
link web_site to config--><path d="M936.75,32 C868.27,32 743.5,32 743.5,32 C743.5,32 743.5,167.15 743.5,223.64 " fill="none" id="web_site-config" style="stroke: #A80036; stroke-width: 1.0;"/><text fill="#000000" font-family="sans-serif" font-size="13" lengthAdjust="spacingAndGlyphs" textLength="7" x="921.9242" y="27.5477">0</text><text fill="#000000" font-family="sans-serif" font-size="13" lengthAdjust="spacingAndGlyphs" textLength="7" x="735.6031" y="212.2071">*</text><!--MD5=[21d5baa5d6040f145b205f2dbb4de53e]
link config to computer--><path d="M683.69,248 C604.29,248 474,248 474,248 C474,248 474,383.15 474,439.64 " fill="none" id="config-computer" style="stroke: #A80036; stroke-width: 1.0;"/><text fill="#000000" font-family="sans-serif" font-size="13" lengthAdjust="spacingAndGlyphs" textLength="7" x="668.9741" y="243.9041">0</text><text fill="#000000" font-family="sans-serif" font-size="13" lengthAdjust="spacingAndGlyphs" textLength="7" x="461.875" y="428.2071">1</text><!--MD5=[b653dc0d669fd63013f0fb7c04b1923d]
reverse link price to money_price--><path d="M1161.5,400.24 C1161.5,400.24 1161.5,439.84 1161.5,439.84 " fill="none" id="price&lt;-money_price" style="stroke: #A80036; stroke-width: 1.0;"/><polygon fill="none" points="1154.5,400.24,1161.5,380.24,1168.5,400.24,1154.5,400.24" style="stroke: #A80036; stroke-width: 1.0;"/><!--MD5=[562386a67be335adb9eb761f1ce1ea23]
reverse link price to card_price--><path d="M1219.25,364 C1219.25,364 1275.83,364 1275.83,364 C1275.83,364 1275.83,410.2 1275.83,439.79 " fill="none" id="price&lt;-card_price" style="stroke: #A80036; stroke-width: 1.0;"/><polygon fill="none" points="1219.25,371,1199.25,364,1219.25,357,1219.25,371" style="stroke: #A80036; stroke-width: 1.0;"/><!--MD5=[ef70a35c5679044a15deabd6f2b3698b]
link order to price--><path d="M1105.01,256 C1119.45,256 1133.25,256 1133.25,256 C1133.25,256 1133.25,302.2 1133.25,331.79 " fill="none" id="order-price" style="stroke: #A80036; stroke-width: 1.0;"/><text fill="#000000" font-family="sans-serif" font-size="13" lengthAdjust="spacingAndGlyphs" textLength="7" x="1112.8872" y="252.8649">0</text><text fill="#000000" font-family="sans-serif" font-size="13" lengthAdjust="spacingAndGlyphs" textLength="7" x="1117.7172" y="319.9911">1</text><!--MD5=[c9dbf1fcaec81651e816dccfa855ae83]
reverse link product to computer--><path d="M909.93,348 C909.93,348 507,348 507,348 C507,348 507,405.99 507,439.96 " fill="none" id="product&lt;-computer" style="stroke: #A80036; stroke-width: 1.0;"/><polygon fill="none" points="909.93,341,929.93,348,909.93,355,909.93,341" style="stroke: #A80036; stroke-width: 1.0;"/><!--MD5=[eee6e451ed8b3b8a8c65ea8fb4a64fc5]
reverse link product to parts--><path d="M909.9,364 C909.9,364 729,364 729,364 C729,364 729,410.2 729,439.79 " fill="none" id="product&lt;-parts" style="stroke: #A80036; stroke-width: 1.0;"/><polygon fill="none" points="909.9,357,929.9,364,909.9,371,909.9,357" style="stroke: #A80036; stroke-width: 1.0;"/><!--MD5=[66847eed97346856f00600b1c6ea8233]
reverse link product to peripherals--><path d="M946.75,400.24 C946.75,400.24 946.75,464 946.75,464 C946.75,464 929.3,464 910,464 " fill="none" id="product&lt;-peripherals" style="stroke: #A80036; stroke-width: 1.0;"/><polygon fill="none" points="939.75,400.24,946.75,380.24,953.75,400.24,939.75,400.24" style="stroke: #A80036; stroke-width: 1.0;"/><!--MD5=[08fa6dd79c2dedee0931b87eae676d65]
link computer to slot--><path d="M458,488.24 C458,506.02 458,530.08 458,547.84 " fill="none" id="computer-slot" style="stroke: #A80036; stroke-width: 1.0;"/><text fill="#000000" font-family="sans-serif" font-size="13" lengthAdjust="spacingAndGlyphs" textLength="7" x="442.675" y="509.7898">1</text><text fill="#000000" font-family="sans-serif" font-size="13" lengthAdjust="spacingAndGlyphs" textLength="20" x="448.8844" y="536.0545">0..*</text><!--MD5=[645c4cf5c9a25200fe13f1b4924cfebb]
link slot to component--><path d="M407.5,596.21 C407.5,625.8 407.5,672 407.5,672 C407.5,672 556.63,672 636.44,672 " fill="none" id="slot-component" style="stroke: #A80036; stroke-width: 1.0;"/><text fill="#000000" font-family="sans-serif" font-size="13" lengthAdjust="spacingAndGlyphs" textLength="7" x="399.6906" y="617.7528">1</text><text fill="#000000" font-family="sans-serif" font-size="13" lengthAdjust="spacingAndGlyphs" textLength="20" x="608.5038" y="666.7273">0..1</text><!--MD5=[0589102e50eca069976f3d17a82fa548]
reverse link component to component_memory--><path d="M616.27,688 C616.27,688 593.5,688 593.5,688 C593.5,688 593.5,734.2 593.5,763.79 " fill="none" id="component&lt;-component_memory" style="stroke: #A80036; stroke-width: 1.0;"/><polygon fill="none" points="616.27,681,636.27,688,616.27,695,616.27,681" style="stroke: #A80036; stroke-width: 1.0;"/><!--MD5=[890c2db9166c24ff3879e9bfd274125e]
reverse link component to component_hard--><path d="M754.84,688 C754.84,688 831.25,688 831.25,688 C831.25,688 831.25,734.2 831.25,763.79 " fill="none" id="component&lt;-component_hard" style="stroke: #A80036; stroke-width: 1.0;"/><polygon fill="none" points="754.84,695,734.84,688,754.84,681,754.84,695" style="stroke: #A80036; stroke-width: 1.0;"/><!--MD5=[e4efcf091c84edb43b69ba0abd59681d]
reverse link component to component_cpu--><path d="M685.5,724.24 C685.5,724.24 685.5,763.84 685.5,763.84 " fill="none" id="component&lt;-component_cpu" style="stroke: #A80036; stroke-width: 1.0;"/><polygon fill="none" points="678.5,724.24,685.5,704.24,692.5,724.24,678.5,724.24" style="stroke: #A80036; stroke-width: 1.0;"/><!--MD5=[7327214c42a91db396cc7e721db17fbd]
link computer to computer_kind--><path d="M532.5,488.16 C532.5,502.53 532.5,518 532.5,518 C532.5,518 791.75,518 791.75,518 C791.75,518 791.75,533.47 791.75,547.84 " fill="none" id="computer-computer_kind" style="stroke: #A80036; stroke-width: 1.0;"/><text fill="#000000" font-family="sans-serif" font-size="13" lengthAdjust="spacingAndGlyphs" textLength="7" x="534.4031" y="509.6913">0</text><text fill="#000000" font-family="sans-serif" font-size="13" lengthAdjust="spacingAndGlyphs" textLength="7" x="769.3641" y="536.0545">1</text><!--MD5=[d5cd8ac87e370a41b8f4c353a665452b]
reverse link computer to server--><path d="M517.5,508.24 C517.5,508.24 517.5,547.84 517.5,547.84 " fill="none" id="computer&lt;-server" style="stroke: #A80036; stroke-width: 1.0;"/><polygon fill="none" points="510.5,508.24,517.5,488.24,524.5,508.24,510.5,508.24" style="stroke: #A80036; stroke-width: 1.0;"/><!--MD5=[a105b398fdb13e4dc0cfc9bc4657b72d]
reverse link computer to stand_pc--><path d="M525,508.13 C525,508.13 525,533 525,533 C525,533 682.5,533 682.5,533 C682.5,533 682.5,539.94 682.5,547.97 " fill="none" id="computer&lt;-stand_pc" style="stroke: #A80036; stroke-width: 1.0;"/><polygon fill="none" points="518,508.13,525,488.13,532,508.13,518,508.13" style="stroke: #A80036; stroke-width: 1.0;"/><!--MD5=[8572f5bf48dc82ddbd72214fed12eae1]
reverse link computer to prot_pc--><path d="M420.91,456 C420.91,456 72.5,456 72.5,456 C72.5,456 72.5,513.99 72.5,547.96 " fill="none" id="computer&lt;-prot_pc" style="stroke: #A80036; stroke-width: 1.0;"/><polygon fill="none" points="420.91,449,440.91,456,420.91,463,420.91,449" style="stroke: #A80036; stroke-width: 1.0;"/><!--MD5=[2a5d7504f1fb241f83014f56df72bf52]
reverse link computer to tab_pc--><path d="M420.91,472 C420.91,472 239.5,472 239.5,472 C239.5,472 239.5,518.2 239.5,547.79 " fill="none" id="computer&lt;-tab_pc" style="stroke: #A80036; stroke-width: 1.0;"/><polygon fill="none" points="420.91,465,440.91,472,420.91,479,420.91,465" style="stroke: #A80036; stroke-width: 1.0;"/><!--MD5=[7f1b0c38fbf679449d94076543ec1ba1]
link client to basket--><path d="M973.75,164.24 C973.75,182.02 973.75,206.08 973.75,223.84 " fill="none" id="client-basket" style="stroke: #A80036; stroke-width: 1.0;"/><text fill="#000000" font-family="sans-serif" font-size="13" lengthAdjust="spacingAndGlyphs" textLength="7" x="964.3797" y="185.7898">1</text><text fill="#000000" font-family="sans-serif" font-size="13" lengthAdjust="spacingAndGlyphs" textLength="7" x="968.5641" y="212.0545">1</text><!--MD5=[b5a95310fb9b807480d2fad96482622c]
link basket to product--><path d="M963.5,272.24 C963.5,290.02 963.5,314.08 963.5,331.84 " fill="none" id="basket-product" style="stroke: #A80036; stroke-width: 1.0;"/><text fill="#000000" font-family="sans-serif" font-size="13" lengthAdjust="spacingAndGlyphs" textLength="7" x="955.6906" y="293.7898">0</text><text fill="#000000" font-family="sans-serif" font-size="13" lengthAdjust="spacingAndGlyphs" textLength="7" x="955.5594" y="320.0545">*</text><!--MD5=[4f10cea20db98d8960219fbd7ad8fab5]
link client to order--><path d="M1013.5,164.24 C1013.5,196.08 1013.5,248 1013.5,248 C1013.5,248 1026.25,248 1039.89,248 " fill="none" id="client-order" style="stroke: #A80036; stroke-width: 1.0;"/><text fill="#000000" font-family="sans-serif" font-size="13" lengthAdjust="spacingAndGlyphs" textLength="7" x="1013.3219" y="185.7898">1</text><text fill="#000000" font-family="sans-serif" font-size="13" lengthAdjust="spacingAndGlyphs" textLength="7" x="1024.9909" y="243.1149">*</text><!--MD5=[93819d572aee978d39f34e63008694b2]
link order to product--><path d="M1063.5,272.21 C1063.5,301.8 1063.5,348 1063.5,348 C1063.5,348 1026.13,348 997.08,348 " fill="none" id="order-product" style="stroke: #A80036; stroke-width: 1.0;"/><text fill="#000000" font-family="sans-serif" font-size="13" lengthAdjust="spacingAndGlyphs" textLength="7" x="1053.6094" y="293.7528">0</text><text fill="#000000" font-family="sans-serif" font-size="13" lengthAdjust="spacingAndGlyphs" textLength="7" x="1005.1913" y="341.3649">*</text><!--MD5=[76a04f4f4114011c277b5bfc94d997ab]
link client to search_results--><path d="M1009,164.16 C1009,178.53 1009,194 1009,194 C1009,194 1159.5,194 1159.5,194 C1159.5,194 1159.5,209.47 1159.5,223.84 " fill="none" id="client-search_results" style="stroke: #A80036; stroke-width: 1.0;"/><text fill="#000000" font-family="sans-serif" font-size="13" lengthAdjust="spacingAndGlyphs" textLength="7" x="1007.7813" y="185.6913">0</text><text fill="#000000" font-family="sans-serif" font-size="13" lengthAdjust="spacingAndGlyphs" textLength="7" x="1137.3156" y="212.0545">1</text><!--MD5=[263c89e7e3de7c7a2e1c49d68b8ecdcd]
@startuml

skinparam linetype ortho

class "Веб-Сайт" as web_site

class "Товар" as product

class "Отдельные комплектующие" as parts
class "Перефирия" as peripherals

class "Компьютер" as computer

class "Слот компонента" as slot
class "Компонент" as component

class "ОЗУ" as component_memory
class "Процессор" as component_cpu
class "Жесткий диск" as component_hard

class "Cервер" as server
class "Настольный ПК" as stand_pc
class "Портативный ПК" as prot_pc
class "Планшетный ПК" as tab_pc

class "Клиент" as client
class "Корзина" as basket

class "Заказ" as order

class "Оплата" as price
class "Оплата наличными" as money_price
class "Оплата по карте" as card_price

class "Конфигурация" as config

class "Поиск" as search
class "Категория поиска" as search_category

class "Поиск по типу" as type_search
class "Поиск по производителю" as maker_search
class "Поиск по названию" as name_search

class "Результаты поиска" as search_results

class "Производитель" as maker

class "Курьер" as courier 

enum "Тип компьютера" as computer_kind

courier "0..1" - - "*" order

product "*" - - "*" maker
maker_search "0" - - "*" maker

type_search "0" - - "1" computer_kind

search_category <|- - type_search
search_category <|- - maker_search
search_category <|- - name_search

product <|- - component

web_site "0" - - "1" search

search "0" - - "*" search_category
search "0" - - "*" search_results
search_results "0" - - "*" search_category

search_results "0" - - "*" product

web_site "1" - - "*" client
web_site "0" - - "*" config

config "0" - - "1" computer

price <|- - money_price
price <|- - card_price

order "0" - - "1" price


product <|- - computer
product <|- - parts
product <|- - peripherals

computer "1" - - "0..*" slot

slot "1" - - "0..1" component

component <|- - component_memory
component <|- - component_hard
component <|- - component_cpu

computer "0" - - "1" computer_kind

computer <|- - server
computer <|- - stand_pc
computer <|- - prot_pc
computer <|- - tab_pc


client "1" - - "1" basket
basket "0" - - "*" product

client "1" - - "*" order
order "0" - - "*" product

client "0" - - "1" search_results

@enduml

PlantUML version 1.2020.02(Sun Mar 01 13:22:07 MSK 2020)
(GPL source distribution)
Java Runtime: OpenJDK Runtime Environment
JVM: OpenJDK 64-Bit Server VM
Java Version: 21.0.4+7-Ubuntu-1ubuntu224.04
Operating System: Linux
Default Encoding: UTF-8
Language: en
Country: US
--></g></svg>