<svg xmlns="http://www.w3.org/2000/svg" xmlns:xlink="http://www.w3.org/1999/xlink" contentStyleType="text/css" height="861px" preserveAspectRatio="none" style="width:773px;height:861px;background:#FFFFFF;" version="1.1" viewBox="0 0 773 861" width="773px" zoomAndPan="magnify"><defs/><g><g id="elem_no_cuirer_n"><path d="M475.5,752.5 L475.5,762.5 L390.32,766.5 L475.5,770.5 L475.5,780.206 A0,0 0 0 0 475.5,780.206 L740.5492,780.206 A0,0 0 0 0 740.5492,780.206 L740.5492,762.5 L730.5492,752.5 L475.5,752.5 A0,0 0 0 0 475.5,752.5 " fill="#FFFFFF" style="stroke:#000000;stroke-width:1.0;"/><path d="M730.5492,752.5 L730.5492,762.5 L740.5492,762.5 L730.5492,752.5 " fill="#FFFFFF" style="stroke:#000000;stroke-width:1.0;"/><text fill="#000000" font-family="Hack" font-size="13" lengthAdjust="spacing" textLength="244.0492" x="481.5" y="771.397">&#1069;&#1090;&#1086;&#1084;&#1091; &#1079;&#1072;&#1082;&#1072;&#1079;&#1091; &#1077;&#1097;&#1105; &#1085;&#1077; &#1085;&#1072;&#1079;&#1085;&#1072;&#1095;&#1077;&#1085; &#1082;&#1091;&#1088;&#1100;&#1077;&#1088;</text></g><g id="elem_two_cuirer_n"><path d="M450,606.5 L450,634.206 L766.3472,634.206 L766.3472,616.5 L756.3472,606.5 L450,606.5 " fill="#FFFFFF" style="stroke:#000000;stroke-width:1.0;"/><path d="M756.3472,606.5 L756.3472,616.5 L766.3472,616.5 L756.3472,606.5 " fill="#FFFFFF" style="stroke:#000000;stroke-width:1.0;"/><text fill="#000000" font-family="Hack" font-size="13" lengthAdjust="spacing" textLength="295.3472" x="456" y="625.397">&#1069;&#1090;&#1080; &#1076;&#1074;&#1072; &#1079;&#1072;&#1082;&#1072;&#1079;&#1072; &#1076;&#1086;&#1089;&#1090;&#1072;&#1074;&#1083;&#1103;&#1102;&#1090;&#1089;&#1103; &#1086;&#1076;&#1085;&#1080;&#1084; &#1082;&#1091;&#1088;&#1100;&#1077;&#1088;&#1086;&#1084;</text></g><g id="elem_web"><rect fill="#FFFFFF" height="39.0679" style="stroke:#000000;stroke-width:1.0;" width="77.8817" x="12" y="528"/><text fill="#000000" font-family="Hack" font-size="14" lengthAdjust="spacing" textLength="63.8817" x="19" y="544.9659">:&#1042;&#1077;&#1073;-&#1089;&#1072;&#1081;&#1090;</text><line style="stroke:#000000;stroke-width:1.0;" x1="13" x2="88.8817" y1="551.0679" y2="551.0679"/></g><g id="elem_client_1"><rect fill="#FFFFFF" height="39.0679" style="stroke:#000000;stroke-width:1.0;" width="66.9758" x="152" y="454"/><text fill="#000000" font-family="Hack" font-size="14" lengthAdjust="spacing" textLength="52.9758" x="159" y="470.9659">:&#1050;&#1083;&#1080;&#1077;&#1085;&#1090;</text><line style="stroke:#000000;stroke-width:1.0;" x1="153" x2="217.9758" y1="477.0679" y2="477.0679"/></g><g id="elem_client_2"><rect fill="#FFFFFF" height="39.0679" style="stroke:#000000;stroke-width:1.0;" width="66.9758" x="152" y="639"/><text fill="#000000" font-family="Hack" font-size="14" lengthAdjust="spacing" textLength="52.9758" x="159" y="655.9659">:&#1050;&#1083;&#1080;&#1077;&#1085;&#1090;</text><line style="stroke:#000000;stroke-width:1.0;" x1="153" x2="217.9758" y1="662.0679" y2="662.0679"/></g><g id="elem_basket_1"><rect fill="#FFFFFF" height="39.0679" style="stroke:#000000;stroke-width:1.0;" width="76.1178" x="297.5" y="123"/><text fill="#000000" font-family="Hack" font-size="14" lengthAdjust="spacing" textLength="62.1178" x="304.5" y="139.9659">:&#1050;&#1086;&#1088;&#1079;&#1080;&#1085;&#1072;</text><line style="stroke:#000000;stroke-width:1.0;" x1="298.5" x2="372.6178" y1="146.0679" y2="146.0679"/></g><g id="elem_basket_2"><rect fill="#FFFFFF" height="39.0679" style="stroke:#000000;stroke-width:1.0;" width="76.1178" x="297.5" y="676"/><text fill="#000000" font-family="Hack" font-size="14" lengthAdjust="spacing" textLength="62.1178" x="304.5" y="692.9659">:&#1050;&#1086;&#1088;&#1079;&#1080;&#1085;&#1072;</text><line style="stroke:#000000;stroke-width:1.0;" x1="298.5" x2="372.6178" y1="699.0679" y2="699.0679"/></g><g id="elem_order_1"><rect fill="#FFFFFF" height="39.0679" style="stroke:#000000;stroke-width:1.0;" width="109.4516" x="281" y="343"/><text fill="#000000" font-family="Hack" font-size="14" lengthAdjust="spacing" textLength="95.4516" x="288" y="359.9659">&#1047;&#1072;&#1082;&#1072;&#1079; 1: &#1047;&#1072;&#1082;&#1072;&#1079;</text><line style="stroke:#000000;stroke-width:1.0;" x1="282" x2="389.4516" y1="366.0679" y2="366.0679"/></g><g id="elem_order_2"><rect fill="#FFFFFF" height="39.0679" style="stroke:#000000;stroke-width:1.0;" width="109.4516" x="281" y="454"/><text fill="#000000" font-family="Hack" font-size="14" lengthAdjust="spacing" textLength="95.4516" x="288" y="470.9659">&#1047;&#1072;&#1082;&#1072;&#1079; 2: &#1047;&#1072;&#1082;&#1072;&#1079;</text><line style="stroke:#000000;stroke-width:1.0;" x1="282" x2="389.4516" y1="477.0679" y2="477.0679"/></g><g id="elem_order_3"><rect fill="#FFFFFF" height="39.0679" style="stroke:#000000;stroke-width:1.0;" width="109.4516" x="281" y="750"/><text fill="#000000" font-family="Hack" font-size="14" lengthAdjust="spacing" textLength="95.4516" x="288" y="766.9659">&#1047;&#1072;&#1082;&#1072;&#1079; 3: &#1047;&#1072;&#1082;&#1072;&#1079;</text><line style="stroke:#000000;stroke-width:1.0;" x1="282" x2="389.4516" y1="773.0679" y2="773.0679"/></g><g id="elem_order_4"><rect fill="#FFFFFF" height="39.0679" style="stroke:#000000;stroke-width:1.0;" width="109.4516" x="281" y="528"/><text fill="#000000" font-family="Hack" font-size="14" lengthAdjust="spacing" textLength="95.4516" x="288" y="544.9659">&#1047;&#1072;&#1082;&#1072;&#1079; 4: &#1047;&#1072;&#1082;&#1072;&#1079;</text><line style="stroke:#000000;stroke-width:1.0;" x1="282" x2="389.4516" y1="551.0679" y2="551.0679"/></g><g id="elem_order_5"><rect fill="#FFFFFF" height="39.0679" style="stroke:#000000;stroke-width:1.0;" width="109.4516" x="281" y="602"/><text fill="#000000" font-family="Hack" font-size="14" lengthAdjust="spacing" textLength="95.4516" x="288" y="618.9659">&#1047;&#1072;&#1082;&#1072;&#1079; 5: &#1047;&#1072;&#1082;&#1072;&#1079;</text><line style="stroke:#000000;stroke-width:1.0;" x1="282" x2="389.4516" y1="625.0679" y2="625.0679"/></g><g id="elem_cuirer_1"><rect fill="#FFFFFF" height="39.0679" style="stroke:#000000;stroke-width:1.0;" width="70.6158" x="572.5" y="234"/><text fill="#000000" font-family="Hack" font-size="14" lengthAdjust="spacing" textLength="56.6158" x="579.5" y="250.9659">: &#1050;&#1091;&#1088;&#1100;&#1077;&#1088;</text><line style="stroke:#000000;stroke-width:1.0;" x1="573.5" x2="642.1158" y1="257.0679" y2="257.0679"/></g><g id="elem_cuirer_2"><rect fill="#FFFFFF" height="39.0679" style="stroke:#000000;stroke-width:1.0;" width="70.6158" x="572.5" y="456"/><text fill="#000000" font-family="Hack" font-size="14" lengthAdjust="spacing" textLength="56.6158" x="579.5" y="472.9659">: &#1050;&#1091;&#1088;&#1100;&#1077;&#1088;</text><line style="stroke:#000000;stroke-width:1.0;" x1="573.5" x2="642.1158" y1="479.0679" y2="479.0679"/></g><g id="elem_cuirer_3"><rect fill="#FFFFFF" height="39.0679" style="stroke:#000000;stroke-width:1.0;" width="70.6158" x="150" y="565"/><text fill="#000000" font-family="Hack" font-size="14" lengthAdjust="spacing" textLength="56.6158" x="157" y="581.9659">: &#1050;&#1091;&#1088;&#1100;&#1077;&#1088;</text><line style="stroke:#000000;stroke-width:1.0;" x1="151" x2="219.6158" y1="588.0679" y2="588.0679"/></g><g id="elem_card_paid"><rect fill="#FFFFFF" height="39.0679" style="stroke:#000000;stroke-width:1.0;" width="130.8015" x="542.5" y="308"/><text fill="#000000" font-family="Hack" font-size="14" lengthAdjust="spacing" textLength="116.8015" x="549.5" y="324.9659">:&#1054;&#1087;&#1083;&#1072;&#1090;&#1072; &#1087;&#1086; &#1082;&#1072;&#1088;&#1090;&#1077;</text><line style="stroke:#000000;stroke-width:1.0;" x1="543.5" x2="672.3015" y1="331.0679" y2="331.0679"/></g><g id="elem_money_paid_1"><rect fill="#FFFFFF" height="39.0679" style="stroke:#000000;stroke-width:1.0;" width="153.2295" x="531.5" y="530"/><text fill="#000000" font-family="Hack" font-size="14" lengthAdjust="spacing" textLength="139.2295" x="538.5" y="546.9659">:&#1054;&#1087;&#1083;&#1072;&#1090;&#1072; &#1085;&#1072;&#1083;&#1080;&#1095;&#1085;&#1099;&#1084;&#1080;</text><line style="stroke:#000000;stroke-width:1.0;" x1="532.5" x2="683.7295" y1="553.0679" y2="553.0679"/></g><g id="elem_money_paid_2"><rect fill="#FFFFFF" height="39.0679" style="stroke:#000000;stroke-width:1.0;" width="153.2295" x="531.5" y="816"/><text fill="#000000" font-family="Hack" font-size="14" lengthAdjust="spacing" textLength="139.2295" x="538.5" y="832.9659">:&#1054;&#1087;&#1083;&#1072;&#1090;&#1072; &#1085;&#1072;&#1083;&#1080;&#1095;&#1085;&#1099;&#1084;&#1080;</text><line style="stroke:#000000;stroke-width:1.0;" x1="532.5" x2="683.7295" y1="839.0679" y2="839.0679"/></g><g id="elem_comp1"><rect fill="#FFFFFF" height="39.0679" style="stroke:#000000;stroke-width:1.0;" width="97.2437" x="559.5" y="12"/><text fill="#000000" font-family="Hack" font-size="14" lengthAdjust="spacing" textLength="83.2437" x="566.5" y="28.9659">:&#1050;&#1086;&#1084;&#1087;&#1100;&#1102;&#1090;&#1077;&#1088;</text><line style="stroke:#000000;stroke-width:1.0;" x1="560.5" x2="655.7437" y1="35.0679" y2="35.0679"/></g><g id="elem_comp2"><rect fill="#FFFFFF" height="39.0679" style="stroke:#000000;stroke-width:1.0;" width="96.9777" x="559.5" y="86"/><text fill="#000000" font-family="Hack" font-size="14" lengthAdjust="spacing" textLength="82.9777" x="566.5" y="102.9659">:&#1055;&#1077;&#1088;&#1077;&#1092;&#1080;&#1088;&#1080;&#1103;</text><line style="stroke:#000000;stroke-width:1.0;" x1="560.5" x2="655.4777" y1="109.0679" y2="109.0679"/></g><g id="elem_comp3"><rect fill="#FFFFFF" height="39.0679" style="stroke:#000000;stroke-width:1.0;" width="131.4315" x="542.5" y="160"/><text fill="#000000" font-family="Hack" font-size="14" lengthAdjust="spacing" textLength="117.4315" x="549.5" y="176.9659">:&#1050;&#1086;&#1084;&#1087;&#1083;&#1077;&#1082;&#1090;&#1091;&#1102;&#1097;&#1077;&#1077;</text><line style="stroke:#000000;stroke-width:1.0;" x1="543.5" x2="672.9315" y1="183.0679" y2="183.0679"/></g><g id="elem_comp4"><rect fill="#FFFFFF" height="39.0679" style="stroke:#000000;stroke-width:1.0;" width="96.9777" x="559.5" y="676"/><text fill="#000000" font-family="Hack" font-size="14" lengthAdjust="spacing" textLength="82.9777" x="566.5" y="692.9659">:&#1055;&#1077;&#1088;&#1077;&#1092;&#1080;&#1088;&#1080;&#1103;</text><line style="stroke:#000000;stroke-width:1.0;" x1="560.5" x2="655.4777" y1="699.0679" y2="699.0679"/></g><g id="elem_comp5"><rect fill="#FFFFFF" height="39.0679" style="stroke:#000000;stroke-width:1.0;" width="111.2996" x="552.5" y="382"/><text fill="#000000" font-family="Hack" font-size="14" lengthAdjust="spacing" textLength="97.2996" x="559.5" y="398.9659">:&#1046;&#1105;&#1089;&#1090;&#1082;&#1080;&#1081; &#1076;&#1080;&#1089;&#1082;</text><line style="stroke:#000000;stroke-width:1.0;" x1="553.5" x2="662.7996" y1="405.0679" y2="405.0679"/></g><!--link basket_1 to comp1--><g id="link_basket_1_comp1"><path codeLine="34" d="M323,122.91 C323,91.05 323,31.5 323,31.5 C323,31.5 477.93,31.5 559.33,31.5 " fill="none" id="basket_1-comp1" style="stroke:#000000;stroke-width:1.0;"/></g><!--link basket_1 to comp2--><g id="link_basket_1_comp2"><path codeLine="35" d="M349,122.61 C349,113.42 349,104.5 349,104.5 C349,104.5 484.26,104.5 559.28,104.5 " fill="none" id="basket_1-comp2" style="stroke:#000000;stroke-width:1.0;"/></g><!--link basket_1 to comp3--><g id="link_basket_1_comp3"><path codeLine="36" d="M373.71,142.5 C435.86,142.5 552,142.5 552,142.5 C552,142.5 552,150.9 552,159.7 " fill="none" id="basket_1-comp3" style="stroke:#000000;stroke-width:1.0;"/></g><!--link basket_2 to comp4--><g id="link_basket_2_comp4"><path codeLine="37" d="M373.68,695.5 C422.16,695.5 505.89,695.5 559.03,695.5 " fill="none" id="basket_2-comp4" style="stroke:#000000;stroke-width:1.0;"/></g><!--link client_1 to basket_1--><g id="link_client_1_basket_1"><path codeLine="39" d="M175,453.79 C175,382.53 175,142.5 175,142.5 C175,142.5 250,142.5 297.46,142.5 " fill="none" id="client_1-basket_1" style="stroke:#000000;stroke-width:1.0;"/></g><!--link client_2 to basket_2--><g id="link_client_2_basket_2"><path codeLine="40" d="M186,678.39 C186,687.58 186,696.5 186,696.5 C186,696.5 253.09,696.5 297.39,696.5 " fill="none" id="client_2-basket_2" style="stroke:#000000;stroke-width:1.0;"/></g><!--link client_1 to order_1--><g id="link_client_1_order_1"><path codeLine="42" d="M197,453.91 C197,422.05 197,362.5 197,362.5 C197,362.5 242.05,362.5 280.76,362.5 " fill="none" id="client_1-order_1" style="stroke:#000000;stroke-width:1.0;"/></g><!--link client_1 to order_2--><g id="link_client_1_order_2"><path codeLine="43" d="M219.16,473.5 C237.3,473.5 260.13,473.5 280.75,473.5 " fill="none" id="client_1-order_2" style="stroke:#000000;stroke-width:1.0;"/></g><!--link client_2 to order_3--><g id="link_client_2_order_3"><path codeLine="44" d="M219.02,664.33 C248.58,664.33 287,664.33 287,664.33 C287,664.33 287,719.25 287,749.72 " fill="none" id="client_2-order_3" style="stroke:#000000;stroke-width:1.0;"/></g><!--link client_1 to order_4--><g id="link_client_1_order_4"><path codeLine="45" d="M203,493.06 C203,514.69 203,546.5 203,546.5 C203,546.5 244.34,546.5 280.84,546.5 " fill="none" id="client_1-order_4" style="stroke:#000000;stroke-width:1.0;"/></g><!--link client_2 to order_5--><g id="link_client_2_order_5"><path codeLine="46" d="M219.2,652.67 C250.4,652.67 292,652.67 292,652.67 C292,652.67 292,647.32 292,641.06 " fill="none" id="client_2-order_5" style="stroke:#000000;stroke-width:1.0;"/></g><!--link order_1 to cuirer_1--><g id="link_order_1_cuirer_1"><path codeLine="48" d="M382,342.76 C382,311.35 382,253.5 382,253.5 C382,253.5 508.79,253.5 572.44,253.5 " fill="none" id="order_1-cuirer_1" style="stroke:#000000;stroke-width:1.0;"/></g><!--link order_2 to cuirer_2--><g id="link_order_2_cuirer_2"><path codeLine="49" d="M390.32,468.33 C444.56,468.33 526,468.33 572.35,468.33 " fill="none" id="order_2-cuirer_2" style="stroke:#000000;stroke-width:1.0;"/></g><!--link order_1 to card_paid--><g id="link_order_1_card_paid"><path codeLine="50" d="M390.22,358.67 C453.19,358.67 548,358.67 548,358.67 C548,358.67 548,353.32 548,347.06 " fill="none" id="order_1-card_paid" style="stroke:#000000;stroke-width:1.0;"/></g><!--link order_2 to money_paid_1--><g id="link_order_2_money_paid_1"><path codeLine="51" d="M390.03,480.67 C450.01,480.67 538,480.67 538,480.67 C538,480.67 538,509.61 538,529.96 " fill="none" id="order_2-money_paid_1" style="stroke:#000000;stroke-width:1.0;"/></g><!--link order_3 to money_paid_2--><g id="link_order_3_money_paid_2"><path codeLine="52" d="M336,789.3 C336,808.74 336,835.5 336,835.5 C336,835.5 450.71,835.5 531.15,835.5 " fill="none" id="order_3-money_paid_2" style="stroke:#000000;stroke-width:1.0;"/></g><!--link cuirer_3 to order_4--><g id="link_cuirer_3_order_4"><path codeLine="54" d="M186,564.85 C186,559.79 186,555.75 186,555.75 C186,555.75 238.01,555.75 280.68,555.75 " fill="none" id="cuirer_3-order_4" style="stroke:#000000;stroke-width:1.0;"/></g><!--link cuirer_3 to order_5--><g id="link_cuirer_3_order_5"><path codeLine="55" d="M186,604.3 C186,613.1 186,621.5 186,621.5 C186,621.5 238.01,621.5 280.68,621.5 " fill="none" id="cuirer_3-order_5" style="stroke:#000000;stroke-width:1.0;"/></g><!--link order_4 to two_cuirer_n--><g id="link_order_4_two_cuirer_n"><path codeLine="57" d="M390.32,548.5 C435.09,548.5 491,548.5 491,548.5 C491,548.5 491,585.29 491,606.28 " fill="none" id="order_4-two_cuirer_n" style="stroke:#000000;stroke-width:1.0;stroke-dasharray:7.0,7.0;"/></g><!--link order_5 to two_cuirer_n--><g id="link_order_5_two_cuirer_n"><path codeLine="58" d="M390.32,620.5 C407.96,620.5 428.47,620.5 449.72,620.5 " fill="none" id="order_5-two_cuirer_n" style="stroke:#000000;stroke-width:1.0;stroke-dasharray:7.0,7.0;"/></g><!--link order_1 to comp5--><g id="link_order_1_comp5"><path codeLine="62" d="M390.19,370.33 C470,370.33 609,370.33 609,370.33 C609,370.33 609,375.68 609,381.94 " fill="none" id="order_1-comp5" style="stroke:#000000;stroke-width:1.0;"/></g><!--link web to client_1--><g id="link_web_client_1"><path codeLine="64" d="M90.29,537.25 C124.62,537.25 169,537.25 169,537.25 C169,537.25 169,512.04 169,493.32 " fill="none" id="web-client_1" style="stroke:#000000;stroke-width:1.0;"/></g><!--link web to client_2--><g id="link_web_client_2"><path codeLine="65" d="M51,567.09 C51,598.95 51,658.5 51,658.5 C51,658.5 112.07,658.5 151.91,658.5 " fill="none" id="web-client_2" style="stroke:#000000;stroke-width:1.0;"/></g><!--SRC=[bPJFRjf04CRlVeefToAnTYvv6MHWMzo05vcDejo8KwcA6WMbXrRAeNs2IhJ2WX0Whp3xHfqr_hEBRPKUR7bdV_FjxEutVYU7VCnXB4BXECxqCWWdVkIFOHI4NDvCE8X83eKpukybI05Hy64eOH14l2y34L9AA2I75lvICUvng-u0LxZ03JqhFKZKlNe2t66YNnJKR_KP4zm1RjITcga7WcOjyASGYcx_YhIZRcZghW6N-0SNXhGUB76lRcbwGNElQguULKpZEL0TIrfbZLjh1LrUkegyDfPnHEyZxGLQ5_YLYlhTLhSa-ABY5BtcFPDunbUIfTApwVueuA7iTlwDC0lPKpKhmkWeKgZdJo_viKu3L2hXz_mqe7C1vIYbHJIW_NNgODO0rogx3R1R1tiDi5S7dpV0vyQ90puVMIIxkCu933k1SOqZ_u5lT7aBxIYWppteqYWfnkIGuaU3xiGF1aqvsjzq- -JkdVg2MrodQTHQ_2RDioxu_pAPRKEoChwf1stvSaTYF34N-9cQFb6VI7T6pxoWM5MBLa-eMM8wfKTrJzz9GRidQNe6zKqzfOsv8VU-w3vTKrDj2fGkE3SyjDjPtSSHLecuUOJb4SznyWxKeQAByfupWin6y-wenfYLdNkzodard7RkGJYji73gGTY8COihRLM2jcaELHp5zPOo4rjbLM95MHwSdTb_lmoen8ibQIAineix8MdwHQQZ_5TeZvdp5m00]--></g></svg>