<svg xmlns="http://www.w3.org/2000/svg" xmlns:xlink="http://www.w3.org/1999/xlink" contentStyleType="text/css" height="354px" preserveAspectRatio="none" style="width:737px;height:354px;background:#FFFFFF;" version="1.1" viewBox="0 0 737 354" width="737px" zoomAndPan="magnify"><defs/><g><g id="elem_web"><rect fill="#FFFFFF" height="39.0679" style="stroke:#000000;stroke-width:1.0;" width="77.8817" x="222" y="12"/><text fill="#000000" font-family="Hack" font-size="14" lengthAdjust="spacing" textLength="63.8817" x="229" y="28.9659">:&#1042;&#1077;&#1073;-&#1089;&#1072;&#1081;&#1090;</text><line style="stroke:#000000;stroke-width:1.0;" x1="223" x2="298.8817" y1="35.0679" y2="35.0679"/></g><g id="elem_search"><rect fill="#FFFFFF" height="39.0679" style="stroke:#000000;stroke-width:1.0;" width="59.5838" x="12" y="111"/><text fill="#000000" font-family="Hack" font-size="14" lengthAdjust="spacing" textLength="45.5838" x="19" y="127.9659">:&#1055;&#1086;&#1080;&#1089;&#1082;</text><line style="stroke:#000000;stroke-width:1.0;" x1="13" x2="70.5838" y1="134.0679" y2="134.0679"/></g><g id="elem_client"><rect fill="#FFFFFF" height="39.0679" style="stroke:#000000;stroke-width:1.0;" width="66.9758" x="446.5" y="111"/><text fill="#000000" font-family="Hack" font-size="14" lengthAdjust="spacing" textLength="52.9758" x="453.5" y="127.9659">:&#1050;&#1083;&#1080;&#1077;&#1085;&#1090;</text><line style="stroke:#000000;stroke-width:1.0;" x1="447.5" x2="512.4758" y1="134.0679" y2="134.0679"/></g><g id="elem_search_results"><rect fill="#FFFFFF" height="39.0679" style="stroke:#000000;stroke-width:1.0;" width="148.4275" x="406" y="210"/><text fill="#000000" font-family="Hack" font-size="14" lengthAdjust="spacing" textLength="134.4275" x="413" y="226.9659">:&#1056;&#1077;&#1079;&#1091;&#1083;&#1100;&#1090;&#1072;&#1090;&#1099; &#1087;&#1086;&#1080;&#1089;&#1082;&#1072;</text><line style="stroke:#000000;stroke-width:1.0;" x1="407" x2="553.4275" y1="233.0679" y2="233.0679"/></g><g id="elem_search_name"><rect fill="#FFFFFF" height="39.0679" style="stroke:#000000;stroke-width:1.0;" width="129.3316" x="186.5" y="309"/><text fill="#000000" font-family="Hack" font-size="14" lengthAdjust="spacing" textLength="115.3316" x="193.5" y="325.9659">:&#1055;&#1086;&#1080;&#1089;&#1082; &#1087;&#1086; &#1080;&#1084;&#1077;&#1085;&#1080;</text><line style="stroke:#000000;stroke-width:1.0;" x1="187.5" x2="314.8316" y1="332.0679" y2="332.0679"/></g><g id="elem_search_kind"><rect fill="#FFFFFF" height="39.0679" style="stroke:#000000;stroke-width:1.0;" width="115.6116" x="351" y="309"/><text fill="#000000" font-family="Hack" font-size="14" lengthAdjust="spacing" textLength="101.6116" x="358" y="325.9659">:&#1055;&#1086;&#1080;&#1089;&#1082; &#1087;&#1086; &#1090;&#1080;&#1087;&#1091;</text><line style="stroke:#000000;stroke-width:1.0;" x1="352" x2="465.6116" y1="332.0679" y2="332.0679"/></g><g id="elem_computer_1"><rect fill="#FFFFFF" height="39.0679" style="stroke:#000000;stroke-width:1.0;" width="97.2437" x="502.5" y="309"/><text fill="#000000" font-family="Hack" font-size="14" lengthAdjust="spacing" textLength="83.2437" x="509.5" y="325.9659">:&#1050;&#1086;&#1084;&#1087;&#1100;&#1102;&#1090;&#1077;&#1088;</text><line style="stroke:#000000;stroke-width:1.0;" x1="503.5" x2="598.7437" y1="332.0679" y2="332.0679"/></g><g id="elem_computer_2"><rect fill="#FFFFFF" height="39.0679" style="stroke:#000000;stroke-width:1.0;" width="97.2437" x="634.5" y="309"/><text fill="#000000" font-family="Hack" font-size="14" lengthAdjust="spacing" textLength="83.2437" x="641.5" y="325.9659">:&#1050;&#1086;&#1084;&#1087;&#1100;&#1102;&#1090;&#1077;&#1088;</text><line style="stroke:#000000;stroke-width:1.0;" x1="635.5" x2="730.7437" y1="332.0679" y2="332.0679"/></g><g id="elem_through_note"><path d="M107,116.5 L107,144.206 L411.4392,144.206 L411.4392,126.5 L401.4392,116.5 L107,116.5 " fill="#FFFFFF" style="stroke:#000000;stroke-width:1.0;"/><path d="M401.4392,116.5 L401.4392,126.5 L411.4392,126.5 L401.4392,116.5 " fill="#FFFFFF" style="stroke:#000000;stroke-width:1.0;"/><text fill="#000000" font-family="Hack" font-size="13" lengthAdjust="spacing" textLength="283.4392" x="113" y="135.397">&#1050; &#1087;&#1086;&#1080;&#1089;&#1082;&#1091; &#1082;&#1083;&#1080;&#1077;&#1085;&#1090; &#1086;&#1073;&#1088;&#1072;&#1097;&#1072;&#1077;&#1090;&#1089;&#1103; &#1095;&#1077;&#1088;&#1077;&#1079; &#1042;&#1077;&#1073;-&#1089;&#1072;&#1081;&#1090;</text></g><!--link web to client--><g id="link_web_client"><path codeLine="19" d="M300.15,32 C363.14,32 480,32 480,32 C480,32 480,81.79 480,110.57 " fill="none" id="web-client" style="stroke:#000000;stroke-width:1.0;"/></g><!--link web to search--><g id="link_web_search"><path codeLine="20" d="M221.85,32 C158.86,32 42,32 42,32 C42,32 42,81.79 42,110.57 " fill="none" id="web-search" style="stroke:#000000;stroke-width:1.0;"/></g><!--link search_results to search_name--><g id="link_search_results_search_name"><path codeLine="22" d="M405.97,230 C339.06,230 251,230 251,230 C251,230 251,279.79 251,308.57 " fill="none" id="search_results-search_name" style="stroke:#000000;stroke-width:1.0;"/></g><!--link search_results to search_kind--><g id="link_search_results_search_kind"><path codeLine="23" d="M436.5,249.06 C436.5,266.42 436.5,291.64 436.5,308.98 " fill="none" id="search_results-search_kind" style="stroke:#000000;stroke-width:1.0;"/></g><!--link client to search_results--><g id="link_client_search_results"><path codeLine="25" d="M480,150.06 C480,167.42 480,192.64 480,209.98 " fill="none" id="client-search_results" style="stroke:#000000;stroke-width:1.0;"/></g><!--link search_results to computer_1--><g id="link_search_results_computer_1"><path codeLine="27" d="M528.25,249.06 C528.25,266.42 528.25,291.64 528.25,308.98 " fill="none" id="search_results-computer_1" style="stroke:#000000;stroke-width:1.0;"/></g><!--link search_results to computer_2--><g id="link_search_results_computer_2"><path codeLine="28" d="M554.15,230 C612.14,230 683,230 683,230 C683,230 683,279.79 683,308.57 " fill="none" id="search_results-computer_2" style="stroke:#000000;stroke-width:1.0;"/></g><!--link through_note to client--><g id="link_through_note_client"><path codeLine="32" d="M411.29,131 C424.15,131 436.12,131 446.35,131 " fill="none" id="through_note-client" style="stroke:#000000;stroke-width:1.0;stroke-dasharray:7.0,7.0;"/></g><!--link search to through_note--><g id="link_search_through_note"><path codeLine="33" d="M72.17,131 C82.07,131 93.83,131 106.57,131 " fill="none" id="search-through_note" style="stroke:#000000;stroke-width:1.0;stroke-dasharray:7.0,7.0;"/></g><!--SRC=[ZLB1Ji904BtlLupS8T6ZFqDA7McrxPBjDeORj0TZD9fuvAAV00TY5QM_CFD7JYd59OBnkFlclPtttfxO06E4M2TQAPLUXyd8CruCKPYW7OyGjB513Ud15VeMEkVqJ4jQT7bASthdl0DU2ZSuS2TUQ4sb37nim1GzumSkFgCLbQBojQNxKOY9TITU1NtZWbRym3dDEUTxeAgLfRaZt3UOPf5D3owm8O4yzba_HwNBIxmOZtFasP8gBbo6f7EnxsCjmfNi-2ZZIvuqRdGyoYoQ_kd_Hy-KaWoXsssps9xQxFQj_Y2DYQDeit0ZwLpl4ljDT9R_0vHr4sqHEZHpQk42f9jTjI3t2vv8UtVoLPRIuPIVW6zhztMzSEWdsS3eR2Y-H5ufzmGz4mu3ssiJsiSYl1He6zSt]--></g></svg>