<svg xmlns="http://www.w3.org/2000/svg" xmlns:xlink="http://www.w3.org/1999/xlink" contentStyleType="text/css" height="1222px" preserveAspectRatio="none" style="width:729px;height:1222px;background:#FFFFFF;" version="1.1" viewBox="0 0 729 1222" width="729px" zoomAndPan="magnify"><defs/><g><!--cluster Boundary--><g id="cluster_Boundary"><path d="M33.79,11.602 L102.8997,11.602 A3.75,3.75 0 0 1 105.3997,14.102 L112.3997,36.6699 L522.79,36.6699 A2.5,2.5 0 0 1 525.29,39.1699 L525.29,442.102 A2.5,2.5 0 0 1 522.79,444.602 L33.79,444.602 A2.5,2.5 0 0 1 31.29,442.102 L31.29,14.102 A2.5,2.5 0 0 1 33.79,11.602 " fill="#FFFFFF" style="stroke:#000000;stroke-width:1.0;"/><line style="stroke:#000000;stroke-width:1.0;" x1="31.29" x2="112.3997" y1="36.6699" y2="36.6699"/><text fill="#000000" font-family="Hack" font-size="14" font-weight="bold" lengthAdjust="spacing" textLength="68.1097" x="35.29" y="28.5679">Boundary</text></g><!--cluster Controller--><g id="cluster_Controller"><path d="M93.79,477.602 L165.8397,477.602 A3.75,3.75 0 0 1 168.3397,480.102 L175.3397,502.6699 L636.79,502.6699 A2.5,2.5 0 0 1 639.29,505.1699 L639.29,775.102 A2.5,2.5 0 0 1 636.79,777.602 L93.79,777.602 A2.5,2.5 0 0 1 91.29,775.102 L91.29,480.102 A2.5,2.5 0 0 1 93.79,477.602 " fill="#FFFFFF" style="stroke:#000000;stroke-width:1.0;"/><line style="stroke:#000000;stroke-width:1.0;" x1="91.29" x2="175.3397" y1="502.6699" y2="502.6699"/><text fill="#000000" font-family="Hack" font-size="14" font-weight="bold" lengthAdjust="spacing" textLength="71.0497" x="95.29" y="494.5679">Controller</text></g><!--cluster Entity--><g id="cluster_Entity"><path d="M150.79,810.602 L193.2158,810.602 A3.75,3.75 0 0 1 195.7158,813.102 L202.7158,835.6699 L611.79,835.6699 A2.5,2.5 0 0 1 614.29,838.1699 L614.29,1213.102 A2.5,2.5 0 0 1 611.79,1215.602 L150.79,1215.602 A2.5,2.5 0 0 1 148.29,1213.102 L148.29,813.102 A2.5,2.5 0 0 1 150.79,810.602 " fill="#FFFFFF" style="stroke:#000000;stroke-width:1.0;"/><line style="stroke:#000000;stroke-width:1.0;" x1="148.29" x2="202.7158" y1="835.6699" y2="835.6699"/><text fill="#000000" font-family="Hack" font-size="14" font-weight="bold" lengthAdjust="spacing" textLength="41.4258" x="152.29" y="827.5679">Entity</text></g><!--class pcBuild--><g id="elem_pcBuild"><rect codeLine="3" fill="#FFFFFF" height="178.5433" id="pcBuild" rx="2.5" ry="2.5" style="stroke:#000000;stroke-width:1.0;" width="460.8764" x="47.79" y="49.602"/><ellipse cx="219.0994" cy="64.1359" fill="#FFFFFF" rx="8" ry="8" style="stroke:#000000;stroke-width:1.0;"/><path d="M220.1775,61.4641 Q220.2556,61.3391 220.365,61.2766 Q220.49,61.2141 220.615,61.2141 Q220.8338,61.2141 220.9744,61.3703 Q221.115,61.5266 221.115,61.8859 L221.115,62.7297 Q221.115,63.0891 220.9744,63.2453 Q220.8338,63.4016 220.615,63.4016 Q220.4119,63.4016 220.2869,63.2922 Q220.1619,63.1828 220.0994,62.8703 Q220.0681,62.6672 219.9744,62.5578 Q219.7713,62.3234 219.4119,62.1984 Q219.0525,62.0734 218.6931,62.0734 Q218.24,62.0734 217.865,62.2766 Q217.49,62.4641 217.1931,62.9016 Q216.9119,63.3391 216.9119,63.9484 L216.9119,64.5891 Q216.9119,65.3078 217.4275,65.7922 Q217.9588,66.2766 218.8963,66.2766 Q219.4588,66.2766 219.8338,66.1359 Q220.0681,66.0422 220.3181,65.7766 Q220.4744,65.6203 220.5525,65.5734 Q220.6463,65.5266 220.7556,65.5266 Q220.9588,65.5266 221.115,65.6828 Q221.2713,65.8391 221.2713,66.0422 Q221.2713,66.2453 221.0525,66.4797 Q220.7556,66.8234 220.2869,67.0109 Q219.6619,67.2766 218.8963,67.2766 Q218.0056,67.2766 217.3025,66.9172 Q216.7244,66.6203 216.3181,65.9953 Q215.9119,65.3547 215.9119,64.6047 L215.9119,63.9328 Q215.9119,63.1516 216.2713,62.4797 Q216.6463,61.7922 217.2869,61.4328 Q217.9275,61.0734 218.6463,61.0734 Q219.0838,61.0734 219.4588,61.1672 Q219.8494,61.2609 220.1775,61.4641 Z " fill="#000000"/><text fill="#000000" font-family="Hack" font-size="14" lengthAdjust="spacing" textLength="111.2576" x="235.0994" y="69.5679">&#1069;&#1082;&#1088;&#1072;&#1085;&#1057;&#1073;&#1086;&#1088;&#1082;&#1080;&#1055;&#1050;</text><line style="stroke:#000000;stroke-width:1.0;" x1="48.79" x2="507.6664" y1="78.6699" y2="78.6699"/><line style="stroke:#000000;stroke-width:1.0;" x1="48.79" x2="507.6664" y1="86.6699" y2="86.6699"/><ellipse cx="58.79" cy="101.7039" fill="#FFFFFF" rx="3" ry="3" style="stroke:#000000;stroke-width:1.0;"/><text fill="#000000" font-family="Hack" font-size="14" lengthAdjust="spacing" textLength="265.173" x="64.79" y="105.6358">&#1055;&#1086;&#1080;&#1089;&#1082;(:&#1057;&#1090;&#1088;&#1086;&#1082;&#1072;): &#1069;&#1082;&#1088;&#1072;&#1085;&#1050;&#1086;&#1084;&#1087;&#1083;&#1077;&#1082;&#1090;&#1091;&#1102;&#1097;&#1080;&#1093;</text><ellipse cx="58.79" cy="120.7718" fill="#FFFFFF" rx="3" ry="3" style="stroke:#000000;stroke-width:1.0;"/><text fill="#000000" font-family="Hack" font-size="14" lengthAdjust="spacing" textLength="295.8049" x="64.79" y="124.7038">&#1059;&#1089;&#1090;&#1072;&#1085;&#1086;&#1074;&#1080;&#1090;&#1100;&#1055;&#1050;&#1050;&#1072;&#1082;&#1058;&#1077;&#1082;&#1091;&#1097;&#1080;&#1081;(:&#1050;&#1086;&#1085;&#1092;&#1080;&#1075;&#1091;&#1088;&#1072;&#1094;&#1080;&#1103;)</text><ellipse cx="58.79" cy="139.8397" fill="#FFFFFF" rx="3" ry="3" style="stroke:#000000;stroke-width:1.0;"/><text fill="#000000" font-family="Hack" font-size="14" lengthAdjust="spacing" textLength="245.713" x="64.79" y="143.7717">&#1059;&#1089;&#1090;&#1072;&#1085;&#1086;&#1074;&#1080;&#1090;&#1100;&#1058;&#1080;&#1087;&#1058;&#1077;&#1082;&#1091;&#1097;&#1077;&#1075;&#1086;&#1055;&#1050;(:&#1058;&#1080;&#1087;&#1055;&#1050;)</text><ellipse cx="58.79" cy="158.9076" fill="#FFFFFF" rx="3" ry="3" style="stroke:#000000;stroke-width:1.0;"/><text fill="#000000" font-family="Hack" font-size="14" lengthAdjust="spacing" textLength="221.3811" x="64.79" y="162.8396">&#1044;&#1086;&#1073;&#1072;&#1074;&#1080;&#1090;&#1100;&#1058;&#1077;&#1082;&#1091;&#1097;&#1080;&#1081;&#1055;&#1050;&#1042;&#1050;&#1086;&#1088;&#1079;&#1080;&#1085;&#1091;()</text><ellipse cx="58.79" cy="177.9755" fill="#FFFFFF" rx="3" ry="3" style="stroke:#000000;stroke-width:1.0;"/><text fill="#000000" font-family="Hack" font-size="14" lengthAdjust="spacing" textLength="154.0834" x="64.79" y="181.9075">&#1054;&#1095;&#1080;&#1089;&#1090;&#1080;&#1090;&#1100;&#1058;&#1077;&#1082;&#1091;&#1097;&#1080;&#1081;&#1055;&#1050;()</text><ellipse cx="58.79" cy="197.0434" fill="#FFFFFF" rx="3" ry="3" style="stroke:#000000;stroke-width:1.0;"/><text fill="#000000" font-family="Hack" font-size="14" lengthAdjust="spacing" textLength="437.8764" x="64.79" y="200.9754">&#1059;&#1089;&#1090;&#1072;&#1085;&#1086;&#1074;&#1080;&#1090;&#1100;&#1055;&#1088;&#1077;&#1076;&#1091;&#1089;&#1090;&#1072;&#1085;&#1086;&#1074;&#1083;&#1077;&#1085;&#1085;&#1091;&#1102;&#1050;&#1086;&#1085;&#1092;&#1080;&#1075;&#1091;&#1088;&#1072;&#1094;&#1080;&#1102;(:&#1050;&#1086;&#1085;&#1092;&#1080;&#1075;&#1091;&#1088;&#1072;&#1094;&#1080;&#1103;)</text><ellipse cx="58.79" cy="216.1114" fill="#FFFFFF" rx="3" ry="3" style="stroke:#000000;stroke-width:1.0;"/><text fill="#000000" font-family="Hack" font-size="14" lengthAdjust="spacing" textLength="356.2987" x="64.79" y="220.0433">&#1042;&#1077;&#1088;&#1085;&#1091;&#1090;&#1100;&#1057;&#1087;&#1080;&#1089;&#1086;&#1082;&#1050;&#1086;&#1085;&#1092;&#1080;&#1075;&#1091;&#1088;&#1072;&#1094;&#1080;&#1081;(): &#1050;&#1086;&#1085;&#1092;&#1080;&#1075;&#1091;&#1088;&#1072;&#1094;&#1080;&#1103;[0..*]</text></g><!--class partBuild--><g id="elem_partBuild"><rect codeLine="13" fill="#FFFFFF" height="121.3396" id="partBuild" rx="2.5" ry="2.5" style="stroke:#000000;stroke-width:1.0;" width="289.1669" x="220.79" y="307.602"/><ellipse cx="283.9008" cy="322.1359" fill="#FFFFFF" rx="8" ry="8" style="stroke:#000000;stroke-width:1.0;"/><path d="M284.9789,319.4641 Q285.057,319.3391 285.1664,319.2766 Q285.2914,319.2141 285.4164,319.2141 Q285.6351,319.2141 285.7758,319.3703 Q285.9164,319.5266 285.9164,319.8859 L285.9164,320.7297 Q285.9164,321.0891 285.7758,321.2453 Q285.6351,321.4016 285.4164,321.4016 Q285.2133,321.4016 285.0883,321.2922 Q284.9633,321.1828 284.9008,320.8703 Q284.8695,320.6672 284.7758,320.5578 Q284.5726,320.3234 284.2133,320.1984 Q283.8539,320.0734 283.4945,320.0734 Q283.0414,320.0734 282.6664,320.2766 Q282.2914,320.4641 281.9945,320.9016 Q281.7133,321.3391 281.7133,321.9484 L281.7133,322.5891 Q281.7133,323.3078 282.2289,323.7922 Q282.7601,324.2766 283.6976,324.2766 Q284.2601,324.2766 284.6351,324.1359 Q284.8695,324.0422 285.1195,323.7766 Q285.2758,323.6203 285.3539,323.5734 Q285.4476,323.5266 285.557,323.5266 Q285.7601,323.5266 285.9164,323.6828 Q286.0726,323.8391 286.0726,324.0422 Q286.0726,324.2453 285.8539,324.4797 Q285.557,324.8234 285.0883,325.0109 Q284.4633,325.2766 283.6976,325.2766 Q282.807,325.2766 282.1039,324.9172 Q281.5258,324.6203 281.1195,323.9953 Q280.7133,323.3547 280.7133,322.6047 L280.7133,321.9328 Q280.7133,321.1516 281.0726,320.4797 Q281.4476,319.7922 282.0883,319.4328 Q282.7289,319.0734 283.4476,319.0734 Q283.8851,319.0734 284.2601,319.1672 Q284.6508,319.2609 284.9789,319.4641 Z " fill="#000000"/><text fill="#000000" font-family="Hack" font-size="14" lengthAdjust="spacing" textLength="155.9454" x="299.9008" y="327.5679">&#1069;&#1082;&#1088;&#1072;&#1085;&#1050;&#1086;&#1084;&#1087;&#1083;&#1077;&#1082;&#1090;&#1091;&#1102;&#1097;&#1080;&#1093;</text><line style="stroke:#000000;stroke-width:1.0;" x1="221.79" x2="508.9569" y1="336.6699" y2="336.6699"/><line style="stroke:#000000;stroke-width:1.0;" x1="221.79" x2="508.9569" y1="344.6699" y2="344.6699"/><ellipse cx="231.79" cy="359.7039" fill="#FFFFFF" rx="3" ry="3" style="stroke:#000000;stroke-width:1.0;"/><text fill="#000000" font-family="Hack" font-size="14" lengthAdjust="spacing" textLength="180.9213" x="237.79" y="363.6358">&#1055;&#1088;&#1080;&#1084;&#1077;&#1085;&#1080;&#1090;&#1100;&#1055;&#1086;&#1080;&#1089;&#1082;(:&#1057;&#1090;&#1088;&#1086;&#1082;&#1072;)</text><ellipse cx="231.79" cy="378.7718" fill="#FFFFFF" rx="3" ry="3" style="stroke:#000000;stroke-width:1.0;"/><text fill="#000000" font-family="Hack" font-size="14" lengthAdjust="spacing" textLength="266.1669" x="237.79" y="382.7038">&#1059;&#1095;&#1077;&#1089;&#1090;&#1100;&#1057;&#1086;&#1074;&#1084;&#1077;&#1089;&#1090;&#1080;&#1084;&#1086;&#1089;&#1090;&#1100;&#1057;&#1086;&#1057;&#1083;&#1086;&#1090;&#1086;&#1084;(:&#1057;&#1083;&#1086;&#1090;)</text><ellipse cx="231.79" cy="397.8397" fill="#FFFFFF" rx="3" ry="3" style="stroke:#000000;stroke-width:1.0;"/><text fill="#000000" font-family="Hack" font-size="14" lengthAdjust="spacing" textLength="140.4895" x="237.79" y="401.7717">&#1054;&#1090;&#1086;&#1073;&#1088;&#1086;&#1079;&#1080;&#1090;&#1100;&#1057;&#1087;&#1080;&#1089;&#1082;&#1080;()</text><ellipse cx="231.79" cy="416.9076" fill="#FFFFFF" rx="3" ry="3" style="stroke:#000000;stroke-width:1.0;"/><text fill="#000000" font-family="Hack" font-size="14" lengthAdjust="spacing" textLength="255.261" x="237.79" y="420.8396">&#1044;&#1086;&#1073;&#1072;&#1074;&#1080;&#1090;&#1100;&#1050;&#1086;&#1084;&#1087;&#1083;&#1077;&#1082;&#1090;&#1091;&#1102;&#1097;&#1077;&#1077;&#1042;&#1050;&#1086;&#1088;&#1079;&#1080;&#1085;&#1091;()</text></g><!--class partManager--><g id="elem_partManager"><rect codeLine="22" fill="#FFFFFF" height="102.2717" id="partManager" rx="2.5" ry="2.5" style="stroke:#000000;stroke-width:1.0;" width="516.3581" x="107.29" y="515.602"/><ellipse cx="277.3744" cy="530.1359" fill="#FFFFFF" rx="8" ry="8" style="stroke:#000000;stroke-width:1.0;"/><path d="M278.4525,527.4641 Q278.5306,527.3391 278.64,527.2766 Q278.765,527.2141 278.89,527.2141 Q279.1087,527.2141 279.2494,527.3703 Q279.39,527.5266 279.39,527.8859 L279.39,528.7297 Q279.39,529.0891 279.2494,529.2453 Q279.1087,529.4016 278.89,529.4016 Q278.6869,529.4016 278.5619,529.2922 Q278.4369,529.1828 278.3744,528.8703 Q278.3431,528.6672 278.2494,528.5578 Q278.0462,528.3234 277.6869,528.1984 Q277.3275,528.0734 276.9681,528.0734 Q276.515,528.0734 276.14,528.2766 Q275.765,528.4641 275.4681,528.9016 Q275.1869,529.3391 275.1869,529.9484 L275.1869,530.5891 Q275.1869,531.3078 275.7025,531.7922 Q276.2337,532.2766 277.1712,532.2766 Q277.7337,532.2766 278.1087,532.1359 Q278.3431,532.0422 278.5931,531.7766 Q278.7494,531.6203 278.8275,531.5734 Q278.9212,531.5266 279.0306,531.5266 Q279.2337,531.5266 279.39,531.6828 Q279.5462,531.8391 279.5462,532.0422 Q279.5462,532.2453 279.3275,532.4797 Q279.0306,532.8234 278.5619,533.0109 Q277.9369,533.2766 277.1712,533.2766 Q276.2806,533.2766 275.5775,532.9172 Q274.9994,532.6203 274.5931,531.9953 Q274.1869,531.3547 274.1869,530.6047 L274.1869,529.9328 Q274.1869,529.1516 274.5462,528.4797 Q274.9212,527.7922 275.5619,527.4328 Q276.2025,527.0734 276.9212,527.0734 Q277.3587,527.0734 277.7337,527.1672 Q278.1244,527.2609 278.4525,527.4641 Z " fill="#000000"/><text fill="#000000" font-family="Hack" font-size="14" lengthAdjust="spacing" textLength="169.1893" x="293.3744" y="535.5679">&#1069;&#1082;&#1089;&#1087;&#1077;&#1088;&#1090;&#1050;&#1086;&#1084;&#1087;&#1083;&#1077;&#1082;&#1090;&#1091;&#1102;&#1097;&#1080;&#1093;</text><line style="stroke:#000000;stroke-width:1.0;" x1="108.29" x2="622.6481" y1="544.6699" y2="544.6699"/><ellipse cx="118.29" cy="559.7039" fill="none" rx="3" ry="3" style="stroke:#000000;stroke-width:1.0;"/><text fill="#000000" font-family="Hack" font-size="14" lengthAdjust="spacing" textLength="379.3006" x="124.29" y="563.6358">&#1055;&#1088;&#1077;&#1076;&#1086;&#1087;&#1088;&#1077;&#1076;&#1077;&#1083;&#1105;&#1085;&#1085;&#1099;&#1077;&#1050;&#1086;&#1085;&#1092;&#1080;&#1075;&#1091;&#1088;&#1072;&#1094;&#1080;&#1080;: &#1050;&#1086;&#1085;&#1092;&#1080;&#1075;&#1091;&#1088;&#1072;&#1094;&#1080;&#1103;[0..*]</text><line style="stroke:#000000;stroke-width:1.0;" x1="108.29" x2="622.6481" y1="571.7378" y2="571.7378"/><ellipse cx="118.29" cy="586.7718" fill="#FFFFFF" rx="3" ry="3" style="stroke:#000000;stroke-width:1.0;"/><text fill="#000000" font-family="Hack" font-size="14" lengthAdjust="spacing" textLength="304.0507" x="124.29" y="590.7038">&#1057;&#1076;&#1077;&#1083;&#1072;&#1090;&#1100;&#1040;&#1074;&#1090;&#1086;&#1087;&#1086;&#1076;&#1073;&#1086;&#1088;(:&#1057;&#1083;&#1086;&#1090;): &#1050;&#1086;&#1084;&#1087;&#1083;&#1077;&#1082;&#1090;&#1091;&#1102;&#1097;&#1077;&#1077;</text><ellipse cx="118.29" cy="605.8397" fill="#FFFFFF" rx="3" ry="3" style="stroke:#000000;stroke-width:1.0;"/><text fill="#000000" font-family="Hack" font-size="14" lengthAdjust="spacing" textLength="493.3581" x="124.29" y="609.7717">&#1057;&#1086;&#1074;&#1077;&#1088;&#1096;&#1080;&#1090;&#1100;&#1055;&#1086;&#1080;&#1089;&#1082;(&#1079;&#1072;&#1087;&#1088;&#1086;&#1089;: &#1057;&#1090;&#1088;&#1086;&#1082;&#1072;[0..1], :&#1057;&#1083;&#1086;&#1090;[0..1]): &#1050;&#1086;&#1084;&#1087;&#1083;&#1077;&#1082;&#1090;&#1091;&#1102;&#1097;&#1077;&#1077;[0..*]</text></g><!--class basketManager--><g id="elem_basketManager"><rect codeLine="28" fill="#FFFFFF" height="83.2038" id="basketManager" rx="2.5" ry="2.5" style="stroke:#000000;stroke-width:1.0;" width="395.6925" x="107.29" y="678.602"/><ellipse cx="234.5275" cy="693.1359" fill="#FFFFFF" rx="8" ry="8" style="stroke:#000000;stroke-width:1.0;"/><path d="M235.6056,690.4641 Q235.6837,690.3391 235.7931,690.2766 Q235.9181,690.2141 236.0431,690.2141 Q236.2619,690.2141 236.4025,690.3703 Q236.5431,690.5266 236.5431,690.8859 L236.5431,691.7297 Q236.5431,692.0891 236.4025,692.2453 Q236.2619,692.4016 236.0431,692.4016 Q235.84,692.4016 235.715,692.2922 Q235.59,692.1828 235.5275,691.8703 Q235.4962,691.6672 235.4025,691.5578 Q235.1994,691.3234 234.84,691.1984 Q234.4806,691.0734 234.1212,691.0734 Q233.6681,691.0734 233.2931,691.2766 Q232.9181,691.4641 232.6212,691.9016 Q232.34,692.3391 232.34,692.9484 L232.34,693.5891 Q232.34,694.3078 232.8556,694.7922 Q233.3869,695.2766 234.3244,695.2766 Q234.8869,695.2766 235.2619,695.1359 Q235.4962,695.0422 235.7462,694.7766 Q235.9025,694.6203 235.9806,694.5734 Q236.0744,694.5266 236.1837,694.5266 Q236.3869,694.5266 236.5431,694.6828 Q236.6994,694.8391 236.6994,695.0422 Q236.6994,695.2453 236.4806,695.4797 Q236.1837,695.8234 235.715,696.0109 Q235.09,696.2766 234.3244,696.2766 Q233.4337,696.2766 232.7306,695.9172 Q232.1525,695.6203 231.7462,694.9953 Q231.34,694.3547 231.34,693.6047 L231.34,692.9328 Q231.34,692.1516 231.6994,691.4797 Q232.0744,690.7922 232.715,690.4328 Q233.3556,690.0734 234.0744,690.0734 Q234.5119,690.0734 234.8869,690.1672 Q235.2775,690.2609 235.6056,690.4641 Z " fill="#000000"/><text fill="#000000" font-family="Hack" font-size="14" lengthAdjust="spacing" textLength="134.2175" x="250.5275" y="698.5679">&#1050;&#1086;&#1088;&#1079;&#1080;&#1085;&#1085;&#1099;&#1081;&#1069;&#1082;&#1089;&#1087;&#1077;&#1088;&#1090;</text><line style="stroke:#000000;stroke-width:1.0;" x1="108.29" x2="501.9825" y1="707.6699" y2="707.6699"/><line style="stroke:#000000;stroke-width:1.0;" x1="108.29" x2="501.9825" y1="715.6699" y2="715.6699"/><ellipse cx="118.29" cy="730.7039" fill="#FFFFFF" rx="3" ry="3" style="stroke:#000000;stroke-width:1.0;"/><text fill="#000000" font-family="Hack" font-size="14" lengthAdjust="spacing" textLength="264.753" x="124.29" y="734.6358">&#1044;&#1086;&#1073;&#1072;&#1074;&#1080;&#1090;&#1100;&#1055;&#1050;&#1042;&#1050;&#1086;&#1088;&#1079;&#1080;&#1085;&#1091;(:&#1050;&#1086;&#1085;&#1092;&#1080;&#1075;&#1088;&#1091;&#1072;&#1094;&#1080;&#1103;)</text><ellipse cx="118.29" cy="749.7718" fill="#FFFFFF" rx="3" ry="3" style="stroke:#000000;stroke-width:1.0;"/><text fill="#000000" font-family="Hack" font-size="14" lengthAdjust="spacing" textLength="372.6925" x="124.29" y="753.7038">&#1044;&#1086;&#1073;&#1072;&#1074;&#1080;&#1090;&#1100;&#1050;&#1086;&#1084;&#1087;&#1083;&#1077;&#1082;&#1090;&#1091;&#1102;&#1097;&#1077;&#1077;&#1042;&#1050;&#1086;&#1088;&#1079;&#1080;&#1085;&#1091;(:&#1050;&#1086;&#1084;&#1087;&#1083;&#1077;&#1082;&#1090;&#1091;&#1102;&#1097;&#1077;&#1077;)</text></g><!--class basket--><g id="elem_basket"><rect codeLine="35" fill="#FFFFFF" height="64.1358" id="basket" rx="2.5" ry="2.5" style="stroke:#000000;stroke-width:1.0;" width="209.1153" x="173.79" y="848.602"/><ellipse cx="245.6647" cy="863.1359" fill="#FFFFFF" rx="8" ry="8" style="stroke:#000000;stroke-width:1.0;"/><path d="M246.7429,860.4641 Q246.821,860.3391 246.9304,860.2766 Q247.0554,860.2141 247.1804,860.2141 Q247.3991,860.2141 247.5397,860.3703 Q247.6804,860.5266 247.6804,860.8859 L247.6804,861.7297 Q247.6804,862.0891 247.5397,862.2453 Q247.3991,862.4016 247.1804,862.4016 Q246.9772,862.4016 246.8522,862.2922 Q246.7272,862.1828 246.6647,861.8703 Q246.6335,861.6672 246.5397,861.5578 Q246.3366,861.3234 245.9772,861.1984 Q245.6179,861.0734 245.2585,861.0734 Q244.8054,861.0734 244.4304,861.2766 Q244.0554,861.4641 243.7585,861.9016 Q243.4772,862.3391 243.4772,862.9484 L243.4772,863.5891 Q243.4772,864.3078 243.9929,864.7922 Q244.5241,865.2766 245.4616,865.2766 Q246.0241,865.2766 246.3991,865.1359 Q246.6335,865.0422 246.8835,864.7766 Q247.0397,864.6203 247.1179,864.5734 Q247.2116,864.5266 247.321,864.5266 Q247.5241,864.5266 247.6804,864.6828 Q247.8366,864.8391 247.8366,865.0422 Q247.8366,865.2453 247.6179,865.4797 Q247.321,865.8234 246.8522,866.0109 Q246.2272,866.2766 245.4616,866.2766 Q244.571,866.2766 243.8679,865.9172 Q243.2897,865.6203 242.8835,864.9953 Q242.4772,864.3547 242.4772,863.6047 L242.4772,862.9328 Q242.4772,862.1516 242.8366,861.4797 Q243.2116,860.7922 243.8522,860.4328 Q244.4929,860.0734 245.2116,860.0734 Q245.6491,860.0734 246.0241,860.1672 Q246.4147,860.2609 246.7429,860.4641 Z " fill="#000000"/><text fill="#000000" font-family="Hack" font-size="14" lengthAdjust="spacing" textLength="58.3658" x="261.6647" y="868.5679">&#1050;&#1086;&#1088;&#1079;&#1080;&#1085;&#1072;</text><line style="stroke:#000000;stroke-width:1.0;" x1="174.79" x2="381.9053" y1="877.6699" y2="877.6699"/><line style="stroke:#000000;stroke-width:1.0;" x1="174.79" x2="381.9053" y1="885.6699" y2="885.6699"/><ellipse cx="184.79" cy="900.7039" fill="#FFFFFF" rx="3" ry="3" style="stroke:#000000;stroke-width:1.0;"/><text fill="#000000" font-family="Hack" font-size="14" lengthAdjust="spacing" textLength="186.1153" x="190.79" y="904.6358">&#1044;&#1086;&#1073;&#1072;&#1074;&#1080;&#1090;&#1100;&#1042;&#1050;&#1086;&#1088;&#1079;&#1080;&#1085;&#1091;(:&#1058;&#1086;&#1074;&#1072;&#1088;)</text></g><!--class item--><g id="elem_item"><rect codeLine="39" fill="#FFFFFF" height="45.0679" id="item" rx="2.5" ry="2.5" style="stroke:#000000;stroke-width:1.0;" width="66.7818" x="164.79" y="1002.102"/><ellipse cx="176.79" cy="1016.6359" fill="#FFFFFF" rx="8" ry="8" style="stroke:#000000;stroke-width:1.0;"/><path d="M177.8681,1013.9641 Q177.9463,1013.8391 178.0556,1013.7766 Q178.1806,1013.7141 178.3056,1013.7141 Q178.5244,1013.7141 178.665,1013.8703 Q178.8056,1014.0266 178.8056,1014.3859 L178.8056,1015.2297 Q178.8056,1015.5891 178.665,1015.7453 Q178.5244,1015.9016 178.3056,1015.9016 Q178.1025,1015.9016 177.9775,1015.7922 Q177.8525,1015.6828 177.79,1015.3703 Q177.7588,1015.1672 177.665,1015.0578 Q177.4619,1014.8234 177.1025,1014.6984 Q176.7431,1014.5734 176.3838,1014.5734 Q175.9306,1014.5734 175.5556,1014.7766 Q175.1806,1014.9641 174.8838,1015.4016 Q174.6025,1015.8391 174.6025,1016.4484 L174.6025,1017.0891 Q174.6025,1017.8078 175.1181,1018.2922 Q175.6494,1018.7766 176.5869,1018.7766 Q177.1494,1018.7766 177.5244,1018.6359 Q177.7588,1018.5422 178.0088,1018.2766 Q178.165,1018.1203 178.2431,1018.0734 Q178.3369,1018.0266 178.4463,1018.0266 Q178.6494,1018.0266 178.8056,1018.1828 Q178.9619,1018.3391 178.9619,1018.5422 Q178.9619,1018.7453 178.7431,1018.9797 Q178.4463,1019.3234 177.9775,1019.5109 Q177.3525,1019.7766 176.5869,1019.7766 Q175.6963,1019.7766 174.9931,1019.4172 Q174.415,1019.1203 174.0088,1018.4953 Q173.6025,1017.8547 173.6025,1017.1047 L173.6025,1016.4328 Q173.6025,1015.6516 173.9619,1014.9797 Q174.3369,1014.2922 174.9775,1013.9328 Q175.6181,1013.5734 176.3369,1013.5734 Q176.7744,1013.5734 177.1494,1013.6672 Q177.54,1013.7609 177.8681,1013.9641 Z " fill="#000000"/><text fill="#000000" font-family="Hack" font-size="14" lengthAdjust="spacing" textLength="40.7818" x="187.79" y="1022.0679">&#1058;&#1086;&#1074;&#1072;&#1088;</text><line style="stroke:#000000;stroke-width:1.0;" x1="165.79" x2="230.5718" y1="1031.1699" y2="1031.1699"/><line style="stroke:#000000;stroke-width:1.0;" x1="165.79" x2="230.5718" y1="1039.1699" y2="1039.1699"/></g><!--class slot--><g id="elem_slot"><rect codeLine="43" fill="#FFFFFF" height="102.2717" id="slot" rx="2.5" ry="2.5" style="stroke:#000000;stroke-width:1.0;" width="331.4187" x="266.79" y="973.602"/><ellipse cx="412.9624" cy="988.1359" fill="#FFFFFF" rx="8" ry="8" style="stroke:#000000;stroke-width:1.0;"/><path d="M414.0406,985.4641 Q414.1187,985.3391 414.2281,985.2766 Q414.3531,985.2141 414.4781,985.2141 Q414.6968,985.2141 414.8374,985.3703 Q414.9781,985.5266 414.9781,985.8859 L414.9781,986.7297 Q414.9781,987.0891 414.8374,987.2453 Q414.6968,987.4016 414.4781,987.4016 Q414.2749,987.4016 414.1499,987.2922 Q414.0249,987.1828 413.9624,986.8703 Q413.9312,986.6672 413.8374,986.5578 Q413.6343,986.3234 413.2749,986.1984 Q412.9156,986.0734 412.5562,986.0734 Q412.1031,986.0734 411.7281,986.2766 Q411.3531,986.4641 411.0562,986.9016 Q410.7749,987.3391 410.7749,987.9484 L410.7749,988.5891 Q410.7749,989.3078 411.2906,989.7922 Q411.8218,990.2766 412.7593,990.2766 Q413.3218,990.2766 413.6968,990.1359 Q413.9312,990.0422 414.1812,989.7766 Q414.3374,989.6203 414.4156,989.5734 Q414.5093,989.5266 414.6187,989.5266 Q414.8218,989.5266 414.9781,989.6828 Q415.1343,989.8391 415.1343,990.0422 Q415.1343,990.2453 414.9156,990.4797 Q414.6187,990.8234 414.1499,991.0109 Q413.5249,991.2766 412.7593,991.2766 Q411.8687,991.2766 411.1656,990.9172 Q410.5874,990.6203 410.1812,989.9953 Q409.7749,989.3547 409.7749,988.6047 L409.7749,987.9328 Q409.7749,987.1516 410.1343,986.4797 Q410.5093,985.7922 411.1499,985.4328 Q411.7906,985.0734 412.5093,985.0734 Q412.9468,985.0734 413.3218,985.1672 Q413.7124,985.2609 414.0406,985.4641 Z " fill="#000000"/><text fill="#000000" font-family="Hack" font-size="14" lengthAdjust="spacing" textLength="32.0739" x="428.9624" y="993.5679">&#1057;&#1083;&#1086;&#1090;</text><line style="stroke:#000000;stroke-width:1.0;" x1="267.79" x2="597.2087" y1="1002.6699" y2="1002.6699"/><line style="stroke:#000000;stroke-width:1.0;" x1="267.79" x2="597.2087" y1="1010.6699" y2="1010.6699"/><ellipse cx="277.79" cy="1025.7039" fill="#FFFFFF" rx="3" ry="3" style="stroke:#000000;stroke-width:1.0;"/><text fill="#000000" font-family="Hack" font-size="14" lengthAdjust="spacing" textLength="308.4187" x="283.79" y="1029.6358">&#1055;&#1088;&#1086;&#1074;&#1077;&#1088;&#1080;&#1090;&#1100;&#1057;&#1086;&#1074;&#1084;&#1077;&#1089;&#1090;&#1080;&#1084;&#1086;&#1089;&#1090;&#1100;(:&#1050;&#1086;&#1084;&#1087;&#1083;&#1077;&#1082;&#1090;&#1091;&#1102;&#1097;&#1077;&#1077;)</text><ellipse cx="277.79" cy="1044.7718" fill="#FFFFFF" rx="3" ry="3" style="stroke:#000000;stroke-width:1.0;"/><text fill="#000000" font-family="Hack" font-size="14" lengthAdjust="spacing" textLength="205.2392" x="283.79" y="1048.7038">&#1059;&#1089;&#1090;&#1072;&#1085;&#1086;&#1074;&#1080;&#1090;&#1100;(:&#1050;&#1086;&#1084;&#1087;&#1083;&#1077;&#1082;&#1090;&#1091;&#1102;&#1097;&#1077;&#1077;)</text><ellipse cx="277.79" cy="1063.8397" fill="#FFFFFF" rx="3" ry="3" style="stroke:#000000;stroke-width:1.0;"/><text fill="#000000" font-family="Hack" font-size="14" lengthAdjust="spacing" textLength="74.2837" x="283.79" y="1067.7717">&#1054;&#1095;&#1080;&#1089;&#1090;&#1080;&#1090;&#1100;()</text></g><!--class part--><g id="elem_part"><rect codeLine="49" fill="#FFFFFF" height="45.0679" id="part" rx="2.5" ry="2.5" style="stroke:#000000;stroke-width:1.0;" width="139.6795" x="362.29" y="1154.602"/><ellipse cx="374.29" cy="1169.1359" fill="#FFFFFF" rx="8" ry="8" style="stroke:#000000;stroke-width:1.0;"/><path d="M375.3681,1166.4641 Q375.4463,1166.3391 375.5556,1166.2766 Q375.6806,1166.2141 375.8056,1166.2141 Q376.0244,1166.2141 376.165,1166.3703 Q376.3056,1166.5266 376.3056,1166.8859 L376.3056,1167.7297 Q376.3056,1168.0891 376.165,1168.2453 Q376.0244,1168.4016 375.8056,1168.4016 Q375.6025,1168.4016 375.4775,1168.2922 Q375.3525,1168.1828 375.29,1167.8703 Q375.2588,1167.6672 375.165,1167.5578 Q374.9619,1167.3234 374.6025,1167.1984 Q374.2431,1167.0734 373.8838,1167.0734 Q373.4306,1167.0734 373.0556,1167.2766 Q372.6806,1167.4641 372.3838,1167.9016 Q372.1025,1168.3391 372.1025,1168.9484 L372.1025,1169.5891 Q372.1025,1170.3078 372.6181,1170.7922 Q373.1494,1171.2766 374.0869,1171.2766 Q374.6494,1171.2766 375.0244,1171.1359 Q375.2588,1171.0422 375.5088,1170.7766 Q375.665,1170.6203 375.7431,1170.5734 Q375.8369,1170.5266 375.9463,1170.5266 Q376.1494,1170.5266 376.3056,1170.6828 Q376.4619,1170.8391 376.4619,1171.0422 Q376.4619,1171.2453 376.2431,1171.4797 Q375.9463,1171.8234 375.4775,1172.0109 Q374.8525,1172.2766 374.0869,1172.2766 Q373.1963,1172.2766 372.4931,1171.9172 Q371.915,1171.6203 371.5088,1170.9953 Q371.1025,1170.3547 371.1025,1169.6047 L371.1025,1168.9328 Q371.1025,1168.1516 371.4619,1167.4797 Q371.8369,1166.7922 372.4775,1166.4328 Q373.1181,1166.0734 373.8369,1166.0734 Q374.2744,1166.0734 374.6494,1166.1672 Q375.04,1166.2609 375.3681,1166.4641 Z " fill="#000000"/><text fill="#000000" font-family="Hack" font-size="14" lengthAdjust="spacing" textLength="113.6795" x="385.29" y="1174.5679">&#1050;&#1086;&#1084;&#1087;&#1083;&#1077;&#1082;&#1090;&#1091;&#1102;&#1097;&#1077;&#1077;</text><line style="stroke:#000000;stroke-width:1.0;" x1="363.29" x2="500.9695" y1="1183.6699" y2="1183.6699"/><line style="stroke:#000000;stroke-width:1.0;" x1="363.29" x2="500.9695" y1="1191.6699" y2="1191.6699"/></g><!--class pcConfig--><g id="elem_pcConfig"><rect codeLine="53" fill="#FFFFFF" height="45.0679" id="pcConfig" rx="2.5" ry="2.5" style="stroke:#000000;stroke-width:1.0;" width="145.4196" x="173.79" y="1154.602"/><ellipse cx="185.79" cy="1169.1359" fill="#FFFFFF" rx="8" ry="8" style="stroke:#000000;stroke-width:1.0;"/><path d="M186.8681,1166.4641 Q186.9463,1166.3391 187.0556,1166.2766 Q187.1806,1166.2141 187.3056,1166.2141 Q187.5244,1166.2141 187.665,1166.3703 Q187.8056,1166.5266 187.8056,1166.8859 L187.8056,1167.7297 Q187.8056,1168.0891 187.665,1168.2453 Q187.5244,1168.4016 187.3056,1168.4016 Q187.1025,1168.4016 186.9775,1168.2922 Q186.8525,1168.1828 186.79,1167.8703 Q186.7588,1167.6672 186.665,1167.5578 Q186.4619,1167.3234 186.1025,1167.1984 Q185.7431,1167.0734 185.3838,1167.0734 Q184.9306,1167.0734 184.5556,1167.2766 Q184.1806,1167.4641 183.8838,1167.9016 Q183.6025,1168.3391 183.6025,1168.9484 L183.6025,1169.5891 Q183.6025,1170.3078 184.1181,1170.7922 Q184.6494,1171.2766 185.5869,1171.2766 Q186.1494,1171.2766 186.5244,1171.1359 Q186.7588,1171.0422 187.0088,1170.7766 Q187.165,1170.6203 187.2431,1170.5734 Q187.3369,1170.5266 187.4463,1170.5266 Q187.6494,1170.5266 187.8056,1170.6828 Q187.9619,1170.8391 187.9619,1171.0422 Q187.9619,1171.2453 187.7431,1171.4797 Q187.4463,1171.8234 186.9775,1172.0109 Q186.3525,1172.2766 185.5869,1172.2766 Q184.6963,1172.2766 183.9931,1171.9172 Q183.415,1171.6203 183.0088,1170.9953 Q182.6025,1170.3547 182.6025,1169.6047 L182.6025,1168.9328 Q182.6025,1168.1516 182.9619,1167.4797 Q183.3369,1166.7922 183.9775,1166.4328 Q184.6181,1166.0734 185.3369,1166.0734 Q185.7744,1166.0734 186.1494,1166.1672 Q186.54,1166.2609 186.8681,1166.4641 Z " fill="#000000"/><text fill="#000000" font-family="Hack" font-size="14" lengthAdjust="spacing" textLength="119.4196" x="196.79" y="1174.5679">&#1050;&#1086;&#1085;&#1092;&#1080;&#1075;&#1091;&#1088;&#1072;&#1094;&#1080;&#1103;&#1055;&#1050;</text><line style="stroke:#000000;stroke-width:1.0;" x1="174.79" x2="318.2096" y1="1183.6699" y2="1183.6699"/><line style="stroke:#000000;stroke-width:1.0;" x1="174.79" x2="318.2096" y1="1191.6699" y2="1191.6699"/></g><!--reverse link item to part--><g id="link_item_part"><path d="M230.4921,1060.3227 C239.5221,1069.6327 238.14,1067.322 249.29,1075.602 C292.21,1107.482 346.42,1135.992 384.67,1154.422 " fill="none" id="item-backto-part" style="stroke:#000000;stroke-width:1.0;"/><polygon fill="none" points="217.96,1047.402,226.1852,1064.5001,234.7991,1056.1453,217.96,1047.402" style="stroke:#000000;stroke-width:1.0;"/></g><!--reverse link item to pcConfig--><g id="link_item_pcConfig"><path d="M210.6368,1064.3117 C219.7568,1092.9217 230.31,1125.992 239.43,1154.582 " fill="none" id="item-backto-pcConfig" style="stroke:#000000;stroke-width:1.0;"/><polygon fill="none" points="205.17,1047.162,204.9202,1066.134,216.3534,1062.4895,205.17,1047.162" style="stroke:#000000;stroke-width:1.0;"/></g><!--link basket to item--><g id="link_basket_item"><path codeLine="59" d="M260.73,912.762 C245.56,939.702 226.9446,972.7342 213.5446,996.5242 " fill="none" id="basket-to-item" style="stroke:#000000;stroke-width:1.0;stroke-dasharray:7.0,7.0;"/><polygon fill="#000000" points="210.6,1001.752,218.5021,995.8734,213.0538,997.3955,211.5317,991.9473,210.6,1001.752" style="stroke:#000000;stroke-width:1.0;"/></g><!--reverse link slot to part--><g id="link_slot_part"><path codeLine="60" d="M432.29,1081.712 C432.29,1108.392 432.29,1133.832 432.29,1154.332 " fill="none" id="slot-backto-part" style="stroke:#000000;stroke-width:1.0;"/><polygon fill="#000000" points="432.29,1075.712,428.29,1084.712,432.29,1080.712,436.29,1084.712,432.29,1075.712" style="stroke:#000000;stroke-width:1.0;"/><text fill="#000000" font-family="Hack" font-size="13" lengthAdjust="spacing" textLength="92.7551" x="433.29" y="1120.499">&#1059;&#1089;&#1090;&#1072;&#1085;&#1086;&#1074;&#1083;&#1077;&#1085;&#1072; &#1074;</text><text fill="#000000" font-family="Hack" font-size="13" lengthAdjust="spacing" textLength="7.436" x="424.8208" y="1097.6483">0</text><text fill="#000000" font-family="Hack" font-size="13" lengthAdjust="spacing" textLength="7.436" x="424.451" y="1142.9109">1</text></g><!--link partManager to slot--><g id="link_partManager_slot"><path codeLine="62" d="M465.81,617.862 C488.05,634.042 508.72,654.232 521.29,678.602 C571.55,776.042 512.6925,898.8369 469.7925,968.3069 " fill="none" id="partManager-to-slot" style="stroke:#000000;stroke-width:1.0;stroke-dasharray:7.0,7.0;"/><polygon fill="#000000" points="466.64,973.412,474.7722,967.8561,469.2671,969.1578,467.9654,963.6527,466.64,973.412" style="stroke:#000000;stroke-width:1.0;"/></g><!--link partManager to part--><g id="link_partManager_part"><path codeLine="63" d="M623.32,600.592 C679.38,622.812 722.29,659.352 722.29,719.102 C722.29,719.102 722.29,719.102 722.29,1025.602 C722.29,1073.932 715,1094.372 677.29,1124.602 C650.75,1145.872 571.0507,1159.6145 508.4807,1167.6845 " fill="none" id="partManager-to-part" style="stroke:#000000;stroke-width:1.0;stroke-dasharray:7.0,7.0;"/><polygon fill="#000000" points="502.53,1168.452,511.9677,1171.2679,507.4889,1167.8124,510.9444,1163.3336,502.53,1168.452" style="stroke:#000000;stroke-width:1.0;"/></g><!--link partManager to pcConfig--><g id="link_partManager_pcConfig"><path codeLine="64" d="M580.59,617.762 C621.23,640.142 651.29,672.462 651.29,719.102 C651.29,719.102 651.29,719.102 651.29,1025.602 C651.29,1173.192 490.35,1127.362 345.29,1154.602 C336.73,1156.212 333.6549,1156.7833 324.7849,1158.6233 " fill="none" id="partManager-to-pcConfig" style="stroke:#000000;stroke-width:1.0;"/><polygon fill="#000000" points="318.91,1159.842,328.5349,1161.9306,323.8058,1158.8264,326.9099,1154.0973,318.91,1159.842" style="stroke:#000000;stroke-width:1.0;"/></g><!--link pcBuild to partBuild--><g id="link_pcBuild_partBuild"><path codeLine="66" d="M312.3,228.842 C322.4,255.202 331.0827,277.8394 340.2927,301.8694 " fill="none" id="pcBuild-to-partBuild" style="stroke:#000000;stroke-width:1.0;stroke-dasharray:7.0,7.0;"/><polygon fill="#000000" points="342.44,307.472,342.9541,297.6366,340.6506,302.8032,335.484,300.4996,342.44,307.472" style="stroke:#000000;stroke-width:1.0;"/><text fill="#000000" font-family="Hack" font-size="13" lengthAdjust="spacing" textLength="50.817" x="330.29" y="273.499">&#1057;&#1086;&#1079;&#1076;&#1072;&#1105;&#1090;</text></g><!--link pcBuild to partManager--><g id="link_pcBuild_partManager"><path codeLine="68" d="M225.28,228.692 C193.82,293.582 166.58,382.232 203.29,452.602 C216.53,477.992 233.472,495.3665 256.892,511.9365 " fill="none" id="pcBuild-to-partManager" style="stroke:#000000;stroke-width:1.0;"/><polygon fill="#000000" points="261.79,515.402,256.7532,506.9385,257.7083,512.5141,252.1327,513.4692,261.79,515.402" style="stroke:#000000;stroke-width:1.0;"/></g><!--link partBuild to partManager--><g id="link_partBuild_partManager"><path codeLine="69" d="M365.29,428.862 C365.29,456.522 365.29,483.022 365.29,509.392 " fill="none" id="partBuild-to-partManager" style="stroke:#000000;stroke-width:1.0;"/><polygon fill="#000000" points="365.29,515.392,369.29,506.392,365.29,510.392,361.29,506.392,365.29,515.392" style="stroke:#000000;stroke-width:1.0;"/></g><!--link pcBuild to basketManager--><g id="link_pcBuild_basketManager"><path codeLine="71" d="M195.93,228.892 C113.98,328.502 11,492.492 90.29,617.602 C107.14,644.182 127.7001,661.1673 155.7501,675.7973 " fill="none" id="pcBuild-to-basketManager" style="stroke:#000000;stroke-width:1.0;"/><polygon fill="#000000" points="161.07,678.572,154.94,670.8634,156.6368,676.2597,151.2404,677.9565,161.07,678.572" style="stroke:#000000;stroke-width:1.0;"/></g><!--link partManager to basketManager--><g id="link_partManager_basketManager"><path codeLine="72" d="M345.48,617.632 C337.69,637.282 331.0793,653.9735 323.6893,672.6335 " fill="none" id="partManager-to-basketManager" style="stroke:#000000;stroke-width:1.0;"/><polygon fill="#000000" points="321.48,678.212,328.5129,671.3171,323.321,673.5633,321.0749,668.3715,321.48,678.212" style="stroke:#000000;stroke-width:1.0;"/></g><!--link basketManager to basket--><g id="link_basketManager_basket"><path codeLine="74" d="M298.34,761.922 C293.74,788.882 288.8285,817.7673 284.6085,842.5173 " fill="none" id="basketManager-to-basket" style="stroke:#000000;stroke-width:1.0;stroke-dasharray:7.0,7.0;"/><polygon fill="#000000" points="283.6,848.432,289.0558,840.2323,284.4404,843.5031,281.1696,838.8877,283.6,848.432" style="stroke:#000000;stroke-width:1.0;"/></g><!--SRC=[dLPDRzf04BtxLsnzWhQWv8gg75Brs5zGvU22cw80Zi2HMaL8VBHDgrQqYNhA8H7qNCcGM10Iu2_i_gE-MHkpnck8Ya7oxkoycNtpPfSdxdkxQhEgKtCCmpYsYaVMeStCVUUaLhBg7qrsQZ1yYXMhqM0c_ykdeiKzFkDzFkHpl4_vX5_pIvDP3NPSt3yfLqgX3tsUCHZdV2BQV9efyBxem6KE9ozRO0hQ9IOV-8BVSnzp7T4LFV4DRfzLf3-YBJfo-PoFOEo87nGQZmV4WNJjaXk_Goo2d8bF6DrW5c745_Zyp6v37C1ZeQ3v_0PMn05cOCDx3EKtx4EWh12KJ6I65vGDSXXZPYQwcPZxbJWZWf18YdjcQyxNmFRvBPnK6v4vetYYby96xv4yNN0V5aAYQ7rmG1MbEcgzmJ-LDmNvpKu-__H0mZUD57MbwY7GcLLtTKg3ymHkjEkbElJQY_DvXjsrmvqHRm_1M6BD5KiVwSmnZzG8BnYjbPAiGnbd7EQmP0kDajae6_sUVJnw-JIDfjAnBvsQMtSg5RkkwzasS552fBUTsTTM3OZr9BTG69mNuPlFxyMvrDTtlEjrC7cK2i8G_G0K2uYDNtmaoLpWTnkSDGhf8QwMhZWc5PHs_ZKX2T3foTsWni1Jz46vxHuyPr6yO69Zr7HLAxMJPDt5Ao9vVsirZcmzy-ioqPqdyIvkYQwsY_zVS8NqjJejlggvPJTnTwWyUCgkDsytcSf0rjGJhQoExSWg8vHTktfgwDQ5bPMh6XN7JSezL4xKnYb7mtPoqW_kH_kktH6PR8hGz51HQpFxWslNIW4lJ4zCIhygbpoEcdVbmpGiVCEwvlDxqcX8ViqTaxt8vPYvQyfS2kkC1DULn_Y8CHBJwYGY8C98JD8uDfdBxKK90YFyFx9SAaU5u5GOurJnnBdeh9Qnm7q5PwmkcdLBv4I6MFScyebRZNYhKseXNSO_]--></g></svg>