<svg xmlns="http://www.w3.org/2000/svg" xmlns:xlink="http://www.w3.org/1999/xlink" contentStyleType="text/css" height="1279px" preserveAspectRatio="none" style="width:728px;height:1279px;background:#FFFFFF;" version="1.1" viewBox="0 0 728 1279" width="728px" zoomAndPan="magnify"><defs/><g><!--cluster Boundary--><g id="cluster_Boundary"><path d="M36.9,11.602 L106.0097,11.602 A3.75,3.75 0 0 1 108.5097,14.102 L115.5097,36.6699 L525.9,36.6699 A2.5,2.5 0 0 1 528.4,39.1699 L528.4,480.102 A2.5,2.5 0 0 1 525.9,482.602 L36.9,482.602 A2.5,2.5 0 0 1 34.4,480.102 L34.4,14.102 A2.5,2.5 0 0 1 36.9,11.602 " fill="#FFFFFF" style="stroke:#000000;stroke-width:1.0;"/><line style="stroke:#000000;stroke-width:1.0;" x1="34.4" x2="115.5097" y1="36.6699" y2="36.6699"/><text fill="#000000" font-family="Hack" font-size="14" font-weight="bold" lengthAdjust="spacing" textLength="68.1097" x="38.4" y="28.5679">Boundary</text></g><!--cluster Controller--><g id="cluster_Controller"><path d="M96.9,515.602 L168.9497,515.602 A3.75,3.75 0 0 1 171.4497,518.102 L178.4497,540.6699 L639.9,540.6699 A2.5,2.5 0 0 1 642.4,543.1699 L642.4,813.102 A2.5,2.5 0 0 1 639.9,815.602 L96.9,815.602 A2.5,2.5 0 0 1 94.4,813.102 L94.4,518.102 A2.5,2.5 0 0 1 96.9,515.602 " fill="#FFFFFF" style="stroke:#000000;stroke-width:1.0;"/><line style="stroke:#000000;stroke-width:1.0;" x1="94.4" x2="178.4497" y1="540.6699" y2="540.6699"/><text fill="#000000" font-family="Hack" font-size="14" font-weight="bold" lengthAdjust="spacing" textLength="71.0497" x="98.4" y="532.5679">Controller</text></g><!--cluster Entity--><g id="cluster_Entity"><path d="M110.9,848.602 L153.3258,848.602 A3.75,3.75 0 0 1 155.8258,851.102 L162.8258,873.6699 L618.9,873.6699 A2.5,2.5 0 0 1 621.4,876.1699 L621.4,1270.102 A2.5,2.5 0 0 1 618.9,1272.602 L110.9,1272.602 A2.5,2.5 0 0 1 108.4,1270.102 L108.4,851.102 A2.5,2.5 0 0 1 110.9,848.602 " fill="#FFFFFF" style="stroke:#000000;stroke-width:1.0;"/><line style="stroke:#000000;stroke-width:1.0;" x1="108.4" x2="162.8258" y1="873.6699" y2="873.6699"/><text fill="#000000" font-family="Hack" font-size="14" font-weight="bold" lengthAdjust="spacing" textLength="41.4258" x="112.4" y="865.5679">Entity</text></g><!--class pcBuild--><g id="elem_pcBuild"><rect codeLine="3" fill="#FFFFFF" height="197.6113" id="pcBuild" rx="2.5" ry="2.5" style="stroke:#000000;stroke-width:1.0;" width="460.8764" x="50.9" y="49.602"/><ellipse cx="222.2094" cy="64.1359" fill="#FFFFFF" rx="8" ry="8" style="stroke:#000000;stroke-width:1.0;"/><path d="M223.2875,61.4641 Q223.3656,61.3391 223.475,61.2766 Q223.6,61.2141 223.725,61.2141 Q223.9438,61.2141 224.0844,61.3703 Q224.225,61.5266 224.225,61.8859 L224.225,62.7297 Q224.225,63.0891 224.0844,63.2453 Q223.9438,63.4016 223.725,63.4016 Q223.5219,63.4016 223.3969,63.2922 Q223.2719,63.1828 223.2094,62.8703 Q223.1781,62.6672 223.0844,62.5578 Q222.8813,62.3234 222.5219,62.1984 Q222.1625,62.0734 221.8031,62.0734 Q221.35,62.0734 220.975,62.2766 Q220.6,62.4641 220.3031,62.9016 Q220.0219,63.3391 220.0219,63.9484 L220.0219,64.5891 Q220.0219,65.3078 220.5375,65.7922 Q221.0688,66.2766 222.0063,66.2766 Q222.5688,66.2766 222.9438,66.1359 Q223.1781,66.0422 223.4281,65.7766 Q223.5844,65.6203 223.6625,65.5734 Q223.7563,65.5266 223.8656,65.5266 Q224.0688,65.5266 224.225,65.6828 Q224.3813,65.8391 224.3813,66.0422 Q224.3813,66.2453 224.1625,66.4797 Q223.8656,66.8234 223.3969,67.0109 Q222.7719,67.2766 222.0063,67.2766 Q221.1156,67.2766 220.4125,66.9172 Q219.8344,66.6203 219.4281,65.9953 Q219.0219,65.3547 219.0219,64.6047 L219.0219,63.9328 Q219.0219,63.1516 219.3813,62.4797 Q219.7563,61.7922 220.3969,61.4328 Q221.0375,61.0734 221.7563,61.0734 Q222.1938,61.0734 222.5688,61.1672 Q222.9594,61.2609 223.2875,61.4641 Z " fill="#000000"/><text fill="#000000" font-family="Hack" font-size="14" lengthAdjust="spacing" textLength="111.2576" x="238.2094" y="69.5679">&#1069;&#1082;&#1088;&#1072;&#1085;&#1057;&#1073;&#1086;&#1088;&#1082;&#1080;&#1055;&#1050;</text><line style="stroke:#000000;stroke-width:1.0;" x1="51.9" x2="510.7764" y1="78.6699" y2="78.6699"/><line style="stroke:#000000;stroke-width:1.0;" x1="51.9" x2="510.7764" y1="86.6699" y2="86.6699"/><ellipse cx="61.9" cy="101.7039" fill="#FFFFFF" rx="3" ry="3" style="stroke:#000000;stroke-width:1.0;"/><text fill="#000000" font-family="Hack" font-size="14" lengthAdjust="spacing" textLength="265.173" x="67.9" y="105.6358">&#1055;&#1086;&#1080;&#1089;&#1082;(:&#1057;&#1090;&#1088;&#1086;&#1082;&#1072;): &#1069;&#1082;&#1088;&#1072;&#1085;&#1050;&#1086;&#1084;&#1087;&#1083;&#1077;&#1082;&#1090;&#1091;&#1102;&#1097;&#1080;&#1093;</text><ellipse cx="61.9" cy="120.7718" fill="#FFFFFF" rx="3" ry="3" style="stroke:#000000;stroke-width:1.0;"/><text fill="#000000" font-family="Hack" font-size="14" lengthAdjust="spacing" textLength="312.3108" x="67.9" y="124.7038">&#1053;&#1072;&#1089;&#1090;&#1088;&#1086;&#1080;&#1090;&#1100;&#1057;&#1083;&#1086;&#1090;(:&#1057;&#1083;&#1086;&#1090;): &#1069;&#1082;&#1088;&#1072;&#1085;&#1050;&#1086;&#1084;&#1087;&#1083;&#1077;&#1082;&#1090;&#1091;&#1102;&#1097;&#1080;&#1093;</text><ellipse cx="61.9" cy="139.8397" fill="#FFFFFF" rx="3" ry="3" style="stroke:#000000;stroke-width:1.0;"/><text fill="#000000" font-family="Hack" font-size="14" lengthAdjust="spacing" textLength="295.8049" x="67.9" y="143.7717">&#1059;&#1089;&#1090;&#1072;&#1085;&#1086;&#1074;&#1080;&#1090;&#1100;&#1055;&#1050;&#1050;&#1072;&#1082;&#1058;&#1077;&#1082;&#1091;&#1097;&#1080;&#1081;(:&#1050;&#1086;&#1085;&#1092;&#1080;&#1075;&#1091;&#1088;&#1072;&#1094;&#1080;&#1103;)</text><ellipse cx="61.9" cy="158.9076" fill="#FFFFFF" rx="3" ry="3" style="stroke:#000000;stroke-width:1.0;"/><text fill="#000000" font-family="Hack" font-size="14" lengthAdjust="spacing" textLength="245.713" x="67.9" y="162.8396">&#1059;&#1089;&#1090;&#1072;&#1085;&#1086;&#1074;&#1080;&#1090;&#1100;&#1058;&#1080;&#1087;&#1058;&#1077;&#1082;&#1091;&#1097;&#1077;&#1075;&#1086;&#1055;&#1050;(:&#1058;&#1080;&#1087;&#1055;&#1050;)</text><ellipse cx="61.9" cy="177.9755" fill="#FFFFFF" rx="3" ry="3" style="stroke:#000000;stroke-width:1.0;"/><text fill="#000000" font-family="Hack" font-size="14" lengthAdjust="spacing" textLength="221.3811" x="67.9" y="181.9075">&#1044;&#1086;&#1073;&#1072;&#1074;&#1080;&#1090;&#1100;&#1058;&#1077;&#1082;&#1091;&#1097;&#1080;&#1081;&#1055;&#1050;&#1042;&#1050;&#1086;&#1088;&#1079;&#1080;&#1085;&#1091;()</text><ellipse cx="61.9" cy="197.0434" fill="#FFFFFF" rx="3" ry="3" style="stroke:#000000;stroke-width:1.0;"/><text fill="#000000" font-family="Hack" font-size="14" lengthAdjust="spacing" textLength="154.0834" x="67.9" y="200.9754">&#1054;&#1095;&#1080;&#1089;&#1090;&#1080;&#1090;&#1100;&#1058;&#1077;&#1082;&#1091;&#1097;&#1080;&#1081;&#1055;&#1050;()</text><ellipse cx="61.9" cy="216.1114" fill="#FFFFFF" rx="3" ry="3" style="stroke:#000000;stroke-width:1.0;"/><text fill="#000000" font-family="Hack" font-size="14" lengthAdjust="spacing" textLength="437.8764" x="67.9" y="220.0433">&#1059;&#1089;&#1090;&#1072;&#1085;&#1086;&#1074;&#1080;&#1090;&#1100;&#1055;&#1088;&#1077;&#1076;&#1091;&#1089;&#1090;&#1072;&#1085;&#1086;&#1074;&#1083;&#1077;&#1085;&#1085;&#1091;&#1102;&#1050;&#1086;&#1085;&#1092;&#1080;&#1075;&#1091;&#1088;&#1072;&#1094;&#1080;&#1102;(:&#1050;&#1086;&#1085;&#1092;&#1080;&#1075;&#1091;&#1088;&#1072;&#1094;&#1080;&#1103;)</text><ellipse cx="61.9" cy="235.1793" fill="#FFFFFF" rx="3" ry="3" style="stroke:#000000;stroke-width:1.0;"/><text fill="#000000" font-family="Hack" font-size="14" lengthAdjust="spacing" textLength="356.2987" x="67.9" y="239.1113">&#1042;&#1077;&#1088;&#1085;&#1091;&#1090;&#1100;&#1057;&#1087;&#1080;&#1089;&#1086;&#1082;&#1050;&#1086;&#1085;&#1092;&#1080;&#1075;&#1091;&#1088;&#1072;&#1094;&#1080;&#1081;(): &#1050;&#1086;&#1085;&#1092;&#1080;&#1075;&#1091;&#1088;&#1072;&#1094;&#1080;&#1103;[0..*]</text></g><!--class partBuild--><g id="elem_partBuild"><rect codeLine="14" fill="#FFFFFF" height="140.4075" id="partBuild" rx="2.5" ry="2.5" style="stroke:#000000;stroke-width:1.0;" width="289.1669" x="223.9" y="326.602"/><ellipse cx="287.0108" cy="341.1359" fill="#FFFFFF" rx="8" ry="8" style="stroke:#000000;stroke-width:1.0;"/><path d="M288.0889,338.4641 Q288.167,338.3391 288.2764,338.2766 Q288.4014,338.2141 288.5264,338.2141 Q288.7451,338.2141 288.8858,338.3703 Q289.0264,338.5266 289.0264,338.8859 L289.0264,339.7297 Q289.0264,340.0891 288.8858,340.2453 Q288.7451,340.4016 288.5264,340.4016 Q288.3233,340.4016 288.1983,340.2922 Q288.0733,340.1828 288.0108,339.8703 Q287.9795,339.6672 287.8858,339.5578 Q287.6826,339.3234 287.3233,339.1984 Q286.9639,339.0734 286.6045,339.0734 Q286.1514,339.0734 285.7764,339.2766 Q285.4014,339.4641 285.1045,339.9016 Q284.8233,340.3391 284.8233,340.9484 L284.8233,341.5891 Q284.8233,342.3078 285.3389,342.7922 Q285.8701,343.2766 286.8076,343.2766 Q287.3701,343.2766 287.7451,343.1359 Q287.9795,343.0422 288.2295,342.7766 Q288.3858,342.6203 288.4639,342.5734 Q288.5576,342.5266 288.667,342.5266 Q288.8701,342.5266 289.0264,342.6828 Q289.1826,342.8391 289.1826,343.0422 Q289.1826,343.2453 288.9639,343.4797 Q288.667,343.8234 288.1983,344.0109 Q287.5733,344.2766 286.8076,344.2766 Q285.917,344.2766 285.2139,343.9172 Q284.6358,343.6203 284.2295,342.9953 Q283.8233,342.3547 283.8233,341.6047 L283.8233,340.9328 Q283.8233,340.1516 284.1826,339.4797 Q284.5576,338.7922 285.1983,338.4328 Q285.8389,338.0734 286.5576,338.0734 Q286.9951,338.0734 287.3701,338.1672 Q287.7608,338.2609 288.0889,338.4641 Z " fill="#000000"/><text fill="#000000" font-family="Hack" font-size="14" lengthAdjust="spacing" textLength="155.9454" x="303.0108" y="346.5679">&#1069;&#1082;&#1088;&#1072;&#1085;&#1050;&#1086;&#1084;&#1087;&#1083;&#1077;&#1082;&#1090;&#1091;&#1102;&#1097;&#1080;&#1093;</text><line style="stroke:#000000;stroke-width:1.0;" x1="224.9" x2="512.0669" y1="355.6699" y2="355.6699"/><line style="stroke:#000000;stroke-width:1.0;" x1="224.9" x2="512.0669" y1="363.6699" y2="363.6699"/><ellipse cx="234.9" cy="378.7039" fill="#FFFFFF" rx="3" ry="3" style="stroke:#000000;stroke-width:1.0;"/><text fill="#000000" font-family="Hack" font-size="14" lengthAdjust="spacing" textLength="180.9213" x="240.9" y="382.6358">&#1055;&#1088;&#1080;&#1084;&#1077;&#1085;&#1080;&#1090;&#1100;&#1055;&#1086;&#1080;&#1089;&#1082;(:&#1057;&#1090;&#1088;&#1086;&#1082;&#1072;)</text><ellipse cx="234.9" cy="397.7718" fill="#FFFFFF" rx="3" ry="3" style="stroke:#000000;stroke-width:1.0;"/><text fill="#000000" font-family="Hack" font-size="14" lengthAdjust="spacing" textLength="266.1669" x="240.9" y="401.7038">&#1059;&#1095;&#1077;&#1089;&#1090;&#1100;&#1057;&#1086;&#1074;&#1084;&#1077;&#1089;&#1090;&#1080;&#1084;&#1086;&#1089;&#1090;&#1100;&#1057;&#1086;&#1057;&#1083;&#1086;&#1090;&#1086;&#1084;(:&#1057;&#1083;&#1086;&#1090;)</text><ellipse cx="234.9" cy="416.8397" fill="#FFFFFF" rx="3" ry="3" style="stroke:#000000;stroke-width:1.0;"/><text fill="#000000" font-family="Hack" font-size="14" lengthAdjust="spacing" textLength="140.4895" x="240.9" y="420.7717">&#1054;&#1090;&#1086;&#1073;&#1088;&#1086;&#1079;&#1080;&#1090;&#1100;&#1057;&#1087;&#1080;&#1089;&#1082;&#1080;()</text><ellipse cx="234.9" cy="435.9076" fill="#FFFFFF" rx="3" ry="3" style="stroke:#000000;stroke-width:1.0;"/><text fill="#000000" font-family="Hack" font-size="14" lengthAdjust="spacing" textLength="255.261" x="240.9" y="439.8396">&#1044;&#1086;&#1073;&#1072;&#1074;&#1080;&#1090;&#1100;&#1050;&#1086;&#1084;&#1087;&#1083;&#1077;&#1082;&#1090;&#1091;&#1102;&#1097;&#1077;&#1077;&#1042;&#1050;&#1086;&#1088;&#1079;&#1080;&#1085;&#1091;()</text><ellipse cx="234.9" cy="454.9755" fill="#FFFFFF" rx="3" ry="3" style="stroke:#000000;stroke-width:1.0;"/><text fill="#000000" font-family="Hack" font-size="14" lengthAdjust="spacing" textLength="181.9012" x="240.9" y="458.9075">&#1042;&#1099;&#1073;&#1088;&#1072;&#1090;&#1100;&#1050;&#1086;&#1084;&#1087;&#1083;&#1077;&#1082;&#1090;&#1091;&#1102;&#1097;&#1077;&#1077;()</text></g><!--class partManager--><g id="elem_partManager"><rect codeLine="24" fill="#FFFFFF" height="102.2717" id="partManager" rx="2.5" ry="2.5" style="stroke:#000000;stroke-width:1.0;" width="516.3581" x="110.4" y="553.602"/><ellipse cx="280.4844" cy="568.1359" fill="#FFFFFF" rx="8" ry="8" style="stroke:#000000;stroke-width:1.0;"/><path d="M281.5625,565.4641 Q281.6406,565.3391 281.75,565.2766 Q281.875,565.2141 282,565.2141 Q282.2187,565.2141 282.3594,565.3703 Q282.5,565.5266 282.5,565.8859 L282.5,566.7297 Q282.5,567.0891 282.3594,567.2453 Q282.2187,567.4016 282,567.4016 Q281.7969,567.4016 281.6719,567.2922 Q281.5469,567.1828 281.4844,566.8703 Q281.4531,566.6672 281.3594,566.5578 Q281.1562,566.3234 280.7969,566.1984 Q280.4375,566.0734 280.0781,566.0734 Q279.625,566.0734 279.25,566.2766 Q278.875,566.4641 278.5781,566.9016 Q278.2969,567.3391 278.2969,567.9484 L278.2969,568.5891 Q278.2969,569.3078 278.8125,569.7922 Q279.3437,570.2766 280.2812,570.2766 Q280.8437,570.2766 281.2187,570.1359 Q281.4531,570.0422 281.7031,569.7766 Q281.8594,569.6203 281.9375,569.5734 Q282.0312,569.5266 282.1406,569.5266 Q282.3437,569.5266 282.5,569.6828 Q282.6562,569.8391 282.6562,570.0422 Q282.6562,570.2453 282.4375,570.4797 Q282.1406,570.8234 281.6719,571.0109 Q281.0469,571.2766 280.2812,571.2766 Q279.3906,571.2766 278.6875,570.9172 Q278.1094,570.6203 277.7031,569.9953 Q277.2969,569.3547 277.2969,568.6047 L277.2969,567.9328 Q277.2969,567.1516 277.6562,566.4797 Q278.0312,565.7922 278.6719,565.4328 Q279.3125,565.0734 280.0312,565.0734 Q280.4687,565.0734 280.8437,565.1672 Q281.2344,565.2609 281.5625,565.4641 Z " fill="#000000"/><text fill="#000000" font-family="Hack" font-size="14" lengthAdjust="spacing" textLength="169.1893" x="296.4844" y="573.5679">&#1069;&#1082;&#1089;&#1087;&#1077;&#1088;&#1090;&#1050;&#1086;&#1084;&#1087;&#1083;&#1077;&#1082;&#1090;&#1091;&#1102;&#1097;&#1080;&#1093;</text><line style="stroke:#000000;stroke-width:1.0;" x1="111.4" x2="625.7581" y1="582.6699" y2="582.6699"/><ellipse cx="121.4" cy="597.7039" fill="none" rx="3" ry="3" style="stroke:#000000;stroke-width:1.0;"/><text fill="#000000" font-family="Hack" font-size="14" lengthAdjust="spacing" textLength="379.3006" x="127.4" y="601.6358">&#1055;&#1088;&#1077;&#1076;&#1086;&#1087;&#1088;&#1077;&#1076;&#1077;&#1083;&#1105;&#1085;&#1085;&#1099;&#1077;&#1050;&#1086;&#1085;&#1092;&#1080;&#1075;&#1091;&#1088;&#1072;&#1094;&#1080;&#1080;: &#1050;&#1086;&#1085;&#1092;&#1080;&#1075;&#1091;&#1088;&#1072;&#1094;&#1080;&#1103;[0..*]</text><line style="stroke:#000000;stroke-width:1.0;" x1="111.4" x2="625.7581" y1="609.7378" y2="609.7378"/><ellipse cx="121.4" cy="624.7718" fill="#FFFFFF" rx="3" ry="3" style="stroke:#000000;stroke-width:1.0;"/><text fill="#000000" font-family="Hack" font-size="14" lengthAdjust="spacing" textLength="304.0507" x="127.4" y="628.7038">&#1057;&#1076;&#1077;&#1083;&#1072;&#1090;&#1100;&#1040;&#1074;&#1090;&#1086;&#1087;&#1086;&#1076;&#1073;&#1086;&#1088;(:&#1057;&#1083;&#1086;&#1090;): &#1050;&#1086;&#1084;&#1087;&#1083;&#1077;&#1082;&#1090;&#1091;&#1102;&#1097;&#1077;&#1077;</text><ellipse cx="121.4" cy="643.8397" fill="#FFFFFF" rx="3" ry="3" style="stroke:#000000;stroke-width:1.0;"/><text fill="#000000" font-family="Hack" font-size="14" lengthAdjust="spacing" textLength="493.3581" x="127.4" y="647.7717">&#1057;&#1086;&#1074;&#1077;&#1088;&#1096;&#1080;&#1090;&#1100;&#1055;&#1086;&#1080;&#1089;&#1082;(&#1079;&#1072;&#1087;&#1088;&#1086;&#1089;: &#1057;&#1090;&#1088;&#1086;&#1082;&#1072;[0..1], :&#1057;&#1083;&#1086;&#1090;[0..1]): &#1050;&#1086;&#1084;&#1087;&#1083;&#1077;&#1082;&#1090;&#1091;&#1102;&#1097;&#1077;&#1077;[0..*]</text></g><!--class basketManager--><g id="elem_basketManager"><rect codeLine="30" fill="#FFFFFF" height="83.2038" id="basketManager" rx="2.5" ry="2.5" style="stroke:#000000;stroke-width:1.0;" width="395.6925" x="110.4" y="716.602"/><ellipse cx="237.6375" cy="731.1359" fill="#FFFFFF" rx="8" ry="8" style="stroke:#000000;stroke-width:1.0;"/><path d="M238.7156,728.4641 Q238.7937,728.3391 238.9031,728.2766 Q239.0281,728.2141 239.1531,728.2141 Q239.3719,728.2141 239.5125,728.3703 Q239.6531,728.5266 239.6531,728.8859 L239.6531,729.7297 Q239.6531,730.0891 239.5125,730.2453 Q239.3719,730.4016 239.1531,730.4016 Q238.95,730.4016 238.825,730.2922 Q238.7,730.1828 238.6375,729.8703 Q238.6062,729.6672 238.5125,729.5578 Q238.3094,729.3234 237.95,729.1984 Q237.5906,729.0734 237.2312,729.0734 Q236.7781,729.0734 236.4031,729.2766 Q236.0281,729.4641 235.7312,729.9016 Q235.45,730.3391 235.45,730.9484 L235.45,731.5891 Q235.45,732.3078 235.9656,732.7922 Q236.4969,733.2766 237.4344,733.2766 Q237.9969,733.2766 238.3719,733.1359 Q238.6062,733.0422 238.8562,732.7766 Q239.0125,732.6203 239.0906,732.5734 Q239.1844,732.5266 239.2937,732.5266 Q239.4969,732.5266 239.6531,732.6828 Q239.8094,732.8391 239.8094,733.0422 Q239.8094,733.2453 239.5906,733.4797 Q239.2937,733.8234 238.825,734.0109 Q238.2,734.2766 237.4344,734.2766 Q236.5437,734.2766 235.8406,733.9172 Q235.2625,733.6203 234.8562,732.9953 Q234.45,732.3547 234.45,731.6047 L234.45,730.9328 Q234.45,730.1516 234.8094,729.4797 Q235.1844,728.7922 235.825,728.4328 Q236.4656,728.0734 237.1844,728.0734 Q237.6219,728.0734 237.9969,728.1672 Q238.3875,728.2609 238.7156,728.4641 Z " fill="#000000"/><text fill="#000000" font-family="Hack" font-size="14" lengthAdjust="spacing" textLength="134.2175" x="253.6375" y="736.5679">&#1050;&#1086;&#1088;&#1079;&#1080;&#1085;&#1085;&#1099;&#1081;&#1069;&#1082;&#1089;&#1087;&#1077;&#1088;&#1090;</text><line style="stroke:#000000;stroke-width:1.0;" x1="111.4" x2="505.0925" y1="745.6699" y2="745.6699"/><line style="stroke:#000000;stroke-width:1.0;" x1="111.4" x2="505.0925" y1="753.6699" y2="753.6699"/><ellipse cx="121.4" cy="768.7039" fill="#FFFFFF" rx="3" ry="3" style="stroke:#000000;stroke-width:1.0;"/><text fill="#000000" font-family="Hack" font-size="14" lengthAdjust="spacing" textLength="264.753" x="127.4" y="772.6358">&#1044;&#1086;&#1073;&#1072;&#1074;&#1080;&#1090;&#1100;&#1055;&#1050;&#1042;&#1050;&#1086;&#1088;&#1079;&#1080;&#1085;&#1091;(:&#1050;&#1086;&#1085;&#1092;&#1080;&#1075;&#1088;&#1091;&#1072;&#1094;&#1080;&#1103;)</text><ellipse cx="121.4" cy="787.7718" fill="#FFFFFF" rx="3" ry="3" style="stroke:#000000;stroke-width:1.0;"/><text fill="#000000" font-family="Hack" font-size="14" lengthAdjust="spacing" textLength="372.6925" x="127.4" y="791.7038">&#1044;&#1086;&#1073;&#1072;&#1074;&#1080;&#1090;&#1100;&#1050;&#1086;&#1084;&#1087;&#1083;&#1077;&#1082;&#1090;&#1091;&#1102;&#1097;&#1077;&#1077;&#1042;&#1050;&#1086;&#1088;&#1079;&#1080;&#1085;&#1091;(:&#1050;&#1086;&#1084;&#1087;&#1083;&#1077;&#1082;&#1090;&#1091;&#1102;&#1097;&#1077;&#1077;)</text></g><!--class basket--><g id="elem_basket"><rect codeLine="37" fill="#FFFFFF" height="64.1358" id="basket" rx="2.5" ry="2.5" style="stroke:#000000;stroke-width:1.0;" width="209.1153" x="146.9" y="886.602"/><ellipse cx="218.7747" cy="901.1359" fill="#FFFFFF" rx="8" ry="8" style="stroke:#000000;stroke-width:1.0;"/><path d="M219.8529,898.4641 Q219.931,898.3391 220.0404,898.2766 Q220.1654,898.2141 220.2904,898.2141 Q220.5091,898.2141 220.6497,898.3703 Q220.7904,898.5266 220.7904,898.8859 L220.7904,899.7297 Q220.7904,900.0891 220.6497,900.2453 Q220.5091,900.4016 220.2904,900.4016 Q220.0872,900.4016 219.9622,900.2922 Q219.8372,900.1828 219.7747,899.8703 Q219.7435,899.6672 219.6497,899.5578 Q219.4466,899.3234 219.0872,899.1984 Q218.7279,899.0734 218.3685,899.0734 Q217.9154,899.0734 217.5404,899.2766 Q217.1654,899.4641 216.8685,899.9016 Q216.5872,900.3391 216.5872,900.9484 L216.5872,901.5891 Q216.5872,902.3078 217.1029,902.7922 Q217.6341,903.2766 218.5716,903.2766 Q219.1341,903.2766 219.5091,903.1359 Q219.7435,903.0422 219.9935,902.7766 Q220.1497,902.6203 220.2279,902.5734 Q220.3216,902.5266 220.431,902.5266 Q220.6341,902.5266 220.7904,902.6828 Q220.9466,902.8391 220.9466,903.0422 Q220.9466,903.2453 220.7279,903.4797 Q220.431,903.8234 219.9622,904.0109 Q219.3372,904.2766 218.5716,904.2766 Q217.681,904.2766 216.9779,903.9172 Q216.3997,903.6203 215.9935,902.9953 Q215.5872,902.3547 215.5872,901.6047 L215.5872,900.9328 Q215.5872,900.1516 215.9466,899.4797 Q216.3216,898.7922 216.9622,898.4328 Q217.6029,898.0734 218.3216,898.0734 Q218.7591,898.0734 219.1341,898.1672 Q219.5247,898.2609 219.8529,898.4641 Z " fill="#000000"/><text fill="#000000" font-family="Hack" font-size="14" lengthAdjust="spacing" textLength="58.3658" x="234.7747" y="906.5679">&#1050;&#1086;&#1088;&#1079;&#1080;&#1085;&#1072;</text><line style="stroke:#000000;stroke-width:1.0;" x1="147.9" x2="355.0153" y1="915.6699" y2="915.6699"/><line style="stroke:#000000;stroke-width:1.0;" x1="147.9" x2="355.0153" y1="923.6699" y2="923.6699"/><ellipse cx="157.9" cy="938.7039" fill="#FFFFFF" rx="3" ry="3" style="stroke:#000000;stroke-width:1.0;"/><text fill="#000000" font-family="Hack" font-size="14" lengthAdjust="spacing" textLength="186.1153" x="163.9" y="942.6358">&#1044;&#1086;&#1073;&#1072;&#1074;&#1080;&#1090;&#1100;&#1042;&#1050;&#1086;&#1088;&#1079;&#1080;&#1085;&#1091;(:&#1058;&#1086;&#1074;&#1072;&#1088;)</text></g><!--class item--><g id="elem_item"><rect codeLine="41" fill="#FFFFFF" height="45.0679" id="item" rx="2.5" ry="2.5" style="stroke:#000000;stroke-width:1.0;" width="66.7818" x="163.9" y="1040.102"/><ellipse cx="175.9" cy="1054.6359" fill="#FFFFFF" rx="8" ry="8" style="stroke:#000000;stroke-width:1.0;"/><path d="M176.9781,1051.9641 Q177.0563,1051.8391 177.1656,1051.7766 Q177.2906,1051.7141 177.4156,1051.7141 Q177.6344,1051.7141 177.775,1051.8703 Q177.9156,1052.0266 177.9156,1052.3859 L177.9156,1053.2297 Q177.9156,1053.5891 177.775,1053.7453 Q177.6344,1053.9016 177.4156,1053.9016 Q177.2125,1053.9016 177.0875,1053.7922 Q176.9625,1053.6828 176.9,1053.3703 Q176.8688,1053.1672 176.775,1053.0578 Q176.5719,1052.8234 176.2125,1052.6984 Q175.8531,1052.5734 175.4938,1052.5734 Q175.0406,1052.5734 174.6656,1052.7766 Q174.2906,1052.9641 173.9938,1053.4016 Q173.7125,1053.8391 173.7125,1054.4484 L173.7125,1055.0891 Q173.7125,1055.8078 174.2281,1056.2922 Q174.7594,1056.7766 175.6969,1056.7766 Q176.2594,1056.7766 176.6344,1056.6359 Q176.8688,1056.5422 177.1188,1056.2766 Q177.275,1056.1203 177.3531,1056.0734 Q177.4469,1056.0266 177.5563,1056.0266 Q177.7594,1056.0266 177.9156,1056.1828 Q178.0719,1056.3391 178.0719,1056.5422 Q178.0719,1056.7453 177.8531,1056.9797 Q177.5563,1057.3234 177.0875,1057.5109 Q176.4625,1057.7766 175.6969,1057.7766 Q174.8063,1057.7766 174.1031,1057.4172 Q173.525,1057.1203 173.1188,1056.4953 Q172.7125,1055.8547 172.7125,1055.1047 L172.7125,1054.4328 Q172.7125,1053.6516 173.0719,1052.9797 Q173.4469,1052.2922 174.0875,1051.9328 Q174.7281,1051.5734 175.4469,1051.5734 Q175.8844,1051.5734 176.2594,1051.6672 Q176.65,1051.7609 176.9781,1051.9641 Z " fill="#000000"/><text fill="#000000" font-family="Hack" font-size="14" lengthAdjust="spacing" textLength="40.7818" x="186.9" y="1060.0679">&#1058;&#1086;&#1074;&#1072;&#1088;</text><line style="stroke:#000000;stroke-width:1.0;" x1="164.9" x2="229.6818" y1="1069.1699" y2="1069.1699"/><line style="stroke:#000000;stroke-width:1.0;" x1="164.9" x2="229.6818" y1="1077.1699" y2="1077.1699"/></g><!--class slot--><g id="elem_slot"><rect codeLine="45" fill="#FFFFFF" height="102.2717" id="slot" rx="2.5" ry="2.5" style="stroke:#000000;stroke-width:1.0;" width="331.4187" x="265.9" y="1011.602"/><ellipse cx="412.0724" cy="1026.1359" fill="#FFFFFF" rx="8" ry="8" style="stroke:#000000;stroke-width:1.0;"/><path d="M413.1506,1023.4641 Q413.2287,1023.3391 413.3381,1023.2766 Q413.4631,1023.2141 413.5881,1023.2141 Q413.8068,1023.2141 413.9474,1023.3703 Q414.0881,1023.5266 414.0881,1023.8859 L414.0881,1024.7297 Q414.0881,1025.0891 413.9474,1025.2453 Q413.8068,1025.4016 413.5881,1025.4016 Q413.3849,1025.4016 413.2599,1025.2922 Q413.1349,1025.1828 413.0724,1024.8703 Q413.0412,1024.6672 412.9474,1024.5578 Q412.7443,1024.3234 412.3849,1024.1984 Q412.0256,1024.0734 411.6662,1024.0734 Q411.2131,1024.0734 410.8381,1024.2766 Q410.4631,1024.4641 410.1662,1024.9016 Q409.8849,1025.3391 409.8849,1025.9484 L409.8849,1026.5891 Q409.8849,1027.3078 410.4006,1027.7922 Q410.9318,1028.2766 411.8693,1028.2766 Q412.4318,1028.2766 412.8068,1028.1359 Q413.0412,1028.0422 413.2912,1027.7766 Q413.4474,1027.6203 413.5256,1027.5734 Q413.6193,1027.5266 413.7287,1027.5266 Q413.9318,1027.5266 414.0881,1027.6828 Q414.2443,1027.8391 414.2443,1028.0422 Q414.2443,1028.2453 414.0256,1028.4797 Q413.7287,1028.8234 413.2599,1029.0109 Q412.6349,1029.2766 411.8693,1029.2766 Q410.9787,1029.2766 410.2756,1028.9172 Q409.6974,1028.6203 409.2912,1027.9953 Q408.8849,1027.3547 408.8849,1026.6047 L408.8849,1025.9328 Q408.8849,1025.1516 409.2443,1024.4797 Q409.6193,1023.7922 410.2599,1023.4328 Q410.9006,1023.0734 411.6193,1023.0734 Q412.0568,1023.0734 412.4318,1023.1672 Q412.8224,1023.2609 413.1506,1023.4641 Z " fill="#000000"/><text fill="#000000" font-family="Hack" font-size="14" lengthAdjust="spacing" textLength="32.0739" x="428.0724" y="1031.5679">&#1057;&#1083;&#1086;&#1090;</text><line style="stroke:#000000;stroke-width:1.0;" x1="266.9" x2="596.3187" y1="1040.6699" y2="1040.6699"/><line style="stroke:#000000;stroke-width:1.0;" x1="266.9" x2="596.3187" y1="1048.6699" y2="1048.6699"/><ellipse cx="276.9" cy="1063.7039" fill="#FFFFFF" rx="3" ry="3" style="stroke:#000000;stroke-width:1.0;"/><text fill="#000000" font-family="Hack" font-size="14" lengthAdjust="spacing" textLength="308.4187" x="282.9" y="1067.6358">&#1055;&#1088;&#1086;&#1074;&#1077;&#1088;&#1080;&#1090;&#1100;&#1057;&#1086;&#1074;&#1084;&#1077;&#1089;&#1090;&#1080;&#1084;&#1086;&#1089;&#1090;&#1100;(:&#1050;&#1086;&#1084;&#1087;&#1083;&#1077;&#1082;&#1090;&#1091;&#1102;&#1097;&#1077;&#1077;)</text><ellipse cx="276.9" cy="1082.7718" fill="#FFFFFF" rx="3" ry="3" style="stroke:#000000;stroke-width:1.0;"/><text fill="#000000" font-family="Hack" font-size="14" lengthAdjust="spacing" textLength="205.2392" x="282.9" y="1086.7038">&#1059;&#1089;&#1090;&#1072;&#1085;&#1086;&#1074;&#1080;&#1090;&#1100;(:&#1050;&#1086;&#1084;&#1087;&#1083;&#1077;&#1082;&#1090;&#1091;&#1102;&#1097;&#1077;&#1077;)</text><ellipse cx="276.9" cy="1101.8397" fill="#FFFFFF" rx="3" ry="3" style="stroke:#000000;stroke-width:1.0;"/><text fill="#000000" font-family="Hack" font-size="14" lengthAdjust="spacing" textLength="74.2837" x="282.9" y="1105.7717">&#1054;&#1095;&#1080;&#1089;&#1090;&#1080;&#1090;&#1100;()</text></g><!--class part--><g id="elem_part"><rect codeLine="51" fill="#FFFFFF" height="64.1358" id="part" rx="2.5" ry="2.5" style="stroke:#000000;stroke-width:1.0;" width="299.6389" x="305.4" y="1192.602"/><ellipse cx="394.8797" cy="1207.1359" fill="#FFFFFF" rx="8" ry="8" style="stroke:#000000;stroke-width:1.0;"/><path d="M395.9578,1204.4641 Q396.0359,1204.3391 396.1453,1204.2766 Q396.2703,1204.2141 396.3953,1204.2141 Q396.6141,1204.2141 396.7547,1204.3703 Q396.8953,1204.5266 396.8953,1204.8859 L396.8953,1205.7297 Q396.8953,1206.0891 396.7547,1206.2453 Q396.6141,1206.4016 396.3953,1206.4016 Q396.1922,1206.4016 396.0672,1206.2922 Q395.9422,1206.1828 395.8797,1205.8703 Q395.8484,1205.6672 395.7547,1205.5578 Q395.5516,1205.3234 395.1922,1205.1984 Q394.8328,1205.0734 394.4734,1205.0734 Q394.0203,1205.0734 393.6453,1205.2766 Q393.2703,1205.4641 392.9734,1205.9016 Q392.6922,1206.3391 392.6922,1206.9484 L392.6922,1207.5891 Q392.6922,1208.3078 393.2078,1208.7922 Q393.7391,1209.2766 394.6766,1209.2766 Q395.2391,1209.2766 395.6141,1209.1359 Q395.8484,1209.0422 396.0984,1208.7766 Q396.2547,1208.6203 396.3328,1208.5734 Q396.4266,1208.5266 396.5359,1208.5266 Q396.7391,1208.5266 396.8953,1208.6828 Q397.0516,1208.8391 397.0516,1209.0422 Q397.0516,1209.2453 396.8328,1209.4797 Q396.5359,1209.8234 396.0672,1210.0109 Q395.4422,1210.2766 394.6766,1210.2766 Q393.7859,1210.2766 393.0828,1209.9172 Q392.5047,1209.6203 392.0984,1208.9953 Q391.6922,1208.3547 391.6922,1207.6047 L391.6922,1206.9328 Q391.6922,1206.1516 392.0516,1205.4797 Q392.4266,1204.7922 393.0672,1204.4328 Q393.7078,1204.0734 394.4266,1204.0734 Q394.8641,1204.0734 395.2391,1204.1672 Q395.6297,1204.2609 395.9578,1204.4641 Z " fill="#000000"/><text fill="#000000" font-family="Hack" font-size="14" lengthAdjust="spacing" textLength="113.6795" x="410.8797" y="1212.5679">&#1050;&#1086;&#1084;&#1087;&#1083;&#1077;&#1082;&#1090;&#1091;&#1102;&#1097;&#1077;&#1077;</text><line style="stroke:#000000;stroke-width:1.0;" x1="306.4" x2="604.0389" y1="1221.6699" y2="1221.6699"/><line style="stroke:#000000;stroke-width:1.0;" x1="306.4" x2="604.0389" y1="1229.6699" y2="1229.6699"/><ellipse cx="316.4" cy="1244.7039" fill="#FFFFFF" rx="3" ry="3" style="stroke:#000000;stroke-width:1.0;"/><text fill="#000000" font-family="Hack" font-size="14" lengthAdjust="spacing" textLength="276.6389" x="322.4" y="1248.6358">&#1055;&#1077;&#1088;&#1077;&#1095;&#1080;&#1089;&#1083;&#1080;&#1090;&#1100;&#1042;&#1089;&#1077;(): &#1050;&#1086;&#1084;&#1087;&#1083;&#1077;&#1082;&#1090;&#1091;&#1102;&#1097;&#1077;&#1077;[0..*]</text></g><!--class pcConfig--><g id="elem_pcConfig"><rect codeLine="55" fill="#FFFFFF" height="45.0679" id="pcConfig" rx="2.5" ry="2.5" style="stroke:#000000;stroke-width:1.0;" width="145.4196" x="124.9" y="1202.102"/><ellipse cx="136.9" cy="1216.6359" fill="#FFFFFF" rx="8" ry="8" style="stroke:#000000;stroke-width:1.0;"/><path d="M137.9781,1213.9641 Q138.0563,1213.8391 138.1656,1213.7766 Q138.2906,1213.7141 138.4156,1213.7141 Q138.6344,1213.7141 138.775,1213.8703 Q138.9156,1214.0266 138.9156,1214.3859 L138.9156,1215.2297 Q138.9156,1215.5891 138.775,1215.7453 Q138.6344,1215.9016 138.4156,1215.9016 Q138.2125,1215.9016 138.0875,1215.7922 Q137.9625,1215.6828 137.9,1215.3703 Q137.8688,1215.1672 137.775,1215.0578 Q137.5719,1214.8234 137.2125,1214.6984 Q136.8531,1214.5734 136.4938,1214.5734 Q136.0406,1214.5734 135.6656,1214.7766 Q135.2906,1214.9641 134.9938,1215.4016 Q134.7125,1215.8391 134.7125,1216.4484 L134.7125,1217.0891 Q134.7125,1217.8078 135.2281,1218.2922 Q135.7594,1218.7766 136.6969,1218.7766 Q137.2594,1218.7766 137.6344,1218.6359 Q137.8688,1218.5422 138.1188,1218.2766 Q138.275,1218.1203 138.3531,1218.0734 Q138.4469,1218.0266 138.5563,1218.0266 Q138.7594,1218.0266 138.9156,1218.1828 Q139.0719,1218.3391 139.0719,1218.5422 Q139.0719,1218.7453 138.8531,1218.9797 Q138.5563,1219.3234 138.0875,1219.5109 Q137.4625,1219.7766 136.6969,1219.7766 Q135.8063,1219.7766 135.1031,1219.4172 Q134.525,1219.1203 134.1188,1218.4953 Q133.7125,1217.8547 133.7125,1217.1047 L133.7125,1216.4328 Q133.7125,1215.6516 134.0719,1214.9797 Q134.4469,1214.2922 135.0875,1213.9328 Q135.7281,1213.5734 136.4469,1213.5734 Q136.8844,1213.5734 137.2594,1213.6672 Q137.65,1213.7609 137.9781,1213.9641 Z " fill="#000000"/><text fill="#000000" font-family="Hack" font-size="14" lengthAdjust="spacing" textLength="119.4196" x="147.9" y="1222.0679">&#1050;&#1086;&#1085;&#1092;&#1080;&#1075;&#1091;&#1088;&#1072;&#1094;&#1080;&#1103;&#1055;&#1050;</text><line style="stroke:#000000;stroke-width:1.0;" x1="125.9" x2="269.3196" y1="1231.1699" y2="1231.1699"/><line style="stroke:#000000;stroke-width:1.0;" x1="125.9" x2="269.3196" y1="1239.1699" y2="1239.1699"/></g><!--reverse link item to part--><g id="link_item_part"><path d="M229.5309,1098.4233 C238.5409,1107.7433 237.19,1105.402 248.4,1113.602 C290.92,1144.732 343.39,1172.522 384.87,1192.372 " fill="none" id="item-backto-part" style="stroke:#000000;stroke-width:1.0;"/><polygon fill="none" points="217.02,1085.482,225.2171,1102.5936,233.8447,1094.253,217.02,1085.482" style="stroke:#000000;stroke-width:1.0;"/></g><!--reverse link item to pcConfig--><g id="link_item_pcConfig"><path d="M197.4,1103.182 C197.4,1133.722 197.4,1171.222 197.4,1201.852 " fill="none" id="item-backto-pcConfig" style="stroke:#000000;stroke-width:1.0;"/><polygon fill="none" points="197.4,1085.182,191.4,1103.182,203.4,1103.182,197.4,1085.182" style="stroke:#000000;stroke-width:1.0;"/></g><!--link basket to item--><g id="link_basket_item"><path codeLine="61" d="M239.55,950.762 C229.3,977.702 216.8933,1010.354 207.8433,1034.144 " fill="none" id="basket-to-item" style="stroke:#000000;stroke-width:1.0;stroke-dasharray:7.0,7.0;"/><polygon fill="#000000" points="205.71,1039.752,212.6486,1032.7623,207.4878,1035.0787,205.1714,1029.9179,205.71,1039.752" style="stroke:#000000;stroke-width:1.0;"/></g><!--reverse link slot to part--><g id="link_slot_part"><path codeLine="62" d="M439.8203,1119.7256 C443.6703,1145.3856 447.34,1169.882 450.69,1192.202 " fill="none" id="slot-backto-part" style="stroke:#000000;stroke-width:1.0;"/><polygon fill="#000000" points="438.93,1113.792,436.3097,1123.2859,439.6719,1118.7366,444.2211,1122.0988,438.93,1113.792" style="stroke:#000000;stroke-width:1.0;"/><text fill="#000000" font-family="Hack" font-size="13" lengthAdjust="spacing" textLength="92.7551" x="446.4" y="1158.499">&#1059;&#1089;&#1090;&#1072;&#1085;&#1086;&#1074;&#1083;&#1077;&#1085;&#1072; &#1074;</text><text fill="#000000" font-family="Hack" font-size="13" lengthAdjust="spacing" textLength="7.436" x="432.4727" y="1135.739">0</text><text fill="#000000" font-family="Hack" font-size="13" lengthAdjust="spacing" textLength="7.436" x="442.0789" y="1180.7222">1</text></g><!--link partManager to slot--><g id="link_partManager_slot"><path codeLine="64" d="M468.92,655.862 C491.16,672.042 511.83,692.232 524.4,716.602 C574.8,814.322 514.0502,937.0493 469.9202,1006.4293 " fill="none" id="partManager-to-slot" style="stroke:#000000;stroke-width:1.0;stroke-dasharray:7.0,7.0;"/><polygon fill="#000000" points="466.7,1011.492,474.9054,1006.0448,469.3835,1007.2731,468.1551,1001.7512,466.7,1011.492" style="stroke:#000000;stroke-width:1.0;"/></g><!--link partManager to part--><g id="link_partManager_part"><path codeLine="65" d="M626.8,640.642 C680.63,663.002 721.4,699.082 721.4,757.102 C721.4,757.102 721.4,757.102 721.4,1063.602 C721.4,1111.932 713.16,1131.222 676.4,1162.602 C656.04,1179.982 636.7976,1190.4726 611.1276,1199.3926 " fill="none" id="partManager-to-part" style="stroke:#000000;stroke-width:1.0;stroke-dasharray:7.0,7.0;"/><polygon fill="#000000" points="605.46,1201.362,615.2743,1202.1862,610.183,1199.7208,612.6484,1194.6295,605.46,1201.362" style="stroke:#000000;stroke-width:1.0;"/></g><!--link partManager to pcConfig--><g id="link_partManager_pcConfig"><path codeLine="66" d="M579.24,655.652 C620.04,678.062 650.4,710.422 650.4,757.102 C650.4,757.102 650.4,757.102 650.4,1063.602 C650.4,1127.092 606.52,1139.442 547.4,1162.602 C439.5,1204.872 401.44,1167.112 288.4,1192.602 C277.33,1195.102 271.4279,1196.6026 260.3479,1200.1926 " fill="none" id="partManager-to-pcConfig" style="stroke:#000000;stroke-width:1.0;"/><polygon fill="#000000" points="254.64,1202.042,264.4347,1203.0731,259.3966,1200.5008,261.9689,1195.4627,254.64,1202.042" style="stroke:#000000;stroke-width:1.0;"/></g><!--link pcBuild to partBuild--><g id="link_pcBuild_partBuild"><path codeLine="68" d="M316.16,247.892 C325.44,274.122 333.2697,296.2552 341.8697,320.5752 " fill="none" id="pcBuild-to-partBuild" style="stroke:#000000;stroke-width:1.0;stroke-dasharray:7.0,7.0;"/><polygon fill="#000000" points="343.87,326.232,344.6407,316.4133,342.2031,321.518,337.0984,319.0804,343.87,326.232" style="stroke:#000000;stroke-width:1.0;"/><text fill="#000000" font-family="Hack" font-size="13" lengthAdjust="spacing" textLength="50.817" x="333.4" y="292.499">&#1057;&#1086;&#1079;&#1076;&#1072;&#1105;&#1090;</text></g><!--link pcBuild to partManager--><g id="link_pcBuild_partManager"><path codeLine="70" d="M225.83,247.962 C193.73,318.732 166.8,414.692 206.4,490.602 C219.64,515.992 236.582,533.3665 260.002,549.9365 " fill="none" id="pcBuild-to-partManager" style="stroke:#000000;stroke-width:1.0;"/><polygon fill="#000000" points="264.9,553.402,259.8632,544.9385,260.8183,550.5141,255.2427,551.4692,264.9,553.402" style="stroke:#000000;stroke-width:1.0;"/></g><!--link partBuild to partManager--><g id="link_partBuild_partManager"><path codeLine="71" d="M368.4,466.772 C368.4,495.172 368.4,521.442 368.4,547.502 " fill="none" id="partBuild-to-partManager" style="stroke:#000000;stroke-width:1.0;"/><polygon fill="#000000" points="368.4,553.502,372.4,544.502,368.4,548.502,364.4,544.502,368.4,553.502" style="stroke:#000000;stroke-width:1.0;"/></g><!--link pcBuild to basketManager--><g id="link_pcBuild_basketManager"><path codeLine="73" d="M194.51,247.902 C111.73,354.112 11,525.582 93.4,655.602 C110.25,682.182 130.8101,699.1673 158.8601,713.7973 " fill="none" id="pcBuild-to-basketManager" style="stroke:#000000;stroke-width:1.0;"/><polygon fill="#000000" points="164.18,716.572,158.05,708.8634,159.7468,714.2597,154.3504,715.9565,164.18,716.572" style="stroke:#000000;stroke-width:1.0;"/></g><!--link partManager to basketManager--><g id="link_partManager_basketManager"><path codeLine="74" d="M348.59,655.632 C340.8,675.282 334.1893,691.9735 326.7993,710.6335 " fill="none" id="partManager-to-basketManager" style="stroke:#000000;stroke-width:1.0;"/><polygon fill="#000000" points="324.59,716.212,331.6229,709.3171,326.431,711.5633,324.1849,706.3715,324.59,716.212" style="stroke:#000000;stroke-width:1.0;"/></g><!--link basketManager to basket--><g id="link_basketManager_basket"><path codeLine="76" d="M293.72,799.922 C284.02,826.882 273.5403,856.0359 264.6403,880.7859 " fill="none" id="basketManager-to-basket" style="stroke:#000000;stroke-width:1.0;stroke-dasharray:7.0,7.0;"/><polygon fill="#000000" points="262.61,886.432,269.4195,879.3164,264.3019,881.7269,261.8914,876.6094,262.61,886.432" style="stroke:#000000;stroke-width:1.0;"/></g><!--SRC=[dLPDJzj04BtxLsnzIjecWcjKSQ3giR-Wuk22IoD2WX8ZjKAHyj6MLbIqe9wGMWGzLp8V5Y4XoL_O_KTzixiuwtYTH4c8MEzutioyUJlsa-2zl-kptLgrvZZEdhUvustxp5slxLUtlFf7bnqu39_DYjTeC9V_uttHuY4VyWj-nKTOztcFd_CpbtaDjhUvlb-kR6aV-ZnZC8vuJxHvFrVY5w83bn6Smdo96MXds7pWOpxW4VOweYkEnJUuVJQHVlDGj3L23_-_8ua1akWGibejWVgNCENj8twjSL4GlY7ol9IkNNBZzuX3a4Fn2LSts4KOyGK-F_Bp42_XCJRG8du3A-80KzcmJg3yWlqAA1C48nEPuIbbWnpki3CKtLp2_Oyu9DgHI8PxRcxEvy2E-2sSJ1kHEQHuuZY3ZUC5UJhb4Io4f7evbZeXTLYzmJ-rDmFvpKgn-7H3mZUT3Crcwa6frwi7Dlt2kGStglfH7NP59_ayH7LjNHdnzg2k9TR8i6ZbKcg6ZfEj9EkLZ7CNAr-nXUENcoaRUyqHlZFbSogEPCHmDeXsQZfDOtYyh5M3UgrIyUksyT463lgEckQtuxLN1M8ztH384ivZlOhuG9n8KHvXRHTFRo7fw10N2bHN_vDVomwCyRjLOoyvSJBfIMAI2gZohoaTeGUXh0R209uXAifjTUCvY-EfZPbHiu-2qN19rdso8vBtjrvZnxSpFwqjsn1A7lsMw5gF_l8gBMNVQzFYgsfG3bAFCPE7qAXwThdfL2vbJqFHojlOZgqoGZdmTmySstswi_AkHgKMfEMkbHEV_OnvCf-Sx6c_iE_KWoMNpn2Q7Ie-sip_4FZLBSNBz1i3rHgfE83Gx6CTvPONlkta6syk65hlojlJMJrYuKyhf5XSaqP7TifTSTcBGe6vgwwigZJDhNfQXenVCqQodCmq0YACr2PT9pOBXRKuGM3ebwp7M-LLISsNEyodK9o8pkGsfjmdSCxaEJTjYPt8a9W3gNoILYSvD2WrJPVp7m00]--></g></svg>