<svg xmlns="http://www.w3.org/2000/svg" xmlns:xlink="http://www.w3.org/1999/xlink" contentStyleType="text/css" height="610px" preserveAspectRatio="none" style="width:1372px;height:610px;background:#FFFFFF;" version="1.1" viewBox="0 0 1372 610" width="1372px" zoomAndPan="magnify"><title>&#1055;&#1086;&#1076;&#1075;&#1086;&#1090;&#1086;&#1074;&#1082;&#1072; &#1087;&#1088;&#1080;&#1083;&#1086;&#1078;&#1077;&#1085;&#1080;&#1103; &#1082; &#1088;&#1072;&#1073;&#1086;&#1090;&#1077;</title><defs/><g><text fill="#000000" font-family="Hack" font-size="22" font-weight="bold" lengthAdjust="spacing" textLength="393.3173" x="492.9067" y="38.5181">&#1055;&#1086;&#1076;&#1075;&#1086;&#1090;&#1086;&#1074;&#1082;&#1072; &#1087;&#1088;&#1080;&#1083;&#1086;&#1078;&#1077;&#1085;&#1080;&#1103; &#1082; &#1088;&#1072;&#1073;&#1086;&#1090;&#1077;</text><rect fill="#FFFFFF" height="325.0602" style="stroke:#000000;stroke-width:1.0;" width="1308.2815" x="56.8491" y="184.738"/><rect fill="#FFFFFF" height="65.412" style="stroke:none;stroke-width:1.0;" width="1308.2815" x="56.8491" y="313.5621"/><rect fill="#FFFFFF" height="65.412" style="stroke:none;stroke-width:1.0;" width="1308.2815" x="56.8491" y="378.9741"/><rect fill="#FFFFFF" height="65.412" style="stroke:none;stroke-width:1.0;" width="1308.2815" x="56.8491" y="444.3862"/><line style="stroke:#000000;stroke-width:1.0;" x1="31" x2="31" y1="136.032" y2="526.7982"/><line style="stroke:#000000;stroke-width:1.0;" x1="111.8491" x2="111.8491" y1="136.032" y2="526.7982"/><line style="stroke:#000000;stroke-width:1.0;" x1="221.5348" x2="221.5348" y1="136.032" y2="526.7982"/><line style="stroke:#000000;stroke-width:1.0;" x1="372.2244" x2="372.2244" y1="136.032" y2="526.7982"/><line style="stroke:#000000;stroke-width:1.0;" x1="536.4537" x2="536.4537" y1="136.032" y2="526.7982"/><line style="stroke:#000000;stroke-width:1.0;" x1="677.1632" x2="677.1632" y1="136.032" y2="526.7982"/><line style="stroke:#000000;stroke-width:1.0;" x1="822.1148" x2="822.1148" y1="136.032" y2="526.7982"/><line style="stroke:#000000;stroke-width:1.0;" x1="1009.0702" x2="1009.0702" y1="136.032" y2="526.7982"/><line style="stroke:#000000;stroke-width:1.0;" x1="1208.5655" x2="1208.5655" y1="136.032" y2="526.7982"/><line style="stroke:#000000;stroke-width:1.0;" x1="1329.5408" x2="1329.5408" y1="136.032" y2="526.7982"/><text fill="#000000" font-family="Hack" font-size="14" lengthAdjust="spacing" textLength="37.6738" x="10" y="131.93">Client</text><ellipse cx="31.8369" cy="64.9641" fill="#FFFFFF" rx="8" ry="8" style="stroke:#000000;stroke-width:1.0;"/><path d="M31.8369,72.9641 L31.8369,99.9641 M18.8369,80.9641 L44.8369,80.9641 M31.8369,99.9641 L18.8369,114.9641 M31.8369,99.9641 L44.8369,114.9641 " fill="none" style="stroke:#000000;stroke-width:1.0;"/><text fill="#000000" font-family="Hack" font-size="14" lengthAdjust="spacing" textLength="37.6738" x="10" y="540.7641">Client</text><ellipse cx="31.8369" cy="553.8661" fill="#FFFFFF" rx="8" ry="8" style="stroke:#000000;stroke-width:1.0;"/><path d="M31.8369,561.8661 L31.8369,588.8661 M18.8369,569.8661 L44.8369,569.8661 M31.8369,588.8661 L18.8369,603.8661 M31.8369,588.8661 L44.8369,603.8661 " fill="none" style="stroke:#000000;stroke-width:1.0;"/><text fill="#000000" font-family="Hack" font-size="14" lengthAdjust="spacing" textLength="84.6857" x="66.8491" y="131.93">WebSiteView</text><path d="M91.692,88.9641 L91.692,112.9641 M91.692,100.9641 L108.692,100.9641 " fill="none" style="stroke:#000000;stroke-width:1.0;"/><ellipse cx="120.692" cy="100.9641" fill="#FFFFFF" rx="12" ry="12" style="stroke:#000000;stroke-width:1.0;"/><text fill="#000000" font-family="Hack" font-size="14" lengthAdjust="spacing" textLength="84.6857" x="66.8491" y="540.7641">WebSiteView</text><path d="M91.692,548.8661 L91.692,572.8661 M91.692,560.8661 L108.692,560.8661 " fill="none" style="stroke:#000000;stroke-width:1.0;"/><ellipse cx="120.692" cy="560.8661" fill="#FFFFFF" rx="12" ry="12" style="stroke:#000000;stroke-width:1.0;"/><text fill="#000000" font-family="Hack" font-size="14" lengthAdjust="spacing" textLength="102.6896" x="167.5348" y="131.93">PCBuildingView</text><path d="M201.3796,88.9641 L201.3796,112.9641 M201.3796,100.9641 L218.3796,100.9641 " fill="none" style="stroke:#000000;stroke-width:1.0;"/><ellipse cx="230.3796" cy="100.9641" fill="#FFFFFF" rx="12" ry="12" style="stroke:#000000;stroke-width:1.0;"/><text fill="#000000" font-family="Hack" font-size="14" lengthAdjust="spacing" textLength="102.6896" x="167.5348" y="540.7641">PCBuildingView</text><path d="M201.3796,548.8661 L201.3796,572.8661 M201.3796,560.8661 L218.3796,560.8661 " fill="none" style="stroke:#000000;stroke-width:1.0;"/><ellipse cx="230.3796" cy="560.8661" fill="#FFFFFF" rx="12" ry="12" style="stroke:#000000;stroke-width:1.0;"/><text fill="#000000" font-family="Hack" font-size="14" lengthAdjust="spacing" textLength="167.2294" x="286.2244" y="131.93">ProductSlotSelectingView</text><path d="M352.339,88.9641 L352.339,112.9641 M352.339,100.9641 L369.339,100.9641 " fill="none" style="stroke:#000000;stroke-width:1.0;"/><ellipse cx="381.339" cy="100.9641" fill="#FFFFFF" rx="12" ry="12" style="stroke:#000000;stroke-width:1.0;"/><text fill="#000000" font-family="Hack" font-size="14" lengthAdjust="spacing" textLength="167.2294" x="286.2244" y="540.7641">ProductSlotSelectingView</text><path d="M352.339,548.8661 L352.339,572.8661 M352.339,560.8661 L369.339,560.8661 " fill="none" style="stroke:#000000;stroke-width:1.0;"/><ellipse cx="381.339" cy="560.8661" fill="#FFFFFF" rx="12" ry="12" style="stroke:#000000;stroke-width:1.0;"/><text fill="#000000" font-family="Hack" font-size="14" lengthAdjust="spacing" textLength="129.7095" x="469.4537" y="131.93">ProductAddingView</text><path d="M516.8085,88.9641 L516.8085,112.9641 M516.8085,100.9641 L533.8085,100.9641 " fill="none" style="stroke:#000000;stroke-width:1.0;"/><ellipse cx="545.8085" cy="100.9641" fill="#FFFFFF" rx="12" ry="12" style="stroke:#000000;stroke-width:1.0;"/><text fill="#000000" font-family="Hack" font-size="14" lengthAdjust="spacing" textLength="129.7095" x="469.4537" y="540.7641">ProductAddingView</text><path d="M516.8085,548.8661 L516.8085,572.8661 M516.8085,560.8661 L533.8085,560.8661 " fill="none" style="stroke:#000000;stroke-width:1.0;"/><ellipse cx="545.8085" cy="560.8661" fill="#FFFFFF" rx="12" ry="12" style="stroke:#000000;stroke-width:1.0;"/><text fill="#000000" font-family="Hack" font-size="14" lengthAdjust="spacing" textLength="119.9515" x="615.1632" y="131.93">WebSiteController</text><ellipse cx="678.139" cy="100.9641" fill="#FFFFFF" rx="12" ry="12" style="stroke:#000000;stroke-width:1.0;"/><polygon fill="#000000" points="674.139,88.9641,680.139,83.9641,678.139,88.9641,680.139,93.9641,674.139,88.9641" style="stroke:#000000;stroke-width:1.0;"/><text fill="#000000" font-family="Hack" font-size="14" lengthAdjust="spacing" textLength="119.9515" x="615.1632" y="540.7641">WebSiteController</text><ellipse cx="678.139" cy="560.8661" fill="#FFFFFF" rx="12" ry="12" style="stroke:#000000;stroke-width:1.0;"/><polygon fill="#000000" points="674.139,548.8661,680.139,543.8661,678.139,548.8661,680.139,553.8661,674.139,548.8661" style="stroke:#000000;stroke-width:1.0;"/><text fill="#000000" font-family="Hack" font-size="14" lengthAdjust="spacing" textLength="137.9555" x="751.1148" y="131.93">PCBuildingController</text><ellipse cx="823.0925" cy="100.9641" fill="#FFFFFF" rx="12" ry="12" style="stroke:#000000;stroke-width:1.0;"/><polygon fill="#000000" points="819.0925,88.9641,825.0925,83.9641,823.0925,88.9641,825.0925,93.9641,819.0925,88.9641" style="stroke:#000000;stroke-width:1.0;"/><text fill="#000000" font-family="Hack" font-size="14" lengthAdjust="spacing" textLength="137.9555" x="751.1148" y="540.7641">PCBuildingController</text><ellipse cx="823.0925" cy="560.8661" fill="#FFFFFF" rx="12" ry="12" style="stroke:#000000;stroke-width:1.0;"/><polygon fill="#000000" points="819.0925,548.8661,825.0925,543.8661,823.0925,548.8661,825.0925,553.8661,819.0925,548.8661" style="stroke:#000000;stroke-width:1.0;"/><text fill="#000000" font-family="Hack" font-size="14" lengthAdjust="spacing" textLength="202.4952" x="905.0702" y="131.93">ProductSlotSelectingController</text><ellipse cx="1009.3178" cy="100.9641" fill="#FFFFFF" rx="12" ry="12" style="stroke:#000000;stroke-width:1.0;"/><polygon fill="#000000" points="1005.3178,88.9641,1011.3178,83.9641,1009.3178,88.9641,1011.3178,93.9641,1005.3178,88.9641" style="stroke:#000000;stroke-width:1.0;"/><text fill="#000000" font-family="Hack" font-size="14" lengthAdjust="spacing" textLength="202.4952" x="905.0702" y="540.7641">ProductSlotSelectingController</text><ellipse cx="1009.3178" cy="560.8661" fill="#FFFFFF" rx="12" ry="12" style="stroke:#000000;stroke-width:1.0;"/><polygon fill="#000000" points="1005.3178,548.8661,1011.3178,543.8661,1009.3178,548.8661,1011.3178,553.8661,1005.3178,548.8661" style="stroke:#000000;stroke-width:1.0;"/><text fill="#000000" font-family="Hack" font-size="14" lengthAdjust="spacing" textLength="164.9754" x="1123.5655" y="131.93">ProductAddingController</text><ellipse cx="1209.0532" cy="100.9641" fill="#FFFFFF" rx="12" ry="12" style="stroke:#000000;stroke-width:1.0;"/><polygon fill="#000000" points="1205.0532,88.9641,1211.0532,83.9641,1209.0532,88.9641,1211.0532,93.9641,1205.0532,88.9641" style="stroke:#000000;stroke-width:1.0;"/><text fill="#000000" font-family="Hack" font-size="14" lengthAdjust="spacing" textLength="164.9754" x="1123.5655" y="540.7641">ProductAddingController</text><ellipse cx="1209.0532" cy="560.8661" fill="#FFFFFF" rx="12" ry="12" style="stroke:#000000;stroke-width:1.0;"/><polygon fill="#000000" points="1205.0532,548.8661,1211.0532,543.8661,1209.0532,548.8661,1211.0532,553.8661,1205.0532,548.8661" style="stroke:#000000;stroke-width:1.0;"/><text fill="#000000" font-family="Hack" font-size="14" lengthAdjust="spacing" textLength="44.5898" x="1304.5408" y="131.93">Search</text><ellipse cx="1329.8358" cy="100.9641" fill="#FFFFFF" rx="12" ry="12" style="stroke:#000000;stroke-width:1.0;"/><line style="stroke:#000000;stroke-width:1.0;" x1="1317.8358" x2="1341.8358" y1="114.9641" y2="114.9641"/><text fill="#000000" font-family="Hack" font-size="14" lengthAdjust="spacing" textLength="44.5898" x="1304.5408" y="540.7641">Search</text><ellipse cx="1329.8358" cy="560.8661" fill="#FFFFFF" rx="12" ry="12" style="stroke:#000000;stroke-width:1.0;"/><line style="stroke:#000000;stroke-width:1.0;" x1="1317.8358" x2="1341.8358" y1="574.8661" y2="574.8661"/><polygon fill="#000000" points="100.192,165.738,110.192,169.738,100.192,173.738,104.192,169.738" style="stroke:#000000;stroke-width:1.0;"/><line style="stroke:#000000;stroke-width:1.0;" x1="31.8369" x2="106.192" y1="169.738" y2="169.738"/><text fill="#000000" font-family="Hack" font-size="13" lengthAdjust="spacing" textLength="56.355" x="38.8369" y="163.929">Prepare()</text><path d="M56.8491,184.738 L123.8322,184.738 L123.8322,194.4441 L113.8322,204.4441 L56.8491,204.4441 L56.8491,184.738 " fill="#FFFFFF" style="stroke:#000000;stroke-width:1.0;"/><rect fill="none" height="325.0602" style="stroke:#000000;stroke-width:1.0;" width="1308.2815" x="56.8491" y="184.738"/><text fill="#000000" font-family="Hack" font-size="13" font-weight="bold" lengthAdjust="spacing" textLength="21.983" x="71.8491" y="199.635">par</text><polygon fill="#000000" points="666.139,224.1501,676.139,228.1501,666.139,232.1501,670.139,228.1501" style="stroke:#000000;stroke-width:1.0;"/><line style="stroke:#000000;stroke-width:1.0;" x1="112.192" x2="672.139" y1="228.1501" y2="228.1501"/><text fill="#000000" font-family="Hack" font-size="13" lengthAdjust="spacing" textLength="56.355" x="119.192" y="222.3411">Prepare()</text><polygon fill="#000000" points="1317.8358,255.8561,1327.8358,259.8561,1317.8358,263.8561,1321.8358,259.8561" style="stroke:#000000;stroke-width:1.0;"/><line style="stroke:#000000;stroke-width:1.0;" x1="678.139" x2="1323.8358" y1="259.8561" y2="259.8561"/><text fill="#000000" font-family="Hack" font-size="13" lengthAdjust="spacing" textLength="131.0271" x="685.139" y="254.0471">FetchManufacturers()</text><polygon fill="#000000" points="689.139,287.5621,679.139,291.5621,689.139,295.5621,685.139,291.5621" style="stroke:#000000;stroke-width:1.0;"/><line style="stroke:#000000;stroke-width:1.0;stroke-dasharray:2.0,2.0;" x1="683.139" x2="1328.8358" y1="291.5621" y2="291.5621"/><text fill="#000000" font-family="Hack" font-size="13" lengthAdjust="spacing" textLength="120.3021" x="695.139" y="285.7531">Manufacturers[0..*]</text><polygon fill="#000000" points="123.192,301.5621,113.192,305.5621,123.192,309.5621,119.192,305.5621" style="stroke:#000000;stroke-width:1.0;"/><line style="stroke:#000000;stroke-width:1.0;stroke-dasharray:2.0,2.0;" x1="117.192" x2="677.139" y1="305.5621" y2="305.5621"/><line style="stroke:#000000;stroke-width:1.0;stroke-dasharray:2.0,2.0;" x1="56.8491" x2="1365.1307" y1="314.5621" y2="314.5621"/><polygon fill="#000000" points="209.8796,335.2681,219.8796,339.2681,209.8796,343.2681,213.8796,339.2681" style="stroke:#000000;stroke-width:1.0;"/><line style="stroke:#000000;stroke-width:1.0;" x1="112.192" x2="215.8796" y1="339.2681" y2="339.2681"/><text fill="#000000" font-family="Hack" font-size="13" lengthAdjust="spacing" textLength="56.355" x="119.192" y="333.4591">Prepare()</text><polygon fill="#000000" points="811.0925,366.9741,821.0925,370.9741,811.0925,374.9741,815.0925,370.9741" style="stroke:#000000;stroke-width:1.0;"/><line style="stroke:#000000;stroke-width:1.0;" x1="221.8796" x2="817.0925" y1="370.9741" y2="370.9741"/><text fill="#000000" font-family="Hack" font-size="13" lengthAdjust="spacing" textLength="56.355" x="228.8796" y="365.1651">Prepare()</text><line style="stroke:#000000;stroke-width:1.0;stroke-dasharray:2.0,2.0;" x1="56.8491" x2="1365.1307" y1="379.9741" y2="379.9741"/><polygon fill="#000000" points="360.839,400.6802,370.839,404.6802,360.839,408.6802,364.839,404.6802" style="stroke:#000000;stroke-width:1.0;"/><line style="stroke:#000000;stroke-width:1.0;" x1="112.192" x2="366.839" y1="404.6802" y2="404.6802"/><text fill="#000000" font-family="Hack" font-size="13" lengthAdjust="spacing" textLength="56.355" x="119.192" y="398.8711">Prepare()</text><polygon fill="#000000" points="997.3178,432.3862,1007.3178,436.3862,997.3178,440.3862,1001.3178,436.3862" style="stroke:#000000;stroke-width:1.0;"/><line style="stroke:#000000;stroke-width:1.0;" x1="372.839" x2="1003.3178" y1="436.3862" y2="436.3862"/><text fill="#000000" font-family="Hack" font-size="13" lengthAdjust="spacing" textLength="56.355" x="379.839" y="430.5772">Prepare()</text><line style="stroke:#000000;stroke-width:1.0;stroke-dasharray:2.0,2.0;" x1="56.8491" x2="1365.1307" y1="445.3862" y2="445.3862"/><polygon fill="#000000" points="525.3085,466.0922,535.3085,470.0922,525.3085,474.0922,529.3085,470.0922" style="stroke:#000000;stroke-width:1.0;"/><line style="stroke:#000000;stroke-width:1.0;" x1="112.192" x2="531.3085" y1="470.0922" y2="470.0922"/><text fill="#000000" font-family="Hack" font-size="13" lengthAdjust="spacing" textLength="56.355" x="119.192" y="464.2832">Prepare()</text><polygon fill="#000000" points="1197.0532,497.7982,1207.0532,501.7982,1197.0532,505.7982,1201.0532,501.7982" style="stroke:#000000;stroke-width:1.0;"/><line style="stroke:#000000;stroke-width:1.0;" x1="537.3085" x2="1203.0532" y1="501.7982" y2="501.7982"/><text fill="#000000" font-family="Hack" font-size="13" lengthAdjust="spacing" textLength="56.355" x="544.3085" y="495.9892">Prepare()</text><!--SRC=[dPBFIWCn4CRlynIn9nLQFFSWQC6R82peGJniiwCRI1D9iqXluWlu2Bv2_LCf5UihpBwHQHUx2PjSFEtkVDytlvbDzco94sGJhJG0M64biXwzq9e-w9tMzPDxUwCLpHdzr8-qf2zN-AG5VTEoVcQqOguwfzUjTT43oBdLXesaG6K1nhfIHMvcx0h7cR1uAV31grwCJYiX2w7kja9RDxgekCsajXbAv3RbE2bsOU1QMQFb7shKV4eqEwN5nSG8Csrhm9uERbzXPop3tF0IeFa3h7_ihpvqSRpF3UuV0BWdW2TwthQld-Y8cqJ36x8pjBmyprLrwqwWCcYcBj68h1_l7BYlZmQ3mviO8rp1BIgds1ayF4blQWQX59hZYoOGYKiHmXAcL8D_3D3UkHYvLJkH54iLlm00]--></g></svg>