<svg xmlns="http://www.w3.org/2000/svg" xmlns:xlink="http://www.w3.org/1999/xlink" contentStyleType="text/css" height="1670px" preserveAspectRatio="none" style="width:1909px;height:1670px;background:#FFFFFF;" version="1.1" viewBox="0 0 1909 1670" width="1909px" zoomAndPan="magnify"><title>&#1055;&#1086;&#1076;&#1075;&#1086;&#1090;&#1086;&#1074;&#1082;&#1072; &#1087;&#1088;&#1080;&#1083;&#1086;&#1078;&#1077;&#1085;&#1080;&#1103; &#1082; &#1088;&#1072;&#1073;&#1086;&#1090;&#1077;</title><defs/><g><text fill="#000000" font-family="Hack" font-size="22" font-weight="bold" lengthAdjust="spacing" textLength="393.3173" x="761.9973" y="38.5181">&#1055;&#1086;&#1076;&#1075;&#1086;&#1090;&#1086;&#1074;&#1082;&#1072; &#1087;&#1088;&#1080;&#1083;&#1086;&#1078;&#1077;&#1085;&#1080;&#1103; &#1082; &#1088;&#1072;&#1073;&#1086;&#1090;&#1077;</text><rect fill="#FFFFFF" height="1131.7002" style="stroke:#000000;stroke-width:1.0;" width="1807.8924" x="15" y="273.806"/><rect fill="#FFFFFF" height="842.4641" style="stroke:#000000;stroke-width:1.0;" width="1787.8924" x="25" y="373.218"/><rect fill="#FFFFFF" height="808.7581" style="stroke:#000000;stroke-width:1.0;" width="1767.8924" x="35" y="399.924"/><rect fill="#FFFFFF" height="775.0521" style="stroke:#000000;stroke-width:1.0;" width="1747.8924" x="45" y="426.63"/><rect fill="#FFFFFF" height="65.412" style="stroke:#000000;stroke-width:1.0;" width="783.1143" x="999.7781" y="773.6401"/><rect fill="#FFFFFF" height="250.218" style="stroke:none;stroke-width:1.0;" width="1747.8924" x="45" y="951.4641"/><rect fill="#FFFFFF" height="65.412" style="stroke:#000000;stroke-width:1.0;" width="735.0404" x="999.7781" y="1083.5641"/><rect fill="#FFFFFF" height="182.8241" style="stroke:none;stroke-width:1.0;" width="1807.8924" x="15" y="1222.6821"/><line style="stroke:#000000;stroke-width:1.0;" x1="82" x2="82" y1="136.032" y2="1586.6242"/><line style="stroke:#000000;stroke-width:1.0;" x1="422.7154" x2="422.7154" y1="186.566" y2="1586.6242"/><line style="stroke:#000000;stroke-width:1.0;" x1="667.2287" x2="667.2287" y1="518.576" y2="1586.6242"/><line style="stroke:#000000;stroke-width:1.0;" x1="1096.7781" x2="1096.7781" y1="136.032" y2="1586.6242"/><line style="stroke:#000000;stroke-width:1.0;" x1="1389.8412" x2="1389.8412" y1="136.032" y2="1586.6242"/><line style="stroke:#000000;stroke-width:1.0;" x1="1562.7732" x2="1562.7732" y1="136.032" y2="1586.6242"/><line style="stroke:#000000;stroke-width:1.0;" x1="1664.139" x2="1664.139" y1="136.032" y2="1586.6242"/><line style="stroke:#000000;stroke-width:1.0;" x1="1753.8185" x2="1753.8185" y1="136.032" y2="1586.6242"/><line style="stroke:#000000;stroke-width:1.0;" x1="1844.8924" x2="1844.8924" y1="136.032" y2="1586.6242"/><text fill="#000000" font-family="Hack" font-size="14" lengthAdjust="spacing" textLength="49.2238" x="55" y="131.93">&#1050;&#1083;&#1080;&#1077;&#1085;&#1090;</text><ellipse cx="82.6119" cy="64.9641" fill="#FFFFFF" rx="8" ry="8" style="stroke:#000000;stroke-width:1.0;"/><path d="M82.6119,72.9641 L82.6119,99.9641 M69.6119,80.9641 L95.6119,80.9641 M82.6119,99.9641 L69.6119,114.9641 M82.6119,99.9641 L95.6119,114.9641 " fill="none" style="stroke:#000000;stroke-width:1.0;"/><text fill="#000000" font-family="Hack" font-size="14" lengthAdjust="spacing" textLength="49.2238" x="55" y="1600.5902">&#1050;&#1083;&#1080;&#1077;&#1085;&#1090;</text><ellipse cx="82.6119" cy="1613.6921" fill="#FFFFFF" rx="8" ry="8" style="stroke:#000000;stroke-width:1.0;"/><path d="M82.6119,1621.6921 L82.6119,1648.6921 M69.6119,1629.6921 L95.6119,1629.6921 M82.6119,1648.6921 L69.6119,1663.6921 M82.6119,1648.6921 L95.6119,1663.6921 " fill="none" style="stroke:#000000;stroke-width:1.0;"/><text fill="#000000" font-family="Hack" font-size="14" lengthAdjust="spacing" textLength="111.2576" x="364.7154" y="1600.5902">&#1069;&#1082;&#1088;&#1072;&#1085;&#1057;&#1073;&#1086;&#1088;&#1082;&#1080;&#1055;&#1050;</text><path d="M402.8442,1608.6921 L402.8442,1632.6921 M402.8442,1620.6921 L419.8442,1620.6921 " fill="none" style="stroke:#000000;stroke-width:1.0;"/><ellipse cx="431.8442" cy="1620.6921" fill="#FFFFFF" rx="12" ry="12" style="stroke:#000000;stroke-width:1.0;"/><text fill="#000000" font-family="Hack" font-size="14" lengthAdjust="spacing" textLength="155.9454" x="587.2287" y="1600.5902">&#1069;&#1082;&#1088;&#1072;&#1085;&#1050;&#1086;&#1084;&#1087;&#1083;&#1077;&#1082;&#1090;&#1091;&#1102;&#1097;&#1080;&#1093;</text><path d="M647.7014,1608.6921 L647.7014,1632.6921 M647.7014,1620.6921 L664.7014,1620.6921 " fill="none" style="stroke:#000000;stroke-width:1.0;"/><ellipse cx="676.7014" cy="1620.6921" fill="#FFFFFF" rx="12" ry="12" style="stroke:#000000;stroke-width:1.0;"/><text fill="#000000" font-family="Hack" font-size="14" lengthAdjust="spacing" textLength="169.1893" x="1009.7781" y="131.93">&#1069;&#1082;&#1089;&#1087;&#1077;&#1088;&#1090;&#1050;&#1086;&#1084;&#1087;&#1083;&#1077;&#1082;&#1090;&#1091;&#1102;&#1097;&#1080;&#1093;</text><ellipse cx="1097.3727" cy="100.9641" fill="#FFFFFF" rx="12" ry="12" style="stroke:#000000;stroke-width:1.0;"/><polygon fill="#000000" points="1093.3727,88.9641,1099.3727,83.9641,1097.3727,88.9641,1099.3727,93.9641,1093.3727,88.9641" style="stroke:#000000;stroke-width:1.0;"/><text fill="#000000" font-family="Hack" font-size="14" lengthAdjust="spacing" textLength="169.1893" x="1009.7781" y="1600.5902">&#1069;&#1082;&#1089;&#1087;&#1077;&#1088;&#1090;&#1050;&#1086;&#1084;&#1087;&#1083;&#1077;&#1082;&#1090;&#1091;&#1102;&#1097;&#1080;&#1093;</text><ellipse cx="1097.3727" cy="1620.6921" fill="#FFFFFF" rx="12" ry="12" style="stroke:#000000;stroke-width:1.0;"/><polygon fill="#000000" points="1093.3727,1608.6921,1099.3727,1603.6921,1097.3727,1608.6921,1099.3727,1613.6921,1093.3727,1608.6921" style="stroke:#000000;stroke-width:1.0;"/><text fill="#000000" font-family="Hack" font-size="14" lengthAdjust="spacing" textLength="134.2175" x="1319.8412" y="131.93">&#1050;&#1086;&#1088;&#1079;&#1080;&#1085;&#1085;&#1099;&#1081;&#1069;&#1082;&#1089;&#1087;&#1077;&#1088;&#1090;</text><ellipse cx="1389.95" cy="100.9641" fill="#FFFFFF" rx="12" ry="12" style="stroke:#000000;stroke-width:1.0;"/><polygon fill="#000000" points="1385.95,88.9641,1391.95,83.9641,1389.95,88.9641,1391.95,93.9641,1385.95,88.9641" style="stroke:#000000;stroke-width:1.0;"/><text fill="#000000" font-family="Hack" font-size="14" lengthAdjust="spacing" textLength="134.2175" x="1319.8412" y="1600.5902">&#1050;&#1086;&#1088;&#1079;&#1080;&#1085;&#1085;&#1099;&#1081;&#1069;&#1082;&#1089;&#1087;&#1077;&#1088;&#1090;</text><ellipse cx="1389.95" cy="1620.6921" fill="#FFFFFF" rx="12" ry="12" style="stroke:#000000;stroke-width:1.0;"/><polygon fill="#000000" points="1385.95,1608.6921,1391.95,1603.6921,1389.95,1608.6921,1391.95,1613.6921,1385.95,1608.6921" style="stroke:#000000;stroke-width:1.0;"/><text fill="#000000" font-family="Hack" font-size="14" lengthAdjust="spacing" textLength="58.3658" x="1530.7732" y="131.93">&#1050;&#1086;&#1088;&#1079;&#1080;&#1085;&#1072;</text><ellipse cx="1562.9561" cy="100.9641" fill="#FFFFFF" rx="12" ry="12" style="stroke:#000000;stroke-width:1.0;"/><line style="stroke:#000000;stroke-width:1.0;" x1="1550.9561" x2="1574.9561" y1="114.9641" y2="114.9641"/><text fill="#000000" font-family="Hack" font-size="14" lengthAdjust="spacing" textLength="58.3658" x="1530.7732" y="1600.5902">&#1050;&#1086;&#1088;&#1079;&#1080;&#1085;&#1072;</text><ellipse cx="1562.9561" cy="1620.6921" fill="#FFFFFF" rx="12" ry="12" style="stroke:#000000;stroke-width:1.0;"/><line style="stroke:#000000;stroke-width:1.0;" x1="1550.9561" x2="1574.9561" y1="1634.6921" y2="1634.6921"/><text fill="#000000" font-family="Hack" font-size="14" lengthAdjust="spacing" textLength="113.6795" x="1605.139" y="131.93">&#1050;&#1086;&#1084;&#1087;&#1083;&#1077;&#1082;&#1090;&#1091;&#1102;&#1097;&#1077;&#1077;</text><ellipse cx="1664.9787" cy="100.9641" fill="#FFFFFF" rx="12" ry="12" style="stroke:#000000;stroke-width:1.0;"/><line style="stroke:#000000;stroke-width:1.0;" x1="1652.9787" x2="1676.9787" y1="114.9641" y2="114.9641"/><text fill="#000000" font-family="Hack" font-size="14" lengthAdjust="spacing" textLength="113.6795" x="1605.139" y="1600.5902">&#1050;&#1086;&#1084;&#1087;&#1083;&#1077;&#1082;&#1090;&#1091;&#1102;&#1097;&#1077;&#1077;</text><ellipse cx="1664.9787" cy="1620.6921" fill="#FFFFFF" rx="12" ry="12" style="stroke:#000000;stroke-width:1.0;"/><line style="stroke:#000000;stroke-width:1.0;" x1="1652.9787" x2="1676.9787" y1="1634.6921" y2="1634.6921"/><text fill="#000000" font-family="Hack" font-size="14" lengthAdjust="spacing" textLength="32.0739" x="1734.8185" y="131.93">&#1057;&#1083;&#1086;&#1090;</text><ellipse cx="1753.8554" cy="100.9641" fill="#FFFFFF" rx="12" ry="12" style="stroke:#000000;stroke-width:1.0;"/><line style="stroke:#000000;stroke-width:1.0;" x1="1741.8554" x2="1765.8554" y1="114.9641" y2="114.9641"/><text fill="#000000" font-family="Hack" font-size="14" lengthAdjust="spacing" textLength="32.0739" x="1734.8185" y="1600.5902">&#1057;&#1083;&#1086;&#1090;</text><ellipse cx="1753.8554" cy="1620.6921" fill="#FFFFFF" rx="12" ry="12" style="stroke:#000000;stroke-width:1.0;"/><line style="stroke:#000000;stroke-width:1.0;" x1="1741.8554" x2="1765.8554" y1="1634.6921" y2="1634.6921"/><text fill="#000000" font-family="Hack" font-size="14" lengthAdjust="spacing" textLength="119.4196" x="1782.8924" y="131.93">&#1050;&#1086;&#1085;&#1092;&#1080;&#1075;&#1091;&#1088;&#1072;&#1094;&#1080;&#1103;&#1055;&#1050;</text><ellipse cx="1845.6021" cy="100.9641" fill="#FFFFFF" rx="12" ry="12" style="stroke:#000000;stroke-width:1.0;"/><line style="stroke:#000000;stroke-width:1.0;" x1="1833.6021" x2="1857.6021" y1="114.9641" y2="114.9641"/><text fill="#000000" font-family="Hack" font-size="14" lengthAdjust="spacing" textLength="119.4196" x="1782.8924" y="1600.5902">&#1050;&#1086;&#1085;&#1092;&#1080;&#1075;&#1091;&#1088;&#1072;&#1094;&#1080;&#1103;&#1055;&#1050;</text><ellipse cx="1845.6021" cy="1620.6921" fill="#FFFFFF" rx="12" ry="12" style="stroke:#000000;stroke-width:1.0;"/><line style="stroke:#000000;stroke-width:1.0;" x1="1833.6021" x2="1857.6021" y1="1634.6921" y2="1634.6921"/><polygon fill="#000000" points="362.7154,148.032,372.7154,152.032,362.7154,156.032,366.7154,152.032" style="stroke:#000000;stroke-width:1.0;"/><line style="stroke:#000000;stroke-width:1.0;" x1="82.6119" x2="368.7154" y1="152.032" y2="152.032"/><text fill="#000000" font-family="Hack" font-size="14" lengthAdjust="spacing" textLength="111.2576" x="364.7154" y="192.998">&#1069;&#1082;&#1088;&#1072;&#1085;&#1057;&#1073;&#1086;&#1088;&#1082;&#1080;&#1055;&#1050;</text><path d="M402.8442,150.032 L402.8442,174.032 M402.8442,162.032 L419.8442,162.032 " fill="none" style="stroke:#000000;stroke-width:1.0;"/><ellipse cx="431.8442" cy="162.032" fill="#FFFFFF" rx="12" ry="12" style="stroke:#000000;stroke-width:1.0;"/><polygon fill="#000000" points="1085.3727,226.806,1095.3727,230.806,1085.3727,234.806,1089.3727,230.806" style="stroke:#000000;stroke-width:1.0;"/><line style="stroke:#000000;stroke-width:1.0;" x1="423.3442" x2="1091.3727" y1="230.806" y2="230.806"/><text fill="#000000" font-family="Hack" font-size="13" lengthAdjust="spacing" textLength="221.8712" x="430.3442" y="224.9969">&#1055;&#1088;&#1077;&#1076;&#1086;&#1087;&#1088;&#1077;&#1076;&#1077;&#1083;&#1105;&#1085;&#1085;&#1099;&#1077;&#1050;&#1086;&#1085;&#1092;&#1080;&#1075;&#1091;&#1088;&#1072;&#1094;&#1080;&#1080;</text><polygon fill="#000000" points="434.3442,240.806,424.3442,244.806,434.3442,248.806,430.3442,244.806" style="stroke:#000000;stroke-width:1.0;"/><line style="stroke:#000000;stroke-width:1.0;stroke-dasharray:2.0,2.0;" x1="428.3442" x2="1096.3727" y1="244.806" y2="244.806"/><polygon fill="#000000" points="93.6119,254.806,83.6119,258.806,93.6119,262.806,89.6119,258.806" style="stroke:#000000;stroke-width:1.0;"/><line style="stroke:#000000;stroke-width:1.0;stroke-dasharray:2.0,2.0;" x1="87.6119" x2="422.3442" y1="258.806" y2="258.806"/><path d="M15,273.806 L77.459,273.806 L77.459,283.512 L67.459,293.512 L15,293.512 L15,273.806 " fill="#FFFFFF" style="stroke:#000000;stroke-width:1.0;"/><rect fill="none" height="1131.7002" style="stroke:#000000;stroke-width:1.0;" width="1807.8924" x="15" y="273.806"/><text fill="#000000" font-family="Hack" font-size="13" font-weight="bold" lengthAdjust="spacing" textLength="17.459" x="30" y="288.703">alt</text><polygon fill="#000000" points="411.3442,313.218,421.3442,317.218,411.3442,321.218,415.3442,317.218" style="stroke:#000000;stroke-width:1.0;"/><line style="stroke:#000000;stroke-width:1.0;" x1="82.6119" x2="417.3442" y1="317.218" y2="317.218"/><text fill="#000000" font-family="Hack" font-size="13" lengthAdjust="spacing" textLength="193.8952" x="89.6119" y="311.409">&#1059;&#1089;&#1090;&#1072;&#1085;&#1086;&#1074;&#1080;&#1090;&#1100;&#1058;&#1080;&#1087;&#1058;&#1077;&#1082;&#1091;&#1097;&#1077;&#1075;&#1086;&#1055;&#1050;(...)</text><line style="stroke:#000000;stroke-width:1.0;" x1="423.3442" x2="465.3442" y1="331.218" y2="331.218"/><line style="stroke:#000000;stroke-width:1.0;" x1="465.3442" x2="465.3442" y1="331.218" y2="344.218"/><line style="stroke:#000000;stroke-width:1.0;" x1="424.3442" x2="465.3442" y1="344.218" y2="344.218"/><polygon fill="#000000" points="434.3442,340.218,424.3442,344.218,434.3442,348.218,430.3442,344.218" style="stroke:#000000;stroke-width:1.0;"/><polygon fill="#000000" points="93.6119,354.218,83.6119,358.218,93.6119,362.218,89.6119,358.218" style="stroke:#000000;stroke-width:1.0;"/><line style="stroke:#000000;stroke-width:1.0;stroke-dasharray:2.0,2.0;" x1="87.6119" x2="422.3442" y1="358.218" y2="358.218"/><path d="M25,373.218 L98.288,373.218 L98.288,382.924 L88.288,392.924 L25,392.924 L25,373.218 " fill="#FFFFFF" style="stroke:#000000;stroke-width:1.0;"/><rect fill="none" height="842.4641" style="stroke:#000000;stroke-width:1.0;" width="1787.8924" x="25" y="373.218"/><text fill="#000000" font-family="Hack" font-size="13" font-weight="bold" lengthAdjust="spacing" textLength="28.288" x="40" y="388.115">loop</text><text fill="#000000" font-family="Hack" font-size="11" font-weight="bold" lengthAdjust="spacing" textLength="116.5441" x="113.288" y="386.9769">[&#1044;&#1083;&#1103; &#1082;&#1072;&#1078;&#1076;&#1086;&#1075;&#1086; &#1089;&#1083;&#1086;&#1090;&#1072;]</text><path d="M35,399.924 L101.918,399.924 L101.918,409.63 L91.918,419.63 L35,419.63 L35,399.924 " fill="#FFFFFF" style="stroke:#000000;stroke-width:1.0;"/><rect fill="none" height="808.7581" style="stroke:#000000;stroke-width:1.0;" width="1767.8924" x="35" y="399.924"/><text fill="#000000" font-family="Hack" font-size="13" font-weight="bold" lengthAdjust="spacing" textLength="21.918" x="50" y="414.821">opt</text><path d="M45,426.63 L107.459,426.63 L107.459,436.336 L97.459,446.336 L45,446.336 L45,426.63 " fill="#FFFFFF" style="stroke:#000000;stroke-width:1.0;"/><rect fill="none" height="775.0521" style="stroke:#000000;stroke-width:1.0;" width="1747.8924" x="45" y="426.63"/><text fill="#000000" font-family="Hack" font-size="13" font-weight="bold" lengthAdjust="spacing" textLength="17.459" x="60" y="441.527">alt</text><text fill="#000000" font-family="Hack" font-size="11" font-weight="bold" lengthAdjust="spacing" textLength="167.0118" x="122.459" y="440.3889">[&#1047;&#1072;&#1087;&#1086;&#1083;&#1085;&#1080;&#1090;&#1100; &#1089;&#1072;&#1084;&#1086;&#1089;&#1090;&#1086;&#1103;&#1090;&#1077;&#1083;&#1100;&#1085;&#1086;]</text><polygon fill="#000000" points="411.3442,466.0421,421.3442,470.0421,411.3442,474.0421,415.3442,470.0421" style="stroke:#000000;stroke-width:1.0;"/><line style="stroke:#000000;stroke-width:1.0;" x1="82.6119" x2="417.3442" y1="470.0421" y2="470.0421"/><text fill="#000000" font-family="Hack" font-size="13" lengthAdjust="spacing" textLength="115.5181" x="89.6119" y="464.233">&#1053;&#1072;&#1089;&#1090;&#1088;&#1086;&#1080;&#1090;&#1100;&#1057;&#1083;&#1086;&#1090;(...)</text><polygon fill="#000000" points="585.2287,480.0421,595.2287,484.0421,585.2287,488.0421,589.2287,484.0421" style="stroke:#000000;stroke-width:1.0;"/><line style="stroke:#000000;stroke-width:1.0;" x1="423.3442" x2="591.2287" y1="484.0421" y2="484.0421"/><text fill="#000000" font-family="Hack" font-size="14" lengthAdjust="spacing" textLength="155.9454" x="587.2287" y="525.008">&#1069;&#1082;&#1088;&#1072;&#1085;&#1050;&#1086;&#1084;&#1087;&#1083;&#1077;&#1082;&#1090;&#1091;&#1102;&#1097;&#1080;&#1093;</text><path d="M647.7014,482.0421 L647.7014,506.0421 M647.7014,494.0421 L664.7014,494.0421 " fill="none" style="stroke:#000000;stroke-width:1.0;"/><ellipse cx="676.7014" cy="494.0421" fill="#FFFFFF" rx="12" ry="12" style="stroke:#000000;stroke-width:1.0;"/><polygon fill="#000000" points="434.3442,541.11,424.3442,545.11,434.3442,549.11,430.3442,545.11" style="stroke:#000000;stroke-width:1.0;"/><line style="stroke:#000000;stroke-width:1.0;stroke-dasharray:2.0,2.0;" x1="428.3442" x2="667.2014" y1="545.11" y2="545.11"/><polygon fill="#000000" points="656.2014,572.816,666.2014,576.816,656.2014,580.816,660.2014,576.816" style="stroke:#000000;stroke-width:1.0;"/><line style="stroke:#000000;stroke-width:1.0;stroke-dasharray:2.0,2.0;" x1="423.3442" x2="662.2014" y1="576.816" y2="576.816"/><text fill="#000000" font-family="Hack" font-size="13" lengthAdjust="spacing" textLength="220.8572" x="430.3442" y="571.007">&#1059;&#1095;&#1077;&#1089;&#1090;&#1100;&#1057;&#1086;&#1074;&#1084;&#1077;&#1089;&#1090;&#1080;&#1084;&#1086;&#1089;&#1090;&#1100;&#1057;&#1086;&#1057;&#1083;&#1086;&#1090;&#1086;&#1084;(..)</text><line style="stroke:#000000;stroke-width:1.0;" x1="668.2014" x2="710.2014" y1="590.816" y2="590.816"/><line style="stroke:#000000;stroke-width:1.0;" x1="710.2014" x2="710.2014" y1="590.816" y2="603.816"/><line style="stroke:#000000;stroke-width:1.0;" x1="669.2014" x2="710.2014" y1="603.816" y2="603.816"/><polygon fill="#000000" points="679.2014,599.816,669.2014,603.816,679.2014,607.816,675.2014,603.816" style="stroke:#000000;stroke-width:1.0;"/><polygon fill="#000000" points="434.3442,613.816,424.3442,617.816,434.3442,621.816,430.3442,617.816" style="stroke:#000000;stroke-width:1.0;"/><line style="stroke:#000000;stroke-width:1.0;stroke-dasharray:2.0,2.0;" x1="428.3442" x2="667.2014" y1="617.816" y2="617.816"/><polygon fill="#000000" points="93.6119,645.522,83.6119,649.522,93.6119,653.522,89.6119,649.522" style="stroke:#000000;stroke-width:1.0;"/><line style="stroke:#000000;stroke-width:1.0;stroke-dasharray:2.0,2.0;" x1="87.6119" x2="422.3442" y1="649.522" y2="649.522"/><text fill="#000000" font-family="Hack" font-size="13" lengthAdjust="spacing" textLength="144.8071" x="99.6119" y="643.713">&#1069;&#1082;&#1088;&#1072;&#1085;&#1050;&#1086;&#1084;&#1087;&#1083;&#1077;&#1082;&#1090;&#1091;&#1102;&#1097;&#1080;&#1093;</text><polygon fill="#000000" points="656.2014,677.228,666.2014,681.228,656.2014,685.228,660.2014,681.228" style="stroke:#000000;stroke-width:1.0;"/><line style="stroke:#000000;stroke-width:1.0;" x1="82.6119" x2="662.2014" y1="681.228" y2="681.228"/><text fill="#000000" font-family="Hack" font-size="13" lengthAdjust="spacing" textLength="129.8831" x="89.6119" y="675.419">&#1054;&#1090;&#1086;&#1073;&#1088;&#1072;&#1079;&#1080;&#1090;&#1100;&#1057;&#1087;&#1080;&#1089;&#1082;&#1080;()</text><polygon fill="#000000" points="1085.3727,708.934,1095.3727,712.934,1085.3727,716.934,1089.3727,712.934" style="stroke:#000000;stroke-width:1.0;"/><line style="stroke:#000000;stroke-width:1.0;" x1="668.2014" x2="1091.3727" y1="712.934" y2="712.934"/><text fill="#000000" font-family="Hack" font-size="13" lengthAdjust="spacing" textLength="278.5772" x="675.2014" y="707.125">&#1057;&#1086;&#1074;&#1077;&#1088;&#1096;&#1080;&#1090;&#1100;&#1055;&#1086;&#1080;&#1089;&#1082;(&#1079;&#1072;&#1087;&#1088;&#1086;&#1089;=0, &#1086;&#1090;&#1082;&#1088;&#1099;&#1090;&#1099;&#1081;&#1057;&#1083;&#1086;&#1090;)</text><polygon fill="#000000" points="1652.9787,740.6401,1662.9787,744.6401,1652.9787,748.6401,1656.9787,744.6401" style="stroke:#000000;stroke-width:1.0;"/><line style="stroke:#000000;stroke-width:1.0;" x1="1097.3727" x2="1658.9787" y1="744.6401" y2="744.6401"/><text fill="#000000" font-family="Hack" font-size="13" lengthAdjust="spacing" textLength="114.3351" x="1104.3727" y="738.831">&#1055;&#1077;&#1088;&#1077;&#1095;&#1080;&#1089;&#1083;&#1080;&#1090;&#1100;&#1042;&#1089;&#1077;()</text><polygon fill="#000000" points="1108.3727,754.6401,1098.3727,758.6401,1108.3727,762.6401,1104.3727,758.6401" style="stroke:#000000;stroke-width:1.0;"/><line style="stroke:#000000;stroke-width:1.0;stroke-dasharray:2.0,2.0;" x1="1102.3727" x2="1663.9787" y1="758.6401" y2="758.6401"/><path d="M999.7781,773.6401 L1073.0661,773.6401 L1073.0661,783.3461 L1063.0661,793.3461 L999.7781,793.3461 L999.7781,773.6401 " fill="#FFFFFF" style="stroke:#000000;stroke-width:1.0;"/><rect fill="none" height="65.412" style="stroke:#000000;stroke-width:1.0;" width="783.1143" x="999.7781" y="773.6401"/><text fill="#000000" font-family="Hack" font-size="13" font-weight="bold" lengthAdjust="spacing" textLength="28.288" x="1014.7781" y="788.5371">loop</text><text fill="#000000" font-family="Hack" font-size="11" font-weight="bold" lengthAdjust="spacing" textLength="186.1296" x="1088.0661" y="787.399">[&#1044;&#1083;&#1103; &#1082;&#1072;&#1078;&#1076;&#1086;&#1075;&#1086; &#1082;&#1086;&#1084;&#1087;&#1083;&#1077;&#1082;&#1090;&#1091;&#1102;&#1097;&#1077;&#1075;&#1086;]</text><polygon fill="#000000" points="1741.8554,813.0521,1751.8554,817.0521,1741.8554,821.0521,1745.8554,817.0521" style="stroke:#000000;stroke-width:1.0;"/><line style="stroke:#000000;stroke-width:1.0;" x1="1097.3727" x2="1747.8554" y1="817.0521" y2="817.0521"/><text fill="#000000" font-family="Hack" font-size="13" lengthAdjust="spacing" textLength="187.7982" x="1104.3727" y="811.2431">&#1055;&#1088;&#1086;&#1074;&#1077;&#1088;&#1080;&#1090;&#1100;&#1057;&#1086;&#1074;&#1084;&#1077;&#1089;&#1090;&#1080;&#1084;&#1086;&#1089;&#1090;&#1100;(...)</text><polygon fill="#000000" points="1108.3727,827.0521,1098.3727,831.0521,1108.3727,835.0521,1104.3727,831.0521" style="stroke:#000000;stroke-width:1.0;"/><line style="stroke:#000000;stroke-width:1.0;stroke-dasharray:2.0,2.0;" x1="1102.3727" x2="1752.8554" y1="831.0521" y2="831.0521"/><polygon fill="#000000" points="679.2014,865.7581,669.2014,869.7581,679.2014,873.7581,675.2014,869.7581" style="stroke:#000000;stroke-width:1.0;"/><line style="stroke:#000000;stroke-width:1.0;stroke-dasharray:2.0,2.0;" x1="673.2014" x2="1096.3727" y1="869.7581" y2="869.7581"/><text fill="#000000" font-family="Hack" font-size="13" lengthAdjust="spacing" textLength="405.1714" x="685.2014" y="863.9491">&#1089;&#1086;&#1074;&#1084;&#1077;&#1089;&#1090;&#1080;&#1084;&#1099;&#1077; &#1089;&#1086; &#1089;&#1083;&#1086;&#1090;&#1086;&#1084; &#1082;&#1086;&#1084;&#1087;&#1083;&#1077;&#1082;&#1090;&#1091;&#1102;&#1097;&#1080;&#1077;: &#1050;&#1086;&#1084;&#1087;&#1083;&#1077;&#1082;&#1090;&#1091;&#1102;&#1097;&#1080;&#1077;[0..*]</text><polygon fill="#000000" points="93.6119,879.7581,83.6119,883.7581,93.6119,887.7581,89.6119,883.7581" style="stroke:#000000;stroke-width:1.0;"/><line style="stroke:#000000;stroke-width:1.0;stroke-dasharray:2.0,2.0;" x1="87.6119" x2="667.2014" y1="883.7581" y2="883.7581"/><polygon fill="#000000" points="656.2014,911.4641,666.2014,915.4641,656.2014,919.4641,660.2014,915.4641" style="stroke:#000000;stroke-width:1.0;"/><line style="stroke:#000000;stroke-width:1.0;stroke-dasharray:2.0,2.0;" x1="82.6119" x2="662.2014" y1="915.4641" y2="915.4641"/><text fill="#000000" font-family="Hack" font-size="13" lengthAdjust="spacing" textLength="168.9091" x="89.6119" y="909.6551">&#1042;&#1099;&#1073;&#1088;&#1072;&#1090;&#1100;&#1050;&#1086;&#1084;&#1087;&#1083;&#1077;&#1082;&#1090;&#1091;&#1102;&#1097;&#1077;&#1077;()</text><polygon fill="#000000" points="93.6119,925.4641,83.6119,929.4641,93.6119,933.4641,89.6119,929.4641" style="stroke:#000000;stroke-width:1.0;"/><line style="stroke:#000000;stroke-width:1.0;stroke-dasharray:2.0,2.0;" x1="87.6119" x2="667.2014" y1="929.4641" y2="929.4641"/><polygon fill="#000000" points="656.2014,939.4641,666.2014,943.4641,656.2014,947.4641,660.2014,943.4641" style="stroke:#000000;stroke-width:1.0;"/><line style="stroke:#000000;stroke-width:1.0;" x1="82.6119" x2="662.2014" y1="943.4641" y2="943.4641"/><line style="stroke:#000000;stroke-width:2.0;" x1="659.2014" x2="677.2014" y1="934.4641" y2="952.4641"/><line style="stroke:#000000;stroke-width:2.0;" x1="659.2014" x2="677.2014" y1="952.4641" y2="934.4641"/><line style="stroke:#000000;stroke-width:1.0;stroke-dasharray:2.0,2.0;" x1="45" x2="1792.8924" y1="952.4641" y2="952.4641"/><text fill="#000000" font-family="Hack" font-size="11" font-weight="bold" lengthAdjust="spacing" textLength="160.3458" x="50" y="964.223">[&#1048;&#1089;&#1087;&#1086;&#1083;&#1100;&#1079;&#1086;&#1074;&#1072;&#1090;&#1100; &#1072;&#1074;&#1090;&#1086;&#1087;&#1086;&#1076;&#1073;&#1086;&#1088;]</text><polygon fill="#000000" points="411.3442,988.152,421.3442,992.152,411.3442,996.152,415.3442,992.152" style="stroke:#000000;stroke-width:1.0;"/><line style="stroke:#000000;stroke-width:1.0;" x1="82.6119" x2="417.3442" y1="992.152" y2="992.152"/><text fill="#000000" font-family="Hack" font-size="13" lengthAdjust="spacing" textLength="242.7752" x="89.6119" y="986.343">&#1057;&#1076;&#1077;&#1083;&#1072;&#1090;&#1100;&#1040;&#1074;&#1090;&#1086;&#1087;&#1086;&#1076;&#1073;&#1086;&#1088;&#1050;&#1086;&#1084;&#1087;&#1083;&#1077;&#1082;&#1090;&#1091;&#1102;&#1097;&#1080;&#1093;()</text><polygon fill="#000000" points="1085.3727,1019.858,1095.3727,1023.858,1085.3727,1027.858,1089.3727,1023.858" style="stroke:#000000;stroke-width:1.0;"/><line style="stroke:#000000;stroke-width:1.0;" x1="423.3442" x2="1091.3727" y1="1023.858" y2="1023.858"/><text fill="#000000" font-family="Hack" font-size="13" lengthAdjust="spacing" textLength="169.9101" x="430.3442" y="1018.049">&#1057;&#1076;&#1077;&#1083;&#1072;&#1090;&#1100;&#1040;&#1074;&#1090;&#1086;&#1087;&#1086;&#1076;&#1073;&#1086;&#1088;(:&#1057;&#1083;&#1086;&#1090;)</text><line style="stroke:#000000;stroke-width:1.0;" x1="1097.3727" x2="1139.3727" y1="1055.5641" y2="1055.5641"/><line style="stroke:#000000;stroke-width:1.0;" x1="1139.3727" x2="1139.3727" y1="1055.5641" y2="1068.5641"/><line style="stroke:#000000;stroke-width:1.0;" x1="1098.3727" x2="1139.3727" y1="1068.5641" y2="1068.5641"/><polygon fill="#000000" points="1108.3727,1064.5641,1098.3727,1068.5641,1108.3727,1072.5641,1104.3727,1068.5641" style="stroke:#000000;stroke-width:1.0;"/><text fill="#000000" font-family="Hack" font-size="13" lengthAdjust="spacing" textLength="278.5772" x="1104.3727" y="1049.7551">&#1057;&#1086;&#1074;&#1077;&#1088;&#1096;&#1080;&#1090;&#1100;&#1055;&#1086;&#1080;&#1089;&#1082;(&#1079;&#1072;&#1087;&#1088;&#1086;&#1089;=0, &#1086;&#1090;&#1082;&#1088;&#1099;&#1090;&#1099;&#1081;&#1057;&#1083;&#1086;&#1090;)</text><path d="M999.7781,1083.5641 L1073.0661,1083.5641 L1073.0661,1093.2701 L1063.0661,1103.2701 L999.7781,1103.2701 L999.7781,1083.5641 " fill="#FFFFFF" style="stroke:#000000;stroke-width:1.0;"/><rect fill="none" height="65.412" style="stroke:#000000;stroke-width:1.0;" width="735.0404" x="999.7781" y="1083.5641"/><text fill="#000000" font-family="Hack" font-size="13" font-weight="bold" lengthAdjust="spacing" textLength="28.288" x="1014.7781" y="1098.4611">loop</text><text fill="#000000" font-family="Hack" font-size="11" font-weight="bold" lengthAdjust="spacing" textLength="177.8356" x="1088.0661" y="1097.323">[&#1044;&#1083;&#1103; &#1082;&#1072;&#1078;&#1076;&#1086;&#1081; &#1082;&#1086;&#1084;&#1087;&#1083;&#1077;&#1082;&#1090;&#1091;&#1102;&#1097;&#1077;&#1081;]</text><polygon fill="#000000" points="1652.9787,1122.9761,1662.9787,1126.9761,1652.9787,1130.9761,1656.9787,1126.9761" style="stroke:#000000;stroke-width:1.0;"/><line style="stroke:#000000;stroke-width:1.0;" x1="1097.3727" x2="1658.9787" y1="1126.9761" y2="1126.9761"/><text fill="#000000" font-family="Hack" font-size="13" lengthAdjust="spacing" textLength="184.8342" x="1104.3727" y="1121.1671">&#1055;&#1086;&#1089;&#1095;&#1072;&#1090;&#1100;&#1054;&#1094;&#1077;&#1085;&#1085;&#1086;&#1095;&#1085;&#1099;&#1077;&#1041;&#1072;&#1083;&#1083;&#1099;()</text><polygon fill="#000000" points="1108.3727,1136.9761,1098.3727,1140.9761,1108.3727,1144.9761,1104.3727,1140.9761" style="stroke:#000000;stroke-width:1.0;"/><line style="stroke:#000000;stroke-width:1.0;stroke-dasharray:2.0,2.0;" x1="1102.3727" x2="1663.9787" y1="1140.9761" y2="1140.9761"/><polygon fill="#000000" points="434.3442,1175.6821,424.3442,1179.6821,434.3442,1183.6821,430.3442,1179.6821" style="stroke:#000000;stroke-width:1.0;"/><line style="stroke:#000000;stroke-width:1.0;stroke-dasharray:2.0,2.0;" x1="428.3442" x2="1096.3727" y1="1179.6821" y2="1179.6821"/><text fill="#000000" font-family="Hack" font-size="13" lengthAdjust="spacing" textLength="247.1172" x="440.3442" y="1173.8731">&#1050;&#1086;&#1084;&#1087;&#1083;&#1077;&#1082;&#1090;&#1091;&#1102;&#1097;&#1077;&#1077; &#1089; &#1085;&#1072;&#1080;&#1074;&#1099;&#1089;&#1096;&#1080;&#1084; &#1073;&#1072;&#1083;&#1083;&#1086;&#1084;</text><polygon fill="#000000" points="93.6119,1189.6821,83.6119,1193.6821,93.6119,1197.6821,89.6119,1193.6821" style="stroke:#000000;stroke-width:1.0;"/><line style="stroke:#000000;stroke-width:1.0;stroke-dasharray:2.0,2.0;" x1="87.6119" x2="422.3442" y1="1193.6821" y2="1193.6821"/><line style="stroke:#000000;stroke-width:1.0;stroke-dasharray:2.0,2.0;" x1="15" x2="1822.8924" y1="1223.6821" y2="1223.6821"/><polygon fill="#000000" points="411.3442,1244.3881,421.3442,1248.3881,411.3442,1252.3881,415.3442,1248.3881" style="stroke:#000000;stroke-width:1.0;"/><line style="stroke:#000000;stroke-width:1.0;" x1="82.6119" x2="417.3442" y1="1248.3881" y2="1248.3881"/><text fill="#000000" font-family="Hack" font-size="13" lengthAdjust="spacing" textLength="200.5122" x="89.6119" y="1242.5791">&#1042;&#1077;&#1088;&#1085;&#1091;&#1090;&#1100;&#1057;&#1087;&#1080;&#1089;&#1086;&#1082;&#1050;&#1086;&#1085;&#1092;&#1080;&#1075;&#1091;&#1088;&#1072;&#1094;&#1080;&#1081;()</text><polygon fill="#000000" points="93.6119,1258.3881,83.6119,1262.3881,93.6119,1266.3881,89.6119,1262.3881" style="stroke:#000000;stroke-width:1.0;"/><line style="stroke:#000000;stroke-width:1.0;stroke-dasharray:2.0,2.0;" x1="87.6119" x2="422.3442" y1="1262.3881" y2="1262.3881"/><line style="stroke:#000000;stroke-width:1.0;" x1="82.6119" x2="124.6119" y1="1294.0941" y2="1294.0941"/><line style="stroke:#000000;stroke-width:1.0;" x1="124.6119" x2="124.6119" y1="1294.0941" y2="1307.0941"/><line style="stroke:#000000;stroke-width:1.0;" x1="83.6119" x2="124.6119" y1="1307.0941" y2="1307.0941"/><polygon fill="#000000" points="93.6119,1303.0941,83.6119,1307.0941,93.6119,1311.0941,89.6119,1307.0941" style="stroke:#000000;stroke-width:1.0;"/><text fill="#000000" font-family="Hack" font-size="13" lengthAdjust="spacing" textLength="120.1591" x="89.6119" y="1288.2851">&#1042;&#1099;&#1073;&#1088;&#1072;&#1090;&#1100; &#1080;&#1079; &#1089;&#1087;&#1080;&#1089;&#1082;&#1072;</text><polygon fill="#000000" points="411.3442,1334.8002,421.3442,1338.8002,411.3442,1342.8002,415.3442,1338.8002" style="stroke:#000000;stroke-width:1.0;"/><line style="stroke:#000000;stroke-width:1.0;" x1="82.6119" x2="417.3442" y1="1338.8002" y2="1338.8002"/><text fill="#000000" font-family="Hack" font-size="13" lengthAdjust="spacing" textLength="316.7323" x="89.6119" y="1332.9912">&#1059;&#1089;&#1090;&#1072;&#1085;&#1086;&#1074;&#1080;&#1090;&#1100;&#1055;&#1088;&#1077;&#1076;&#1091;&#1089;&#1090;&#1072;&#1085;&#1086;&#1074;&#1083;&#1077;&#1085;&#1085;&#1091;&#1102;&#1050;&#1086;&#1085;&#1092;&#1080;&#1075;&#1091;&#1088;&#1072;&#1094;&#1080;&#1102;(..)</text><line style="stroke:#000000;stroke-width:1.0;" x1="423.3442" x2="465.3442" y1="1352.8002" y2="1352.8002"/><line style="stroke:#000000;stroke-width:1.0;" x1="465.3442" x2="465.3442" y1="1352.8002" y2="1365.8002"/><line style="stroke:#000000;stroke-width:1.0;" x1="424.3442" x2="465.3442" y1="1365.8002" y2="1365.8002"/><polygon fill="#000000" points="434.3442,1361.8002,424.3442,1365.8002,434.3442,1369.8002,430.3442,1365.8002" style="stroke:#000000;stroke-width:1.0;"/><polygon fill="#000000" points="93.6119,1393.5062,83.6119,1397.5062,93.6119,1401.5062,89.6119,1397.5062" style="stroke:#000000;stroke-width:1.0;"/><line style="stroke:#000000;stroke-width:1.0;stroke-dasharray:2.0,2.0;" x1="87.6119" x2="422.3442" y1="1397.5062" y2="1397.5062"/><text fill="#000000" font-family="Hack" font-size="13" lengthAdjust="spacing" textLength="316.7323" x="99.6119" y="1391.6972">&#1059;&#1089;&#1090;&#1072;&#1085;&#1086;&#1074;&#1080;&#1090;&#1100;&#1055;&#1088;&#1077;&#1076;&#1091;&#1089;&#1090;&#1072;&#1085;&#1086;&#1074;&#1083;&#1077;&#1085;&#1085;&#1091;&#1102;&#1050;&#1086;&#1085;&#1092;&#1080;&#1075;&#1091;&#1088;&#1072;&#1094;&#1080;&#1102;(..)</text><polygon fill="#000000" points="411.3442,1432.2122,421.3442,1436.2122,411.3442,1440.2122,415.3442,1436.2122" style="stroke:#000000;stroke-width:1.0;"/><line style="stroke:#000000;stroke-width:1.0;" x1="82.6119" x2="417.3442" y1="1436.2122" y2="1436.2122"/><text fill="#000000" font-family="Hack" font-size="13" lengthAdjust="spacing" textLength="205.5692" x="89.6119" y="1430.4032">&#1044;&#1086;&#1073;&#1072;&#1074;&#1080;&#1090;&#1100;&#1058;&#1077;&#1082;&#1091;&#1097;&#1080;&#1081;&#1055;&#1050;&#1042;&#1050;&#1086;&#1088;&#1079;&#1080;&#1085;&#1091;()</text><polygon fill="#000000" points="1377.95,1463.9182,1387.95,1467.9182,1377.95,1471.9182,1381.95,1467.9182" style="stroke:#000000;stroke-width:1.0;"/><line style="stroke:#000000;stroke-width:1.0;" x1="423.3442" x2="1383.95" y1="1467.9182" y2="1467.9182"/><text fill="#000000" font-family="Hack" font-size="13" lengthAdjust="spacing" textLength="166.5432" x="430.3442" y="1462.1092">&#1044;&#1086;&#1073;&#1072;&#1074;&#1080;&#1090;&#1100;&#1055;&#1050;&#1042;&#1050;&#1086;&#1088;&#1079;&#1080;&#1085;&#1091;(&#1055;&#1050;)</text><line style="stroke:#000000;stroke-width:1.0;" x1="1389.95" x2="1431.95" y1="1481.9182" y2="1481.9182"/><line style="stroke:#000000;stroke-width:1.0;" x1="1431.95" x2="1431.95" y1="1481.9182" y2="1494.9182"/><line style="stroke:#000000;stroke-width:1.0;" x1="1390.95" x2="1431.95" y1="1494.9182" y2="1494.9182"/><polygon fill="#000000" points="1400.95,1490.9182,1390.95,1494.9182,1400.95,1498.9182,1396.95,1494.9182" style="stroke:#000000;stroke-width:1.0;"/><polygon fill="#000000" points="1550.9561,1522.6242,1560.9561,1526.6242,1550.9561,1530.6242,1554.9561,1526.6242" style="stroke:#000000;stroke-width:1.0;"/><line style="stroke:#000000;stroke-width:1.0;" x1="1389.95" x2="1556.9561" y1="1526.6242" y2="1526.6242"/><text fill="#000000" font-family="Hack" font-size="13" lengthAdjust="spacing" textLength="149.0061" x="1396.95" y="1520.8152">&#1044;&#1086;&#1073;&#1072;&#1074;&#1080;&#1090;&#1100;&#1042;&#1050;&#1086;&#1088;&#1079;&#1080;&#1085;&#1091;(&#1055;&#1050;)</text><polygon fill="#000000" points="1400.95,1536.6242,1390.95,1540.6242,1400.95,1544.6242,1396.95,1540.6242" style="stroke:#000000;stroke-width:1.0;"/><line style="stroke:#000000;stroke-width:1.0;stroke-dasharray:2.0,2.0;" x1="1394.95" x2="1561.9561" y1="1540.6242" y2="1540.6242"/><polygon fill="#000000" points="434.3442,1550.6242,424.3442,1554.6242,434.3442,1558.6242,430.3442,1554.6242" style="stroke:#000000;stroke-width:1.0;"/><line style="stroke:#000000;stroke-width:1.0;stroke-dasharray:2.0,2.0;" x1="428.3442" x2="1388.95" y1="1554.6242" y2="1554.6242"/><polygon fill="#000000" points="93.6119,1564.6242,83.6119,1568.6242,93.6119,1572.6242,89.6119,1568.6242" style="stroke:#000000;stroke-width:1.0;"/><line style="stroke:#000000;stroke-width:1.0;stroke-dasharray:2.0,2.0;" x1="87.6119" x2="422.3442" y1="1568.6242" y2="1568.6242"/><!--SRC=[jLP1JnD15BxFhnXwAaGQpYHwW7WtyMWyLAZQk7H9MHEvKL3HG408YQQ94FHiKi2bBQNRlp3pZ_pUssaxkvqfSe24PdTstdlV-zxttinCzBQoLf5hOIqKGaJLAAZ8WZfJYVghhbIYj_5qgMvKIwg1tb8TrSF2jOfLNtNqeLGt4gijTS5Ruu8GvPKehCD54pixj4zl5sJ-hxmXbuDgfHQ9L-7xscgvlWcBF-g6VVNLEVlRGjWEe3GBOwjdoql6m6tP1BfRDK3i66lRUaSVwAz0-gcGcfVhqT21568bh4NrC30U6h2BzHRocEB5E7dwORrIZwJbeSc8sq3SHyvxgflrMHXci5JUU5SPsGjmK8qsS_QjmYHVgLrclmDZZ1hOLeHrR7DErNFLWxO-3yAS-xx-23XNS0rozMSgk5qEhc9OUrrz8qHQJJd_nAgGd9iJrXk-MTGjIdK6jp5abh2ow2bMFNra-8lT45H7MFpFPm9cek6BaPWe1v4J833yrWtKcvH3Ck-0nttr2r46-2LUTvXJD08bNYoLIhEvbEwE7eJXkbGdI8tQ1R6kEMVub9075qIrX0ZNKwHIVSUU0NRqkCU0YFQrKEo4mIRwa5eD_lO9jl2bzXE4OJ-8IqnYflpEDEp6eBhPxpcMyudQUvdINKY-OI8IhRVfEsWrEPWl1Wy9kSYGCa6pZgSYSZ8FAFyn5pBqPHCvPMWNxA4zed20fmPDfg8Ry4ZUQUxK_5-CyHbN0iP5-6knwa77uuL7aca0Lhs7ZJGx33MpmbRxC0Jr3Zd6_ouxx9a0ntYE3QvHQLBZgJh4gtkON96-SWXeJfZkDGcEkF4KEnKSsUL0BV80N1KJBPqf19BAEQRnmClZ3W9-NneuXO2twVlsOg5Kcdif9WKsRE2XG2OLSWmWh0_EtpkH9vGoTkuMdvoP0J71HaMg7to49DpjRUQ1WqdKxvBJ7l1HpUUbTnISfxFLuFmsQUdlZw9hKbWQlyDnSN4iPRl83zCh7ebt_GBl2WSixY_Ixgv9x1Gd3zruC6wnbfvEHt3VGwGzNxyvXMrNnQiNg5hIBG3gl4IM3IA5v7sHXYGpts73GQqVQCYhYcFktJxYsfCj0LVkaxURquAZHQpPc-aD2VEsP2cdqxCbxdCYcvi2iDZVUcbDY3VFTUMWUFy3-q4WfDNmP7n2fmpry-Z-CRnvW7EwTw1IrkrGxqpqf7sdT3XqkQ35MP6vZEOSUJuw_4_ppSnESVi_LwX_]--></g></svg>