<svg xmlns="http://www.w3.org/2000/svg" xmlns:xlink="http://www.w3.org/1999/xlink" contentStyleType="text/css" height="2356px" preserveAspectRatio="none" style="width:1270px;height:2356px;background:#FFFFFF;" version="1.1" viewBox="0 0 1270 2356" width="1270px" zoomAndPan="magnify"><defs/><g><rect fill="#FFFFFF" height="148.5301" style="stroke:#000000;stroke-width:1.0;" width="365.6481" x="373.418" y="133.7739"/><rect fill="#FFFFFF" height="65.412" style="stroke:none;stroke-width:1.0;" width="365.6481" x="373.418" y="216.892"/><rect fill="#FFFFFF" height="1899.9567" style="stroke:#000000;stroke-width:1.0;" width="1248.138" x="15" y="355.01"/><rect fill="#FFFFFF" height="970.6504" style="stroke:#000000;stroke-width:1.0;" width="1218.138" x="25" y="413.4221"/><rect fill="#FFFFFF" height="265.9421" style="stroke:#000000;stroke-width:1.0;" width="684.0661" x="55" y="440.1281"/><rect fill="#FFFFFF" height="200.5301" style="stroke:none;stroke-width:1.0;" width="684.0661" x="55" y="505.5401"/><rect fill="#FFFFFF" height="671.0023" style="stroke:none;stroke-width:1.0;" width="1218.138" x="25" y="713.0702"/><rect fill="#FFFFFF" height="531.8842" style="stroke:#000000;stroke-width:1.0;" width="824.8783" x="35" y="722.0702"/><rect fill="#FFFFFF" height="498.1782" style="stroke:#000000;stroke-width:1.0;" width="804.8783" x="45" y="748.7762"/><rect fill="#FFFFFF" height="464.4722" style="stroke:#000000;stroke-width:1.0;" width="784.8783" x="55" y="775.4822"/><rect fill="#FFFFFF" height="93.412" style="stroke:none;stroke-width:1.0;" width="784.8783" x="55" y="1146.5424"/><rect fill="#FFFFFF" height="863.8943" style="stroke:none;stroke-width:1.0;" width="1248.138" x="15" y="1391.0725"/><rect fill="#FFFFFF" height="847.8943" style="stroke:#000000;stroke-width:1.0;" width="1218.138" x="35" y="1400.0725"/><rect fill="#FFFFFF" height="814.1882" style="stroke:#000000;stroke-width:1.0;" width="1198.138" x="45" y="1426.7785"/><rect fill="#FFFFFF" height="544.2461" style="stroke:#000000;stroke-width:1.0;" width="1113.7723" x="55" y="1453.4845"/><rect fill="#FFFFFF" height="429.4221" style="stroke:none;stroke-width:1.0;" width="1113.7723" x="55" y="1568.3086"/><rect fill="#FFFFFF" height="85.118" style="stroke:#000000;stroke-width:1.0;" width="387.418" x="55" y="2043.4367"/><rect fill="#FFFFFF" height="33.706" style="stroke:none;stroke-width:1.0;" width="387.418" x="55" y="2094.8487"/><line style="stroke:#000000;stroke-width:1.0;" x1="116" x2="116" y1="85.0679" y2="2271.9667"/><line style="stroke:#000000;stroke-width:1.0;" x1="407.418" x2="407.418" y1="85.0679" y2="2271.9667"/><line style="stroke:#000000;stroke-width:1.0;" x1="696.6384" x2="696.6384" y1="85.0679" y2="2271.9667"/><line style="stroke:#000000;stroke-width:1.0;" x1="925.6515" x2="925.6515" y1="85.0679" y2="2271.9667"/><line style="stroke:#000000;stroke-width:1.0;" x1="1090.0968" x2="1090.0968" y1="1723.6666" y2="2271.9667"/><line style="stroke:#000000;stroke-width:1.0;" x1="1200.7723" x2="1200.7723" y1="85.0679" y2="2271.9667"/><text fill="#000000" font-family="Hack" font-size="14" lengthAdjust="spacing" textLength="97.3276" x="65" y="80.9659">&#1055;&#1086;&#1083;&#1100;&#1079;&#1086;&#1074;&#1072;&#1090;&#1077;&#1083;&#1100;</text><ellipse cx="116.6638" cy="14" fill="#FFFFFF" rx="8" ry="8" style="stroke:#000000;stroke-width:1.0;"/><path d="M116.6638,22 L116.6638,49 M103.6638,30 L129.6638,30 M116.6638,49 L103.6638,64 M116.6638,49 L129.6638,64 " fill="none" style="stroke:#000000;stroke-width:1.0;"/><text fill="#000000" font-family="Hack" font-size="14" lengthAdjust="spacing" textLength="97.3276" x="65" y="2285.9327">&#1055;&#1086;&#1083;&#1100;&#1079;&#1086;&#1074;&#1072;&#1090;&#1077;&#1083;&#1100;</text><ellipse cx="116.6638" cy="2299.0347" fill="#FFFFFF" rx="8" ry="8" style="stroke:#000000;stroke-width:1.0;"/><path d="M116.6638,2307.0347 L116.6638,2334.0347 M103.6638,2315.0347 L129.6638,2315.0347 M116.6638,2334.0347 L103.6638,2349.0347 M116.6638,2334.0347 L129.6638,2349.0347 " fill="none" style="stroke:#000000;stroke-width:1.0;"/><text fill="#000000" font-family="Hack" font-size="14" lengthAdjust="spacing" textLength="32.3679" x="388.7341" y="80.9659">&#1057;&#1072;&#1081;&#1090;</text><path d="M387.418,38 L387.418,62 M387.418,50 L404.418,50 " fill="none" style="stroke:#000000;stroke-width:1.0;"/><ellipse cx="416.418" cy="50" fill="#FFFFFF" rx="12" ry="12" style="stroke:#000000;stroke-width:1.0;"/><text fill="#000000" font-family="Hack" font-size="14" lengthAdjust="spacing" textLength="32.3679" x="388.7341" y="2285.9327">&#1057;&#1072;&#1081;&#1090;</text><path d="M387.418,2294.0347 L387.418,2318.0347 M387.418,2306.0347 L404.418,2306.0347 " fill="none" style="stroke:#000000;stroke-width:1.0;"/><ellipse cx="416.418" cy="2306.0347" fill="#FFFFFF" rx="12" ry="12" style="stroke:#000000;stroke-width:1.0;"/><text fill="#000000" font-family="Hack" font-size="14" lengthAdjust="spacing" textLength="57.4278" x="665.6384" y="80.9659">&#1057;&#1080;&#1089;&#1090;&#1077;&#1084;&#1072;</text><ellipse cx="697.3522" cy="50" fill="#FFFFFF" rx="12" ry="12" style="stroke:#000000;stroke-width:1.0;"/><polygon fill="#000000" points="693.3522,38,699.3522,33,697.3522,38,699.3522,43,693.3522,38" style="stroke:#000000;stroke-width:1.0;"/><text fill="#000000" font-family="Hack" font-size="14" lengthAdjust="spacing" textLength="57.4278" x="665.6384" y="2285.9327">&#1057;&#1080;&#1089;&#1090;&#1077;&#1084;&#1072;</text><ellipse cx="697.3522" cy="2306.0347" fill="#FFFFFF" rx="12" ry="12" style="stroke:#000000;stroke-width:1.0;"/><polygon fill="#000000" points="693.3522,2294.0347,699.3522,2289.0347,697.3522,2294.0347,699.3522,2299.0347,693.3522,2294.0347" style="stroke:#000000;stroke-width:1.0;"/><text fill="#000000" font-family="Hack" font-size="14" lengthAdjust="spacing" textLength="41.8318" x="902.6515" y="80.9659">&#1055;&#1086;&#1080;&#1089;&#1082;</text><ellipse cx="926.5674" cy="50" fill="#FFFFFF" rx="12" ry="12" style="stroke:#000000;stroke-width:1.0;"/><line style="stroke:#000000;stroke-width:1.0;" x1="914.5674" x2="938.5674" y1="64" y2="64"/><text fill="#000000" font-family="Hack" font-size="14" lengthAdjust="spacing" textLength="41.8318" x="902.6515" y="2285.9327">&#1055;&#1086;&#1080;&#1089;&#1082;</text><ellipse cx="926.5674" cy="2306.0347" fill="#FFFFFF" rx="12" ry="12" style="stroke:#000000;stroke-width:1.0;"/><line style="stroke:#000000;stroke-width:1.0;" x1="914.5674" x2="938.5674" y1="2320.0347" y2="2320.0347"/><text fill="#000000" font-family="Hack" font-size="14" lengthAdjust="spacing" textLength="130.6755" x="1022.0968" y="2285.9327">&#1056;&#1077;&#1079;&#1091;&#1083;&#1100;&#1090;&#1072;&#1090;&#1099; &#1087;&#1086;&#1080;&#1089;&#1082;&#1072;</text><ellipse cx="1090.4345" cy="2306.0347" fill="#FFFFFF" rx="12" ry="12" style="stroke:#000000;stroke-width:1.0;"/><line style="stroke:#000000;stroke-width:1.0;" x1="1078.4345" x2="1102.4345" y1="2320.0347" y2="2320.0347"/><text fill="#000000" font-family="Hack" font-size="14" lengthAdjust="spacing" textLength="58.3658" x="1168.7723" y="80.9659">&#1050;&#1086;&#1088;&#1079;&#1080;&#1085;&#1072;</text><ellipse cx="1200.9552" cy="50" fill="#FFFFFF" rx="12" ry="12" style="stroke:#000000;stroke-width:1.0;"/><line style="stroke:#000000;stroke-width:1.0;" x1="1188.9552" x2="1212.9552" y1="64" y2="64"/><text fill="#000000" font-family="Hack" font-size="14" lengthAdjust="spacing" textLength="58.3658" x="1168.7723" y="2285.9327">&#1050;&#1086;&#1088;&#1079;&#1080;&#1085;&#1072;</text><ellipse cx="1200.9552" cy="2306.0347" fill="#FFFFFF" rx="12" ry="12" style="stroke:#000000;stroke-width:1.0;"/><line style="stroke:#000000;stroke-width:1.0;" x1="1188.9552" x2="1212.9552" y1="2320.0347" y2="2320.0347"/><polygon fill="#000000" points="395.918,114.7739,405.918,118.7739,395.918,122.7739,399.918,118.7739" style="stroke:#000000;stroke-width:1.0;"/><line style="stroke:#000000;stroke-width:1.0;" x1="116.6638" x2="401.918" y1="118.7739" y2="118.7739"/><text fill="#000000" font-family="Hack" font-size="13" lengthAdjust="spacing" textLength="86.6971" x="123.6638" y="112.9649">&#1054;&#1090;&#1082;&#1088;&#1099;&#1090;&#1100; &#1089;&#1072;&#1081;&#1090;</text><path d="M373.418,133.7739 L440.401,133.7739 L440.401,143.4799 L430.401,153.4799 L373.418,153.4799 L373.418,133.7739 " fill="#FFFFFF" style="stroke:#000000;stroke-width:1.0;"/><rect fill="none" height="148.5301" style="stroke:#000000;stroke-width:1.0;" width="365.6481" x="373.418" y="133.7739"/><text fill="#000000" font-family="Hack" font-size="13" font-weight="bold" lengthAdjust="spacing" textLength="21.983" x="388.418" y="148.6709">par</text><polygon fill="#000000" points="685.3522,173.186,695.3522,177.186,685.3522,181.186,689.3522,177.186" style="stroke:#000000;stroke-width:1.0;"/><line style="stroke:#000000;stroke-width:1.0;" x1="407.918" x2="691.3522" y1="177.186" y2="177.186"/><text fill="#000000" font-family="Hack" font-size="13" lengthAdjust="spacing" textLength="193.6872" x="414.918" y="171.377">&#1047;&#1072;&#1087;&#1088;&#1086;&#1089;&#1080;&#1090;&#1100; &#1089;&#1087;&#1080;&#1089;&#1086;&#1082; &#1082;&#1086;&#1084;&#1087;&#1083;&#1077;&#1082;&#1090;&#1086;&#1074;</text><polygon fill="#000000" points="418.918,204.892,408.918,208.892,418.918,212.892,414.918,208.892" style="stroke:#000000;stroke-width:1.0;"/><line style="stroke:#000000;stroke-width:1.0;stroke-dasharray:2.0,2.0;" x1="412.918" x2="696.3522" y1="208.892" y2="208.892"/><text fill="#000000" font-family="Hack" font-size="13" lengthAdjust="spacing" textLength="124.8651" x="424.918" y="203.083">&#1057;&#1087;&#1080;&#1089;&#1086;&#1082; &#1082;&#1086;&#1084;&#1087;&#1083;&#1077;&#1082;&#1090;&#1086;&#1074;</text><line style="stroke:#000000;stroke-width:1.0;stroke-dasharray:2.0,2.0;" x1="373.418" x2="739.0661" y1="217.892" y2="217.892"/><polygon fill="#000000" points="685.3522,238.598,695.3522,242.598,685.3522,246.598,689.3522,242.598" style="stroke:#000000;stroke-width:1.0;"/><line style="stroke:#000000;stroke-width:1.0;" x1="407.918" x2="691.3522" y1="242.598" y2="242.598"/><text fill="#000000" font-family="Hack" font-size="13" lengthAdjust="spacing" textLength="224.5622" x="414.918" y="236.789">&#1047;&#1072;&#1087;&#1088;&#1086;&#1089;&#1080;&#1090;&#1100; &#1089;&#1087;&#1080;&#1089;&#1086;&#1082; &#1087;&#1088;&#1086;&#1080;&#1079;&#1074;&#1086;&#1076;&#1080;&#1090;&#1077;&#1083;&#1077;&#1081;</text><polygon fill="#000000" points="418.918,270.304,408.918,274.304,418.918,278.304,414.918,274.304" style="stroke:#000000;stroke-width:1.0;"/><line style="stroke:#000000;stroke-width:1.0;stroke-dasharray:2.0,2.0;" x1="412.918" x2="696.3522" y1="274.304" y2="274.304"/><text fill="#000000" font-family="Hack" font-size="13" lengthAdjust="spacing" textLength="155.7401" x="424.918" y="268.495">&#1057;&#1087;&#1080;&#1089;&#1086;&#1082; &#1087;&#1088;&#1086;&#1080;&#1079;&#1074;&#1086;&#1076;&#1080;&#1090;&#1077;&#1083;&#1077;&#1081;</text><line style="stroke:#000000;stroke-width:1.0;" x1="407.918" x2="449.918" y1="313.01" y2="313.01"/><line style="stroke:#000000;stroke-width:1.0;" x1="449.918" x2="449.918" y1="313.01" y2="326.01"/><line style="stroke:#000000;stroke-width:1.0;" x1="408.918" x2="449.918" y1="326.01" y2="326.01"/><polygon fill="#000000" points="418.918,322.01,408.918,326.01,418.918,330.01,414.918,326.01" style="stroke:#000000;stroke-width:1.0;"/><text fill="#000000" font-family="Hack" font-size="13" lengthAdjust="spacing" textLength="138.8011" x="414.918" y="307.201">&#1054;&#1090;&#1082;&#1088;&#1099;&#1090;&#1100; &#171;&#1057;&#1073;&#1086;&#1088;&#1082;&#1072; &#1055;&#1050;&#187;</text><polygon fill="#000000" points="127.6638,336.01,117.6638,340.01,127.6638,344.01,123.6638,340.01" style="stroke:#000000;stroke-width:1.0;"/><line style="stroke:#000000;stroke-width:1.0;stroke-dasharray:2.0,2.0;" x1="121.6638" x2="406.918" y1="340.01" y2="340.01"/><path d="M15,355.01 L82.373,355.01 L82.373,364.716 L72.373,374.716 L15,374.716 L15,355.01 " fill="#FFFFFF" style="stroke:#000000;stroke-width:1.0;"/><rect fill="none" height="1899.9567" style="stroke:#000000;stroke-width:1.0;" width="1248.138" x="15" y="355.01"/><text fill="#000000" font-family="Hack" font-size="13" font-weight="bold" lengthAdjust="spacing" textLength="22.373" x="30" y="369.907">seq</text><polygon fill="#000000" points="395.918,394.4221,405.918,398.4221,395.918,402.4221,399.918,398.4221" style="stroke:#000000;stroke-width:1.0;"/><line style="stroke:#000000;stroke-width:1.0;" x1="116.6638" x2="401.918" y1="398.4221" y2="398.4221"/><text fill="#000000" font-family="Hack" font-size="13" lengthAdjust="spacing" textLength="138.8011" x="123.6638" y="392.6131">&#1054;&#1090;&#1082;&#1088;&#1099;&#1090;&#1100; &#171;&#1057;&#1073;&#1086;&#1088;&#1082;&#1072; &#1055;&#1050;&#187;</text><path d="M25,413.4221 L91.918,413.4221 L91.918,423.1281 L81.918,433.1281 L25,433.1281 L25,413.4221 " fill="#FFFFFF" style="stroke:#000000;stroke-width:1.0;"/><rect fill="none" height="970.6504" style="stroke:#000000;stroke-width:1.0;" width="1218.138" x="25" y="413.4221"/><text fill="#000000" font-family="Hack" font-size="13" font-weight="bold" lengthAdjust="spacing" textLength="21.918" x="40" y="428.3191">opt</text><path d="M55,440.1281 L117.459,440.1281 L117.459,449.8341 L107.459,459.8341 L55,459.8341 L55,440.1281 " fill="#FFFFFF" style="stroke:#000000;stroke-width:1.0;"/><rect fill="none" height="265.9421" style="stroke:#000000;stroke-width:1.0;" width="684.0661" x="55" y="440.1281"/><text fill="#000000" font-family="Hack" font-size="13" font-weight="bold" lengthAdjust="spacing" textLength="17.459" x="70" y="455.0251">alt</text><polygon fill="#000000" points="395.918,479.5401,405.918,483.5401,395.918,487.5401,399.918,483.5401" style="stroke:#000000;stroke-width:1.0;"/><line style="stroke:#000000;stroke-width:1.0;" x1="116.6638" x2="401.918" y1="483.5401" y2="483.5401"/><text fill="#000000" font-family="Hack" font-size="13" lengthAdjust="spacing" textLength="102.5051" x="123.6638" y="477.7311">&#1042;&#1099;&#1073;&#1088;&#1072;&#1090;&#1100; &#1090;&#1080;&#1087; &#1055;&#1050;</text><polygon fill="#000000" points="127.6638,493.5401,117.6638,497.5401,127.6638,501.5401,123.6638,497.5401" style="stroke:#000000;stroke-width:1.0;"/><line style="stroke:#000000;stroke-width:1.0;stroke-dasharray:2.0,2.0;" x1="121.6638" x2="406.918" y1="497.5401" y2="497.5401"/><line style="stroke:#000000;stroke-width:1.0;stroke-dasharray:2.0,2.0;" x1="55" x2="739.0661" y1="506.5401" y2="506.5401"/><polygon fill="#000000" points="395.918,527.2461,405.918,531.2461,395.918,535.2461,399.918,531.2461" style="stroke:#000000;stroke-width:1.0;"/><line style="stroke:#000000;stroke-width:1.0;" x1="116.6638" x2="401.918" y1="531.2461" y2="531.2461"/><text fill="#000000" font-family="Hack" font-size="13" lengthAdjust="spacing" textLength="176.2801" x="123.6638" y="525.4371">&#1042;&#1099;&#1073;&#1088;&#1072;&#1090;&#1100; &#1075;&#1086;&#1090;&#1086;&#1074;&#1099;&#1081; &#1082;&#1086;&#1084;&#1087;&#1083;&#1077;&#1082;&#1090;</text><polygon fill="#000000" points="685.3522,558.9521,695.3522,562.9521,685.3522,566.9521,689.3522,562.9521" style="stroke:#000000;stroke-width:1.0;"/><line style="stroke:#000000;stroke-width:1.0;" x1="407.918" x2="691.3522" y1="562.9521" y2="562.9521"/><text fill="#000000" font-family="Hack" font-size="13" lengthAdjust="spacing" textLength="221.9232" x="414.918" y="557.1431">&#1047;&#1072;&#1087;&#1088;&#1086;&#1089;&#1080;&#1090;&#1100; &#1089;&#1086;&#1076;&#1077;&#1088;&#1078;&#1080;&#1084;&#1086;&#1077; &#1082;&#1086;&#1084;&#1087;&#1083;&#1077;&#1082;&#1090;&#1072;</text><polygon fill="#000000" points="418.918,590.6582,408.918,594.6582,418.918,598.6582,414.918,594.6582" style="stroke:#000000;stroke-width:1.0;"/><line style="stroke:#000000;stroke-width:1.0;stroke-dasharray:2.0,2.0;" x1="412.918" x2="696.3522" y1="594.6582" y2="594.6582"/><text fill="#000000" font-family="Hack" font-size="13" lengthAdjust="spacing" textLength="138.1641" x="424.918" y="588.8492">&#1042;&#1077;&#1088;&#1085;&#1091;&#1090;&#1100; &#1089;&#1086;&#1078;&#1077;&#1088;&#1078;&#1080;&#1084;&#1086;&#1077;</text><line style="stroke:#000000;stroke-width:1.0;" x1="407.918" x2="449.918" y1="626.3642" y2="626.3642"/><line style="stroke:#000000;stroke-width:1.0;" x1="449.918" x2="449.918" y1="626.3642" y2="639.3642"/><line style="stroke:#000000;stroke-width:1.0;" x1="408.918" x2="449.918" y1="639.3642" y2="639.3642"/><polygon fill="#000000" points="418.918,635.3642,408.918,639.3642,418.918,643.3642,414.918,639.3642" style="stroke:#000000;stroke-width:1.0;"/><text fill="#000000" font-family="Hack" font-size="13" lengthAdjust="spacing" textLength="89.8821" x="414.918" y="620.5552">&#1054;&#1073;&#1085;&#1086;&#1074;&#1080;&#1090;&#1100; &#1090;&#1080;&#1087;</text><line style="stroke:#000000;stroke-width:1.0;" x1="407.918" x2="449.918" y1="671.0702" y2="671.0702"/><line style="stroke:#000000;stroke-width:1.0;" x1="449.918" x2="449.918" y1="671.0702" y2="684.0702"/><line style="stroke:#000000;stroke-width:1.0;" x1="408.918" x2="449.918" y1="684.0702" y2="684.0702"/><polygon fill="#000000" points="418.918,680.0702,408.918,684.0702,418.918,688.0702,414.918,684.0702" style="stroke:#000000;stroke-width:1.0;"/><text fill="#000000" font-family="Hack" font-size="13" lengthAdjust="spacing" textLength="110.2791" x="414.918" y="665.2612">&#1047;&#1072;&#1087;&#1086;&#1083;&#1085;&#1080;&#1090;&#1100; &#1089;&#1083;&#1086;&#1090;&#1099;</text><polygon fill="#000000" points="127.6638,694.0702,117.6638,698.0702,127.6638,702.0702,123.6638,698.0702" style="stroke:#000000;stroke-width:1.0;"/><line style="stroke:#000000;stroke-width:1.0;stroke-dasharray:2.0,2.0;" x1="121.6638" x2="406.918" y1="698.0702" y2="698.0702"/><line style="stroke:#000000;stroke-width:1.0;stroke-dasharray:2.0,2.0;" x1="25" x2="1243.138" y1="714.0702" y2="714.0702"/><path d="M35,722.0702 L108.288,722.0702 L108.288,731.7762 L98.288,741.7762 L35,741.7762 L35,722.0702 " fill="#FFFFFF" style="stroke:#000000;stroke-width:1.0;"/><rect fill="none" height="531.8842" style="stroke:#000000;stroke-width:1.0;" width="824.8783" x="35" y="722.0702"/><text fill="#000000" font-family="Hack" font-size="13" font-weight="bold" lengthAdjust="spacing" textLength="28.288" x="50" y="736.9672">loop</text><text fill="#000000" font-family="Hack" font-size="11" font-weight="bold" lengthAdjust="spacing" textLength="98.7243" x="123.288" y="735.8291">[&#1076;&#1083;&#1103; &#1074;&#1089;&#1077;&#1093; &#1089;&#1083;&#1086;&#1090;&#1086;&#1074;]</text><path d="M45,748.7762 L111.918,748.7762 L111.918,758.4822 L101.918,768.4822 L45,768.4822 L45,748.7762 " fill="#FFFFFF" style="stroke:#000000;stroke-width:1.0;"/><rect fill="none" height="498.1782" style="stroke:#000000;stroke-width:1.0;" width="804.8783" x="45" y="748.7762"/><text fill="#000000" font-family="Hack" font-size="13" font-weight="bold" lengthAdjust="spacing" textLength="21.918" x="60" y="763.6732">opt</text><path d="M55,775.4822 L117.459,775.4822 L117.459,785.1882 L107.459,795.1882 L55,795.1882 L55,775.4822 " fill="#FFFFFF" style="stroke:#000000;stroke-width:1.0;"/><rect fill="none" height="464.4722" style="stroke:#000000;stroke-width:1.0;" width="784.8783" x="55" y="775.4822"/><text fill="#000000" font-family="Hack" font-size="13" font-weight="bold" lengthAdjust="spacing" textLength="17.459" x="70" y="790.3792">alt</text><polygon fill="#000000" points="395.918,814.8943,405.918,818.8943,395.918,822.8943,399.918,818.8943" style="stroke:#000000;stroke-width:1.0;"/><line style="stroke:#000000;stroke-width:1.0;" x1="116.6638" x2="401.918" y1="818.8943" y2="818.8943"/><text fill="#000000" font-family="Hack" font-size="13" lengthAdjust="spacing" textLength="100.1651" x="123.6638" y="813.0853">&#1047;&#1072;&#1087;&#1086;&#1083;&#1085;&#1080;&#1090;&#1100; &#1089;&#1083;&#1086;&#1090;</text><line style="stroke:#000000;stroke-width:1.0;" x1="407.918" x2="449.918" y1="850.6003" y2="850.6003"/><line style="stroke:#000000;stroke-width:1.0;" x1="449.918" x2="449.918" y1="850.6003" y2="863.6003"/><line style="stroke:#000000;stroke-width:1.0;" x1="408.918" x2="449.918" y1="863.6003" y2="863.6003"/><polygon fill="#000000" points="418.918,859.6003,408.918,863.6003,418.918,867.6003,414.918,863.6003" style="stroke:#000000;stroke-width:1.0;"/><text fill="#000000" font-family="Hack" font-size="13" lengthAdjust="spacing" textLength="174.4081" x="414.918" y="844.7913">&#1054;&#1090;&#1086;&#1073;&#1088;&#1072;&#1079;&#1080;&#1090;&#1100; &#1084;&#1077;&#1085;&#1102; &#1042;&#1099;&#1073;&#1088;&#1072;&#1090;&#1100;</text><polygon fill="#000000" points="685.3522,891.3063,695.3522,895.3063,685.3522,899.3063,689.3522,895.3063" style="stroke:#000000;stroke-width:1.0;"/><line style="stroke:#000000;stroke-width:1.0;" x1="407.918" x2="691.3522" y1="895.3063" y2="895.3063"/><text fill="#000000" font-family="Hack" font-size="13" lengthAdjust="spacing" textLength="234.3252" x="414.918" y="889.4973">&#1047;&#1072;&#1087;&#1088;&#1086;&#1089;&#1080;&#1090;&#1100; &#1082;&#1086;&#1084;&#1087;&#1083;&#1077;&#1082;&#1090;&#1091;&#1102;&#1097;&#1080;&#1077; &#1087;&#1086;&#1076; &#1089;&#1083;&#1086;&#1090;</text><line style="stroke:#000000;stroke-width:1.0;" x1="697.3522" x2="739.3522" y1="927.0123" y2="927.0123"/><line style="stroke:#000000;stroke-width:1.0;" x1="739.3522" x2="739.3522" y1="927.0123" y2="940.0123"/><line style="stroke:#000000;stroke-width:1.0;" x1="698.3522" x2="739.3522" y1="940.0123" y2="940.0123"/><polygon fill="#000000" points="708.3522,936.0123,698.3522,940.0123,708.3522,944.0123,704.3522,940.0123" style="stroke:#000000;stroke-width:1.0;"/><text fill="#000000" font-family="Hack" font-size="13" lengthAdjust="spacing" textLength="123.5261" x="704.3522" y="921.2033">&#1054;&#1073;&#1088;&#1072;&#1073;&#1086;&#1090;&#1072;&#1090;&#1100; &#1079;&#1072;&#1087;&#1088;&#1086;&#1089;</text><polygon fill="#000000" points="418.918,967.7183,408.918,971.7183,418.918,975.7183,414.918,971.7183" style="stroke:#000000;stroke-width:1.0;"/><line style="stroke:#000000;stroke-width:1.0;stroke-dasharray:2.0,2.0;" x1="412.918" x2="696.3522" y1="971.7183" y2="971.7183"/><text fill="#000000" font-family="Hack" font-size="13" lengthAdjust="spacing" textLength="154.0241" x="424.918" y="965.9093">&#1057;&#1087;&#1080;&#1089;&#1086;&#1082; &#1082;&#1086;&#1084;&#1087;&#1083;&#1077;&#1082;&#1090;&#1091;&#1102;&#1097;&#1080;&#1093;</text><polygon fill="#000000" points="127.6638,999.4243,117.6638,1003.4243,127.6638,1007.4243,123.6638,1003.4243" style="stroke:#000000;stroke-width:1.0;"/><line style="stroke:#000000;stroke-width:1.0;stroke-dasharray:2.0,2.0;" x1="121.6638" x2="406.918" y1="1003.4243" y2="1003.4243"/><text fill="#000000" font-family="Hack" font-size="13" lengthAdjust="spacing" textLength="184.7301" x="133.6638" y="997.6153">&#1054;&#1090;&#1086;&#1073;&#1088;&#1072;&#1079;&#1080;&#1090;&#1100; &#1082;&#1086;&#1084;&#1087;&#1083;&#1077;&#1082;&#1090;&#1091;&#1102;&#1097;&#1080;&#1077;</text><polygon fill="#000000" points="395.918,1031.1304,405.918,1035.1304,395.918,1039.1304,399.918,1035.1304" style="stroke:#000000;stroke-width:1.0;"/><line style="stroke:#000000;stroke-width:1.0;stroke-dasharray:2.0,2.0;" x1="116.6638" x2="401.918" y1="1035.1304" y2="1035.1304"/><text fill="#000000" font-family="Hack" font-size="13" lengthAdjust="spacing" textLength="96.4471" x="123.6638" y="1029.3214">&#1057;&#1076;&#1077;&#1083;&#1072;&#1090;&#1100; &#1074;&#1099;&#1073;&#1086;&#1088;</text><line style="stroke:#000000;stroke-width:1.0;stroke-dasharray:2.0,2.0;" x1="407.918" x2="449.918" y1="1066.8364" y2="1066.8364"/><line style="stroke:#000000;stroke-width:1.0;stroke-dasharray:2.0,2.0;" x1="449.918" x2="449.918" y1="1066.8364" y2="1079.8364"/><line style="stroke:#000000;stroke-width:1.0;stroke-dasharray:2.0,2.0;" x1="408.918" x2="449.918" y1="1079.8364" y2="1079.8364"/><polygon fill="#000000" points="418.918,1075.8364,408.918,1079.8364,418.918,1083.8364,414.918,1079.8364" style="stroke:#000000;stroke-width:1.0;"/><text fill="#000000" font-family="Hack" font-size="13" lengthAdjust="spacing" textLength="93.7041" x="414.918" y="1061.0274">&#1047;&#1072;&#1084;&#1077;&#1085;&#1080;&#1090;&#1100; &#1089;&#1083;&#1086;&#1090;</text><line style="stroke:#000000;stroke-width:1.0;stroke-dasharray:2.0,2.0;" x1="407.918" x2="449.918" y1="1111.5424" y2="1111.5424"/><line style="stroke:#000000;stroke-width:1.0;stroke-dasharray:2.0,2.0;" x1="449.918" x2="449.918" y1="1111.5424" y2="1124.5424"/><line style="stroke:#000000;stroke-width:1.0;stroke-dasharray:2.0,2.0;" x1="408.918" x2="449.918" y1="1124.5424" y2="1124.5424"/><polygon fill="#000000" points="418.918,1120.5424,408.918,1124.5424,418.918,1128.5424,414.918,1124.5424" style="stroke:#000000;stroke-width:1.0;"/><text fill="#000000" font-family="Hack" font-size="13" lengthAdjust="spacing" textLength="185.8091" x="414.918" y="1105.7334">&#1054;&#1090;&#1086;&#1073;&#1088;&#1072;&#1079;&#1080;&#1090;&#1100; &#1084;&#1077;&#1085;&#1102; &#1057;&#1073;&#1086;&#1088;&#1082;&#1072; &#1055;&#1050;</text><polygon fill="#000000" points="127.6638,1134.5424,117.6638,1138.5424,127.6638,1142.5424,123.6638,1138.5424" style="stroke:#000000;stroke-width:1.0;"/><line style="stroke:#000000;stroke-width:1.0;stroke-dasharray:2.0,2.0;" x1="121.6638" x2="406.918" y1="1138.5424" y2="1138.5424"/><line style="stroke:#000000;stroke-width:1.0;stroke-dasharray:2.0,2.0;" x1="55" x2="839.8783" y1="1147.5424" y2="1147.5424"/><polygon fill="#000000" points="395.918,1168.2484,405.918,1172.2484,395.918,1176.2484,399.918,1172.2484" style="stroke:#000000;stroke-width:1.0;"/><line style="stroke:#000000;stroke-width:1.0;" x1="116.6638" x2="401.918" y1="1172.2484" y2="1172.2484"/><text fill="#000000" font-family="Hack" font-size="13" lengthAdjust="spacing" textLength="169.7541" x="123.6638" y="1166.4394">&#1048;&#1089;&#1087;&#1086;&#1083;&#1100;&#1079;&#1086;&#1074;&#1072;&#1090;&#1100; &#1072;&#1074;&#1090;&#1086;&#1087;&#1086;&#1076;&#1073;&#1086;&#1088;</text><polygon fill="#000000" points="685.3522,1199.9544,695.3522,1203.9544,685.3522,1207.9544,689.3522,1203.9544" style="stroke:#000000;stroke-width:1.0;"/><line style="stroke:#000000;stroke-width:1.0;" x1="407.918" x2="691.3522" y1="1203.9544" y2="1203.9544"/><text fill="#000000" font-family="Hack" font-size="13" lengthAdjust="spacing" textLength="146.8091" x="414.918" y="1198.1454">&#1047;&#1072;&#1087;&#1088;&#1086;&#1089;&#1080;&#1090;&#1100; &#1072;&#1074;&#1090;&#1086;&#1087;&#1086;&#1076;&#1073;&#1086;&#1088;</text><polygon fill="#000000" points="418.918,1213.9544,408.918,1217.9544,418.918,1221.9544,414.918,1217.9544" style="stroke:#000000;stroke-width:1.0;"/><line style="stroke:#000000;stroke-width:1.0;stroke-dasharray:2.0,2.0;" x1="412.918" x2="696.3522" y1="1217.9544" y2="1217.9544"/><polygon fill="#000000" points="127.6638,1227.9544,117.6638,1231.9544,127.6638,1235.9544,123.6638,1231.9544" style="stroke:#000000;stroke-width:1.0;"/><line style="stroke:#000000;stroke-width:1.0;stroke-dasharray:2.0,2.0;" x1="121.6638" x2="406.918" y1="1231.9544" y2="1231.9544"/><polygon fill="#000000" points="395.918,1280.6604,405.918,1284.6604,395.918,1288.6604,399.918,1284.6604" style="stroke:#000000;stroke-width:1.0;"/><line style="stroke:#000000;stroke-width:1.0;" x1="116.6638" x2="401.918" y1="1284.6604" y2="1284.6604"/><text fill="#000000" font-family="Hack" font-size="13" lengthAdjust="spacing" textLength="221.5202" x="123.6638" y="1278.8514">&#1053;&#1072;&#1078;&#1072;&#1090;&#1100; &#171;&#1044;&#1086;&#1073;&#1072;&#1074;&#1080;&#1090;&#1100; (&#1055;&#1050;) &#1074; &#1082;&#1086;&#1088;&#1079;&#1080;&#1085;&#1091;&#187;</text><polygon fill="#000000" points="685.3522,1312.3665,695.3522,1316.3665,685.3522,1320.3665,689.3522,1316.3665" style="stroke:#000000;stroke-width:1.0;"/><line style="stroke:#000000;stroke-width:1.0;" x1="407.918" x2="691.3522" y1="1316.3665" y2="1316.3665"/><text fill="#000000" font-family="Hack" font-size="13" lengthAdjust="spacing" textLength="197.6782" x="414.918" y="1310.5575">&#1047;&#1072;&#1087;&#1088;&#1086;&#1089;&#1080;&#1090;&#1100; &#1076;&#1086;&#1073;&#1072;&#1074;&#1080;&#1090;&#1100; &#1074; &#1082;&#1086;&#1088;&#1079;&#1080;&#1085;&#1091;</text><polygon fill="#000000" points="1188.9552,1344.0725,1198.9552,1348.0725,1188.9552,1352.0725,1192.9552,1348.0725" style="stroke:#000000;stroke-width:1.0;"/><line style="stroke:#000000;stroke-width:1.0;" x1="697.3522" x2="1194.9552" y1="1348.0725" y2="1348.0725"/><text fill="#000000" font-family="Hack" font-size="13" lengthAdjust="spacing" textLength="106.3141" x="704.3522" y="1342.2635">&#1044;&#1086;&#1073;&#1072;&#1074;&#1080;&#1090;&#1100;(&#1090;&#1086;&#1074;&#1072;&#1088;)</text><polygon fill="#000000" points="708.3522,1358.0725,698.3522,1362.0725,708.3522,1366.0725,704.3522,1362.0725" style="stroke:#000000;stroke-width:1.0;"/><line style="stroke:#000000;stroke-width:1.0;stroke-dasharray:2.0,2.0;" x1="702.3522" x2="1199.9552" y1="1362.0725" y2="1362.0725"/><polygon fill="#000000" points="418.918,1372.0725,408.918,1376.0725,418.918,1380.0725,414.918,1376.0725" style="stroke:#000000;stroke-width:1.0;"/><line style="stroke:#000000;stroke-width:1.0;stroke-dasharray:2.0,2.0;" x1="412.918" x2="696.3522" y1="1376.0725" y2="1376.0725"/><line style="stroke:#000000;stroke-width:1.0;stroke-dasharray:2.0,2.0;" x1="15" x2="1263.138" y1="1392.0725" y2="1392.0725"/><path d="M35,1400.0725 L101.918,1400.0725 L101.918,1409.7785 L91.918,1419.7785 L35,1419.7785 L35,1400.0725 " fill="#FFFFFF" style="stroke:#000000;stroke-width:1.0;"/><rect fill="none" height="847.8943" style="stroke:#000000;stroke-width:1.0;" width="1218.138" x="35" y="1400.0725"/><text fill="#000000" font-family="Hack" font-size="13" font-weight="bold" lengthAdjust="spacing" textLength="21.918" x="50" y="1414.9695">opt</text><path d="M45,1426.7785 L118.288,1426.7785 L118.288,1436.4845 L108.288,1446.4845 L45,1446.4845 L45,1426.7785 " fill="#FFFFFF" style="stroke:#000000;stroke-width:1.0;"/><rect fill="none" height="814.1882" style="stroke:#000000;stroke-width:1.0;" width="1198.138" x="45" y="1426.7785"/><text fill="#000000" font-family="Hack" font-size="13" font-weight="bold" lengthAdjust="spacing" textLength="28.288" x="60" y="1441.6755">loop</text><text fill="#000000" font-family="Hack" font-size="11" font-weight="bold" lengthAdjust="spacing" textLength="204.3455" x="133.288" y="1440.5374">[&#1087;&#1086;&#1082;&#1072; &#1082;&#1086;&#1084;&#1087;&#1083;&#1077;&#1082;&#1090;&#1091;&#1102;&#1097;&#1080;&#1077; &#1085;&#1077; &#1089;&#1086;&#1073;&#1088;&#1072;&#1085;&#1099;]</text><path d="M55,1453.4845 L117.459,1453.4845 L117.459,1463.1905 L107.459,1473.1905 L55,1473.1905 L55,1453.4845 " fill="#FFFFFF" style="stroke:#000000;stroke-width:1.0;"/><rect fill="none" height="544.2461" style="stroke:#000000;stroke-width:1.0;" width="1113.7723" x="55" y="1453.4845"/><text fill="#000000" font-family="Hack" font-size="13" font-weight="bold" lengthAdjust="spacing" textLength="17.459" x="70" y="1468.3815">alt</text><polygon fill="#000000" points="395.918,1492.8965,405.918,1496.8965,395.918,1500.8965,399.918,1496.8965" style="stroke:#000000;stroke-width:1.0;"/><line style="stroke:#000000;stroke-width:1.0;" x1="116.6638" x2="401.918" y1="1496.8965" y2="1496.8965"/><text fill="#000000" font-family="Hack" font-size="13" lengthAdjust="spacing" textLength="267.2542" x="123.6638" y="1491.0875">&#1054;&#1090;&#1082;&#1088;&#1099;&#1090;&#1100; &#171;&#1050;&#1086;&#1084;&#1087;&#1083;&#1077;&#1082;&#1090;&#1091;&#1102;&#1097;&#1080;&#1077; &amp; &#1055;&#1077;&#1088;&#1077;&#1092;&#1077;&#1088;&#1080;&#1103;&#187;</text><polygon fill="#000000" points="685.3522,1524.6026,695.3522,1528.6026,685.3522,1532.6026,689.3522,1528.6026" style="stroke:#000000;stroke-width:1.0;"/><line style="stroke:#000000;stroke-width:1.0;" x1="407.918" x2="691.3522" y1="1528.6026" y2="1528.6026"/><text fill="#000000" font-family="Hack" font-size="13" lengthAdjust="spacing" textLength="222.8462" x="414.918" y="1522.7936">&#1047;&#1072;&#1087;&#1088;&#1086;&#1089;&#1080;&#1090;&#1100; &#1089;&#1087;&#1080;&#1089;&#1086;&#1082; &#1082;&#1086;&#1084;&#1087;&#1083;&#1077;&#1082;&#1090;&#1091;&#1102;&#1097;&#1080;&#1093;</text><polygon fill="#000000" points="418.918,1556.3086,408.918,1560.3086,418.918,1564.3086,414.918,1560.3086" style="stroke:#000000;stroke-width:1.0;"/><line style="stroke:#000000;stroke-width:1.0;stroke-dasharray:2.0,2.0;" x1="412.918" x2="696.3522" y1="1560.3086" y2="1560.3086"/><text fill="#000000" font-family="Hack" font-size="13" lengthAdjust="spacing" textLength="208.0262" x="424.918" y="1554.4996">&#1042;&#1077;&#1088;&#1085;&#1091;&#1090;&#1100; &#1089;&#1087;&#1080;&#1089;&#1086;&#1082; &#1082;&#1086;&#1084;&#1087;&#1083;&#1077;&#1082;&#1090;&#1091;&#1102;&#1097;&#1080;&#1093;</text><line style="stroke:#000000;stroke-width:1.0;stroke-dasharray:2.0,2.0;" x1="55" x2="1168.7723" y1="1569.3086" y2="1569.3086"/><polygon fill="#000000" points="395.918,1590.0146,405.918,1594.0146,395.918,1598.0146,399.918,1594.0146" style="stroke:#000000;stroke-width:1.0;"/><line style="stroke:#000000;stroke-width:1.0;" x1="116.6638" x2="401.918" y1="1594.0146" y2="1594.0146"/><text fill="#000000" font-family="Hack" font-size="13" lengthAdjust="spacing" textLength="168.5972" x="123.6638" y="1588.2056">&#1042;&#1086;&#1089;&#1087;&#1086;&#1083;&#1100;&#1079;&#1086;&#1074;&#1072;&#1090;&#1100;&#1089;&#1103; &#1087;&#1086;&#1080;&#1089;&#1082;&#1086;&#1084;</text><polygon fill="#000000" points="685.3522,1639.4266,695.3522,1643.4266,685.3522,1647.4266,689.3522,1643.4266" style="stroke:#000000;stroke-width:1.0;"/><line style="stroke:#000000;stroke-width:1.0;" x1="407.918" x2="691.3522" y1="1643.4266" y2="1643.4266"/><text fill="#000000" font-family="Hack" font-size="13" lengthAdjust="spacing" textLength="222.8462" x="414.918" y="1619.9116">&#1047;&#1072;&#1087;&#1088;&#1086;&#1089;&#1080;&#1090;&#1100; &#1089;&#1087;&#1080;&#1089;&#1086;&#1082; &#1082;&#1086;&#1084;&#1087;&#1083;&#1077;&#1082;&#1090;&#1091;&#1102;&#1097;&#1080;&#1093;</text><text fill="#000000" font-family="Hack" font-size="13" lengthAdjust="spacing" textLength="148.5251" x="414.918" y="1637.6176">&#1089; &#1087;&#1088;&#1080;&#1084;&#1077;&#1085;&#1077;&#1085;&#1080;&#1077;&#1084; &#1087;&#1086;&#1080;&#1089;&#1082;&#1072;</text><polygon fill="#000000" points="914.5674,1671.1326,924.5674,1675.1326,914.5674,1679.1326,918.5674,1675.1326" style="stroke:#000000;stroke-width:1.0;"/><line style="stroke:#000000;stroke-width:1.0;" x1="697.3522" x2="920.5674" y1="1675.1326" y2="1675.1326"/><text fill="#000000" font-family="Hack" font-size="13" lengthAdjust="spacing" textLength="90.5191" x="704.3522" y="1669.3236">&#1055;&#1086;&#1080;&#1089;&#1082;(&#1079;&#1072;&#1087;&#1088;&#1086;&#1089;)</text><polygon fill="#000000" points="1020.0968,1702.8387,1030.0968,1706.8387,1020.0968,1710.8387,1024.0968,1706.8387" style="stroke:#000000;stroke-width:1.0;"/><line style="stroke:#000000;stroke-width:1.0;" x1="926.5674" x2="1026.0968" y1="1706.8387" y2="1706.8387"/><text fill="#000000" font-family="Hack" font-size="13" lengthAdjust="spacing" textLength="59.007" x="933.5674" y="1701.0297">&#1057;&#1086;&#1079;&#1076;&#1072;&#1090;&#1100;()</text><text fill="#000000" font-family="Hack" font-size="14" lengthAdjust="spacing" textLength="130.6755" x="1022.0968" y="1730.0986">&#1056;&#1077;&#1079;&#1091;&#1083;&#1100;&#1090;&#1072;&#1090;&#1099; &#1087;&#1086;&#1080;&#1089;&#1082;&#1072;</text><ellipse cx="1090.4345" cy="1699.1326" fill="#FFFFFF" rx="12" ry="12" style="stroke:#000000;stroke-width:1.0;"/><line style="stroke:#000000;stroke-width:1.0;" x1="1078.4345" x2="1102.4345" y1="1713.1326" y2="1713.1326"/><polygon fill="#000000" points="937.5674,1746.2006,927.5674,1750.2006,937.5674,1754.2006,933.5674,1750.2006" style="stroke:#000000;stroke-width:1.0;"/><line style="stroke:#000000;stroke-width:1.0;stroke-dasharray:2.0,2.0;" x1="931.5674" x2="1089.4345" y1="1750.2006" y2="1750.2006"/><line style="stroke:#000000;stroke-width:1.0;" x1="926.5674" x2="968.5674" y1="1781.9066" y2="1781.9066"/><line style="stroke:#000000;stroke-width:1.0;" x1="968.5674" x2="968.5674" y1="1781.9066" y2="1794.9066"/><line style="stroke:#000000;stroke-width:1.0;" x1="927.5674" x2="968.5674" y1="1794.9066" y2="1794.9066"/><polygon fill="#000000" points="937.5674,1790.9066,927.5674,1794.9066,937.5674,1798.9066,933.5674,1794.9066" style="stroke:#000000;stroke-width:1.0;"/><text fill="#000000" font-family="Hack" font-size="13" lengthAdjust="spacing" textLength="118.7681" x="933.5674" y="1776.0976">&#1060;&#1080;&#1083;&#1100;&#1090;&#1088;&#1054;&#1073;&#1098;&#1077;&#1082;&#1090;&#1086;&#1074;()</text><polygon fill="#000000" points="1078.4345,1822.6126,1088.4345,1826.6126,1078.4345,1830.6126,1082.4345,1826.6126" style="stroke:#000000;stroke-width:1.0;"/><line style="stroke:#000000;stroke-width:1.0;" x1="926.5674" x2="1084.4345" y1="1826.6126" y2="1826.6126"/><text fill="#000000" font-family="Hack" font-size="13" lengthAdjust="spacing" textLength="139.8671" x="933.5674" y="1820.8036">&#1047;&#1072;&#1087;&#1080;&#1089;&#1072;&#1090;&#1100;&#1056;&#1077;&#1079;&#1091;&#1083;&#1100;&#1090;&#1072;&#1090;&#1099;()</text><polygon fill="#000000" points="937.5674,1836.6126,927.5674,1840.6126,937.5674,1844.6126,933.5674,1840.6126" style="stroke:#000000;stroke-width:1.0;"/><line style="stroke:#000000;stroke-width:1.0;stroke-dasharray:2.0,2.0;" x1="931.5674" x2="1089.4345" y1="1840.6126" y2="1840.6126"/><polygon fill="#000000" points="708.3522,1850.6126,698.3522,1854.6126,708.3522,1858.6126,704.3522,1854.6126" style="stroke:#000000;stroke-width:1.0;"/><line style="stroke:#000000;stroke-width:1.0;stroke-dasharray:2.0,2.0;" x1="702.3522" x2="925.5674" y1="1854.6126" y2="1854.6126"/><line style="stroke:#000000;stroke-width:1.0;" x1="697.3522" x2="739.3522" y1="1886.3186" y2="1886.3186"/><line style="stroke:#000000;stroke-width:1.0;" x1="739.3522" x2="739.3522" y1="1886.3186" y2="1899.3186"/><line style="stroke:#000000;stroke-width:1.0;" x1="698.3522" x2="739.3522" y1="1899.3186" y2="1899.3186"/><polygon fill="#000000" points="708.3522,1895.3186,698.3522,1899.3186,708.3522,1903.3186,704.3522,1899.3186" style="stroke:#000000;stroke-width:1.0;"/><text fill="#000000" font-family="Hack" font-size="13" lengthAdjust="spacing" textLength="215.2152" x="704.3522" y="1880.5096">&#1040;&#1076;&#1072;&#1087;&#1090;&#1080;&#1088;&#1086;&#1074;&#1072;&#1090;&#1100; &#1088;&#1077;&#1079;&#1091;&#1083;&#1100;&#1090;&#1072;&#1090;&#1099; &#1087;&#1086;&#1080;&#1089;&#1082;&#1072;</text><polygon fill="#000000" points="1078.4345,1909.3186,1088.4345,1913.3186,1078.4345,1917.3186,1082.4345,1913.3186" style="stroke:#000000;stroke-width:1.0;"/><line style="stroke:#000000;stroke-width:1.0;" x1="697.3522" x2="1084.4345" y1="1913.3186" y2="1913.3186"/><line style="stroke:#000000;stroke-width:2.0;" x1="1081.4345" x2="1099.4345" y1="1904.3186" y2="1922.3186"/><line style="stroke:#000000;stroke-width:2.0;" x1="1081.4345" x2="1099.4345" y1="1922.3186" y2="1904.3186"/><polygon fill="#000000" points="418.918,1941.0246,408.918,1945.0246,418.918,1949.0246,414.918,1945.0246" style="stroke:#000000;stroke-width:1.0;"/><line style="stroke:#000000;stroke-width:1.0;stroke-dasharray:2.0,2.0;" x1="412.918" x2="696.3522" y1="1945.0246" y2="1945.0246"/><text fill="#000000" font-family="Hack" font-size="13" lengthAdjust="spacing" textLength="208.0262" x="424.918" y="1939.2156">&#1042;&#1077;&#1088;&#1085;&#1091;&#1090;&#1100; &#1089;&#1087;&#1080;&#1089;&#1086;&#1082; &#1082;&#1086;&#1084;&#1087;&#1083;&#1077;&#1082;&#1090;&#1091;&#1102;&#1097;&#1080;&#1093;</text><line style="stroke:#000000;stroke-width:1.0;" x1="407.918" x2="449.918" y1="1976.7306" y2="1976.7306"/><line style="stroke:#000000;stroke-width:1.0;" x1="449.918" x2="449.918" y1="1976.7306" y2="1989.7306"/><line style="stroke:#000000;stroke-width:1.0;" x1="408.918" x2="449.918" y1="1989.7306" y2="1989.7306"/><polygon fill="#000000" points="418.918,1985.7306,408.918,1989.7306,418.918,1993.7306,414.918,1989.7306" style="stroke:#000000;stroke-width:1.0;"/><text fill="#000000" font-family="Hack" font-size="13" lengthAdjust="spacing" textLength="267.2542" x="414.918" y="1970.9216">&#1054;&#1090;&#1082;&#1088;&#1099;&#1090;&#1100; &#171;&#1050;&#1086;&#1084;&#1087;&#1083;&#1077;&#1082;&#1090;&#1091;&#1102;&#1097;&#1080;&#1077; &amp; &#1055;&#1077;&#1088;&#1077;&#1092;&#1077;&#1088;&#1080;&#1103;&#187;</text><polygon fill="#000000" points="127.6638,2024.4367,117.6638,2028.4367,127.6638,2032.4367,123.6638,2028.4367" style="stroke:#000000;stroke-width:1.0;"/><line style="stroke:#000000;stroke-width:1.0;stroke-dasharray:2.0,2.0;" x1="121.6638" x2="406.918" y1="2028.4367" y2="2028.4367"/><text fill="#000000" font-family="Hack" font-size="13" lengthAdjust="spacing" textLength="184.7301" x="133.6638" y="2022.6277">&#1054;&#1090;&#1086;&#1073;&#1088;&#1072;&#1079;&#1080;&#1090;&#1100; &#1082;&#1086;&#1084;&#1087;&#1083;&#1077;&#1082;&#1090;&#1091;&#1102;&#1097;&#1080;&#1077;</text><path d="M55,2043.4367 L117.459,2043.4367 L117.459,2053.1427 L107.459,2063.1427 L55,2063.1427 L55,2043.4367 " fill="#FFFFFF" style="stroke:#000000;stroke-width:1.0;"/><rect fill="none" height="85.118" style="stroke:#000000;stroke-width:1.0;" width="387.418" x="55" y="2043.4367"/><text fill="#000000" font-family="Hack" font-size="13" font-weight="bold" lengthAdjust="spacing" textLength="17.459" x="70" y="2058.3337">alt</text><polygon fill="#000000" points="395.918,2082.8487,405.918,2086.8487,395.918,2090.8487,399.918,2086.8487" style="stroke:#000000;stroke-width:1.0;"/><line style="stroke:#000000;stroke-width:1.0;" x1="116.6638" x2="401.918" y1="2086.8487" y2="2086.8487"/><text fill="#000000" font-family="Hack" font-size="13" lengthAdjust="spacing" textLength="163.3321" x="123.6638" y="2081.0397">&#1042;&#1099;&#1073;&#1088;&#1072;&#1090;&#1100; &#1082;&#1086;&#1084;&#1087;&#1083;&#1077;&#1082;&#1090;&#1091;&#1102;&#1097;&#1077;&#1077;</text><line style="stroke:#000000;stroke-width:1.0;stroke-dasharray:2.0,2.0;" x1="55" x2="442.418" y1="2095.8487" y2="2095.8487"/><polygon fill="#000000" points="395.918,2116.5547,405.918,2120.5547,395.918,2124.5547,399.918,2120.5547" style="stroke:#000000;stroke-width:1.0;"/><line style="stroke:#000000;stroke-width:1.0;" x1="116.6638" x2="401.918" y1="2120.5547" y2="2120.5547"/><text fill="#000000" font-family="Hack" font-size="13" lengthAdjust="spacing" textLength="230.1132" x="123.6638" y="2114.7457">&#1042;&#1099;&#1073;&#1088;&#1072;&#1090;&#1100; &#1087;&#1077;&#1088;&#1077;&#1092;&#1080;&#1088;&#1080;&#1081;&#1085;&#1086;&#1077; &#1091;&#1089;&#1090;&#1088;&#1086;&#1081;&#1089;&#1090;&#1074;&#1086;</text><polygon fill="#000000" points="685.3522,2155.2607,695.3522,2159.2607,685.3522,2163.2607,689.3522,2159.2607" style="stroke:#000000;stroke-width:1.0;"/><line style="stroke:#000000;stroke-width:1.0;" x1="407.918" x2="691.3522" y1="2159.2607" y2="2159.2607"/><text fill="#000000" font-family="Hack" font-size="13" lengthAdjust="spacing" textLength="265.4342" x="414.918" y="2153.4517">&#1047;&#1072;&#1087;&#1088;&#1086;&#1089;&#1080;&#1090;&#1100; &#1087;&#1086;&#1084;&#1077;&#1097;&#1077;&#1085;&#1080;&#1077; &#1074;&#1099;&#1073;&#1086;&#1088;&#1072; &#1074; &#1082;&#1086;&#1088;&#1079;&#1080;&#1085;&#1091;</text><polygon fill="#000000" points="1188.9552,2186.9667,1198.9552,2190.9667,1188.9552,2194.9667,1192.9552,2190.9667" style="stroke:#000000;stroke-width:1.0;"/><line style="stroke:#000000;stroke-width:1.0;" x1="697.3522" x2="1194.9552" y1="2190.9667" y2="2190.9667"/><text fill="#000000" font-family="Hack" font-size="13" lengthAdjust="spacing" textLength="106.3141" x="704.3522" y="2185.1577">&#1044;&#1086;&#1073;&#1072;&#1074;&#1080;&#1090;&#1100;(&#1090;&#1086;&#1074;&#1072;&#1088;)</text><polygon fill="#000000" points="708.3522,2200.9667,698.3522,2204.9667,708.3522,2208.9667,704.3522,2204.9667" style="stroke:#000000;stroke-width:1.0;"/><line style="stroke:#000000;stroke-width:1.0;stroke-dasharray:2.0,2.0;" x1="702.3522" x2="1199.9552" y1="2204.9667" y2="2204.9667"/><polygon fill="#000000" points="418.918,2214.9667,408.918,2218.9667,418.918,2222.9667,414.918,2218.9667" style="stroke:#000000;stroke-width:1.0;"/><line style="stroke:#000000;stroke-width:1.0;stroke-dasharray:2.0,2.0;" x1="412.918" x2="696.3522" y1="2218.9667" y2="2218.9667"/><polygon fill="#000000" points="127.6638,2228.9667,117.6638,2232.9667,127.6638,2236.9667,123.6638,2232.9667" style="stroke:#000000;stroke-width:1.0;"/><line style="stroke:#000000;stroke-width:1.0;stroke-dasharray:2.0,2.0;" x1="121.6638" x2="406.918" y1="2232.9667" y2="2232.9667"/><!--SRC=[hLVBJjj05DtFLmmige343x3ebrIg0bYbQeXJsn5Y1wGisY2eKALMIAL5wgwRq2RaXMs9BvZvevvxnsyxJgXOX0ZcFiuzzycQjsyTMFB0Rjj2YEQkPpjoNVrGWPhhSpN6znyrqATgHB-lowOhkwxbY1sxszvhEaUGlLK3DTMd_7PexOXTk-qvTejV9lg4TH_KWD_T8zUp3eJLzjvwHv4VoAYPURMQpkv- -leJccFT8y-m0XIwBrKOgyGcMUcrOxdTbfVgNgj07mF_HFcHu4xJVMTvGX1-kVMIi6vBTGFBCtsi-x1-Bc6NWn6TfYCWG786CqI_uYs4qG1IarWyP321caaW2X1egEQ0FODPK2UCijnA_Dqkqx1QhlLar_o6MCV8Lg2694CPmsUw14ATfjNU4p6KAhOUVyFM7HEDR4Xay_fnRXIWmNKYtZXsjuCalQydljgKi3kUQBPAIRlIVNK7qO6XuXJuGzOfE6SkQtNLN_Xaul7dQIaZOhLC474Z_F4UG1xmswYSsa4v3rUiu-jUQkO-RwP0FWZokI4dcRZpCWoFcXUI2RmvnQZxHN8ekuQXbcrt96AOwqi99aw0uYnHvAfSb8d5_ig54nZUgIaDzm_WnjSNXPoiG7cHNL1ueJ-2ZP6P3yCKHSnwnjvDXEEEeulgO9mwULhJnhxrMOxVHJ4lH1uHc_4vv4QCy55zSdyaNj84C8-LzA_8Vx7rSf78wZxwnXEei2R8wW1OoHad8ekvFgLLQlb45EgN2pZ-5C1zXxdx2116onUAdJn4pXeKv0P8vNp4UqBtukbLZtHOi5OoaoawitHWfm2XOVeA48ytX17YqA85MGWyswlKY5734bMSiffsyF63AzVatiSOgEhZqZI-NcZo1PK8ZQcH_i3V4tsv4d6rspBJHii7vKfcggS_uwceMnmgbzdZ0bQVBwHNRNrYLkqaQbPkM3gCSWTDTbhnMRCjqnEfaPrH6y88fABH1IGtDtbu190Ucj0QiN0iifKebQn0znU0ySK5JpGgFwN7IMEXssGL45JsMdMzhOAat0IP37occC01DX_VBV7GeMgiFHL5YTeOmjgQUBQAMt8iFRcdCXVOVwyLxlRQ4wXQTqIwAnnGOO9xmlKzvHi5GwT7jpzdQSh_1U2-5BcJicx6Xenfn3XyCycI3KWJhpHodttcbe-bPDVy0m00]--></g></svg>