<svg xmlns="http://www.w3.org/2000/svg" xmlns:xlink="http://www.w3.org/1999/xlink" contentStyleType="text/css" height="904px" preserveAspectRatio="none" style="width:578px;height:904px;background:#FFFFFF;" version="1.1" viewBox="0 0 578 904" width="578px" zoomAndPan="magnify"><defs/><g><path d="M24.5,91 L552.8841,91 A12.5,12.5 0 0 1 565.3841,103.5 L565.3841,120.0679 L12,120.0679 L12,103.5 A12.5,12.5 0 0 1 24.5,91 " fill="#FFFFFF" style="stroke:#FFFFFF;stroke-width:1.0;"/><path d="M12,120.0679 L565.3841,120.0679 L565.3841,878.5679 A12.5,12.5 0 0 1 552.8841,891.0679 L24.5,891.0679 A12.5,12.5 0 0 1 12,878.5679 L12,120.0679 " fill="#FFFFFF" style="stroke:#FFFFFF;stroke-width:1.0;"/><rect fill="none" height="800.0679" rx="12.5" ry="12.5" style="stroke:#000000;stroke-width:1.0;" width="553.3841" x="12" y="91"/><line style="stroke:#000000;stroke-width:1.0;" x1="12" x2="565.3841" y1="120.0679" y2="120.0679"/><text fill="#000000" font-family="Hack" font-size="14" lengthAdjust="spacing" textLength="121.1415" x="228.1213" y="110.9659">&#1057;&#1086;&#1089;&#1090;&#1086;&#1103;&#1085;&#1080;&#1077; &#1079;&#1072;&#1082;&#1072;&#1079;&#1072;</text><g id="OrderState.Created"><rect fill="#FFFFFF" height="50" rx="12.5" ry="12.5" style="stroke:#000000;stroke-width:1.0;" width="93.5137" x="377.5" y="188.0679"/><line style="stroke:#000000;stroke-width:1.0;" x1="377.5" x2="471.0137" y1="217.1358" y2="217.1358"/><text fill="#000000" font-family="Hack" font-size="14" lengthAdjust="spacing" textLength="73.5137" x="387.5" y="208.0339">&#1054;&#1092;&#1086;&#1088;&#1084;&#1083;&#1077;&#1085;</text></g><g id="OrderState.Ordered"><rect fill="#FFFFFF" height="50" rx="12.5" ry="12.5" style="stroke:#000000;stroke-width:1.0;" width="91.3297" x="316" y="293.0679"/><line style="stroke:#000000;stroke-width:1.0;" x1="316" x2="407.3297" y1="322.1358" y2="322.1358"/><text fill="#000000" font-family="Hack" font-size="14" lengthAdjust="spacing" textLength="71.3297" x="326" y="313.0339">&#1042; &#1086;&#1095;&#1077;&#1088;&#1077;&#1076;&#1080;</text></g><g id="OrderState.Built"><rect fill="#FFFFFF" height="50" rx="12.5" ry="12.5" style="stroke:#000000;stroke-width:1.0;" width="71.0858" x="276" y="398.0679"/><line style="stroke:#000000;stroke-width:1.0;" x1="276" x2="347.0858" y1="427.1358" y2="427.1358"/><text fill="#000000" font-family="Hack" font-size="14" lengthAdjust="spacing" textLength="51.0858" x="286" y="418.0339">&#1057;&#1086;&#1073;&#1088;&#1072;&#1085;</text></g><g id="OrderState.Sent"><rect fill="#FFFFFF" height="50" rx="12.5" ry="12.5" style="stroke:#000000;stroke-width:1.0;" width="95.7677" x="175.5" y="503.0679"/><line style="stroke:#000000;stroke-width:1.0;" x1="175.5" x2="271.2677" y1="532.1358" y2="532.1358"/><text fill="#000000" font-family="Hack" font-size="14" lengthAdjust="spacing" textLength="75.7677" x="185.5" y="523.0339">&#1054;&#1090;&#1087;&#1088;&#1072;&#1074;&#1083;&#1077;&#1085;</text></g><g id="OrderState.Done"><rect fill="#FFFFFF" height="50" rx="12.5" ry="12.5" style="stroke:#000000;stroke-width:1.0;" width="91.0217" x="24" y="608.0679"/><line style="stroke:#000000;stroke-width:1.0;" x1="24" x2="115.0217" y1="637.1358" y2="637.1358"/><text fill="#000000" font-family="Hack" font-size="14" lengthAdjust="spacing" textLength="71.0217" x="34" y="628.0339">&#1042;&#1099;&#1087;&#1086;&#1083;&#1085;&#1077;&#1085;</text></g><g id="OrderState.Canceled"><rect fill="#FFFFFF" height="50" rx="12.5" ry="12.5" style="stroke:#000000;stroke-width:1.0;" width="81.6698" x="317.5" y="608.0679"/><line style="stroke:#000000;stroke-width:1.0;" x1="317.5" x2="399.1698" y1="637.1358" y2="637.1358"/><text fill="#000000" font-family="Hack" font-size="14" lengthAdjust="spacing" textLength="61.6698" x="327.5" y="628.0339">&#1054;&#1090;&#1084;&#1077;&#1085;&#1105;&#1085;</text></g><ellipse cx="424.5" cy="141.0679" fill="#FFFFFF" rx="10" ry="10" style="stroke:#000000;stroke-width:1.0;"/><!--link *start*OrderState to Created--><g id="link_*start*OrderState_Created"><path d="M424.5,151.2179 C424.5,160.4879 424.5,169.2079 424.5,181.8479 " fill="none" id="*start*OrderState-to-Created" style="stroke:#000000;stroke-width:1.0;"/><polygon fill="#000000" points="424.5,187.8479,428.5,178.8479,424.5,182.8479,420.5,178.8479,424.5,187.8479" style="stroke:#000000;stroke-width:1.0;"/></g><!--link Created to Ordered--><g id="link_Created_Ordered"><path d="M377.65,238.1579 C371.59,243.2579 366.21,249.2079 362.5,256.0679 C356.5,267.1579 355.3465,275.1408 356.3765,286.9008 " fill="none" id="Created-to-Ordered" style="stroke:#000000;stroke-width:1.0;"/><polygon fill="#000000" points="356.9,292.8779,360.0995,283.5632,356.4637,287.897,352.13,284.2612,356.9,292.8779" style="stroke:#000000;stroke-width:1.0;"/><text fill="#000000" font-family="Hack" font-size="13" lengthAdjust="spacing" textLength="110.8901" x="363.5" y="270.9649">&#1053;&#1072;&#1095;&#1072;&#1083;&#1080; &#1089;&#1086;&#1073;&#1080;&#1088;&#1072;&#1090;&#1100;</text></g><!--link Ordered to Built--><g id="link_Ordered_Built"><path d="M345.62,343.0779 C342.08,348.8479 338.5,355.0879 335.5,361.0679 C329.59,372.8679 326.1861,380.8723 321.9661,392.2523 " fill="none" id="Ordered-to-Built" style="stroke:#000000;stroke-width:1.0;"/><polygon fill="#000000" points="319.88,397.8779,326.7596,390.8302,321.6185,393.1899,319.2588,388.0487,319.88,397.8779" style="stroke:#000000;stroke-width:1.0;"/><text fill="#000000" font-family="Hack" font-size="13" lengthAdjust="spacing" textLength="55.029" x="336.5" y="375.9649">&#1057;&#1086;&#1073;&#1088;&#1072;&#1083;&#1080;</text></g><!--link Built to Sent--><g id="link_Built_Sent"><path d="M275.79,431.7879 C257.13,437.8079 235.88,448.2579 224.5,466.0679 C217.66,476.7779 216.3897,484.8801 217.6297,496.8101 " fill="none" id="Built-to-Sent" style="stroke:#000000;stroke-width:1.0;"/><polygon fill="#000000" points="218.25,502.7779,221.2981,493.4126,217.7331,497.8047,213.341,494.2397,218.25,502.7779" style="stroke:#000000;stroke-width:1.0;"/><text fill="#000000" font-family="Hack" font-size="13" lengthAdjust="spacing" textLength="71.4611" x="225.5" y="480.9649">&#1054;&#1090;&#1087;&#1088;&#1072;&#1074;&#1080;&#1083;&#1080;</text></g><!--link Sent to Done--><g id="link_Sent_Done"><path d="M175.35,530.9779 C144.22,534.8279 105.22,545.0279 81.5,571.0679 C72.49,580.9579 69.7751,589.6003 68.9751,602.0403 " fill="none" id="Sent-to-Done" style="stroke:#000000;stroke-width:1.0;"/><polygon fill="#000000" points="68.59,608.0279,73.1593,599.3032,68.9109,603.0382,65.1758,598.7898,68.59,608.0279" style="stroke:#000000;stroke-width:1.0;"/><text fill="#000000" font-family="Hack" font-size="13" lengthAdjust="spacing" textLength="135.4861" x="82.5" y="585.9649">&#1047;&#1072;&#1074;&#1077;&#1088;&#1096;&#1080;&#1083;&#1080; &#1086;&#1090;&#1087;&#1088;&#1072;&#1074;&#1082;&#1091;</text></g><!--link Created to Canceled--><g id="link_Created_Canceled"><path d="M459.28,238.1079 C465.06,243.4479 470.48,249.4879 474.5,256.0679 C489.01,279.7979 488.5,289.2479 488.5,317.0679 C488.5,317.0679 488.5,317.0679 488.5,529.0679 C488.5,575.1379 443.2997,601.6518 405.2097,616.7118 " fill="none" id="Created-to-Canceled" style="stroke:#000000;stroke-width:1.0;"/><polygon fill="#000000" points="399.63,618.9179,409.4703,619.3286,404.2798,617.0795,406.5288,611.889,399.63,618.9179" style="stroke:#000000;stroke-width:1.0;"/><text fill="#000000" font-family="Hack" font-size="13" lengthAdjust="spacing" textLength="65.8841" x="489.5" y="428.4649">&#1054;&#1090;&#1084;&#1077;&#1085;&#1080;&#1083;&#1080;</text></g><!--link Ordered to Canceled--><g id="link_Ordered_Canceled"><path d="M383.36,343.3679 C387.12,348.8379 390.46,354.8679 392.5,361.0679 C405.84,401.5979 401.11,511.2779 392.5,553.0679 C388.52,572.3679 382.3185,587.4141 374.6085,602.6541 " fill="none" id="Ordered-to-Canceled" style="stroke:#000000;stroke-width:1.0;"/><polygon fill="#000000" points="371.9,608.0079,379.5321,601.7828,374.1571,603.5464,372.3936,598.1714,371.9,608.0079" style="stroke:#000000;stroke-width:1.0;"/><text fill="#000000" font-family="Hack" font-size="13" lengthAdjust="spacing" textLength="65.8841" x="401.5" y="480.9649">&#1054;&#1090;&#1084;&#1077;&#1085;&#1080;&#1083;&#1080;</text></g><!--link Built to Canceled--><g id="link_Built_Canceled"><path d="M312.06,448.2079 C313.14,474.4079 316.29,517.2879 325.5,553.0679 C330.39,572.0679 336.4537,587.0497 343.6637,602.3597 " fill="none" id="Built-to-Canceled" style="stroke:#000000;stroke-width:1.0;"/><polygon fill="#000000" points="346.22,607.7879,346.0043,597.9414,344.0897,603.2644,338.7667,601.3498,346.22,607.7879" style="stroke:#000000;stroke-width:1.0;"/><text fill="#000000" font-family="Hack" font-size="13" lengthAdjust="spacing" textLength="65.8841" x="326.5" y="533.4649">&#1054;&#1090;&#1084;&#1077;&#1085;&#1080;&#1083;&#1080;</text></g><!--link Sent to Canceled--><g id="link_Sent_Canceled"><path d="M220.5,553.1279 C220.28,565.4279 222.21,579.9079 230.5,590.0679 C251.49,615.8079 282.6237,625.1167 311.4937,629.0067 " fill="none" id="Sent-to-Canceled" style="stroke:#000000;stroke-width:1.0;"/><polygon fill="#000000" points="317.44,629.8079,309.0547,624.6419,312.4848,629.1402,307.9865,632.5703,317.44,629.8079" style="stroke:#000000;stroke-width:1.0;"/><text fill="#000000" font-family="Hack" font-size="13" lengthAdjust="spacing" textLength="65.8841" x="231.5" y="585.9649">&#1054;&#1090;&#1084;&#1077;&#1085;&#1080;&#1083;&#1080;</text></g><line style="stroke:#000000;stroke-width:1.5;stroke-dasharray:8.0,10.0;" x1="17" x2="558.3841" y1="663.0679" y2="663.0679"/><g id="OrderState.CONC19.NotPayed"><rect fill="#FFFFFF" height="50" rx="12.5" ry="12.5" style="stroke:#000000;stroke-width:1.0;" width="100.4577" x="137.5" y="726.0679"/><line style="stroke:#000000;stroke-width:1.0;" x1="137.5" x2="237.9577" y1="755.1358" y2="755.1358"/><text fill="#000000" font-family="Hack" font-size="14" lengthAdjust="spacing" textLength="80.4577" x="147.5" y="746.0339">&#1053;&#1077; &#1086;&#1087;&#1083;&#1072;&#1095;&#1077;&#1085;</text></g><g id="OrderState.CONC19.CardPayed"><rect fill="#FFFFFF" height="50" rx="12.5" ry="12.5" style="stroke:#000000;stroke-width:1.0;" width="132.6576" x="24" y="831.0679"/><line style="stroke:#000000;stroke-width:1.0;" x1="24" x2="156.6576" y1="860.1358" y2="860.1358"/><text fill="#000000" font-family="Hack" font-size="14" lengthAdjust="spacing" textLength="112.6576" x="34" y="851.0339">&#1054;&#1087;&#1083;&#1072;&#1095;&#1077;&#1085; &#1082;&#1072;&#1088;&#1090;&#1086;&#1081;</text></g><g id="OrderState.CONC19.CashPayed"><rect fill="#FFFFFF" height="50" rx="12.5" ry="12.5" style="stroke:#000000;stroke-width:1.0;" width="166.3554" x="201.5" y="831.0679"/><line style="stroke:#000000;stroke-width:1.0;" x1="201.5" x2="367.8554" y1="860.1358" y2="860.1358"/><text fill="#000000" font-family="Hack" font-size="14" lengthAdjust="spacing" textLength="146.3554" x="211.5" y="851.0339">&#1054;&#1087;&#1083;&#1072;&#1095;&#1077;&#1085; &#1085;&#1072;&#1083;&#1080;&#1095;&#1085;&#1099;&#1084;&#1080;</text></g><ellipse cx="187.5" cy="679.0679" fill="#FFFFFF" rx="10" ry="10" style="stroke:#000000;stroke-width:1.0;"/><!--link *start*CONC19 to NotPayed--><g id="link_*start*CONC19_NotPayed"><path d="M187.5,689.2179 C187.5,698.4879 187.5,707.2079 187.5,719.8479 " fill="none" id="*start*CONC19-to-NotPayed" style="stroke:#000000;stroke-width:1.0;"/><polygon fill="#000000" points="187.5,725.8479,191.5,716.8479,187.5,720.8479,183.5,716.8479,187.5,725.8479" style="stroke:#000000;stroke-width:1.0;"/></g><!--link NotPayed to CardPayed--><g id="link_NotPayed_CardPayed"><path d="M137.5,762.1579 C119.97,768.3379 102.04,778.2479 91.5,794.0679 C84.4,804.7379 83.1301,812.9843 84.4601,825.0043 " fill="none" id="NotPayed-to-CardPayed" style="stroke:#000000;stroke-width:1.0;"/><polygon fill="#000000" points="85.12,830.9679,88.1059,821.5826,84.5701,825.9982,80.1545,822.4624,85.12,830.9679" style="stroke:#000000;stroke-width:1.0;"/><text fill="#000000" font-family="Hack" font-size="13" lengthAdjust="spacing" textLength="169.5072" x="92.5" y="808.9649">&#1042;&#1099;&#1087;&#1086;&#1083;&#1085;&#1080;&#1083;&#1080; &#1086;&#1087;&#1083;&#1072;&#1090;&#1091; &#1082;&#1072;&#1088;&#1090;&#1086;&#1081;</text></g><!--link NotPayed to CashPayed--><g id="link_NotPayed_CashPayed"><path d="M237.66,773.5079 C246.83,779.1579 255.65,785.9879 262.5,794.0679 C271.38,804.5479 275.244,813.0905 278.484,825.2405 " fill="none" id="NotPayed-to-CashPayed" style="stroke:#000000;stroke-width:1.0;"/><polygon fill="#000000" points="280.03,831.0379,281.576,821.3112,278.7417,826.2067,273.8461,823.3725,280.03,831.0379" style="stroke:#000000;stroke-width:1.0;"/><text fill="#000000" font-family="Hack" font-size="13" lengthAdjust="spacing" textLength="200.7982" x="274.5" y="808.9649">&#1042;&#1099;&#1087;&#1086;&#1083;&#1085;&#1080;&#1083;&#1080; &#1086;&#1087;&#1083;&#1072;&#1090;&#1091; &#1085;&#1072;&#1083;&#1080;&#1095;&#1085;&#1099;&#1084;&#1080;</text></g><ellipse cx="288.5" cy="21" fill="#FFFFFF" rx="10" ry="10" style="stroke:#000000;stroke-width:1.0;"/><!--link *start* to OrderState--><g id="link_*start*_OrderState"><path d="M288.5,31.35 C288.5,42.69 288.5,57.67 288.5,84.66 " fill="none" id="*start*-to-OrderState" style="stroke:#000000;stroke-width:1.0;"/><polygon fill="#000000" points="288.5,90.66,292.5,81.66,288.5,85.66,284.5,81.66,288.5,90.66" style="stroke:#000000;stroke-width:1.0;"/></g><!--SRC=[ZPF1IiD048Rl-nHhZq9Um8C7wrc57iL3C0iLsWIIU10HR2eeA8YzU6h1DuXYC3PD-mgpR-JiPBV9fc8DD6qwtypy_yva9-wBeU33m0yONb7ine9tu0sMSYGJl3z32Jba7BuWXJb-yBl3tOWVXvu8UyHVCuwNoPt9EyoxXGKKa459S3SK6FGiRi8HkuSCqGm-8Q-hja0K0-z8fRhOmUN586wrJ615n4UZQK_uDZQHZx32OWLwCj1Xu8kDMWiLbYz6lEkVYu4IHI3TJdVFkEFiMyRqR_fV-zZZC8KKNQRODETofAn0hgJAH3vHcaOfZQnXKcqPquYY237A5Y9Dp_aQKq6Yb2-aNYcEPomVAaeTUfqubsEseTturKteC1ejcdgteBNeBU1QzXySWOxZC6jSKxMRInnhGUTindeKn2VkLMkHPasCgst6Sy4bXsyzvz3RcbHMCy774hTfeTUswqRzAjNQ3ak5UT0-TIyqsbnBCoFTD95ZIoV_hP9k_OzA6-BP3MD6RFr2iny0]--></g></svg>